<svg xmlns="http://www.w3.org/2000/svg" xmlns:xlink="http://www.w3.org/1999/xlink" version="1.1" width="256" height="256" viewBox="0 0 256 256" xml:space="preserve">
<desc>Created with Fabric.js 1.7.22</desc>
<defs>
</defs>
<g transform="translate(128 128) scale(0.72 0.72)" style="">
	<g style="stroke: none; stroke-width: 0; stroke-dasharray: none; stroke-linecap: butt; stroke-linejoin: miter; stroke-miterlimit: 10; fill: none; fill-rule: nonzero; opacity: 1;" transform="translate(-175.05 -175.05000000000004) scale(3.89 3.89)" >
	<path d="M 80.397 90 H 65.818 c -0.385 0 -0.735 -0.221 -0.901 -0.567 c -1.164 -2.427 -3.553 -3.934 -6.232 -3.934 s -5.068 1.508 -6.233 3.934 C 52.285 89.779 51.935 90 51.55 90 h -13.1 c -0.385 0 -0.735 -0.221 -0.901 -0.567 c -1.165 -2.427 -3.553 -3.934 -6.233 -3.934 s -5.068 1.507 -6.233 3.934 C 24.917 89.779 24.566 90 24.181 90 H 9.602 c -0.552 0 -1 -0.447 -1 -1 V 1 c 0 -0.552 0.448 -1 1 -1 h 70.795 c 0.553 0 1 0.448 1 1 v 88 C 81.397 89.553 80.95 90 80.397 90 z M 66.422 88 h 12.976 V 2 H 10.602 v 86 h 12.976 c 1.577 -2.754 4.547 -4.501 7.738 -4.501 s 6.161 1.747 7.738 4.501 h 11.893 c 1.578 -2.754 4.549 -4.501 7.738 -4.501 C 61.875 83.499 64.845 85.246 66.422 88 z" style="stroke: none; stroke-width: 1; stroke-dasharray: none; stroke-linecap: butt; stroke-linejoin: miter; stroke-miterlimit: 10; fill: rgb(0,0,0); fill-rule: nonzero; opacity: 1;" transform=" matrix(1 0 0 1 0 0) " stroke-linecap="round" />
	<path d="M 26.591 40.435 h -3.245 c -0.552 0 -1 -0.448 -1 -1 s 0.448 -1 1 -1 h 3.245 c 0.552 0 1 0.448 1 1 S 27.143 40.435 26.591 40.435 z" style="stroke: none; stroke-width: 1; stroke-dasharray: none; stroke-linecap: butt; stroke-linejoin: miter; stroke-miterlimit: 10; fill: rgb(0,0,0); fill-rule: nonzero; opacity: 1;" transform=" matrix(1 0 0 1 0 0) " stroke-linecap="round" />
	<path d="M 66.654 40.435 H 33.346 c -0.552 0 -1 -0.448 -1 -1 s 0.448 -1 1 -1 h 33.308 c 0.553 0 1 0.448 1 1 S 67.207 40.435 66.654 40.435 z" style="stroke: none; stroke-width: 1; stroke-dasharray: none; stroke-linecap: butt; stroke-linejoin: miter; stroke-miterlimit: 10; fill: rgb(0,0,0); fill-rule: nonzero; opacity: 1;" transform=" matrix(1 0 0 1 0 0) " stroke-linecap="round" />
	<path d="M 26.591 50.436 h -3.245 c -0.552 0 -1 -0.447 -1 -1 s 0.448 -1 1 -1 h 3.245 c 0.552 0 1 0.447 1 1 S 27.143 50.436 26.591 50.436 z" style="stroke: none; stroke-width: 1; stroke-dasharray: none; stroke-linecap: butt; stroke-linejoin: miter; stroke-miterlimit: 10; fill: rgb(0,0,0); fill-rule: nonzero; opacity: 1;" transform=" matrix(1 0 0 1 0 0) " stroke-linecap="round" />
	<path d="M 66.654 50.436 H 33.346 c -0.552 0 -1 -0.447 -1 -1 s 0.448 -1 1 -1 h 33.308 c 0.553 0 1 0.447 1 1 S 67.207 50.436 66.654 50.436 z" style="stroke: none; stroke-width: 1; stroke-dasharray: none; stroke-linecap: butt; stroke-linejoin: miter; stroke-miterlimit: 10; fill: rgb(0,0,0); fill-rule: nonzero; opacity: 1;" transform=" matrix(1 0 0 1 0 0) " stroke-linecap="round" />
	<path d="M 26.591 60.436 h -3.245 c -0.552 0 -1 -0.447 -1 -1 s 0.448 -1 1 -1 h 3.245 c 0.552 0 1 0.447 1 1 S 27.143 60.436 26.591 60.436 z" style="stroke: none; stroke-width: 1; stroke-dasharray: none; stroke-linecap: butt; stroke-linejoin: miter; stroke-miterlimit: 10; fill: rgb(0,0,0); fill-rule: nonzero; opacity: 1;" transform=" matrix(1 0 0 1 0 0) " stroke-linecap="round" />
	<path d="M 66.654 60.436 H 33.346 c -0.552 0 -1 -0.447 -1 -1 s 0.448 -1 1 -1 h 33.308 c 0.553 0 1 0.447 1 1 S 67.207 60.436 66.654 60.436 z" style="stroke: none; stroke-width: 1; stroke-dasharray: none; stroke-linecap: butt; stroke-linejoin: miter; stroke-miterlimit: 10; fill: rgb(0,0,0); fill-rule: nonzero; opacity: 1;" transform=" matrix(1 0 0 1 0 0) " stroke-linecap="round" />
	<path d="M 66.654 70.436 H 56.226 c -0.553 0 -1 -0.447 -1 -1 s 0.447 -1 1 -1 h 10.429 c 0.553 0 1 0.447 1 1 S 67.207 70.436 66.654 70.436 z" style="stroke: none; stroke-width: 1; stroke-dasharray: none; stroke-linecap: butt; stroke-linejoin: miter; stroke-miterlimit: 10; fill: rgb(0,0,0); fill-rule: nonzero; opacity: 1;" transform=" matrix(1 0 0 1 0 0) " stroke-linecap="round" />
	<path d="M 49.472 22.576 c -0.553 0 -1 -0.448 -1 -1 c 0 -0.687 -0.559 -1.245 -1.244 -1.245 c -0.553 0 -1 -0.448 -1 -1 s 0.447 -1 1 -1 c 1.789 0 3.244 1.456 3.244 3.245 C 50.472 22.128 50.024 22.576 49.472 22.576 z" style="stroke: none; stroke-width: 1; stroke-dasharray: none; stroke-linecap: butt; stroke-linejoin: miter; stroke-miterlimit: 10; fill: rgb(0,0,0); fill-rule: nonzero; opacity: 1;" transform=" matrix(1 0 0 1 0 0) " stroke-linecap="round" />
	<path d="M 45 12.385 c -0.552 0 -1 -0.448 -1 -1 v -2.78 c 0 -0.552 0.448 -1 1 -1 s 1 0.448 1 1 v 2.78 C 46 11.938 45.552 12.385 45 12.385 z" style="stroke: none; stroke-width: 1; stroke-dasharray: none; stroke-linecap: butt; stroke-linejoin: miter; stroke-miterlimit: 10; fill: rgb(0,0,0); fill-rule: nonzero; opacity: 1;" transform=" matrix(1 0 0 1 0 0) " stroke-linecap="round" />
	<path d="M 47.228 20.331 h -4.455 c -1.79 0 -3.245 -1.456 -3.245 -3.245 V 13.63 c 0 -1.79 1.456 -3.245 3.245 -3.245 h 4.455 c 1.789 0 3.244 1.456 3.244 3.245 c 0 0.552 -0.447 1 -1 1 s -1 -0.448 -1 -1 c 0 -0.687 -0.559 -1.245 -1.244 -1.245 h -4.455 c -0.687 0 -1.245 0.559 -1.245 1.245 v 3.456 c 0 0.687 0.559 1.245 1.245 1.245 h 4.455 c 0.553 0 1 0.448 1 1 S 47.78 20.331 47.228 20.331 z" style="stroke: none; stroke-width: 1; stroke-dasharray: none; stroke-linecap: butt; stroke-linejoin: miter; stroke-miterlimit: 10; fill: rgb(0,0,0); fill-rule: nonzero; opacity: 1;" transform=" matrix(1 0 0 1 0 0) " stroke-linecap="round" />
	<path d="M 45 31.058 c -0.552 0 -1 -0.448 -1 -1 v -2.781 c 0 -0.552 0.448 -1 1 -1 s 1 0.448 1 1 v 2.781 C 46 30.61 45.552 31.058 45 31.058 z" style="stroke: none; stroke-width: 1; stroke-dasharray: none; stroke-linecap: butt; stroke-linejoin: miter; stroke-miterlimit: 10; fill: rgb(0,0,0); fill-rule: nonzero; opacity: 1;" transform=" matrix(1 0 0 1 0 0) " stroke-linecap="round" />
	<path d="M 47.228 28.277 h -4.455 c -1.79 0 -3.245 -1.456 -3.245 -3.245 c 0 -0.552 0.448 -1 1 -1 s 1 0.448 1 1 c 0 0.687 0.559 1.245 1.245 1.245 h 4.455 c 0.686 0 1.244 -0.558 1.244 -1.245 v -3.456 c 0 -0.552 0.447 -1 1 -1 s 1 0.448 1 1 v 3.456 C 50.472 26.821 49.017 28.277 47.228 28.277 z" style="stroke: none; stroke-width: 1; stroke-dasharray: none; stroke-linecap: butt; stroke-linejoin: miter; stroke-miterlimit: 10; fill: rgb(0,0,0); fill-rule: nonzero; opacity: 1;" transform=" matrix(1 0 0 1 0 0) " stroke-linecap="round" />
</g>
</g>
</svg>