<svg id="svg15" xmlns="http://www.w3.org/2000/svg" xmlns:xlink="http://www.w3.org/1999/xlink" viewBox="0 0 822.86 258.75"><defs><style>.cls-1{fill:url(#Gradiente_sem_nome);}</style><linearGradient id="Gradiente_sem_nome" x1="9982.46" y1="-1291.8" x2="9982.46" y2="-2613.32" gradientTransform="matrix(0.24, 0, 0, -0.24, -2310.95, -296.24)" gradientUnits="userSpaceOnUse"><stop offset="0" stop-color="#fe8464"/><stop offset="1" stop-color="#fe6e9a"/></linearGradient></defs><path id="path93" class="cls-1" d="M110.64,18a36.87,36.87,0,0,0-2.72,3c-3.7,4.28-6.49,7.61-10.18,12.09l-.61.74.34.44,3.65,4.24c1.81,2.09,4.66,5.43,6.34,7.41s3.08,3.62,3.13,3.64a27.85,27.85,0,0,0,2-2.22l5.88-6.85,4.82-5.62.85-1-1.95-2.32C113.25,20.92,110.84,18.09,110.64,18Zm-23.07,28a11.58,11.58,0,0,0-1.11,1.35c-3.56,4.66-6.61,8.7-8.08,10.69l-1.7,2.3.93.94c.51.52,3.64,3.78,6.94,7.25l6,6.31,2-2.64c3-3.89,4.28-5.56,6.64-8.49,1.17-1.45,2.1-2.69,2.09-2.74C101.19,60.69,87.76,46.05,87.57,46.05Zm46.46,0c-.05,0-2.09,2.08-4.53,4.66C125.44,55,120.17,60.78,120.09,61a7.07,7.07,0,0,0,.87,1.24c.5.62,2.81,3.57,5.14,6.56s4.35,5.58,4.5,5.74l.26.3,5.49-5.73c3-3.16,6.17-6.41,7-7.24,1.12-1.11,1.48-1.54,1.42-1.66C144.57,59.84,134.18,46.12,134,46.06ZM110.61,71.67s-1.18,1.33-2.52,3c-8,9.71-8.47,10.26-8.38,10.4s1.4,1.65,3,3.5c2.42,2.8,4.23,4.94,7.52,8.89a3.25,3.25,0,0,0,.39.41s1.18-1.36,2.58-3c2.38-2.83,7.46-8.81,8.13-9.57l.3-.34L119.27,82C115.84,77.7,110.75,71.66,110.61,71.67Zm-44.3,3s-.73,1-1.53,2.13c-3,4.34-6.92,10.35-6.92,10.59,0,.05,1,1,2.16,2.09l7.11,6.67c2.72,2.58,5,4.69,5,4.68s1-1.38,2.09-3.06,3-4.55,4.3-6.37l2.26-3.3-.59-.6C77.34,84.63,66.55,74.66,66.31,74.66Zm88.58,0s-.84.69-1.79,1.53c-4.19,3.68-12.61,11.64-12.61,11.92,0,0,1.5,2.27,3.32,4.93l4.24,6.24c.5.76.95,1.43,1,1.48a19.37,19.37,0,0,0,2.36-2.12c3.82-3.74,9.19-8.76,11.36-10.62a6,6,0,0,0,.65-.62C163.44,87.2,155,74.65,154.89,74.66ZM90.24,97.31a16.94,16.94,0,0,0-1.74,2.11c-3.86,5.08-7.43,10-7.38,10.23S92.55,122.07,92.6,122l1.32-1.88c1.51-2.15,3.51-4.88,6-8.24,1-1.33,1.83-2.48,1.86-2.56S90.57,97.38,90.24,97.31Zm41.14,0a10.43,10.43,0,0,0-1.51,1.31c-2.94,2.81-10.32,10.41-10.32,10.63,0,0,.6.87,1.33,1.86s2.8,3.83,4.61,6.33,3.33,4.54,3.39,4.54,2.7-2.8,5.87-6.2l5.77-6.18-3-4.13C134,100.71,131.53,97.37,131.38,97.32ZM172,101.54a18.84,18.84,0,0,0-1.92,1.53c-7.7,6.58-12.55,10.78-12.65,10.93a21.83,21.83,0,0,0,1.23,2.25c1.6,2.69,3.7,6.4,4.9,8.62,1.07,2,.89,1.88,2,.93,2.56-2.27,8.59-7.31,11.94-10,1.3-1,1.68-1.4,1.63-1.54C178.84,113.48,172.2,101.59,172,101.54Zm-123,.17a33.63,33.63,0,0,0-1.73,2.92c-2.09,3.71-5.41,9.81-5.41,9.94a9.81,9.81,0,0,0,1.23,1.07c1.83,1.46,4.82,3.94,9.29,7.74,2.21,1.87,4,3.4,4.07,3.4s.83-1.38,1.78-3.08,2.55-4.52,3.57-6.28a29.5,29.5,0,0,0,1.77-3.29C61.67,112.28,49.26,101.71,49.05,101.71ZM110.6,119s-1,1.06-2.1,2.35c-4,4.68-5.7,6.6-7,8.1L100.25,131l1.3,1.46c2.09,2.37,4.17,4.86,6.7,8,2.27,2.82,2.38,2.94,2.55,2.75s1.23-1.5,2.51-3.09c2.58-3.19,4.93-6,6.54-7.86a16.21,16.21,0,0,0,1.06-1.27c0-.12-7.53-9-9.27-10.91A10.1,10.1,0,0,0,110.6,119Zm-38.17,3.11s-.5.71-1.07,1.58c-3.57,5.41-6.49,10.25-6.3,10.44l2.54,2.34c2.88,2.63,5.54,5.16,7.86,7.45.94.93,1.74,1.69,1.79,1.69a11.25,11.25,0,0,0,.89-1.41c1-1.76,3.57-5.91,5.18-8.4a14.61,14.61,0,0,0,1.19-2C84.45,133.53,72.63,122.1,72.43,122.13Zm76.51,0s-.9.81-1.93,1.79c-7.3,6.94-10.14,9.71-10.15,9.92s1,1.76,2.26,3.77,2.87,4.63,3.61,5.83a23.37,23.37,0,0,0,1.44,2.19c.05,0,1-.91,2.2-2s3.79-3.62,5.85-5.56l4-3.78.25-.26-1-1.69C153.22,128.6,149.07,122.11,148.94,122.13ZM35.13,128.22a11.46,11.46,0,0,0-1,1.86c-.9,2-3,6.93-4,9.32a6.19,6.19,0,0,0-.51,1.56c.05,0,1.46,1.06,3.12,2.24,3.84,2.71,6.3,4.53,8.57,6.32a25.52,25.52,0,0,0,2.44,1.77c.36.19.71.4.79.46s.06.39,1.27-2.55c1.27-3.12,2.7-6.42,3.47-8.07.32-.67.6-1.32.64-1.45s-.15-.4-1.58-1.51C43.75,134.57,35.27,128.22,35.13,128.22Zm150.45,0c-.07,0-1.22.83-2.56,1.85-8.17,6.13-12.2,9.21-12.26,9.39a4.94,4.94,0,0,0,.54,1.23,90.07,90.07,0,0,1,4.34,9.48l.65,1.64s1.43-1,4.73-3.46,7-5.22,8.82-6.5c.63-.44,1.19-.84,1.23-.89.22-.2-5.2-12.76-5.5-12.74ZM92,141.42s-.91,1.13-1.94,2.52c-1.53,2.06-4.37,6-5.8,8l-.28.4.85.87c2.61,2.64,4.07,4.22,7,7.58,1.78,2.05,3.27,3.72,3.32,3.72a10,10,0,0,0,.9-1.29c1.16-1.8,3.26-4.85,5.23-7.58.92-1.28,1.67-2.36,1.67-2.4C103,153.08,92.21,141.42,92,141.42Zm37.32,0s-1.22,1.18-2.64,2.63-3.57,3.73-4.79,5.07-2.55,2.82-3,3.28l-.77.84,2.06,2.93c1.14,1.61,2.88,4.15,3.87,5.63s1.85,2.71,1.89,2.74a19.65,19.65,0,0,0,1.89-2c1.85-2.11,6.76-7.41,8.51-9.16l1-1-.49-.74C135.49,149.53,129.52,141.41,129.36,141.42Zm34.08,4.29s-1.93,1.5-4.19,3.43c-3.71,3.17-7,6-8.22,7.22l-.46.43,2.53,5.26c3.06,6.34,3.12,6.46,3.27,6.33l3.46-2.92c3.29-2.78,6.7-5.62,8.57-7.13a5.74,5.74,0,0,0,1-.88C169.36,157.18,163.76,146.08,163.44,145.71ZM58,145.74a1.4,1.4,0,0,0-.24.36c-1.55,2.83-5.74,11.23-5.68,11.39s1.06.94,2.32,2c2.62,2.15,4.25,3.51,7.92,6.63,1.43,1.22,2.66,2.26,2.73,2.31s.58-.86,1.81-3.48c.92-2,2.19-4.59,2.81-5.81s1.14-2.26,1.14-2.3-11.76-10.39-12.61-11c-.08-.06-.14-.08-.2,0ZM24.85,156a17.13,17.13,0,0,0-.74,2.41c-1.38,5.17-2.08,8.43-1.86,8.59s1.23.69,2.58,1.41c3.1,1.66,8.92,5.25,11.54,7.12,1,.7.89.76,1.28-1,.42-1.9,1.3-5.22,2-7.4.28-.91.5-1.66.48-1.68C39.74,165.05,25.07,156,24.85,156Zm171.54,0a2,2,0,0,0-.4.24c-.23.14-2.1,1.28-4.15,2.55-3.84,2.35-8.65,5.39-9.88,6.22l-.68.47.6,2.31c.33,1.27.92,3.63,1.32,5.25a24.94,24.94,0,0,0,.82,3c.06,0,2.16-1.27,4.68-2.88,3-1.89,5.63-3.5,7.57-4.56a33.31,33.31,0,0,0,3-1.74c0-.27-.93-4.32-1.51-6.58-.92-3.61-1.06-4.3-1.37-4.24Zm-85.76,6-1.41,1.71c-3,3.65-7.11,9-7,9.23s1,1.37,2.22,2.9c2.17,2.78,5.09,6.65,5.77,7.62.46.66.39.69,1.16-.38,1.44-2,3.9-5.25,5.68-7.51l2-2.56c.14-.2-1.39-2.25-5.69-7.63l-2.47-3.1Zm33.32.59s-.51.44-1.06,1c-4.91,4.74-6.6,6.38-8.61,8.39L132,174.26l.54.91c1.72,2.91,3.81,6.81,4.85,9a9.72,9.72,0,0,0,.62,1.18,22.21,22.21,0,0,0,2.11-2c3.51-3.45,6.66-6.5,8.39-8.1l1.76-1.64C150.42,173.5,144.23,162.58,144,162.6Zm-66.71,0s-.53.81-1.13,1.79c-2.31,3.81-5.12,8.82-5.12,9.13a17.92,17.92,0,0,0,1.8,1.79c2.36,2.17,5.67,5.36,7.9,7.6,1,1,2,2,2.19,2.16l.39.37.49-1c.63-1.23,3.5-6.59,4.62-8.61.47-.85.85-1.55.85-1.57S77.36,162.59,77.24,162.61Zm-30.6,7.28c-.07,0-.29.37-.59,1.17-1.23,3.2-3,8.47-2.95,8.67a14.46,14.46,0,0,0,1.59,1.16c2.06,1.39,7.75,5.4,10.13,7.14,1,.78,1.94,1.41,2,1.41a21.19,21.19,0,0,0,.77-2.3c.39-1.27,1.12-3.41,1.61-4.75s.92-2.54.94-2.66-.16-.37-1-1L55.26,176c-2.28-1.65-8.06-5.71-8.62-6.06Zm127.84.14s-1.59,1.09-3.45,2.41c-4.26,3-10.1,7.37-10.1,7.5s.3.91.66,1.89,1.1,3.12,1.62,4.77,1,3,1,3a24.58,24.58,0,0,0,2.16-1.5c2.93-2.14,7.37-5.27,9.7-6.84a18.94,18.94,0,0,0,1.95-1.4C178,179.4,174.66,170,174.48,170Zm-49.42,11.65a8,8,0,0,0-.78.91l-4.2,5.12c-1.91,2.32-3.55,4.35-3.66,4.51l-.19.28.78,1.21c1.13,1.75,2.56,4.23,3.88,6.7.64,1.19,1.2,2.24,1.26,2.33s-.07.39,2-2.1c1.76-2.15,3.42-4.07,5.62-6.52l1.82-2-1.28-2.19C128.35,186.62,125.22,181.7,125.06,181.68ZM96,181.9s-.8,1.13-1.69,2.52c-2.48,3.87-4.77,7.64-4.77,7.84,0,0,.93,1.11,2.07,2.37,2.33,2.58,4,4.56,5.88,6.84.69.85,1.28,1.56,1.31,1.57s.9-1.45,1.92-3.26,2.36-4.17,3-5.23l1.15-1.92-.55-.74c-2.3-3.13-8-10-8.31-10Zm-76.07.89c-.05,0-.11.22-.15.51-.08.66-.08,8.38,0,9l.07.5.9.29a134.32,134.32,0,0,1,13.11,5.07l1,.43s.08-1.74.11-3.86.1-4.1.13-4.41l.06-.56-1.08-.53c-5.41-2.69-13.71-6.49-14.15-6.49Zm181.18,0c-.07,0-1.08.42-2.25.92-3.47,1.5-9.51,4.34-12.55,5.9-.4.21-.4.22-.34.71a49.4,49.4,0,0,1,.32,5.74c0,1.42,0,2.58.05,2.58l2.4-1A98.4,98.4,0,0,1,200,193.26l1.42-.42.07-1.17c.19-3.27-.06-8.9-.39-8.88Zm-45.65,1.35s-.85.63-1.84,1.43c-3.93,3.17-11.14,9.47-11.14,9.74,0,.05.21.62.48,1.29a75.93,75.93,0,0,1,2.54,7.64c0,.34.23.2,1.62-1,2.52-2.12,7.31-6.07,9.59-7.9l2.22-1.79c.11-.09-3.23-9.14-3.47-9.44Zm-89.64,0s-.06,0-.07,0c-.4.69-3.45,9-3.39,9.29,0,.08,1.35,1.19,3,2.47,3.28,2.6,6,4.89,8.58,7.1.94.81,1.72,1.47,1.73,1.45s.26-.81.56-1.76,1-3,1.58-4.59,1-2.88,1-2.89l-1.22-1.13c-2.67-2.46-6.17-5.49-9.23-8a27.48,27.48,0,0,0-2.51-2Zm115.29,8.22a.33.33,0,0,0-.2,0,24.39,24.39,0,0,0-2.38,1.29c-4.31,2.45-11.17,6.58-11.54,7-.11.11-.09.4.08,1.5.11.75.28,2.27.37,3.38s.2,2.2.24,2.42l.07.41,1.51-.9c2.24-1.32,7-3.92,10.12-5.47l2.77-1.42c.08-.09-.27-3.65-.55-5.62-.15-1-.29-2-.33-2.25s0-.34-.16-.34Zm-141,.06-.07.35c-.33,1.76-.89,6.48-.88,7.45v.55L44,203.37c2.68,1.42,5.89,3.15,7.14,3.86s2.32,1.28,2.36,1.28a7.07,7.07,0,0,0,.2-1.41c.07-.78.26-2.48.42-3.79l.28-2.37-.73-.5a138.73,138.73,0,0,0-12.74-7.56Zm70.55,7.74-1,1.41a90.33,90.33,0,0,0-5.3,8.67,15.56,15.56,0,0,0,1.11,1.77,79.61,79.61,0,0,1,5,8.24c0,.3.26-.05.89-1.21.92-1.66,3.06-5.08,4.39-7,.57-.83,1.07-1.57,1.11-1.64.16-.27-3.59-6.45-5.78-9.54Zm25.54.86L133.4,204c-1.52,1.61-3.73,4-4.91,5.33l-2.16,2.39.56,1.5c.43,1.14,1.84,5.29,2.41,7.06a24.61,24.61,0,0,0,3.15-3.1c1.7-1.8,4-4.18,5.15-5.3s2.07-2.07,2.07-2.12c0-.29-2.55-6.66-3.26-8.15Zm-51.09,0-.3.65c-.5,1.06-1.85,4.34-2.57,6.26l-.68,1.8.24.24,2.48,2.44c1.23,1.21,3.45,3.49,4.94,5.06s2.71,2.84,2.72,2.83.13-.43.25-.91a58.4,58.4,0,0,1,2-5.91l.72-1.81-.34-.41c-.94-1.17-5.29-5.95-7.24-7.95Zm76.61,2.9s-1.38.91-3,2c-3.57,2.45-6.71,4.67-9.1,6.45l-1.8,1.35.05.5c0,.27.15,1.29.27,2.27s.25,2.36.29,3.07l.08,1.3,3.23-2.29c4.19-3,6.53-4.57,8.91-6l1.93-1.19,0-.75A46.28,46.28,0,0,0,161.67,204Zm-102.09.29c-.16,0-.2.3-.3.84a30.59,30.59,0,0,0-.55,4.81l-.07,1.67,1.71,1c3.63,2.2,7.79,5,11.12,7.4q1.28.93,1.32.78c0-.08.07-.79.1-1.58,0-1.19.31-3.74.52-5.08.09-.5-3.44-3.06-12.82-9.32-.6-.4-.87-.6-1-.56Zm40.83,14.16c-.11,0-.19.16-.51.93-.66,1.64-1,2.54-1.78,5.07-.93,3-1,2.44.26,4.19a39.45,39.45,0,0,1,6.48,13.26c.1.42.94.78.94.4,0,0-.1-.45-.21-.93-.71-3-.29-7.39,1.08-11.64a6.47,6.47,0,0,0,.27-1c0-.53-4.22-7.22-6.42-10.17A.33.33,0,0,0,100.41,218.42Zm-21.1.07s-.11.11-.13.25a44.93,44.93,0,0,0-.58,5.65v1l1.07.86c3.83,3.09,9,7.59,10.63,9.22.6.62.63.59.44-.38a21.45,21.45,0,0,1-.29-5.07l.11-1.31-.79-.81c-2.6-2.64-10.12-9.38-10.46-9.38Zm41.6,0a2,2,0,0,0-.44.42,63.69,63.69,0,0,0-5.8,8.9l-.43.85.26.82c1.3,4,1.76,8.88,1.11,11.84-.22,1-.19,1.06.36,1,.27,0,.31-.1.59-1.14,1-3.91,3.29-8.24,7.14-13.76l.23-.33-.36-1.33c-.63-2.36-2.43-7.26-2.66-7.26Zm21,.06a5.77,5.77,0,0,0-1.05.79q-4.31,3.63-8.47,7.67l-1.64,1.6v1.95a36.48,36.48,0,0,1-.26,4.68l-.08.72,1-1c2.31-2.24,5.32-4.84,9.14-7.91l2.24-1.79-.08-1.27c-.06-1.11-.35-3.84-.54-5.13,0-.27-.08-.41-.24-.36Z"/><path id="path91" d="M438.66,19.93c-15.9,0-27.83,9.51-27.83,31.43v37H398.9c-1.26,0-1.88.67-1.88,2v5.32c0,1.33.62,2,1.88,2h11.93v77.26c0,1.33.62,2,1.88,2H419c1.26,0,1.9-.66,1.9-2V97.62h26.78c1.25,0,1.88-.66,1.88-2V90.31c0-1.32-.63-2-1.88-2H420.88V50.91c0-17,10-20.36,17.78-20.36a23.57,23.57,0,0,1,15.49,5.76c1.05.88,2.09.88,2.72-.23l2.93-4.2a2.18,2.18,0,0,0,0-2.89C453.73,23,446.62,19.93,438.66,19.93Zm214.51,0c-15.9,0-27.83,9.51-27.83,31.43v37H613.4c-1.25,0-1.87.67-1.87,2v5.32c0,1.33.62,2,1.87,2h11.94v77.26c0,1.33.62,2,1.88,2h6.27c1.26,0,1.89-.66,1.89-2V97.62h26.79c1.25,0,1.88-.66,1.88-2V90.31c0-1.32-.63-2-1.88-2H635.38V50.91c0-17,10-20.36,17.79-20.36a23.59,23.59,0,0,1,15.49,5.76c1.05.88,2.09.88,2.72-.23l2.93-4.2a2.19,2.19,0,0,0,0-2.89C668.24,23,661.12,19.93,653.17,19.93ZM533.89,50.69c-1.26,0-1.89.67-1.89,2V88.32H508.76c-1.25,0-1.87.67-1.87,2v5.32c0,1.33.62,2,1.87,2H532v77.26c0,1.33.63,2,1.89,2h6.26c1.26,0,1.9-.66,1.9-2V97.62h23.23c1.25,0,1.87-.66,1.87-2V90.31c0-1.32-.62-2-1.87-2H542.05V52.68c0-1.32-.64-2-1.9-2ZM306,85.67c-23.23,0-39.76,14.83-39.76,44.27v44.94c0,1.33.62,2,1.88,2h6.29c1.25,0,1.87-.66,1.87-2V129.94c0-28.11,16.95-34.54,29.72-34.54,12.35,0,29.71,6.43,29.71,34.54v44.94c0,1.33.64,2,1.89,2h6.28c1.25,0,1.88-.66,1.88-2V129.94C345.74,100.5,329.21,85.67,306,85.67Zm416.68,3.09a1.14,1.14,0,0,0-1,1.77l36.2,86.77L732.91,238a1.67,1.67,0,0,0,.84,2.43l5.86,2.66c.84.66,1.88-.22,2.51-1.11l63.2-151.41a1.14,1.14,0,0,0-1-1.77H797a3.25,3.25,0,0,0-2.72,1.77l-30.76,73.72L732.7,90.53A3.22,3.22,0,0,0,730,88.76Z"/></svg>