<?xml version="1.0" encoding="utf-8"?>
<!-- Generator: Adobe Illustrator 24.1.2, SVG Export Plug-In . SVG Version: 6.00 Build 0)  -->
<svg version="1.1" id="Camada_1" xmlns="http://www.w3.org/2000/svg" xmlns:xlink="http://www.w3.org/1999/xlink" x="0px" y="0px"
	 viewBox="0 0 212 192.9" style="enable-background:new 0 0 212 192.9;" xml:space="preserve">
<style type="text/css">
	.st0{fill:#FFFFFF;}
	.st1{fill:#133444;}
	.st2{fill:#C42370;}
	.st3{fill:#1C4D6B;}
	.st4{fill:#1D4259;}
	.st5{fill:#4B6B9A;}
	.st6{fill:#343535;}
	.st7{fill:#3E5578;}
	.st8{fill:#6DB2D8;}
	.st9{fill:#335F8A;}
	.st10{fill:#529BBA;}
</style>
<circle class="st0" cx="106.8" cy="98.2" r="95.7"/>
<g id="Layer_2-2">
	<g id="Layer_1-2-2">
		<polygon class="st1" points="52.5,108.3 56.6,106.5 106.2,84.9 160,108.3 139.8,150 90.5,156.9 53.3,116.9 		"/>
		<path class="st2" d="M148.9,82.6C140,71.9,127.4,65,113.7,63.2l-0.9-0.1c-4.3-0.6-8.6-0.6-12.9,0l-0.9,0.1
			C85.2,65,72.6,72,63.7,82.6l0,0l-2.2,3.7l-3.8,6.1L55,96.9l0,0c0,0.1-0.1,0.3-0.2,0.4v0.1l6,3.6l38,22.6l7.3,4.3V74l-7.3,3.3v-8.1
			l7.3-3.3l7.3,3.3l37.4,17.1L148.9,82.6z"/>
		<path class="st3" d="M161.6,121.7c-0.1,17.7-8.1,34.4-21.7,45.6c-5.2,4.3-11.1,7.5-17.5,9.7c-5.2,1.7-10.6,2.6-16.1,2.6
			c-30.6,0-55.5-27.2-55.5-57.9c0-4.5,0.6-9,1.7-13.4l53.7,31.8l53.7-31.8C161.1,112.7,161.7,117.2,161.6,121.7z"/>
		<polygon points="99.8,63.1 106.2,65.9 98.9,69.3 98.9,62.6 		"/>
		<polygon points="98.9,77.4 106.2,74 106.2,127.9 98.9,123.5 		"/>
		<polygon class="st4" points="106.2,74 106.2,127.9 157.8,97.4 		"/>
		<polygon class="st5" points="106.2,12 106.2,74 157.8,97.4 		"/>
		<path class="st6" d="M106.2,74v53.8l-7.3-4.3l-44.1-26h-0.1h0.1c0-0.1,0.1-0.3,0.2-0.4l0,0l6.4-10.7l37.4-17v8L106.2,74z"/>
		<polygon class="st7" points="106.2,74 106.2,127.9 98.9,123.5 54.8,97.4 54.8,97.4 54.9,97.4 98.9,77.4 		"/>
		<polygon class="st8" points="106.2,12 106.2,74 54.8,97.4 		"/>
		<path class="st9" d="M85.4,175.1c0.7,0.4,1.6,0.6,2.3,0.9C87,175.7,86.3,175.4,85.4,175.1z"/>
		<path class="st9" d="M87.7,176c0.7,0.3,1.6,0.6,2.4,0.8C89.4,176.7,88.5,176.4,87.7,176z"/>
		<path class="st9" d="M92.2,177.5c0.6,0.2,1.2,0.4,1.8,0.5C93.4,177.9,92.8,177.7,92.2,177.5z"/>
		<path class="st8" d="M52.5,108.3l53.7,31.8c-0.7,4.9-2,9.5-3.9,14.1c-4.3,10.5-12.9,21.5-29.8,13l0,0
			C58.9,156,51,139.3,50.9,121.7C50.9,117.2,51.4,112.7,52.5,108.3z"/>
		<path class="st10" d="M139.9,167.2l-0.2,0.1c-0.3,0.2-0.6,0.5-0.8,0.6l-0.1,0.1c-0.3,0.3-0.6,0.5-0.9,0.7c-0.4,0.3-0.6,0.6-1,0.7
			c-0.4,0.2-0.7,0.5-1,0.7c-0.4,0.3-0.6,0.4-0.9,0.6l-0.2,0.1c-0.4,0.2-0.6,0.4-0.9,0.6c0,0-0.1,0-0.1,0.1c-0.4,0.2-0.6,0.4-1,0.6
			c-0.4,0.2-0.7,0.4-1.1,0.6c-0.4,0.2-0.7,0.4-1.1,0.6l0,0l-1.1,0.6c-0.4,0.2-0.7,0.4-1.1,0.6c-0.4,0.2-0.7,0.4-1.1,0.6
			c-0.7,0.4-1.6,0.6-2.3,0.9c-0.7,0.3-1.6,0.6-2.4,0.8c-0.3,0.1-0.6,0.2-0.9,0.3l-1.1,0.4c-0.6,0.2-1.2,0.4-1.8,0.5
			c-0.2,0.1-0.5,0.1-0.7,0.2l-0.4,0.1l-1,0.2c-0.4,0.1-0.6,0.1-0.9,0.2c-0.3,0.1-0.6,0.1-0.8,0.2c-0.3,0-0.6,0.1-0.9,0.2
			c-0.2,0-0.3,0-0.5,0.1l-0.7,0.1h-0.4c-0.3,0-0.6,0.1-0.7,0.1c-0.3,0-0.6,0.1-0.9,0.1s-0.5,0-0.7,0s-0.5,0-0.6,0l0,0
			c-0.3,0-0.6,0-0.7,0s-0.7,0-1,0h-2.2c-0.4,0-0.7,0-1,0c-0.3,0-0.6,0-0.7,0l0,0c-0.2,0-0.5,0-0.6,0c-0.2,0-0.5,0-0.7,0
			s-0.6-0.1-0.9-0.1s-0.6,0-0.7-0.1h-0.4c-0.2,0-0.5-0.1-0.7-0.1c-0.2,0-0.3,0-0.5-0.1c-0.3,0-0.6-0.1-0.9-0.2
			c-0.3,0-0.6-0.1-0.8-0.2c-0.3,0-0.6-0.1-0.9-0.2s-0.6-0.2-1-0.2l-0.4-0.1c-0.3,0-0.6-0.1-0.7-0.1c-0.6-0.2-1.3-0.4-1.8-0.5
			l-1.1-0.4c-0.4-0.1-0.6-0.2-0.9-0.3c-0.8-0.3-1.6-0.6-2.4-0.8c-0.8-0.3-1.6-0.6-2.3-0.9c-0.4-0.2-0.7-0.4-1.1-0.6l-1.1-0.6
			l-1.1-0.6l0,0c-0.4-0.2-0.7-0.4-1.1-0.6c-0.4-0.2-0.7-0.4-1.1-0.6c-0.4-0.2-0.6-0.4-1-0.6l-0.1-0.1c-0.4-0.2-0.6-0.4-0.9-0.6
			l-0.2-0.1c-0.3-0.2-0.6-0.4-0.9-0.6c-0.3-0.2-0.7-0.5-1-0.7c-0.4-0.3-0.7-0.5-1-0.7l-0.9-0.7l-0.1-0.1c-0.3-0.2-0.6-0.5-0.8-0.6
			l-0.2-0.1c16.8,8.3,25.5-2.7,29.8-13c1.8-4.5,3.1-9.3,3.9-14.1c0.7,4.9,2,9.5,3.9,14.1C114.4,164.6,123.1,175.6,139.9,167.2z"/>
		<path class="st9" d="M118.5,178c0.6-0.2,1.3-0.4,1.8-0.5C119.8,177.7,119.2,177.9,118.5,178z"/>
		<path class="st9" d="M122.4,176.8c0.8-0.3,1.6-0.6,2.4-0.8C124,176.4,123.2,176.7,122.4,176.8z"/>
		<path class="st9" d="M124.8,176c0.7-0.3,1.6-0.6,2.3-0.9C126.3,175.4,125.6,175.7,124.8,176z"/>
		<path class="st5" d="M161.6,121.7c-0.1,17.7-8.1,34.4-21.7,45.6c-16.8,8.3-25.5-2.7-29.8-13c-1.8-4.5-3.1-9.3-3.9-14.1l53.7-31.8
			C161.1,112.7,161.6,117.2,161.6,121.7z"/>
	</g>
</g>
</svg>
