<svg width="16" height="16" viewBox="0 0 16 16" fill="none" xmlns="http://www.w3.org/2000/svg">
<g clip-path="url(#clip0)">
<path d="M14.356 4.742C15.0067 4.28 15.554 3.70333 16 3.03933V3.03867C15.4047 3.29933 14.7713 3.47267 14.11 3.55667C14.79 3.15067 15.3093 2.51267 15.5533 1.744C14.9193 2.122 14.2193 2.38867 13.4733 2.538C12.8713 1.89667 12.0133 1.5 11.0773 1.5C9.26133 1.5 7.79933 2.974 7.79933 4.78067C7.79933 5.04067 7.82133 5.29067 7.87533 5.52867C5.14867 5.39533 2.73533 4.08867 1.114 2.09733C0.831333 2.58867 0.664667 3.15067 0.664667 3.75533C0.664667 4.89133 1.24933 5.898 2.122 6.48133C1.59467 6.47133 1.078 6.318 0.64 6.07733V6.11333C0.64 7.70733 1.77667 9.03133 3.268 9.33667C3.00067 9.41 2.71 9.44467 2.408 9.44467C2.198 9.44467 1.986 9.43267 1.78733 9.38867C2.212 10.6873 3.41867 11.6427 4.852 11.674C3.736 12.5467 2.31867 13.0727 0.784667 13.0727C0.516 13.0727 0.258 13.0607 0 13.028C1.45333 13.9647 3.17467 14.5 5.032 14.5C10.8207 14.5 14.5933 9.67067 14.356 4.742Z" fill="#226AED" fill-opacity="1"/>
</g>
<defs>
<clipPath id="clip0">
<rect width="16" height="16" fill="white"/>
</clipPath>
</defs>
</svg>