<svg width="40" height="40" viewBox="0 0 40 40" fill="none" xmlns="http://www.w3.org/2000/svg">
<g clip-path="url(#clip0)">
<path d="M16.8586 9.99997L20.3215 12L23.7845 9.99997L20.3215 7.99997L16.8586 9.99997Z" fill="#F0B90D"/>
<path d="M9.92916 9.99997L6.46293 7.99997L3 9.99997L6.46293 12L9.92916 9.99997Z" fill="#F0B90D"/>
<path d="M16.8581 6L20.321 4L23.784 6L27.2502 8L30.7131 6L27.2502 4L23.784 2L20.321 0L16.8581 2L13.3919 4L9.92892 6L13.3919 8L16.8581 6Z" fill="#F0B90D"/>
<path d="M37.642 9.99997L34.1791 7.99997L30.7129 9.99997L34.1791 12H34.1758V16L37.642 14V9.99997Z" fill="#F0B90D"/>
<path d="M27.2507 28L30.7137 26V22L27.2507 24V28Z" fill="#F0B90D"/>
<path d="M34.1766 24.0001V28.0001L30.7137 30.0001L27.2507 32.0001V36.0001L30.7137 34.0001L34.1799 32.0001L37.6428 30.0001V26.0001V22.0001V18.0001L34.1766 20.0001V24.0001Z" fill="#F0B90D"/>
<path d="M27.2502 20.0001L30.7131 18.0001V14.0001L27.2502 12.0001L23.784 14.0001L20.321 16.0001L16.8581 14.0001L13.3919 12.0001L9.92892 14.0001V18.0001L13.3919 20.0001L16.8581 22.0001V26.0001V30.0001L20.321 32.0001L23.784 30.0001V26.0001V22.0001L27.2502 20.0001Z" fill="#F0B90D"/>
<path d="M20.3215 36L16.8586 34V38L20.3215 40L23.7845 38V34L20.3215 36Z" fill="#F0B90D"/>
<path d="M9.92892 26L13.3919 28V24L9.92892 22V26Z" fill="#F0B90D"/>
<path d="M6.46293 28.0001V24.0001V20.0001L3 18.0001V22.0001V26.0001V30.0001L6.46293 32.0001L9.92916 34.0001L13.3921 36.0001V32.0001L9.92916 30.0001L6.46293 28.0001Z" fill="#F0B90D"/>
<path d="M6.46293 11.9999L3 9.99994V13.9999L6.46293 15.9999V11.9999Z" fill="#F0B90D"/>
</g>
<defs>
<clipPath id="clip0">
<rect width="34.6425" height="40" fill="white" transform="translate(3)"/>
</clipPath>
</defs>
</svg>