<svg width="32" height="32" viewBox="0 0 32 32" fill="none" xmlns="http://www.w3.org/2000/svg">
<path d="M16.0479 0.173622V0.189386C16.0636 0.268203 16.0636 0.362785 16.0636 0.457366V11.8229C16.0479 11.8859 16.0006 11.9017 15.9533 11.9332C15.6222 12.0909 15.307 12.2327 14.9759 12.3746C14.5188 12.5795 14.0459 12.8002 13.5887 13.0051L11.9336 13.7618C11.4764 13.9667 11.0193 14.1717 10.5779 14.3766C10.0419 14.6288 9.49022 14.8652 8.95426 15.1175C8.49712 15.3224 8.03997 15.5431 7.56707 15.748C7.18874 15.9214 6.81042 16.079 6.44786 16.2524C6.41633 16.2682 6.3848 16.284 6.35327 16.284C6.33751 16.284 6.33751 16.284 6.32175 16.2682L6.74736 15.5588C7.56707 14.2032 8.37101 12.8633 9.19071 11.5076C10.0577 10.0574 10.9405 8.60712 11.8075 7.15687C12.6114 5.81697 13.4311 4.47707 14.235 3.13717C14.8183 2.15983 15.4173 1.18249 16.0006 0.205149C16.0163 0.173622 16.0321 0.157858 16.0321 0.126331H16.0479C16.0321 0.142095 16.0479 0.157858 16.0479 0.173622Z" fill="#828384"/>
<path d="M25.7259 16.2681L25.7417 16.2839L23.4245 17.6553L16.1417 21.9588C16.1102 21.9745 16.0786 21.9903 16.0629 22.006C16.0156 22.006 16.0156 21.9588 16.0156 21.943V21.8011V12.0592C16.0156 12.012 16.0156 11.9489 16.0314 11.9016C16.0471 11.8386 16.0944 11.8543 16.1417 11.8701C16.3466 11.9647 16.5673 12.0592 16.7722 12.1538C17.387 12.4376 18.0018 12.7213 18.6166 12.9893C19.1525 13.2258 19.6727 13.478 20.2087 13.7144C20.7447 13.9509 21.2806 14.2031 21.8166 14.4395C22.2737 14.6445 22.7466 14.8652 23.2038 15.0701C23.6609 15.275 24.1338 15.4957 24.591 15.7006C24.9535 15.8583 25.3161 16.0317 25.6787 16.1893C25.6787 16.2366 25.6944 16.2524 25.7259 16.2681Z" fill="black"/>
<path d="M16.0471 31.7952C16.0471 31.811 16.0313 31.8267 16.0313 31.8425H16.0155C16.0155 31.811 15.984 31.7952 15.9682 31.7637C14.9909 30.3922 14.0136 29.0051 13.0362 27.6336C12.0431 26.2307 11.0343 24.812 10.0412 23.409C9.07957 22.0533 8.10223 20.6819 7.14066 19.3262C6.88844 18.9637 6.63622 18.6169 6.38401 18.2543C6.36824 18.2228 6.35248 18.207 6.32095 18.1597C6.36824 18.1597 6.39977 18.1913 6.41553 18.207C7.78696 19.011 9.14263 19.8149 10.5141 20.6188C12.0904 21.5489 13.651 22.4789 15.2274 23.409L16.0313 23.8819C16.0628 23.9134 16.0628 23.945 16.0628 23.9765V31.5745C16.0628 31.6533 16.0628 31.7321 16.0471 31.7952Z" fill="#828384"/>
<path d="M6.3053 16.2995V16.2837C6.80973 16.063 7.2984 15.8266 7.80284 15.6059C8.44914 15.3064 9.09545 15.0226 9.74175 14.7231C10.2304 14.5024 10.7349 14.266 11.2235 14.0453C11.9486 13.7142 12.658 13.399 13.3831 13.0679C13.8718 12.8473 14.3605 12.6266 14.8649 12.3901C15.2117 12.2325 15.5743 12.0748 15.9211 11.9172C15.9526 11.9014 15.9999 11.8857 16.0156 11.8541C16.0314 11.8541 16.0314 11.8699 16.0156 11.8857V21.8955C16.0156 21.9428 15.9999 21.9901 16.0314 22.0216C15.9999 22.0689 15.9684 22.0216 15.9526 22.0059C15.8107 21.9271 15.6688 21.8482 15.527 21.7537C12.4846 19.9566 9.42648 18.1438 6.38412 16.3468C6.36835 16.331 6.33682 16.3152 6.3053 16.2995Z" fill="#343535"/>
<path d="M25.6946 18.1597H25.7104C25.7104 18.1913 25.6788 18.2228 25.6631 18.2543C22.7626 22.3371 19.8621 26.4356 16.9616 30.5184C16.6621 30.944 16.3468 31.3696 16.0473 31.7952C16.0316 31.7794 16.0316 31.7637 16.0316 31.7479V31.6533V24.008V23.8661C16.6936 23.4721 17.3399 23.0937 18.002 22.6996C20.5557 21.1863 23.1094 19.6888 25.6473 18.1755C25.6631 18.1913 25.6788 18.1755 25.6946 18.1597Z" fill="#2F3030"/>
<path d="M16.0315 11.886V11.8545V11.7599V0.315569C16.0315 0.268279 16.0157 0.236751 16.0473 0.189461C19.2473 5.50178 22.4473 10.7983 25.6315 16.1106C25.663 16.1579 25.7103 16.221 25.7261 16.284C25.5054 16.2052 25.3005 16.0949 25.0955 16.0003C24.8433 15.89 24.5753 15.7638 24.3231 15.6535C24.1655 15.5747 23.9921 15.5116 23.8345 15.4328C23.5665 15.3067 23.2985 15.1964 23.0305 15.0703C22.8729 15.0072 22.7152 14.9284 22.5576 14.8496L21.5172 14.3767C21.3438 14.2978 21.1704 14.219 20.9813 14.1402L20.2246 13.8092C20.067 13.7461 19.9093 13.6673 19.7517 13.5885L18.7113 13.1156C18.5379 13.0368 18.3645 12.9579 18.1753 12.8791L17.4187 12.5481C17.2453 12.4693 17.0877 12.3904 16.9143 12.3116C16.6147 12.1698 16.3152 12.0279 16 11.9018C16.0473 11.886 16.0315 11.886 16.0315 11.886Z" fill="#2F3030"/>
</svg>