<svg width="27" height="23" viewBox="0 0 27 23" fill="none" xmlns="http://www.w3.org/2000/svg">
<path d="M23.8235 4.6H23.2835V3.06667C23.2835 1.38 21.8541 0 20.1071 0H3.17647C1.42941 0 0 1.38 0 3.06667V19.9333C0 21.62 1.42941 23 3.17647 23H23.8235C25.5706 23 27 21.62 27 19.9333V16.836V10.7027V7.66667C27 5.98 25.5706 4.6 23.8235 4.6ZM3.17647 1.53333H20.1071C20.9806 1.53333 21.6953 2.22333 21.6953 3.06667V4.6H8.57647H3.17647C2.30294 4.6 1.58824 3.91 1.58824 3.06667C1.58824 2.22333 2.30294 1.53333 3.17647 1.53333ZM25.4118 15.3027H22.41C21.5365 15.3027 20.8218 14.6127 20.8218 13.7693C20.8218 12.926 21.5365 12.236 22.41 12.236H25.4118V15.3027ZM22.41 10.7027C20.6629 10.7027 19.2335 12.0827 19.2335 13.7693C19.2335 15.456 20.6629 16.836 22.41 16.836H25.4118V19.9333C25.4118 20.7767 24.6971 21.4667 23.8235 21.4667H3.17647C2.30294 21.4667 1.58824 20.7767 1.58824 19.9333V6.13333V5.704C2.06471 5.96467 2.58882 6.13333 3.17647 6.13333H8.57647H23.2994H23.8235C24.6971 6.13333 25.4118 6.82333 25.4118 7.66667V10.7027H22.41Z" fill="#fff"/>
</svg>