<?xml version="1.0" standalone="no"?>
<!DOCTYPE svg PUBLIC "-//W3C//DTD SVG 20010904//EN"
 "http://www.w3.org/TR/2001/REC-SVG-20010904/DTD/svg10.dtd">
<svg version="1.0"
    xmlns="http://www.w3.org/2000/svg" width="932.000000pt" height="932.000000pt" viewBox="0 0 932.000000 932.000000" preserveAspectRatio="xMidYMid meet">
    <g transform="translate(0.000000,932.000000) scale(0.100000,-0.100000)" fill="#000000" stroke="none">
        <path d="M4419 9306 c-2 -2 -53 -7 -114 -11 -60 -4 -119 -8 -130 -9 -11 -2
-47 -6 -80 -10 -33 -4 -85 -11 -115 -16 -30 -5 -73 -12 -95 -15 -22 -3 -47 -7
-55 -10 -8 -2 -32 -6 -52 -9 -191 -28 -559 -136 -833 -243 -528 -207 -1085
-563 -1488 -952 -38 -36 -74 -71 -80 -77 -84 -80 -249 -264 -341 -379 -31 -38
-60 -74 -64 -80 -77 -95 -246 -348 -354 -530 -38 -63 -218 -419 -218 -430 0
-3 -10 -27 -21 -52 -86 -190 -226 -621 -265 -818 -2 -11 -8 -42 -14 -70 -22
-112 -38 -206 -46 -265 -3 -25 -7 -54 -9 -66 -2 -11 -6 -52 -10 -90 -4 -38 -9
-80 -11 -94 -22 -133 -21 -746 1 -854 2 -12 6 -50 9 -86 10 -108 43 -317 75
-465 101 -465 261 -885 501 -1315 95 -171 320 -499 439 -643 86 -103 153 -178
226 -256 39 -40 75 -79 81 -85 400 -389 769 -656 1229 -888 310 -157 727 -306
1040 -372 111 -24 125 -27 260 -51 70 -12 158 -24 285 -40 117 -14 266 -20
495 -20 300 0 440 9 640 40 17 3 46 7 65 10 19 2 46 7 60 10 13 2 42 7 65 11
22 3 72 12 110 21 39 8 81 17 95 19 161 30 613 177 790 257 607 272 1079 599
1524 1056 46 47 112 120 147 161 35 41 67 77 70 80 12 9 192 244 242 316 72
103 179 271 216 339 18 33 37 65 41 70 18 22 181 356 215 440 20 50 42 104 50
120 7 17 23 59 35 95 12 36 26 74 31 85 14 29 86 273 114 384 34 140 74 336
90 456 3 22 8 51 10 65 2 14 7 57 11 95 3 39 8 77 9 86 22 119 23 672 1 859
-3 19 -7 64 -11 100 -3 36 -8 72 -10 80 -2 8 -6 38 -9 65 -3 28 -8 62 -11 78
-3 15 -7 39 -10 55 -3 15 -8 43 -11 62 -25 165 -119 504 -198 723 -157 431
-411 895 -676 1236 -219 282 -520 592 -765 788 -22 17 -65 52 -95 76 -113 90
-324 232 -510 341 -102 61 -467 246 -484 246 -3 0 -25 9 -49 20 -73 33 -282
109 -442 160 -119 38 -410 107 -525 125 -19 3 -60 10 -90 15 -94 16 -192 29
-275 35 -44 4 -91 9 -105 12 -28 5 -595 14 -601 9z"/>
    </g>
</svg>
