<svg width="24" height="24" viewBox="0 0 24 24" fill="none" xmlns="http://www.w3.org/2000/svg">
<path fill-rule="evenodd" clip-rule="evenodd" d="M12 0C5.37187 0 0 5.37187 0 12C0 18.6281 5.37187 24 12 24C18.6281 24 24 18.6281 24 12C24 5.37187 18.6281 0 12 0ZM19.2914 19.2914C18.3445 20.2383 17.2406 20.9836 16.0125 21.5016C14.7422 22.0406 13.3922 22.3125 12 22.3125C10.6078 22.3125 9.25781 22.0406 7.9875 21.5039C6.75938 20.9836 5.65781 20.2406 4.70859 19.2938C3.76172 18.3469 3.01641 17.243 2.49844 16.0148C1.95938 14.7422 1.6875 13.3922 1.6875 12C1.6875 10.6078 1.95938 9.25781 2.49609 7.9875C3.01641 6.75938 3.75938 5.65781 4.70625 4.70859C5.65312 3.76172 6.75703 3.01641 7.98516 2.49844C9.25781 1.95938 10.6078 1.6875 12 1.6875C13.3922 1.6875 14.7422 1.95938 16.0125 2.49609C17.2406 3.01641 18.3422 3.75938 19.2914 4.70625C20.2383 5.65312 20.9836 6.75703 21.5016 7.98516C22.0406 9.25781 22.3125 10.6078 22.3125 12C22.3125 13.3922 22.0406 14.7422 21.5039 16.0125C20.9836 17.2406 20.2406 18.3445 19.2914 19.2914ZM12.8555 11.168H17.1562C17.6227 11.168 18 11.5453 18 12.0117C18 12.4781 17.6227 12.8555 17.1562 12.8555H12.8555V17.1328C12.8555 17.5992 12.4781 17.9766 12.0117 17.9766C11.5453 17.9766 11.168 17.5992 11.168 17.1328V12.8555H6.84375C6.37734 12.8555 6 12.4781 6 12.0117C6 11.5453 6.37734 11.168 6.84375 11.168H11.168V6.86719C11.168 6.40078 11.5453 6.02344 12.0117 6.02344C12.4781 6.02344 12.8555 6.40078 12.8555 6.86719V11.168Z" fill="#BFBFBF"/>
</svg>
