<svg width="24" height="24" viewBox="0 0 24 24" fill="none" xmlns="http://www.w3.org/2000/svg">
<path fill-rule="evenodd" clip-rule="evenodd" d="M0 12C0 5.37187 5.37187 0 12 0C18.6281 0 24 5.37187 24 12C24 18.6281 18.6281 24 12 24C5.37187 24 0 18.6281 0 12ZM16.0125 21.5016C17.2406 20.9836 18.3445 20.2383 19.2914 19.2914C20.2406 18.3445 20.9836 17.2406 21.5039 16.0125C22.0406 14.7422 22.3125 13.3922 22.3125 12C22.3125 10.6078 22.0406 9.25781 21.5016 7.98516C20.9836 6.75703 20.2383 5.65312 19.2914 4.70625C18.3422 3.75938 17.2406 3.01641 16.0125 2.49609C14.7422 1.95938 13.3922 1.6875 12 1.6875C10.6078 1.6875 9.25781 1.95938 7.98516 2.49844C6.75703 3.01641 5.65312 3.76172 4.70625 4.70859C3.75938 5.65781 3.01641 6.75938 2.49609 7.9875C1.95938 9.25781 1.6875 10.6078 1.6875 12C1.6875 13.3922 1.95938 14.7422 2.49844 16.0148C3.01641 17.243 3.76172 18.3469 4.70859 19.2938C5.65781 20.2406 6.75938 20.9836 7.9875 21.5039C9.25781 22.0406 10.6078 22.3125 12 22.3125C13.3922 22.3125 14.7422 22.0406 16.0125 21.5016ZM11.8781 15.5606C11.85 15.5606 11.8219 15.5582 11.7937 15.5559C11.3297 15.5113 10.9922 15.0965 11.0367 14.6324C11.1516 13.4629 12.0094 12.5184 12.9539 11.5738C14.4656 10.0621 14.4914 9.58165 14.5172 9.07306C14.5476 8.48009 14.3297 7.90587 13.8984 7.45352C13.4086 6.9379 12.7148 6.64259 11.9953 6.64259H11.9906C10.6055 6.64493 9.47577 7.77462 9.47577 9.16212C9.47577 9.62852 9.09842 10.0059 8.63202 10.0059C8.16561 10.0059 7.78827 9.62852 7.78827 9.16212C7.78827 8.03946 8.22421 6.98477 9.01639 6.19024C9.80858 5.39571 10.8633 4.95743 11.9859 4.95509C13.1695 4.95274 14.3133 5.44024 15.1219 6.29102C15.8742 7.08321 16.2586 8.10274 16.2023 9.16212C16.1437 10.2473 15.8109 11.1027 14.1469 12.7668C13.3031 13.6106 12.7711 14.2434 12.7172 14.7988C12.675 15.2348 12.307 15.5606 11.8781 15.5606ZM11.3402 18.9074C11.0263 18.7261 10.8328 18.3911 10.8328 18.0285C10.8328 17.468 11.2872 17.0137 11.8477 17.0137C12.4082 17.0137 12.8625 17.468 12.8625 18.0285C12.8625 18.3911 12.6691 18.7261 12.3551 18.9074C12.0411 19.0887 11.6542 19.0887 11.3402 18.9074Z" fill="url(#paint0_linear)"/>
<defs>
<linearGradient id="paint0_linear" x1="1.375" y1="12" x2="24" y2="12" gradientUnits="userSpaceOnUse">
<stop stop-color="#FE8367"/>
<stop offset="1" stop-color="#FE7688"/>
</linearGradient>
</defs>
</svg>
