<svg width="239" height="59" viewBox="0 0 239 59" fill="none" xmlns="http://www.w3.org/2000/svg">
<g clip-path="url(#clip0)">
<path d="M26.6866 7.65171C30.3064 10.5768 31.3003 8.91798 32.5587 8.49589C32.8914 8.39882 34.0378 9.51736 32.6985 10.8877C32.2552 11.1505 31.7437 11.273 31.2305 11.2395C31.1605 12.0133 30.4195 13.4287 30.1819 13.2796C30.0729 13.2121 29.7779 12.707 29.7023 12.3721C29.6227 12.0133 29.8015 11.2789 29.7624 11.1692C29.1726 11.0911 28.6031 10.9001 28.0847 10.6064C27.4514 11.6461 25.9876 12.4354 25.8478 12.2947C25.5681 12.0133 26.1275 11.4505 26.1275 11.4505H25.7079C25.009 12.7168 24.4496 12.9982 22.772 13.1389C22.772 13.1389 22.772 14.5459 22.073 14.8273C21.6829 14.9848 21.7934 14.4052 21.7934 14.4052C21.7934 14.4425 21.7787 14.4783 21.7523 14.5047C21.7262 14.531 21.6906 14.5459 21.6535 14.5459C21.3739 14.5459 21.2341 12.2947 20.535 12.2947C19.836 12.2947 19.4879 12.6943 19.2768 13.4203C18.8727 14.8019 20.3952 17.0784 20.9405 16.9518C21.2201 16.9884 21.3823 16.7379 21.4997 16.389L21.6535 16.5156C21.627 17.0306 21.9332 18.0633 21.7934 18.204C21.6535 18.3447 20.2554 17.5005 20.3952 17.5005C20.535 17.5005 18.2981 18.7668 18.0185 18.6261C17.7389 18.4854 18.2981 17.2191 18.2981 17.2191C18.2981 17.2191 16.0416 15.2494 15.9213 12.5761C15.7815 9.48077 17.1796 8.35521 17.1796 8.35521C15.7815 9.64539 14.9217 10.1125 14.5232 9.90286C14.2157 9.73262 13.964 9.34007 14.2436 8.63659C14.8029 7.37032 18.4379 6.24474 20.3952 5.96335C19.4795 5.84798 17.7389 6.10403 17.4592 6.10403C17.1796 5.96335 17.5991 2.44591 19.5564 1.32033C23.1913 -0.508733 26.2673 0.0540563 29.0257 2.02382C31.6819 3.9162 30.4657 8.49589 30.3217 8.7773C30.2865 8.86008 30.2281 8.93076 30.1535 8.98073C30.0791 9.03068 29.9917 9.05779 29.9022 9.05868C29.4663 9.07028 29.0342 8.97362 28.6439 8.7773C27.745 8.36786 26.6963 7.62357 26.6866 7.65171Z" fill="black" stroke="black" stroke-miterlimit="10"/>
<path d="M38.8499 22.5653L38.4304 21.8619L38.7101 21.1585C38.3367 21.589 37.7314 21.8619 37.3119 21.7212C37.1723 21.5805 37.4517 21.299 37.1723 20.5956C37.1723 20.5956 37.7314 21.299 37.8712 21.1585C38.0111 21.0178 37.7217 20.7195 37.5916 20.455C37.4617 20.1904 37.5916 19.1887 37.4517 19.1887C37.3119 19.1887 37.0324 19.8922 36.7528 20.0329C36.4731 20.1736 35.7741 19.7515 35.7741 19.3294C35.7741 18.9073 36.9191 17.3188 36.8926 17.2189C36.8394 17.0276 35.6343 19.048 35.6343 19.048C35.3728 19.1211 34.4348 18.7863 34.376 18.0631C34.3633 17.9224 36.0412 15.5896 35.914 15.5305C35.7014 15.4335 34.3018 17.9646 34.2361 18.0631C34.123 18.2319 33.3246 17.6579 33.3973 17.2189C33.5372 16.3747 35.2148 14.827 35.2148 14.827C35.239 14.7939 35.2705 14.7669 35.307 14.7484C35.3434 14.7298 35.3838 14.7201 35.4246 14.7201C35.4655 14.7201 35.5056 14.7298 35.5421 14.7484C35.5786 14.7669 35.6101 14.7939 35.6343 14.827C35.6714 14.827 35.707 14.8122 35.7331 14.7858C35.7594 14.7595 35.7741 14.7237 35.7741 14.6864C35.7741 14.5457 35.5601 14.3979 35.0752 14.405C34.9268 13.6677 34.3103 13.1893 34.2361 12.4352C34.0963 11.0282 34.295 10.0954 33.677 10.184C33.1568 10.2966 32.8382 11.3096 33.1177 13.2794C33.2101 13.935 33.561 14.9382 33.8168 15.8119C33.677 16.3747 32.6984 17.0782 33.3973 17.9224C32.8073 17.5918 32.3251 17.4272 31.9992 17.5003C31.5602 17.7043 31.44 18.4852 31.7197 18.9073C31.9432 19.2731 32.7444 19.6502 33.8168 20.0329C34.439 21.1373 34.8682 21.6297 35.2148 21.8619C35.4344 22.0027 35.7741 22.1434 36.6129 22.0027C36.7975 22.4528 37.3119 22.8468 37.7314 22.9875C39.8285 23.269 40.8072 22.1434 41.0868 20.455C40.5766 21.7156 39.8915 22.5457 38.8499 22.5653Z" fill="black" stroke="black" stroke-miterlimit="10"/>
<path d="M29.9022 32.4147C29.5459 31.9026 28.8509 31.5903 28.9236 31.7113C29.2913 32.3332 30.3594 34.8333 29.2033 36.917C28.8705 36.1855 28.5434 35.7493 28.2246 35.6507C28.3477 36.2432 28.9236 37.5502 29.0634 37.5854C29.2033 37.6206 29.4185 37.2252 29.4829 36.7763C29.7794 36.7173 30.5328 35.1034 30.2169 33.2434C30.2368 32.2079 30.1311 31.1736 29.9022 30.1637C29.7261 29.8695 29.8521 32.3696 29.9022 32.4147Z" fill="black" stroke="black" stroke-miterlimit="10"/>
<path d="M38.5703 28.4749C38.7855 28.413 38.3733 27.8515 37.5916 27.6307C36.4899 26.5446 33.3974 24.6762 33.2575 24.254C33.1177 23.8318 32.5586 22.9877 32.2789 22.8469C31.9992 22.7062 30.6013 23.1284 30.6013 23.1284C29.7175 22.6923 28.9402 22.3447 28.5041 22.2843C28.9906 22.0576 29.1834 21.5539 29.343 21.0179C28.0049 22.6781 26.4671 22.6923 25.0089 21.2994C24.7445 20.2793 24.6509 19.0707 23.6107 18.9075C22.5888 18.7668 21.9764 19.0707 21.9331 19.4703C22.4922 19.1889 23.5786 19.3816 24.0302 20.0331C24.395 20.7562 24.4021 21.8129 24.5894 22.2843C24.869 22.9877 25.4282 23.2691 25.7261 23.6913C26.2672 24.3947 26.6865 25.5203 26.7354 26.2548C26.7607 26.6444 26.6865 26.7822 26.8263 27.0637C27.0235 27.3605 27.2458 27.4858 27.3857 26.7822C27.3857 25.5005 26.8976 24.5031 26.2672 23.4057C26.7733 22.9456 27.805 22.8428 27.9448 22.9835C29.0633 23.1242 29.3821 26.8429 28.7836 27.2044C28.2645 27.5125 27.8315 27.9483 27.5253 28.4707C27.2458 29.1741 27.5477 29.775 27.9448 30.4404C28.2245 30.4813 28.3028 30.4152 28.2887 30.2997C28.1366 29.7904 28.1634 29.244 28.3643 28.7522C29.1416 28.1471 29.4213 27.5365 29.4828 26.9229C30.692 30.38 31.1045 37.2108 31.4401 44.3694L33.5372 44.2287L33.9565 43.9475L33.5372 38.4603L33.2575 36.738C33.143 37.7329 32.6675 41.118 32.578 41.8412C32.5683 41.9579 32.5642 42.0101 32.5642 41.9819C32.5642 41.9707 32.5642 41.9212 32.578 41.8412C32.6452 41.0166 32.9192 36.9167 32.9737 36.3878C32.8913 36.3679 32.2845 33.6765 32.2845 33.6765C32.2845 33.6765 32.8436 34.9976 33.1233 35.8488C33.2128 31.4605 35.4288 29.6061 38.5703 28.4749ZM32.5586 28.0527C32.5586 28.0527 32.838 27.0678 32.6984 26.7866C32.5586 26.5052 28.9235 23.2691 28.9235 23.2691C28.8298 23.0187 28.8969 22.9441 29.2031 23.1284C29.2031 23.1284 32.838 26.5052 32.9779 26.6459C33.1177 26.7866 32.5586 28.0527 32.5586 28.0527Z" fill="black" stroke="black" stroke-miterlimit="10"/>
<path d="M32.5728 41.8457C32.5628 41.9216 32.5586 41.971 32.5586 41.9864C32.5586 42.0146 32.5628 41.9625 32.5728 41.8457Z" fill="black" stroke="black" stroke-miterlimit="10"/>
<path d="M32.9785 36.3537C32.9785 36.317 32.9784 36.3326 32.9683 36.3916C32.974 36.3931 32.9785 36.3818 32.9785 36.3537Z" fill="black" stroke="black" stroke-miterlimit="10"/>
<path d="M11.6815 24.752H11.6626C11.6626 24.752 11.6705 24.752 11.6815 24.752Z" fill="black" stroke="black" stroke-miterlimit="10"/>
<path d="M36.1939 41.1374L35.9142 40.9969C35.9142 40.9969 35.3548 41.7003 35.2152 41.841C34.7957 42.263 34.3762 43.3885 34.0967 43.8107C33.8506 44.1808 33.5374 43.8107 33.5374 44.2329C33.5374 44.2329 33.4438 44.2329 33.3976 44.2329H33.1181C32.9783 44.2329 31.5716 44.3734 31.3004 44.3734C30.7413 44.3734 26.1275 44.6549 25.708 44.5141C25.2887 44.3734 22.6967 43.8558 21.6536 43.9514C21.0944 43.9514 19.8599 44.2427 18.4381 44.9363C18.1361 44.4086 20.4793 43.2366 21.0944 43.3885C21.2342 43.4223 21.1867 43.1974 21.0944 43.1073C20.8358 42.8596 20.0375 42.4389 19.5565 42.263C19.5565 42.263 19.5565 42.1224 19.976 42.1224C20.3954 42.1224 19.1371 34.9144 18.7177 33.5397C18.2982 32.1652 16.0613 28.6154 16.0613 28.6154C19.2336 32.7098 20.6135 37.1796 20.3954 41.9817C21.0455 42.4149 21.4943 42.8792 21.6536 43.3885C23.035 43.8993 24.9281 44.1174 27.246 44.0922C27.5257 44.0922 27.9549 38.4755 25.4286 32.8363C23.042 27.5094 18.0816 22.1433 17.8788 22.1433C17.437 22.1588 18.2982 21.3371 18.2982 21.3371L18.4381 21.2992V21.5804L18.2982 21.8619L18.5779 22.4248L18.7177 22.2841C18.7596 21.1093 18.8855 20.2946 19.1371 20.0329C19.2154 19.9006 19.1455 19.8007 18.8575 19.7515C18.1741 19.9536 17.517 20.237 16.9002 20.5957C16.2537 22.2057 15.6936 23.8495 15.2225 25.5201C15.1623 25.6733 17.0148 27.2718 16.9002 27.2084C16.7855 27.1452 14.6632 25.9421 14.803 25.6608C14.9428 25.3794 15.7817 22.6879 15.6419 22.8468C15.5216 22.9777 11.9495 24.7477 11.6797 24.7518C11.9342 24.8342 12.15 25.0074 12.2865 25.2387H10.469C8.93105 25.6608 7.66439 27.3998 7.81259 29.6003C7.81259 33.1178 14.9428 50.8455 17.1798 53.5188C18.0186 54.522 20.5534 53.5624 22.7721 53.3781C27.945 52.9561 31.9996 51.2677 32.2791 50.5642C32.6356 48.6395 31.5242 44.9363 31.5801 44.9363C31.9109 44.9305 32.2395 44.8831 32.5587 44.7956C32.6986 44.9363 32.9418 46.6246 32.9783 46.7653C33.0481 47.0284 33.132 46.8948 33.1181 46.6246C33.1096 46.4841 32.8384 44.7956 32.7236 44.7956C33.0553 44.8002 33.3853 44.7526 33.7025 44.6549C33.7499 44.6549 33.7862 44.766 33.8171 44.9363C34.0897 45.0572 34.1651 44.9434 34.0967 44.6549C34.0708 44.5844 34.0277 44.5214 33.9712 44.4722C33.9148 44.423 33.8467 44.389 33.7738 44.3734C34.0853 44.2919 34.3522 44.0897 34.516 43.8107C34.5426 43.3986 36.054 40.9756 36.1939 41.1374ZM18.9973 41.5595C19.5565 41.841 19.4167 42.1224 19.4167 42.1224C19.1245 41.9675 18.5429 41.6692 18.4381 41.5595C18.4381 41.5595 18.4381 41.2781 18.9973 41.5595ZM21.3741 32.1329C21.3741 32.1329 21.0944 34.2433 21.2342 34.6653C21.3741 35.0875 25.8479 40.8561 25.8479 40.8561C25.8479 40.8561 20.8148 35.0875 20.675 34.806C20.5352 34.5248 21.3741 32.1329 21.3741 32.1329ZM16.0613 40.5747C15.9215 40.5747 15.3623 40.434 15.3623 40.2932C15.3623 40.1525 15.3623 39.8713 15.7118 40.0429C16.0613 40.2144 16.2011 40.5747 16.0613 40.5747ZM16.4108 48.1723C16.2948 48.1723 16.2011 48.047 16.2011 47.8909C16.2011 47.7347 16.2948 47.6094 16.4108 47.6094C16.5269 47.6094 16.6206 47.7362 16.6206 47.8909C16.6206 48.0458 16.5255 48.1723 16.4108 48.1723ZM17.3196 47.0468C17.2472 47.063 17.1716 47.0563 17.1032 47.0276C17.0348 46.9988 16.977 46.9494 16.9377 46.886C16.8985 46.8228 16.8797 46.7488 16.884 46.6744C16.8883 46.5998 16.9155 46.5285 16.9618 46.4703C17.0081 46.4119 17.0713 46.3696 17.1425 46.3492C17.2138 46.3285 17.2897 46.3306 17.3596 46.3554C17.4296 46.38 17.4902 46.4259 17.5332 46.4868C17.5761 46.5476 17.5992 46.6204 17.5992 46.6951C17.6075 46.7789 17.5829 46.8625 17.5306 46.9281C17.4784 46.994 17.4026 47.0365 17.3196 47.0468ZM18.0186 41.4188C17.4914 41.2181 16.9777 40.9831 16.4807 40.7154C16.4807 40.7154 16.6206 40.434 17.4594 40.8561C18.2982 41.2781 18.0186 41.4188 18.0186 41.4188ZM27.5955 50.8455C27.4988 50.8455 27.4041 50.8167 27.3237 50.7625C27.2431 50.7085 27.1806 50.6316 27.1435 50.5415C27.1064 50.4517 27.0967 50.3526 27.1157 50.2571C27.1346 50.1615 27.1812 50.0739 27.2495 50.0049C27.3179 49.9361 27.4051 49.8892 27.5 49.8702C27.5951 49.8512 27.6933 49.8608 27.7828 49.8981C27.8723 49.9355 27.9487 49.9986 28.0024 50.0795C28.0562 50.1606 28.0848 50.2557 28.0848 50.353C28.085 50.4179 28.0726 50.4819 28.048 50.5417C28.0235 50.6016 27.9875 50.656 27.9419 50.7018C27.8965 50.7475 27.8424 50.7838 27.783 50.8086C27.7235 50.8332 27.6599 50.8457 27.5955 50.8455ZM29.8325 50.2828C29.7357 50.2828 29.641 50.2538 29.5607 50.1998C29.4801 50.1456 29.4175 50.0687 29.3804 49.9788C29.3434 49.8888 29.3336 49.7897 29.3525 49.6942C29.3715 49.5988 29.4181 49.511 29.4865 49.4422C29.5549 49.3732 29.6421 49.3263 29.737 49.3073C29.8318 49.2883 29.9302 49.2981 30.0197 49.3355C30.1092 49.3726 30.1857 49.4357 30.2393 49.5168C30.2932 49.5977 30.3218 49.693 30.3218 49.7904C30.322 49.855 30.3096 49.9192 30.2849 49.979C30.2605 50.0389 30.2244 50.0933 30.1788 50.1389C30.1335 50.1848 30.0794 50.2211 30.02 50.2457C29.9605 50.2703 29.8969 50.283 29.8325 50.2828Z" fill="black" stroke="black" stroke-miterlimit="10"/>
<path d="M42.2057 21.4399C41.6464 24.6916 39.8584 25.1361 37.4521 24.1133C38.0115 25.5203 38.7105 27.3493 38.8503 27.3493C38.9901 27.3493 38.9901 28.1935 39.13 28.3342C39.1942 28.4003 40.2485 27.9122 42.4854 28.4749C44.862 29.0376 45.701 30.3039 45.701 30.3039C46.4 30.3039 46.9593 30.3039 47.938 30.7261C48.0778 30.5854 44.0764 24.6733 42.2057 21.4399ZM42.6951 25.5203C42.5983 25.5203 42.5037 25.4913 42.4233 25.4374C42.3427 25.3831 42.2801 25.3062 42.243 25.2164C42.206 25.1263 42.1962 25.0273 42.2151 24.9318C42.2339 24.8363 42.2805 24.7485 42.3491 24.6795C42.4175 24.6107 42.5047 24.5638 42.5996 24.5448C42.6944 24.5259 42.7928 24.5357 42.8823 24.5728C42.9718 24.6101 43.0481 24.6733 43.1019 24.7542C43.1558 24.8353 43.1844 24.9305 43.1844 25.0279C43.1846 25.0925 43.172 25.1567 43.1475 25.2166C43.1231 25.2764 43.087 25.3306 43.0414 25.3765C42.9961 25.4221 42.942 25.4584 42.8826 25.4832C42.8231 25.5078 42.7593 25.5205 42.6951 25.5203ZM43.6737 27.49C43.577 27.49 43.4823 27.4611 43.4019 27.4071C43.3213 27.3529 43.2588 27.2759 43.2217 27.1861C43.1846 27.096 43.1749 26.997 43.1937 26.9015C43.2128 26.806 43.2594 26.7183 43.3278 26.6495C43.3961 26.5805 43.4833 26.5335 43.5782 26.5146C43.6731 26.4956 43.7715 26.5054 43.861 26.5427C43.9505 26.5798 44.0269 26.643 44.0806 26.7241C44.1344 26.805 44.163 26.9003 44.163 26.9976C44.1632 27.0622 44.1508 27.1265 44.1262 27.1863C44.1017 27.2461 44.0657 27.3005 44.0201 27.3462C43.9747 27.3921 43.9207 27.4283 43.8612 27.4529C43.8017 27.4775 43.7381 27.4903 43.6737 27.49Z" fill="black" stroke="black" stroke-miterlimit="10"/>
<path d="M16.7602 52.253C15.1663 50.3508 11.727 42.5449 11.4474 42.5449C11.1678 42.5449 10.7218 44.4598 10.4688 46.7658C8.37162 46.6251 7.39295 47.0473 6.13468 48.1728C5.01622 47.9533 3.91172 47.3498 2.63946 46.6251C2.48427 46.5661 2.392 46.6138 2.35984 46.7658C2.45491 47.6425 2.77927 48.4543 2.77927 49.017C2.77927 49.1577 2.66882 49.1971 2.62408 49.1829C2.57934 49.169 1.10156 49.017 1.10156 49.017C1.94042 59.7099 16.2373 62.0654 22.3819 53.418L16.7602 52.253Z" fill="black" stroke="black" stroke-miterlimit="10"/>
<path d="M43.184 43.9518C43.2331 44.35 42.9046 44.7959 42.7647 44.7959C42.6249 44.7959 40.8074 43.1074 40.3879 43.1074C40.3879 43.1074 40.1083 43.1074 40.1083 43.2905C40.1056 43.3397 40.1174 43.3887 40.1422 43.4312C40.1671 43.4739 40.204 43.5081 40.2481 43.5296C40.9388 43.7675 41.5273 44.233 42.0656 44.7959C42.0656 44.7959 42.2054 45.0774 41.6463 45.64C41.2267 45.9215 41.0869 45.7808 41.0869 45.7808C40.7934 45.5248 40.6411 45.2756 40.3879 45.2181C40.2243 45.2095 40.0929 45.3248 40.2481 45.4993C40.539 45.6963 40.7584 45.8863 40.8074 46.0622C40.8074 46.4842 40.3879 46.9064 40.2481 46.9064C40.1083 46.9064 39.4093 46.3435 39.2695 46.4842C39.1296 46.6249 39.4093 47.0471 39.4093 47.0471C39.4093 47.0471 39.4611 47.1399 39.2695 47.3285C39.1485 47.4198 39.0014 47.469 38.85 47.469C38.4812 47.3942 38.1073 47.3471 37.7315 47.3285C37.3122 47.3285 35.7742 47.6098 35.7742 47.6098C35.7742 47.6098 35.215 46.7656 35.0752 46.7656C34.9354 46.7656 34.9675 47.1146 34.9816 47.3285C34.8991 47.2341 34.7817 47.2666 34.6557 47.3285L33.5372 47.469C33.4718 47.4903 33.4123 47.5268 33.3636 47.5758C33.3149 47.6248 33.2787 47.6846 33.2578 47.7505C33.2685 48.3157 33.3151 48.8796 33.3974 49.439C33.1179 49.439 32.8047 49.5572 32.3475 49.7851L31.7198 50.8458C31.7676 51.4617 31.8611 52.0731 31.9994 52.675L31.8596 55.2074C30.6628 54.262 29.0633 52.675 28.9237 52.675C28.7838 52.675 25.9875 55.6296 25.2886 55.6296C24.5896 55.6296 21.7653 54.5659 21.7862 54.7375C21.7933 54.7855 23.9072 55.8237 24.6343 56.4429C24.7796 56.5607 24.9623 56.6218 25.1487 56.6145C25.7081 56.6145 28.851 53.5192 28.851 53.5192C29.7681 54.4379 30.6811 55.2483 31.5799 55.7703C31.8596 55.8885 32.0427 55.8379 32.1393 55.6296C32.2721 54.6979 32.3189 53.756 32.2791 52.8155C32.3864 52.8053 32.4861 52.7553 32.5586 52.675C32.6984 52.5343 33.3974 50.0017 33.3974 50.0017L33.8169 49.7202V49.0168L35.3549 48.4541L35.9714 48.5946L36.8927 49.1575L38.5705 48.7354H39.4093C39.689 48.7354 40.2481 47.7505 40.2481 47.7505C40.4412 47.7367 40.6305 47.6892 40.8074 47.6098C41.0869 47.4691 41.4994 46.7573 41.5064 46.3435C41.9957 46.2592 42.3817 45.9609 42.6249 45.3586H42.9046C43.0444 45.3586 43.7434 44.233 43.6035 43.9518C43.4051 43.8813 43.2052 43.8002 43.0038 43.7083C43.0695 43.7927 43.131 43.8744 43.184 43.9518Z" fill="black" stroke="black" stroke-miterlimit="10"/>
<path d="M42.3609 42.5811L42.0532 42.6697C42.3909 42.9949 42.7079 43.3412 43.0024 43.7066C43.2038 43.8003 43.4037 43.8816 43.6024 43.9499C43.5268 43.8021 42.9676 43.1621 42.3609 42.5811Z" fill="black" stroke="black" stroke-miterlimit="10"/>
<path d="M40.9498 41.5596H38.7129C39.0518 41.6653 39.3994 41.7405 39.7516 41.7847C40.1711 41.7601 40.5921 41.7699 41.0099 41.8141C41.1498 41.8031 41.2811 41.7889 41.4139 41.7693C41.2794 41.6609 41.1197 41.5888 40.9498 41.5596Z" fill="black" stroke="black" stroke-miterlimit="10"/>
<path d="M38.5706 44.2329C38.7105 43.9517 39.13 44.2329 39.13 44.2329C39.206 44.3088 39.2551 44.4076 39.2698 44.5143C39.2698 44.6551 38.8503 44.5143 38.8503 44.5143C38.8503 44.5143 38.4811 44.4118 38.5706 44.2329Z" fill="black" stroke="black" stroke-miterlimit="10"/>
<path d="M46.5276 35.4183C46.5276 35.3677 46.5276 35.3185 46.5161 35.269C46.5204 35.3128 46.5233 35.3677 46.5276 35.4183Z" fill="black" stroke="black" stroke-miterlimit="10"/>
<path d="M46.5399 35.7912C46.5399 35.7011 46.5399 35.6125 46.5327 35.5239C46.5372 35.6125 46.5399 35.7011 46.5399 35.7912Z" fill="black" stroke="black" stroke-miterlimit="10"/>
<path d="M46.5229 36.226C46.5229 36.2086 46.5229 36.1911 46.5229 36.1738C46.5244 36.1911 46.5244 36.2086 46.5229 36.226Z" fill="black" stroke="black" stroke-miterlimit="10"/>
<path d="M46.481 36.6294V36.5991V36.6294Z" fill="black" stroke="black" stroke-miterlimit="10"/>
<path d="M37.6548 41.5596H37.1681C36.9713 41.5583 36.7745 41.5721 36.5796 41.6004C36.7907 41.7455 37.0095 41.879 37.2353 41.9999C38.0699 41.8846 38.9098 41.8127 39.7519 41.7847C39.6639 41.7735 39.5756 41.7593 39.4876 41.7453H39.4793C39.3954 41.7311 39.3115 41.7143 39.229 41.6974L39.194 41.689C39.1186 41.6721 39.0444 41.6538 38.9703 41.6342L38.9116 41.6173C38.8431 41.5975 38.7718 41.5792 38.7061 41.5566H37.6548V41.5596Z" fill="black" stroke="black" stroke-miterlimit="10"/>
<path d="M38.9131 41.6201L38.9722 41.637L38.9131 41.6201Z" fill="black" stroke="black" stroke-miterlimit="10"/>
<path d="M46.5716 32.2597C46.4011 32.2343 46.2277 32.2132 46.0501 32.2034L45.9103 31.5L46.074 31.5113C45.4585 30.7034 44.6762 30.0396 43.7811 29.5655C42.8859 29.0917 41.8992 28.8188 40.8891 28.7658C39.8789 28.7131 38.8696 28.8815 37.9303 29.2595C36.9913 29.6375 36.1448 30.216 35.4493 30.9553C34.7541 31.6943 34.2265 32.5766 33.9029 33.541C33.5793 34.5055 33.4676 35.5291 33.5755 36.5413C33.6833 37.5535 34.0081 38.53 34.5275 39.4033C35.0468 40.2768 35.7483 41.0265 36.5836 41.6007C36.7785 41.5721 36.9753 41.5586 37.1723 41.5598H38.7101C37.6861 41.2336 36.7677 40.6371 36.0503 39.8326C35.3331 39.0281 34.843 38.0449 34.6313 36.9851C34.4193 35.9254 34.4935 34.828 34.8459 33.8069C35.1983 32.7859 35.8162 31.8784 36.6352 31.1792C37.4541 30.4797 38.4443 30.014 39.5027 29.8301C40.5611 29.6464 41.6494 29.7513 42.6537 30.1341C43.6582 30.5168 44.5426 31.1635 45.2147 32.0066C45.8865 32.8499 46.3219 33.859 46.475 34.9287L47.3559 34.297C47.202 33.5809 46.9374 32.8933 46.5716 32.2597Z" fill="black" stroke="black" stroke-miterlimit="10"/>
<path d="M39.1997 41.6919L39.2349 41.7002L39.1997 41.6919Z" fill="black" stroke="black" stroke-miterlimit="10"/>
<path d="M39.4849 41.748H39.4973H39.4849Z" fill="black" stroke="black" stroke-miterlimit="10"/>
<path d="M46.1831 37.8452C46.2033 37.7903 46.2232 37.7355 46.2419 37.6807C46.2232 37.7299 46.2033 37.7847 46.1831 37.8452Z" fill="black" stroke="black" stroke-miterlimit="10"/>
<path d="M45.835 38.6307C45.873 38.559 45.9095 38.4899 45.9448 38.4141C45.9038 38.4872 45.873 38.559 45.835 38.6307Z" fill="black" stroke="black" stroke-miterlimit="10"/>
<path d="M45.9536 38.3936C45.9889 38.3205 46.0227 38.2529 46.0536 38.1714C46.0212 38.246 45.9889 38.3205 45.9536 38.3936Z" fill="black" stroke="black" stroke-miterlimit="10"/>
<path d="M45.5693 39.083C45.6144 39.0142 45.6595 38.9423 45.7019 38.8706C45.6595 38.9423 45.6144 39.0142 45.5693 39.083Z" fill="black" stroke="black" stroke-miterlimit="10"/>
<path d="M45.708 38.8597C45.7489 38.7894 45.7896 38.719 45.8291 38.6445C45.7896 38.7177 45.7489 38.7894 45.708 38.8597Z" fill="black" stroke="black" stroke-miterlimit="10"/>
<path d="M46.0615 38.1535C46.0953 38.0734 46.1277 37.9931 46.1588 37.9116C46.1277 37.9931 46.0953 38.0734 46.0615 38.1535Z" fill="black" stroke="black" stroke-miterlimit="10"/>
<path d="M45.5639 39.0933C45.5179 39.1652 45.469 39.234 45.4242 39.3059L44.2734 41.7328L44.3449 41.6836L45.4996 39.1975C45.5193 39.1637 45.5417 39.1285 45.5639 39.0933Z" fill="black" stroke="black" stroke-miterlimit="10"/>
<path d="M46.7674 36.4595L46.3229 37.3978C46.3117 37.4414 46.2976 37.4823 46.2852 37.5246C46.2934 37.4992 46.3019 37.4739 46.3088 37.447L46.7674 36.4595Z" fill="black" stroke="black" stroke-miterlimit="10"/>
<path d="M47.4718 34.978L47.416 35.0935L47.4718 34.978Z" fill="black" stroke="black" stroke-miterlimit="10"/>
<path d="M47.5178 35.7913C47.5176 35.5197 47.5016 35.248 47.4704 34.978L47.4159 35.0921L46.767 36.4597L46.3086 37.4446C46.3086 37.4712 46.2933 37.4967 46.2848 37.5219C46.2709 37.5726 46.2553 37.6232 46.24 37.6724C46.2247 37.7216 46.2023 37.7823 46.1826 37.8371L46.1576 37.9088C46.1269 37.9904 46.0946 38.0706 46.061 38.1509L46.0527 38.1692C46.0219 38.2437 45.9883 38.3183 45.9535 38.3915C45.9535 38.3915 45.9465 38.4042 45.9436 38.4111C45.9088 38.4843 45.8723 38.5518 45.8346 38.6279C45.8329 38.6327 45.8304 38.6375 45.8275 38.6419C45.7884 38.715 45.748 38.7826 45.7074 38.8572L45.7004 38.8685C45.6585 38.9402 45.6138 39.0092 45.569 39.0809V39.0907C45.5466 39.126 45.5243 39.161 45.5004 39.1948L44.3457 41.6809C45.3198 41.0427 46.1203 40.1696 46.6742 39.1412C47.2282 38.1127 47.5182 36.9613 47.5178 35.7913Z" fill="black" stroke="black" stroke-miterlimit="10"/>
<path d="M47.4162 35.0918L47.4707 34.978C47.4446 34.7491 47.4069 34.5218 47.3576 34.2969L46.4767 34.9286C46.4935 35.0412 46.5061 35.1552 46.5158 35.2692C46.5158 35.3184 46.5229 35.3676 46.527 35.4183C46.5312 35.469 46.527 35.4885 46.527 35.5238C46.527 35.6124 46.5341 35.701 46.5341 35.7911C46.5341 35.9205 46.5341 36.0473 46.52 36.1738C46.52 36.1907 46.52 36.2076 46.52 36.2245C46.5117 36.351 46.4976 36.4749 46.4823 36.5987V36.6283C46.4464 36.8881 46.3936 37.1451 46.3242 37.3978L46.7688 36.4594L47.4162 35.0918Z" fill="black" stroke="black" stroke-miterlimit="10"/>
<path d="M46.769 36.4594L47.4162 35.0933L46.769 36.4594Z" fill="black" stroke="black" stroke-miterlimit="10"/>
<path d="M45.4195 39.3057C45.3636 39.3833 45.3077 39.4591 45.249 39.5338C45.1902 39.6078 45.1301 39.681 45.0686 39.7533C45.0071 39.8236 44.9443 39.8938 44.8799 39.9614C44.8157 40.0289 44.7485 40.095 44.6814 40.1613C44.6143 40.2259 44.5416 40.2893 44.4745 40.3512C44.4032 40.4132 44.3346 40.4736 44.2578 40.5326C44.1836 40.5904 44.1082 40.6481 44.0326 40.7029C43.9557 40.7592 43.8774 40.8126 43.7979 40.8647L43.9824 41.9032C44.0829 41.8454 44.1809 41.7862 44.2787 41.7243L45.4293 39.2974L45.4195 39.3057Z" fill="black" stroke="black" stroke-miterlimit="10"/>
<path d="M45.9106 31.5L46.0505 32.2034C46.228 32.2132 46.4014 32.2343 46.5719 32.2597C46.4225 31.9995 46.2562 31.7495 46.0743 31.5113L45.9106 31.5Z" fill="black" stroke="black" stroke-miterlimit="10"/>
<path d="M40.5275 30.4443C39.4768 30.4443 38.4496 30.7579 37.576 31.3454C36.7022 31.9329 36.0213 32.7678 35.6192 33.7448C35.217 34.7217 35.112 35.7969 35.3169 36.8338C35.522 37.871 36.0279 38.8238 36.771 39.5714C37.5139 40.3192 38.4606 40.8283 39.4911 41.0347C40.5217 41.2409 41.5898 41.135 42.5606 40.7303C43.5314 40.3257 44.3613 39.6404 44.9449 38.7612C45.5286 37.8821 45.8402 36.8482 45.8402 35.7908C45.8402 34.3729 45.2807 33.013 44.2842 32.0104C43.288 31.0076 41.9366 30.4443 40.5275 30.4443ZM43.7796 38.5711C43.7027 38.8778 43.4357 38.9735 43.1407 39.0396L42.3773 37.9857C42.2109 38.1068 42.0402 38.2307 41.8627 38.3557L42.6317 39.4125C42.4825 39.6417 42.2552 39.8082 41.9928 39.881L41.2167 38.8117C41.0672 38.9214 40.912 39.0298 40.7583 39.1438L39.9263 39.753C39.5488 39.5053 39.4216 39.2155 39.4958 38.8905C39.4958 38.8905 39.974 38.5513 39.9599 38.5501C40.0224 38.5098 40.0663 38.4464 40.0825 38.3735C40.0985 38.3007 40.085 38.2246 40.0452 38.1617L38.8205 36.4732L38.8876 36.424C38.8631 36.4369 38.8397 36.4519 38.8178 36.469L37.9425 35.2646C37.8679 35.1877 37.766 35.1431 37.6591 35.1408C37.5522 35.1383 37.4486 35.1783 37.3707 35.2521C37.3707 35.2379 36.9079 35.5926 36.9079 35.5926C36.5305 35.5179 36.3571 35.2942 36.4089 34.9058L37.2895 34.2602C37.4211 34.163 37.5553 34.0602 37.6908 33.9562L36.9247 32.8996C36.9684 32.7639 37.0538 32.6457 37.1681 32.5615C37.2827 32.4774 37.4204 32.4318 37.5621 32.4309L38.3144 33.4679C38.4822 33.3385 38.6514 33.209 38.819 33.0866L38.0738 32.0638C38.2172 31.8295 38.4461 31.6608 38.7115 31.5939L39.479 32.6519C40.357 32.1201 41.1944 31.8964 41.8208 32.6042C42.2793 33.1218 42.2919 33.627 42.0599 34.0884C42.7756 33.7888 43.423 33.8732 43.9418 34.747C44.5848 35.8302 44.0313 36.6548 43.0035 37.5045L43.7796 38.5711Z" fill="black" stroke="black" stroke-miterlimit="10"/>
<path d="M38.8809 34.2184C39.063 34.7281 39.3872 35.1743 39.8148 35.5031C40.1742 35.2385 41.3681 34.4928 40.841 33.7654C40.2902 33.0084 39.2415 33.9538 38.8809 34.2184Z" fill="black" stroke="black" stroke-miterlimit="10"/>
<path d="M40.2842 36.1569C40.5632 36.67 40.9094 37.1433 41.3132 37.564C41.7453 37.2458 43.1685 36.3398 42.5883 35.5421C41.9885 34.7134 40.7176 35.8334 40.2842 36.1569Z" fill="black" stroke="black" stroke-miterlimit="10"/>
<path d="M46.5264 35.3915C46.5191 35.3027 46.5121 35.2128 46.502 35.1255C46.5121 35.2141 46.5191 35.3027 46.5264 35.3915Z" fill="black" stroke="black" stroke-miterlimit="10"/>
<path d="M45.708 38.8597C45.7487 38.7894 45.7896 38.719 45.8291 38.6445C45.7896 38.7177 45.7487 38.7894 45.708 38.8597Z" fill="black" stroke="black" stroke-miterlimit="10"/>
<path d="M46.0615 38.1535C46.0953 38.0734 46.1277 37.9931 46.1588 37.9116C46.1277 37.9931 46.0953 38.0734 46.0615 38.1535Z" fill="black" stroke="black" stroke-miterlimit="10"/>
<path d="M45.9536 38.3936C45.9889 38.3205 46.0227 38.2529 46.0536 38.1714C46.0212 38.246 45.9889 38.3205 45.9536 38.3936Z" fill="black" stroke="black" stroke-miterlimit="10"/>
<path d="M46.1831 37.8452C46.2033 37.7903 46.2232 37.7355 46.2419 37.6807C46.2232 37.7299 46.2033 37.7847 46.1831 37.8452Z" fill="black" stroke="black" stroke-miterlimit="10"/>
<path d="M45.835 38.6307C45.8732 38.559 45.9097 38.4899 45.9449 38.4141C45.904 38.4872 45.8732 38.559 45.835 38.6307Z" fill="black" stroke="black" stroke-miterlimit="10"/>
<path d="M46.7674 36.4595L46.3229 37.3978C46.3117 37.4414 46.2976 37.4823 46.2852 37.5246C46.2934 37.4992 46.3019 37.4739 46.3088 37.447L46.7674 36.4595Z" fill="black" stroke="black" stroke-miterlimit="10"/>
<path d="M45.5693 39.083C45.6144 39.0142 45.6595 38.9423 45.7017 38.8706C45.6595 38.9423 45.6144 39.0142 45.5693 39.083Z" fill="black" stroke="black" stroke-miterlimit="10"/>
<path d="M43.1941 44.4707C44.1518 44.8399 45.1783 44.9927 46.2013 44.9179C47.224 44.8432 48.218 44.543 49.1126 44.0385C50.0071 43.534 50.7804 42.8377 51.3777 41.9987C51.9752 41.1598 52.3816 40.1989 52.5685 39.1842C52.7555 38.1694 52.7185 37.1257 52.4597 36.1271C52.2012 35.1285 51.7272 34.1993 51.0719 33.4056C50.4165 32.6119 49.5957 31.9729 48.6674 31.534C47.7393 31.0954 46.7264 30.8675 45.701 30.8667C45.2052 30.8671 44.7107 30.9201 44.226 31.0243C45.4654 31.9985 46.2759 33.4231 46.4838 34.9919L46.4756 34.9285L48.0133 33.8213L47.9924 33.8663L48.4005 39.8149L44.0667 42.266L45.4926 39.1959C45.5164 39.1621 45.5388 39.1269 45.5611 39.0919C45.5149 39.1636 45.4661 39.2326 45.4213 39.3043L44.0316 42.2364L43.7897 40.8717C43.0706 41.3397 42.2602 41.6474 41.4131 41.7736C41.7474 42.0181 42.0634 42.2877 42.3582 42.5798C46.8166 45.2164 50.6684 42.311 51.2905 39.0256C51.8498 36.071 49.7525 32.413 46.0476 32.2018L45.9079 31.4984C49.438 31.6587 52.409 34.5234 51.9894 38.7443C51.6163 42.4897 47.6191 45.5906 43.2906 43.8319" fill="black"/>
<path d="M43.1941 44.4707C44.1518 44.8399 45.1783 44.9927 46.2013 44.9179C47.224 44.8432 48.218 44.543 49.1126 44.0385C50.0071 43.534 50.7804 42.8377 51.3777 41.9987C51.9752 41.1598 52.3816 40.1989 52.5685 39.1842C52.7555 38.1694 52.7185 37.1257 52.4597 36.1271C52.2012 35.1285 51.7272 34.1993 51.0719 33.4056C50.4165 32.6119 49.5957 31.9729 48.6674 31.534C47.7393 31.0954 46.7264 30.8675 45.701 30.8667C45.2052 30.8671 44.7107 30.9201 44.226 31.0243C45.4654 31.9985 46.2759 33.4231 46.4838 34.9919L46.4756 34.9285L48.0133 33.8213L47.9924 33.8663L48.4005 39.8149L44.0667 42.266L45.4926 39.1959C45.5164 39.1621 45.5388 39.1269 45.5611 39.0919C45.5149 39.1636 45.4661 39.2326 45.4213 39.3043L44.0316 42.2364L43.7897 40.8717C43.0706 41.3397 42.2602 41.6474 41.4131 41.7736C41.7474 42.0181 42.0634 42.2877 42.3582 42.5798C46.8166 45.2164 50.6684 42.311 51.2905 39.0256C51.8498 36.071 49.7525 32.413 46.0476 32.2018L45.9079 31.4984C49.438 31.6587 52.409 34.5234 51.9894 38.7443C51.6163 42.4897 47.6191 45.5906 43.2906 43.8319" stroke="black" stroke-miterlimit="10"/>
<path d="M42.0529 42.6702L42.3605 42.5816C42.0659 42.2895 41.75 42.0199 41.4154 41.7754C41.2839 41.795 41.1499 41.8104 41.0156 41.8217C41.0401 41.8256 41.0639 41.8321 41.0869 41.8415C41.4345 42.0858 41.7581 42.3633 42.0529 42.6702Z" fill="black" stroke="black" stroke-miterlimit="10"/>
<path d="M46.5398 35.7913C46.5398 35.6873 46.5398 35.5845 46.5298 35.4819C46.5355 35.5845 46.5398 35.6873 46.5398 35.7913Z" fill="black" stroke="black" stroke-miterlimit="10"/>
<path d="M46.5229 36.226C46.5229 36.2084 46.5229 36.1911 46.5229 36.1738C46.5244 36.1911 46.5244 36.2084 46.5229 36.226Z" fill="black" stroke="black" stroke-miterlimit="10"/>
<path d="M46.481 36.6294V36.5991V36.6294Z" fill="black" stroke="black" stroke-miterlimit="10"/>
<path d="M47.9947 33.8213L47.9824 33.8497L47.996 33.8392L47.9947 33.8213Z" fill="black" stroke="black" stroke-miterlimit="10"/>
<path d="M46.769 37.0801L48.4007 39.6803" stroke="black" stroke-width="2" stroke-miterlimit="10" stroke-linecap="round"/>
<path d="M48.567 39.8009L45.4912 39.6602" stroke="black" stroke-width="5" stroke-miterlimit="10"/>
<path d="M45.0703 39.9995L43.9336 42.4039" stroke="black" stroke-miterlimit="10" stroke-linecap="round"/>
<path d="M47.992 33.8213L46.8525 36.2301" stroke="black" stroke-miterlimit="10" stroke-linecap="round"/>
<path d="M70.918 29.2917C71.0056 29.4953 71.1844 30.0756 71.4541 31.0325C71.5755 31.4667 71.6395 31.9281 71.6461 32.4168H70.7257C70.0783 31.4938 69.4106 30.8321 68.7228 30.4318C68.0351 30.0247 67.2663 29.821 66.4165 29.821C65.3713 29.821 64.5284 30.2315 63.8876 31.0527C63.0177 32.1658 62.5827 33.7165 62.5827 35.7049C62.5827 36.8587 62.6569 37.6797 62.8054 38.1683C63.048 38.9624 63.355 39.6104 63.7258 40.1126C64.009 40.4927 64.3801 40.7948 64.8385 41.0187C65.432 41.3241 66.066 41.4767 66.7403 41.4767C67.4819 41.4767 68.1969 41.2459 68.8846 40.7846C69.5793 40.3163 70.2436 39.6206 70.8773 38.6977C71.127 38.6501 71.4541 38.623 71.8587 38.6164C71.8318 38.8743 71.7878 39.1422 71.7271 39.4205C71.7068 39.5291 71.6294 39.96 71.4945 40.7133L71.4035 41.0187L71.2619 41.4972C70.8504 41.8161 70.2706 42.0569 69.5219 42.22C68.7802 42.3759 67.8664 42.4541 66.7807 42.4541C65.9512 42.4541 65.1656 42.3759 64.4238 42.22C63.6887 42.0638 63.0581 41.8161 62.5322 41.4767C61.7634 40.9883 61.1599 40.4587 60.7215 39.8887C60.2832 39.3187 59.9561 38.6977 59.7404 38.026C59.5314 37.354 59.4268 36.6008 59.4268 35.766C59.4268 33.7436 60.0876 32.074 61.4093 30.7575C62.7379 29.4409 64.4306 28.7828 66.4873 28.7828C67.3237 28.7828 68.1092 28.8268 68.8442 28.9149C69.5861 28.9965 70.2772 29.122 70.918 29.2917ZM72.9107 41.6193C73.0186 41.5922 73.3186 41.5514 73.811 41.4972C74.0267 41.4701 74.1615 41.4225 74.2156 41.3546C74.2829 41.2528 74.3167 41.0118 74.3167 40.632V39.9092L74.3469 39.1457V38.3109L74.3571 38.1073L74.3469 37.5984L74.3672 37.4253L74.4076 33.73V33.445C74.4076 32.1827 74.3741 31.4023 74.3065 31.1036C74.2661 30.9272 74.1684 30.7881 74.0132 30.6862C73.8649 30.5845 73.5108 30.4894 72.9511 30.4012V30.1875C72.9511 30.0858 72.9579 29.9601 72.9714 29.8108L73.8209 29.6275C73.9896 29.58 74.1514 29.5393 74.3065 29.5054C74.6842 29.424 75.1596 29.2543 75.7329 28.9965C75.834 28.9354 75.9284 28.8845 76.0161 28.8438L76.5624 28.8845L76.542 34.9719C77.1557 34.4832 77.7154 34.1372 78.2213 33.9337C78.727 33.73 79.253 33.6283 79.7993 33.6283C80.3185 33.6283 80.767 33.7233 81.1446 33.9133C81.5289 34.0965 81.8258 34.3273 82.0348 34.6054C82.2438 34.8769 82.3922 35.2094 82.4798 35.603C82.5405 35.8678 82.5709 36.3767 82.5709 37.1301V37.7816L82.5811 39.2168L82.5303 41.2935C82.5575 41.3546 82.5877 41.3954 82.6215 41.4156C82.7025 41.4496 82.9014 41.4972 83.2183 41.5582C83.4004 41.5922 83.5419 41.6227 83.6432 41.6498C83.6971 41.7517 83.724 41.833 83.724 41.8941L83.7139 41.9756C83.7004 42.0503 83.6938 42.1622 83.6938 42.3115L83.4611 42.3217C83.3598 42.3217 83.1609 42.3081 82.8643 42.281C82.2977 42.2266 81.8223 42.1995 81.438 42.1995C81.1885 42.1995 80.8546 42.2131 80.4365 42.2402C80.1399 42.2537 79.7622 42.2606 79.3036 42.2606C79.2294 42.2606 79.1621 42.2504 79.1014 42.2302V41.9858L79.0811 41.8534C79.0811 41.799 79.0978 41.7244 79.1316 41.6295C79.2868 41.5549 79.4656 41.5074 79.6677 41.4869C79.8768 41.4598 80.0723 41.4327 80.2544 41.4054C80.2814 41.2766 80.2984 41.1951 80.305 41.1613L80.3555 39.675V37.181C80.3555 36.4413 80.3151 35.9424 80.2341 35.6845C80.1533 35.4199 79.9847 35.206 79.7284 35.0432C79.4722 34.8735 79.1621 34.7887 78.7979 34.7887C78.373 34.7887 77.9582 34.8904 77.5536 35.0941C77.1557 35.2909 76.8153 35.525 76.5319 35.7965V37.5779C76.5319 38.5553 76.522 39.2881 76.5017 39.7768C76.4882 40.0686 76.4813 40.2519 76.4813 40.3265C76.4813 40.7948 76.5118 41.1171 76.5725 41.2935C76.5994 41.375 76.6736 41.4496 76.795 41.5176C77.0444 41.5378 77.2501 41.5514 77.4119 41.5582C77.5806 41.5582 77.7154 41.5718 77.8167 41.5989C77.8302 41.7686 77.8368 41.8874 77.8368 41.9552C77.8368 42.0503 77.8234 42.1655 77.7964 42.3013L76.6736 42.2504C76.2487 42.2164 75.8677 42.1995 75.5305 42.1995L74.1143 42.2708L73.123 42.2606C73.0557 42.1655 72.9848 41.996 72.9107 41.7517V41.6193ZM93.3338 40.3468L93.5664 40.4996C93.6271 40.5471 93.6642 40.6046 93.6776 40.6726L93.6878 40.7235C93.526 41.3275 93.3134 41.7448 93.0506 41.9756C92.7875 42.1995 92.4603 42.3115 92.0692 42.3115C91.6715 42.3115 91.3276 42.2029 91.0375 41.9858C90.7543 41.7617 90.4946 41.3716 90.2586 40.815C89.9686 41.3308 89.5607 41.7211 89.0347 41.9858C88.5087 42.2437 87.8646 42.3726 87.1027 42.3726C86.4012 42.3726 85.8854 42.2266 85.5549 41.935C85.2245 41.6362 85.0592 41.2459 85.0592 40.7641C85.0592 40.5402 85.1064 40.313 85.2009 40.0822C85.302 39.8514 85.4605 39.6242 85.6763 39.4C85.8988 39.1695 86.2529 38.9183 86.7385 38.6468C86.8126 38.6062 87.0689 38.4907 87.5073 38.3007L90.026 37.2827C90.0463 37.0248 90.0564 36.7636 90.0564 36.4988C90.0564 35.5828 89.945 34.9584 89.7225 34.6258C89.5876 34.4222 89.3516 34.3204 89.0144 34.3204C88.6773 34.3204 88.367 34.3848 88.0838 34.5139C87.8006 34.6427 87.5949 34.8091 87.4669 35.0126C87.3724 35.1621 87.2914 35.4435 87.2241 35.8575C87.1768 36.1561 87.1329 36.3293 87.0925 36.3767C86.9914 36.5057 86.8058 36.6245 86.5361 36.733C86.2732 36.8349 86.0944 36.9095 85.9999 36.9571C85.6359 37.1335 85.3459 37.2216 85.13 37.2216C85.0358 37.1401 84.9886 37.0248 84.9886 36.8756C84.9886 36.4886 85.0693 36.1561 85.2313 35.878C85.4739 35.4844 85.8381 35.1043 86.3237 34.7378C86.8159 34.3646 87.2746 34.1032 87.6995 33.9539C88.2794 33.764 88.9874 33.6689 89.8238 33.6689C90.3632 33.6689 90.8252 33.7707 91.2095 33.9743C91.6006 34.1711 91.8703 34.4664 92.0187 34.86C92.1738 35.2536 92.2513 35.9628 92.2513 36.9875L92.2211 38.6672L92.2412 39.8989V40.2146C92.2412 40.4996 92.2782 40.6964 92.3526 40.805C92.4334 40.9067 92.5345 40.9576 92.6559 40.9576C92.7301 40.9576 92.7943 40.9372 92.8482 40.8965L93.1517 40.4181L93.3338 40.3468ZM90.0158 37.9851C89.6315 38.1141 89.1965 38.3312 88.7109 38.6366C88.2321 38.9353 87.8984 39.2372 87.7094 39.5426C87.5746 39.7666 87.5073 40.0413 87.5073 40.3672C87.5073 40.6591 87.5949 40.8999 87.7701 41.09C87.9456 41.2799 88.1478 41.375 88.3771 41.375C88.7548 41.375 89.0751 41.2664 89.3382 41.0491C89.6955 40.7575 89.9046 40.5267 89.9653 40.357C90.026 40.1806 90.0564 39.6886 90.0564 38.8809C90.0564 38.5824 90.0427 38.2838 90.0158 37.9851ZM95.6503 30.1162C95.6503 29.7497 95.7681 29.4512 96.0043 29.2204C96.2403 28.9829 96.5438 28.8641 96.9146 28.8641C97.3125 28.8641 97.643 28.9896 97.9059 29.2408C98.169 29.4851 98.3005 29.7632 98.3005 30.0755C98.3005 30.3063 98.2464 30.5369 98.1385 30.7677C98.0374 30.9985 97.8721 31.1851 97.643 31.3277C97.4203 31.4634 97.1911 31.5312 96.955 31.5312C96.6314 31.5312 96.3312 31.3921 96.0549 31.1138C95.7851 30.8357 95.6503 30.5031 95.6503 30.1162ZM94.2341 42.2606L94.2138 41.5989L95.3569 41.4463C95.5253 41.3988 95.6401 41.3308 95.7008 41.2426C95.7681 41.1475 95.8019 40.9407 95.8019 40.6217V40.5098C95.8019 40.4283 95.8052 40.2823 95.8121 40.072C95.8255 39.8547 95.8322 39.6648 95.8322 39.502C95.8322 39.3729 95.8222 39.1253 95.8019 38.7588L95.8121 38.2499L95.8019 37.7714L95.8222 36.1121C95.8222 35.9017 95.8019 35.6845 95.7615 35.4606C95.6873 35.3589 95.5525 35.2705 95.3569 35.1958C95.1614 35.1212 94.8208 35.067 94.3352 35.033V34.463C95.0298 34.4222 95.6401 34.2764 96.1661 34.0252C96.5235 33.8624 96.9113 33.5739 97.3293 33.16H98.007C98.0341 34.0014 98.0476 35.0941 98.0476 36.4377L97.9767 40.5911C97.9767 40.8761 97.9902 41.134 98.0171 41.3648C98.2261 41.4394 98.5667 41.514 99.0388 41.5887C99.2209 41.616 99.366 41.6498 99.4739 41.6906L99.4637 42.2504C99.2816 42.2573 99.1468 42.2606 99.0592 42.2606C98.9578 42.2606 98.8029 42.2537 98.5939 42.2402C97.9059 42.2064 96.9854 42.1893 95.8322 42.1893C95.5017 42.1893 95.1814 42.2029 94.8713 42.2302C94.561 42.2504 94.3486 42.2606 94.2341 42.2606ZM100.152 41.7415C100.327 41.66 100.489 41.6058 100.637 41.5787C101.008 41.5176 101.224 41.4665 101.285 41.4259C101.386 41.3648 101.453 41.2901 101.487 41.2019C101.527 41.0662 101.547 40.7677 101.547 40.3061V39.4205L101.558 38.6977L101.527 37.6288V36.9875C101.527 36.5599 101.494 36.2105 101.426 35.9391C101.399 35.8371 101.315 35.7354 101.173 35.6336C100.984 35.4979 100.664 35.3655 100.212 35.2367L100.202 34.748C100.29 34.7209 100.367 34.7038 100.435 34.6971C100.509 34.6836 100.782 34.6156 101.254 34.4935C101.625 34.3577 101.864 34.2627 101.972 34.2085C102.006 34.188 102.06 34.1576 102.134 34.1169C102.215 34.049 102.306 33.981 102.407 33.9133C102.61 33.7707 102.852 33.523 103.136 33.1702L103.672 33.1294L103.652 34.2798C103.645 34.3951 103.641 34.4868 103.641 34.5545C103.641 34.609 103.645 34.7649 103.652 35.0228C104.211 34.5341 104.72 34.1949 105.179 34.0048C105.779 33.7538 106.349 33.6283 106.889 33.6283C107.522 33.6283 108.079 33.7878 108.557 34.1067C109.036 34.4188 109.35 34.782 109.498 35.1958C109.646 35.6099 109.721 36.4446 109.721 37.7001L109.68 41.0187C109.68 41.1748 109.707 41.3037 109.761 41.4054C109.829 41.4598 110.014 41.5107 110.317 41.5582L110.813 41.6498C110.874 41.7382 110.904 41.8466 110.904 41.9756C110.904 42.0569 110.901 42.1691 110.894 42.3115L108.911 42.1691L108.325 42.1893H107.859L106.524 42.2913H106.18C106.174 42.2029 106.17 42.1351 106.17 42.0876C106.17 41.9654 106.177 41.833 106.19 41.6906C106.285 41.6702 106.521 41.6362 106.898 41.5887C107 41.5751 107.111 41.5514 107.232 41.5176C107.367 41.4632 107.445 41.409 107.465 41.3546C107.519 41.2393 107.546 41.0187 107.546 40.693C107.546 40.1229 107.539 39.6853 107.526 39.3798L107.536 38.199C107.543 36.7669 107.455 35.8746 107.273 35.5217C107.017 35.0126 106.632 34.7582 106.12 34.7582C105.742 34.7582 105.351 34.8566 104.946 35.0534C104.542 35.2434 104.123 35.5352 103.692 35.9288L103.672 36.1019L103.692 36.7432L103.682 37.4253L103.722 39.054L103.702 39.3085C103.702 40.4147 103.746 41.0391 103.833 41.1815C103.921 41.3241 104.255 41.4803 104.835 41.6498C104.855 41.7653 104.865 41.8501 104.865 41.9043C104.865 41.9858 104.842 42.1113 104.794 42.281C104.585 42.2877 104.41 42.2913 104.269 42.2913C104.127 42.2913 103.904 42.2708 103.601 42.2302L102.519 42.2097C101.979 42.2097 101.2 42.2335 100.182 42.281C100.155 42.2131 100.141 42.1418 100.141 42.0671C100.141 42.0129 100.145 41.9043 100.152 41.7415ZM112.098 39.4103C112.3 39.3696 112.449 39.3492 112.543 39.3492C112.59 39.3492 112.661 39.3525 112.755 39.3594L112.846 39.4611C113.211 40.106 113.45 40.496 113.565 40.632C113.801 40.9101 114.033 41.134 114.263 41.3037C114.418 41.4123 114.66 41.5243 114.991 41.6398C115.213 41.7211 115.449 41.7617 115.699 41.7617C116.124 41.7617 116.488 41.626 116.791 41.3546C117.095 41.0764 117.247 40.7777 117.247 40.4587C117.247 40.2417 117.189 40.0584 117.075 39.9092C116.96 39.753 116.731 39.6004 116.387 39.4509C116.218 39.3763 115.793 39.2541 115.112 39.0846C114.438 38.9149 114.03 38.803 113.888 38.7485C113.571 38.6264 113.288 38.4569 113.039 38.2396C112.796 38.0224 112.61 37.7781 112.482 37.5066C112.307 37.1199 112.219 36.7874 112.219 36.5091C112.219 35.9933 112.293 35.5726 112.442 35.2467C112.59 34.9142 112.799 34.6225 113.069 34.3713C113.265 34.1814 113.558 34.0083 113.949 33.8522C114.347 33.696 114.772 33.6181 115.224 33.6181C115.864 33.6181 116.427 33.6622 116.913 33.7504C117.398 33.8386 117.81 33.971 118.147 34.1474C118.187 34.3035 118.245 34.6632 118.319 35.2265C118.393 35.7898 118.43 36.1223 118.43 36.2241C118.43 36.2716 118.42 36.3225 118.4 36.3767C118.225 36.4311 118.08 36.4582 117.965 36.4582C117.897 36.4582 117.8 36.4513 117.671 36.4377C117.611 36.3429 117.53 36.2003 117.429 36.0104C117.105 35.4062 116.771 34.9821 116.427 34.7378C116.09 34.4868 115.699 34.3611 115.254 34.3611C114.789 34.3611 114.397 34.4968 114.08 34.7684C113.851 34.9653 113.737 35.2331 113.737 35.5726C113.737 35.7965 113.858 36.0239 114.101 36.2545C114.337 36.4922 114.748 36.6719 115.335 36.794C116.218 36.9908 116.869 37.1877 117.287 37.3845C117.894 37.6697 118.319 38.0055 118.562 38.3923C118.811 38.7792 118.936 39.227 118.936 39.7361C118.936 40.5233 118.639 41.1815 118.046 41.7108C117.459 42.2335 116.599 42.4947 115.466 42.4947C115.318 42.4947 114.93 42.4608 114.303 42.393C114.02 42.359 113.686 42.2913 113.302 42.1893C113.207 42.1622 112.961 42.0638 112.563 41.8941C112.489 41.8534 112.435 41.8059 112.401 41.7517C112.374 41.6906 112.331 41.4054 112.27 40.8965C112.162 40.0686 112.105 39.5731 112.098 39.4103ZM120.423 34.5443C121.219 34.2051 121.792 33.8726 122.142 33.5468C122.5 33.2211 122.881 32.6918 123.286 31.9588H123.852C123.913 32.1351 123.943 32.3219 123.943 32.5187C123.943 32.8715 123.94 33.1465 123.933 33.3433L123.902 33.9437C123.902 33.9777 123.906 34.0559 123.913 34.178L124.145 34.188C124.179 34.188 124.496 34.1745 125.096 34.1474C125.143 34.1474 125.396 34.1405 125.855 34.127C125.895 34.3102 125.916 34.4732 125.916 34.6156C125.916 34.7718 125.892 34.955 125.845 35.1654C125.622 35.1925 125.454 35.206 125.339 35.206C125.285 35.206 125.177 35.1994 125.015 35.1856H124.489L124.307 35.1756L123.822 35.1958L123.801 39.0846C123.795 39.8379 123.808 40.3094 123.842 40.4996C123.882 40.6828 123.963 40.8592 124.085 41.0289C124.24 41.1035 124.412 41.1409 124.601 41.1409C124.783 41.1409 124.918 41.124 125.005 41.09C125.093 41.056 125.241 40.9576 125.45 40.7948C125.491 40.7608 125.555 40.7133 125.642 40.6522C125.804 40.7812 125.936 40.9101 126.037 41.0391L126.078 41.1613C125.841 41.5345 125.508 41.8297 125.076 42.0469C124.651 42.2573 124.196 42.3624 123.71 42.3624C123.083 42.3624 122.574 42.1622 122.183 41.7617C121.792 41.3614 121.596 40.7404 121.596 39.8989L121.637 38.1073V35.206L121.323 35.1958L120.595 35.206L120.463 35.1756C120.423 35.1145 120.403 35.0568 120.403 35.0026C120.403 34.9617 120.409 34.8091 120.423 34.5443ZM126.694 41.7617C126.782 41.6871 126.897 41.6329 127.038 41.5989C127.382 41.5243 127.709 41.3885 128.02 41.1917C128.08 41.0289 128.111 40.4791 128.111 39.5426C128.111 37.8256 128.074 36.6652 127.999 36.0612C127.986 35.9526 127.932 35.8575 127.838 35.7762C127.669 35.6878 127.44 35.6099 127.15 35.5419C127.015 35.5081 126.934 35.4335 126.907 35.318L126.877 34.9415C127.376 34.8735 127.827 34.7038 128.232 34.4324C128.637 34.1543 128.94 33.8726 129.142 33.5874C129.25 33.4315 129.345 33.3126 129.426 33.2311L130.134 33.2007C130.167 33.3568 130.184 33.4857 130.184 33.5874C130.184 33.6622 130.181 33.7538 130.174 33.8624C130.167 34.0998 130.164 34.2967 130.164 34.4528C130.164 34.5274 130.167 34.8091 130.174 35.2978C130.451 34.8227 130.653 34.5037 130.781 34.3409C130.842 34.2662 131.02 34.0999 131.317 33.842C131.546 33.6723 131.806 33.5874 132.096 33.5874C132.454 33.5874 132.764 33.7096 133.027 33.9539C133.29 34.1983 133.421 34.4799 133.421 34.7989C133.421 35.1179 133.32 35.4062 133.118 35.6641C132.922 35.9153 132.659 36.0408 132.329 36.0408C132.039 36.0408 131.735 35.9186 131.418 35.6743C131.229 35.525 131.078 35.4504 130.963 35.4504L130.892 35.4606C130.751 35.5081 130.623 35.637 130.508 35.8473C130.319 36.1867 130.225 36.5397 130.225 36.906L130.245 37.181C130.272 37.6832 130.292 38.8605 130.306 40.7133C130.326 40.883 130.39 41.0527 130.498 41.2224C130.619 41.3172 130.741 41.3852 130.862 41.4259C130.99 41.4665 131.209 41.5005 131.52 41.5276C131.83 41.5549 132.019 41.5989 132.086 41.66C132.153 41.7144 132.187 41.8059 132.187 41.935C132.187 42.0096 132.167 42.108 132.126 42.2302H131.176L129.244 42.1282C128.758 42.1282 128.316 42.1487 127.918 42.1893H127.746C127.699 42.1893 127.349 42.2064 126.694 42.2402C126.674 42.1318 126.664 42.0503 126.664 41.996C126.664 41.9416 126.674 41.8637 126.694 41.7617ZM135.161 30.1162C135.161 29.7497 135.279 29.4512 135.515 29.2204C135.751 28.9829 136.055 28.8641 136.426 28.8641C136.823 28.8641 137.154 28.9896 137.417 29.2408C137.68 29.4851 137.811 29.7632 137.811 30.0755C137.811 30.3063 137.757 30.5369 137.65 30.7677C137.548 30.9985 137.383 31.1851 137.154 31.3277C136.931 31.4634 136.702 31.5312 136.466 31.5312C136.142 31.5312 135.842 31.3921 135.566 31.1138C135.296 30.8357 135.161 30.5031 135.161 30.1162ZM133.745 42.2606L133.725 41.5989L134.868 41.4463C135.036 41.3988 135.151 41.3308 135.212 41.2426C135.279 41.1475 135.313 40.9407 135.313 40.6217V40.5098C135.313 40.4283 135.316 40.2823 135.323 40.072C135.337 39.8547 135.343 39.6648 135.343 39.502C135.343 39.3729 135.333 39.1253 135.313 38.7588L135.323 38.2499L135.313 37.7714L135.333 36.1121C135.333 35.9017 135.313 35.6845 135.272 35.4606C135.198 35.3589 135.063 35.2705 134.868 35.1958C134.672 35.1212 134.332 35.067 133.846 35.033V34.463C134.541 34.4222 135.151 34.2764 135.677 34.0252C136.034 33.8624 136.422 33.5739 136.84 33.16H137.518C137.545 34.0014 137.558 35.0941 137.558 36.4377L137.488 40.5911C137.488 40.8761 137.501 41.134 137.528 41.3648C137.737 41.4394 138.078 41.514 138.55 41.5887C138.732 41.616 138.877 41.6498 138.985 41.6906L138.975 42.2504C138.792 42.2573 138.658 42.2606 138.57 42.2606C138.469 42.2606 138.314 42.2537 138.105 42.2402C137.417 42.2064 136.496 42.1893 135.343 42.1893C135.013 42.1893 134.692 42.2029 134.382 42.2302C134.072 42.2504 133.86 42.2606 133.745 42.2606ZM141.918 34.4528C142.249 34.222 142.565 34.0559 142.869 33.9539C143.179 33.8522 143.614 33.7742 144.174 33.7198H144.74C145.476 33.7198 146.18 33.9743 146.854 34.4832L146.875 34.2389L146.865 33.557L146.905 32.4677C146.905 31.3208 146.817 30.5947 146.642 30.2892C146.541 30.106 146.362 30.0076 146.106 29.994C145.857 29.9805 145.654 29.9363 145.499 29.8616V29.3732C145.627 29.3323 145.793 29.3121 145.995 29.3121C146.197 29.3052 146.592 29.2339 147.178 29.0982L147.522 29.0269L148.524 28.7928C148.726 28.7454 148.851 28.7217 148.898 28.7217C148.932 28.7217 148.986 28.7284 149.06 28.7419C149.1 28.8845 149.12 28.9896 149.12 29.0575L149.11 29.2101V29.3934C149.11 29.5835 149.12 30.0891 149.141 30.9103V31.4599L149.151 31.7551L149.141 32.2642L149.171 33.3228L149.151 33.9437C149.137 34.2153 149.131 34.6427 149.131 35.2265C149.131 35.3215 149.134 35.4062 149.141 35.481V35.8575C149.134 35.9662 149.131 36.0477 149.131 36.1019C149.131 36.2036 149.141 36.3496 149.161 36.5397V37.0995L149.151 37.3134C149.137 37.5102 149.131 37.7816 149.131 38.1277C149.131 38.4806 149.137 38.7994 149.151 39.0846C149.157 39.1999 149.161 39.3052 149.161 39.4V40.1635C149.161 40.4078 149.168 40.6997 149.181 41.0391C149.302 41.1138 149.599 41.168 150.071 41.2019C150.22 41.2086 150.351 41.2257 150.466 41.2528C150.499 41.3546 150.516 41.4292 150.516 41.4767C150.516 41.5378 150.493 41.6295 150.445 41.7517C150.169 41.8195 149.879 41.8703 149.576 41.9043C148.652 42.0196 147.994 42.1826 147.603 42.393C147.414 42.5016 147.283 42.5558 147.208 42.5558C147.134 42.5558 147.05 42.5489 146.956 42.5354C146.962 42.4132 146.966 42.3352 146.966 42.3013C146.966 41.8399 146.956 41.5447 146.935 41.4156C146.834 41.4701 146.71 41.5414 146.561 41.6295C146.109 41.901 145.698 42.0909 145.327 42.1995C144.956 42.3013 144.531 42.3521 144.053 42.3521C143.203 42.3521 142.525 42.1893 142.019 41.8637C141.271 41.3885 140.752 40.8186 140.462 40.1535C140.178 39.4884 140.037 38.7588 140.037 37.9649C140.037 36.5939 140.664 35.4233 141.918 34.4528ZM145.034 41.1917C145.175 41.2053 145.297 41.2122 145.398 41.2122C145.62 41.2122 145.857 41.1646 146.106 41.0696C146.362 40.9745 146.632 40.8354 146.915 40.6522C146.922 40.4283 146.925 40.2892 146.925 40.2348C146.925 38.0835 146.895 36.7874 146.834 36.3462C146.753 35.7558 146.531 35.3011 146.167 34.9821C145.802 34.6632 145.361 34.5037 144.842 34.5037C144.545 34.5037 144.262 34.5579 143.992 34.6665C143.729 34.7751 143.513 34.9313 143.344 35.1347C143.095 35.4335 142.906 35.7727 142.778 36.1528C142.603 36.6821 142.515 37.1776 142.515 37.639C142.515 38.7452 142.748 39.5935 143.213 40.1839C143.678 40.7677 144.285 41.1035 145.034 41.1917ZM151.568 36.8653C151.744 36.2885 151.899 35.9051 152.034 35.7152C152.411 35.1585 152.812 34.7242 153.237 34.4122C153.669 34.0999 154.057 33.8928 154.401 33.7911C154.846 33.6622 155.206 33.5976 155.483 33.5976C156.117 33.5976 156.629 33.6485 157.021 33.7504C157.412 33.8453 157.739 33.9846 158.002 34.1678C158.379 34.4324 158.683 34.7005 158.912 34.9719C159.141 35.2434 159.327 35.5623 159.468 35.9288C159.617 36.2954 159.698 36.7398 159.711 37.2623L158.588 37.2421C158.278 37.2421 157.597 37.2114 156.545 37.1503C156.154 37.1232 155.884 37.1097 155.736 37.1097C155.689 37.1097 155.325 37.113 154.643 37.1199H153.774C153.76 37.215 153.753 37.2963 153.753 37.3642C153.753 37.7239 153.797 38.1039 153.885 38.5042C153.972 38.8978 154.104 39.2474 154.279 39.5529C154.455 39.8514 154.67 40.1093 154.927 40.3265C155.19 40.5436 155.459 40.6997 155.736 40.7948L156.323 40.9883C156.842 40.9883 157.189 40.9712 157.364 40.9372C157.688 40.8694 157.971 40.7846 158.214 40.6828C158.464 40.5742 158.764 40.3943 159.114 40.1433C159.357 40.3197 159.56 40.4791 159.721 40.6217C159.128 41.2799 158.511 41.7584 157.87 42.0569C157.236 42.3488 156.525 42.4947 155.736 42.4947C155.203 42.4947 154.768 42.4472 154.431 42.3521C153.979 42.2302 153.571 42.0434 153.207 41.7924C152.843 41.5414 152.529 41.229 152.266 40.8559C152.003 40.4825 151.808 40.0991 151.68 39.7055C151.511 39.1897 151.427 38.7759 151.427 38.4636C151.427 37.8731 151.474 37.3405 151.568 36.8653ZM157.445 36.4277C157.439 36.0477 157.364 35.6845 157.223 35.3384C157.081 34.9924 156.862 34.7242 156.565 34.5341C156.269 34.3373 155.969 34.2389 155.665 34.2389C155.213 34.2389 154.805 34.4393 154.441 34.8395C154.077 35.24 153.871 35.7829 153.824 36.4684L156.13 36.4786C156.279 36.4786 156.488 36.4684 156.757 36.448C156.953 36.4277 157.091 36.4175 157.172 36.4175C157.233 36.4175 157.324 36.4209 157.445 36.4277ZM178.02 29.2917C178.108 29.4953 178.287 30.0756 178.556 31.0325C178.678 31.4667 178.742 31.9281 178.749 32.4168H177.828C177.181 31.4938 176.513 30.8321 175.825 30.4318C175.137 30.0247 174.369 29.821 173.519 29.821C172.474 29.821 171.631 30.2315 170.99 31.0527C170.12 32.1658 169.685 33.7165 169.685 35.7049C169.685 36.8587 169.759 37.6797 169.908 38.1683C170.15 38.9624 170.457 39.6104 170.828 40.1126C171.111 40.4927 171.482 40.7948 171.941 41.0187C172.534 41.3241 173.168 41.4767 173.843 41.4767C174.584 41.4767 175.299 41.2459 175.987 40.7846C176.682 40.3163 177.346 39.6206 177.98 38.6977C178.229 38.6501 178.556 38.623 178.961 38.6164C178.934 38.8743 178.89 39.1422 178.829 39.4205C178.809 39.5291 178.732 39.96 178.597 40.7133L178.506 41.0187L178.364 41.4972C177.953 41.8161 177.373 42.0569 176.624 42.22C175.882 42.3759 174.969 42.4541 173.883 42.4541C173.053 42.4541 172.268 42.3759 171.526 42.22C170.791 42.0638 170.16 41.8161 169.634 41.4767C168.866 40.9883 168.262 40.4587 167.824 39.8887C167.385 39.3187 167.059 38.6977 166.843 38.026C166.634 37.354 166.529 36.6008 166.529 35.766C166.529 33.7436 167.19 32.074 168.512 30.7575C169.84 29.4409 171.533 28.7828 173.59 28.7828C174.426 28.7828 175.211 28.8268 175.947 28.9149C176.688 28.9965 177.38 29.122 178.02 29.2917ZM188.985 40.3468L189.218 40.4996C189.279 40.5471 189.316 40.6046 189.329 40.6726L189.339 40.7235C189.177 41.3275 188.965 41.7448 188.702 41.9756C188.439 42.1995 188.112 42.3115 187.721 42.3115C187.323 42.3115 186.979 42.2029 186.689 41.9858C186.406 41.7617 186.146 41.3716 185.91 40.815C185.62 41.3308 185.212 41.7211 184.686 41.9858C184.16 42.2437 183.516 42.3726 182.754 42.3726C182.053 42.3726 181.537 42.2266 181.207 41.935C180.876 41.6362 180.711 41.2459 180.711 40.7641C180.711 40.5402 180.758 40.313 180.853 40.0822C180.954 39.8514 181.112 39.6242 181.328 39.4C181.55 39.1695 181.905 38.9183 182.39 38.6468C182.464 38.6062 182.721 38.4907 183.159 38.3007L185.678 37.2827C185.698 37.0248 185.708 36.7636 185.708 36.4988C185.708 35.5828 185.597 34.9584 185.374 34.6258C185.239 34.4222 185.003 34.3204 184.666 34.3204C184.329 34.3204 184.019 34.3848 183.735 34.5139C183.452 34.6427 183.247 34.8091 183.118 35.0126C183.024 35.1621 182.943 35.4435 182.876 35.8575C182.829 36.1561 182.785 36.3293 182.744 36.3767C182.643 36.5057 182.457 36.6245 182.188 36.733C181.925 36.8349 181.746 36.9095 181.652 36.9571C181.287 37.1335 180.998 37.2216 180.782 37.2216C180.687 37.1401 180.64 37.0248 180.64 36.8756C180.64 36.4886 180.721 36.1561 180.883 35.878C181.126 35.4844 181.49 35.1043 181.975 34.7378C182.468 34.3646 182.926 34.1032 183.351 33.9539C183.931 33.764 184.639 33.6689 185.475 33.6689C186.015 33.6689 186.477 33.7707 186.861 33.9743C187.252 34.1711 187.522 34.4664 187.67 34.86C187.826 35.2536 187.903 35.9628 187.903 36.9875L187.873 38.6672L187.893 39.8989V40.2146C187.893 40.4996 187.93 40.6964 188.004 40.805C188.085 40.9067 188.186 40.9576 188.308 40.9576C188.382 40.9576 188.446 40.9372 188.5 40.8965L188.803 40.4181L188.985 40.3468ZM185.667 37.9851C185.283 38.1141 184.848 38.3312 184.363 38.6366C183.884 38.9353 183.55 39.2372 183.361 39.5426C183.226 39.7666 183.159 40.0413 183.159 40.3672C183.159 40.6591 183.247 40.8999 183.422 41.09C183.597 41.2799 183.799 41.375 184.029 41.375C184.406 41.375 184.727 41.2664 184.99 41.0491C185.347 40.7575 185.556 40.5267 185.617 40.357C185.678 40.1806 185.708 39.6886 185.708 38.8809C185.708 38.5824 185.694 38.2838 185.667 37.9851ZM189.531 47.432V46.9737C189.653 46.8991 189.741 46.8482 189.795 46.8211L190.574 46.5361C190.897 46.4071 191.079 46.3053 191.12 46.2307C191.228 46.027 191.275 45.6674 191.261 45.1516L191.19 41.1002L191.089 36.0612C191.069 35.6947 190.992 35.4335 190.857 35.2773C190.722 35.1212 190.365 34.9584 189.784 34.7887L189.774 34.2593C190.435 34.1305 190.992 33.971 191.443 33.7809C191.774 33.6452 192.222 33.3873 192.789 33.0072L193.305 32.997L193.315 33.2822L193.305 34.3815C193.305 34.4222 193.308 34.5241 193.315 34.6869C193.901 34.3273 194.384 34.0896 194.761 33.9743C195.314 33.8115 195.925 33.73 196.592 33.73C197.28 33.73 197.89 33.9064 198.423 34.2593C198.464 34.2864 198.521 34.3238 198.595 34.3713C198.932 34.6156 199.178 34.8498 199.333 35.0737C199.671 35.5557 199.913 36.0306 200.062 36.4988C200.176 36.8518 200.234 37.2929 200.234 37.8223C200.234 38.528 200.143 39.1253 199.961 39.6139C199.778 40.1024 199.465 40.5944 199.02 41.09C198.575 41.5853 198.096 41.9383 197.584 42.1487C197.078 42.359 196.545 42.4643 195.985 42.4643C195.432 42.4643 195.038 42.4303 194.802 42.3624C194.35 42.2335 193.901 42.0434 193.456 41.7924C193.436 41.901 193.426 41.9756 193.426 42.0163L193.456 42.2913C193.463 42.3659 193.466 42.4574 193.466 42.566C193.466 42.6136 193.46 42.8817 193.446 43.3701L193.477 45.2229C193.477 45.2636 193.473 45.3993 193.466 45.6301V45.742C193.466 45.9932 193.483 46.1765 193.517 46.2918C193.544 46.3595 193.601 46.4344 193.689 46.5157C193.756 46.5428 193.82 46.5734 193.881 46.6074C194.09 46.6481 194.272 46.6887 194.427 46.7296C194.589 46.7703 194.758 46.8042 194.933 46.8313C194.994 46.906 195.024 47.0044 195.024 47.1265C195.024 47.2012 195.021 47.3098 195.014 47.4522H194.832C194.441 47.4522 194.168 47.4455 194.013 47.432L192.485 47.2996H192.111L191.757 47.2894L191.403 47.32L190.857 47.3505C190.654 47.3573 190.432 47.3742 190.189 47.4013C189.946 47.4284 189.771 47.4422 189.663 47.4422L189.531 47.432ZM193.365 40.1535C193.392 40.2348 193.409 40.2959 193.416 40.3368C193.49 40.6488 193.584 40.8694 193.699 40.9983C193.908 41.2426 194.148 41.4054 194.417 41.4869C194.822 41.6022 195.176 41.66 195.479 41.66C195.83 41.66 196.171 41.5853 196.501 41.4361C196.838 41.2868 197.108 41.0867 197.31 40.8354C197.337 40.8015 197.378 40.7539 197.432 40.693C197.479 40.5844 197.516 40.5029 197.543 40.4487C197.813 39.9194 197.948 39.3561 197.948 38.7588C197.948 37.6594 197.624 36.733 196.977 35.9797C196.525 35.4435 195.884 35.1756 195.055 35.1756C194.562 35.1756 194.003 35.3045 193.375 35.5623C193.355 35.8271 193.345 36.5701 193.345 37.7916L193.375 39.7563C193.375 39.8039 193.372 39.9363 193.365 40.1535ZM202.753 30.1162C202.753 29.7497 202.87 29.4512 203.107 29.2204C203.343 28.9829 203.646 28.8641 204.017 28.8641C204.415 28.8641 204.745 28.9896 205.008 29.2408C205.271 29.4851 205.403 29.7632 205.403 30.0755C205.403 30.3063 205.349 30.5369 205.241 30.7677C205.14 30.9985 204.975 31.1851 204.745 31.3277C204.523 31.4634 204.293 31.5312 204.057 31.5312C203.734 31.5312 203.433 31.3921 203.157 31.1138C202.887 30.8357 202.753 30.5031 202.753 30.1162ZM201.336 42.2606L201.316 41.5989L202.459 41.4463C202.628 41.3988 202.742 41.3308 202.803 41.2426C202.87 41.1475 202.904 40.9407 202.904 40.6217V40.5098C202.904 40.4283 202.908 40.2823 202.914 40.072C202.928 39.8547 202.935 39.6648 202.935 39.502C202.935 39.3729 202.924 39.1253 202.904 38.7588L202.914 38.2499L202.904 37.7714L202.924 36.1121C202.924 35.9017 202.904 35.6845 202.864 35.4606C202.79 35.3589 202.655 35.2705 202.459 35.1958C202.264 35.1212 201.923 35.067 201.437 35.033V34.463C202.132 34.4222 202.742 34.2764 203.268 34.0252C203.626 33.8624 204.014 33.5739 204.432 33.16H205.109C205.136 34.0014 205.15 35.0941 205.15 36.4377L205.079 40.5911C205.079 40.8761 205.092 41.134 205.119 41.3648C205.329 41.4394 205.669 41.514 206.141 41.5887C206.323 41.616 206.468 41.6498 206.576 41.6906L206.566 42.2504C206.384 42.2573 206.249 42.2606 206.161 42.2606C206.06 42.2606 205.905 42.2537 205.696 42.2402C205.008 42.2064 204.088 42.1893 202.935 42.1893C202.604 42.1893 202.284 42.2029 201.974 42.2302C201.663 42.2504 201.451 42.2606 201.336 42.2606ZM207.436 34.5443C208.233 34.2051 208.804 33.8726 209.155 33.5468C209.513 33.2211 209.894 32.6918 210.298 31.9588H210.866C210.926 32.1351 210.957 32.3219 210.957 32.5187C210.957 32.8715 210.953 33.1465 210.947 33.3433L210.915 33.9437C210.915 33.9777 210.92 34.0559 210.926 34.178L211.158 34.188C211.193 34.188 211.51 34.1745 212.109 34.1474C212.156 34.1474 212.409 34.1405 212.867 34.127C212.908 34.3102 212.929 34.4732 212.929 34.6156C212.929 34.7718 212.904 34.955 212.859 35.1654C212.635 35.1925 212.467 35.206 212.351 35.206C212.297 35.206 212.189 35.1994 212.028 35.1856H211.502L211.319 35.1756L210.835 35.1958L210.814 39.0846C210.808 39.8379 210.822 40.3094 210.855 40.4996C210.895 40.6828 210.975 40.8592 211.098 41.0289C211.253 41.1035 211.425 41.1409 211.614 41.1409C211.796 41.1409 211.931 41.124 212.018 41.09C212.107 41.056 212.254 40.9576 212.463 40.7948C212.504 40.7608 212.569 40.7133 212.656 40.6522C212.817 40.7812 212.95 40.9101 213.049 41.0391L213.091 41.1613C212.854 41.5345 212.521 41.8297 212.09 42.0469C211.663 42.2573 211.21 42.3624 210.723 42.3624C210.097 42.3624 209.587 42.1622 209.196 41.7617C208.804 41.3614 208.61 40.7404 208.61 39.8989L208.649 38.1073V35.206L208.336 35.1958L207.608 35.206L207.476 35.1756C207.436 35.1145 207.416 35.0568 207.416 35.0026C207.416 34.9617 207.422 34.8091 207.436 34.5443ZM222.67 40.3468L222.902 40.4996C222.964 40.5471 222.999 40.6046 223.014 40.6726L223.024 40.7235C222.863 41.3275 222.649 41.7448 222.386 41.9756C222.123 42.1995 221.796 42.3115 221.406 42.3115C221.008 42.3115 220.665 42.2029 220.375 41.9858C220.091 41.7617 219.83 41.3716 219.596 40.815C219.306 41.3308 218.897 41.7211 218.371 41.9858C217.845 42.2437 217.201 42.3726 216.438 42.3726C215.738 42.3726 215.222 42.2266 214.891 41.935C214.561 41.6362 214.396 41.2459 214.396 40.7641C214.396 40.5402 214.443 40.313 214.537 40.0822C214.638 39.8514 214.796 39.6242 215.013 39.4C215.235 39.1695 215.589 38.9183 216.074 38.6468C216.148 38.6062 216.405 38.4907 216.842 38.3007L219.362 37.2827C219.382 37.0248 219.393 36.7636 219.393 36.4988C219.393 35.5828 219.281 34.9584 219.059 34.6258C218.924 34.4222 218.688 34.3204 218.351 34.3204C218.013 34.3204 217.702 34.3848 217.42 34.5139C217.137 34.6427 216.931 34.8091 216.803 35.0126C216.708 35.1621 216.627 35.4435 216.561 35.8575C216.513 36.1561 216.469 36.3293 216.428 36.3767C216.327 36.5057 216.142 36.6245 215.873 36.733C215.61 36.8349 215.43 36.9095 215.336 36.9571C214.972 37.1335 214.682 37.2216 214.466 37.2216C214.371 37.1401 214.325 37.0248 214.325 36.8756C214.325 36.4886 214.406 36.1561 214.568 35.878C214.81 35.4844 215.175 35.1043 215.659 34.7378C216.153 34.3646 216.61 34.1032 217.035 33.9539C217.615 33.764 218.324 33.6689 219.161 33.6689C219.699 33.6689 220.161 33.7707 220.546 33.9743C220.936 34.1711 221.207 34.4664 221.354 34.86C221.51 35.2536 221.586 35.9628 221.586 36.9875L221.557 38.6672L221.578 39.8989V40.2146C221.578 40.4996 221.613 40.6964 221.688 40.805C221.769 40.9067 221.87 40.9576 221.992 40.9576C222.067 40.9576 222.131 40.9372 222.185 40.8965L222.488 40.4181L222.67 40.3468ZM219.351 37.9851C218.968 38.1141 218.533 38.3312 218.046 38.6366C217.567 38.9353 217.234 39.2372 217.045 39.5426C216.911 39.7666 216.842 40.0413 216.842 40.3672C216.842 40.6591 216.931 40.8999 217.105 41.09C217.282 41.2799 217.485 41.375 217.712 41.375C218.092 41.375 218.411 41.2664 218.674 41.0491C219.032 40.7575 219.241 40.5267 219.301 40.357C219.361 40.1806 219.393 39.6886 219.393 38.8809C219.393 38.5824 219.378 38.2838 219.351 37.9851ZM223.316 41.8128C223.465 41.7108 223.66 41.6464 223.905 41.6193C224.369 41.5649 224.636 41.4938 224.702 41.4054C224.837 41.229 224.905 40.8694 224.905 40.3265V37.4558L224.895 36.7738V34.7174L224.864 32.3659V31.9588C224.864 31.4023 224.82 30.9916 224.733 30.7271C224.497 30.5845 224.244 30.5131 223.975 30.5131C223.813 30.5131 223.66 30.4963 223.519 30.4623C223.499 30.2926 223.488 30.1671 223.488 30.0858C223.488 30.0314 223.496 29.9703 223.509 29.9025C224.041 29.8414 224.594 29.7057 225.168 29.4954C225.742 29.2781 226.179 29.0575 226.484 28.8336L226.766 28.8234C226.828 28.8234 226.915 28.8268 227.029 28.8336C227.064 31.1817 227.08 32.7902 227.08 33.6587C227.08 33.9166 227.076 34.1236 227.07 34.2798V34.3409L227.08 34.5341V39.0438L227.091 40.53V40.7744C227.091 41.0662 227.138 41.2732 227.232 41.3954C227.312 41.4836 227.484 41.5378 227.748 41.5582C227.888 41.5718 228.17 41.6058 228.587 41.66C228.622 41.8026 228.638 41.9179 228.638 42.0061C228.638 42.074 228.632 42.1691 228.618 42.2913L227.818 42.2504C227.373 42.2164 226.813 42.1995 226.14 42.1995L225.765 42.1893C225.382 42.1893 224.824 42.22 224.095 42.281H223.358L223.316 41.8128Z" fill="black"/>
</g>
<defs>
<clipPath id="clip0">
<rect width="237.203" height="59" fill="white" transform="translate(0.894531)"/>
</clipPath>
</defs>
</svg>