<svg width="29" height="60" viewBox="0 0 29 60" fill="none" xmlns="http://www.w3.org/2000/svg">
<path d="M14.2477 10.9091C18.8804 10.9091 22.6368 14.5727 22.6368 19.0909H28.2296C28.2203 12.6136 23.5503 7.03182 17.0441 5.72727V0H11.4513V5.72727C4.40906 7.12273 -0.400705 13.4909 0.321696 20.4591C1.0441 27.4273 7.06096 32.7318 14.2477 32.7227C17.6406 32.7227 20.698 34.7182 21.9983 37.7727C23.294 40.8273 22.5809 44.3455 20.1807 46.6864C17.7805 49.0273 14.1731 49.7273 11.0412 48.4591C7.90457 47.1909 5.86318 44.2091 5.86318 40.9H0.270407C0.279728 47.3773 4.9497 52.9591 11.456 54.2636V60H17.0487V54.2727C24.0863 52.8773 28.9008 46.5091 28.1784 39.5409C27.456 32.5727 21.4391 27.2682 14.2523 27.2773C9.61966 27.2773 5.86318 23.6136 5.86318 19.0955C5.86318 14.5773 9.615 10.9091 14.2477 10.9091Z" fill="#5C5C5C"/>
</svg>