<svg width="154" height="154" viewBox="0 0 154 154" fill="none" xmlns="http://www.w3.org/2000/svg">
<path d="M126.237 83.3309C122.943 83.3309 119.82 82.6893 116.954 81.4487C114.045 80.2081 111.522 78.497 109.383 76.3154C107.244 74.1337 105.533 71.6098 104.292 68.7437C103.052 65.8776 102.453 62.7548 102.453 59.4609C102.453 56.1243 103.052 53.0443 104.292 50.1354C105.533 47.2265 107.244 44.7026 109.383 42.5209C111.564 40.3393 114.088 38.6281 116.954 37.3876C119.82 36.147 122.943 35.5054 126.237 35.5054C128.462 35.5054 130.6 35.8048 132.654 36.3609C134.707 36.917 136.589 37.7298 138.343 38.7565C140.097 39.7831 141.723 41.0237 143.177 42.4781C144.632 43.9326 145.915 45.5581 146.942 47.312C147.968 49.0659 148.781 50.9909 149.337 53.0015C149.893 55.0548 150.193 57.1509 150.193 59.3754C150.193 62.6693 149.551 65.792 148.31 68.6581C147.07 71.5243 145.316 74.0909 143.177 76.2298C140.995 78.4115 138.472 80.1226 135.563 81.3631C132.654 82.732 129.574 83.3309 126.237 83.3309ZM126.28 75.3743C128.504 75.3743 130.6 74.9465 132.525 74.1337C134.45 73.3209 136.119 72.1659 137.573 70.7543C139.028 69.2998 140.14 67.6315 140.995 65.7493C141.851 63.8243 142.236 61.7709 142.236 59.5465C142.236 57.322 141.808 55.2687 140.995 53.3437C140.14 51.4187 139.028 49.7504 137.573 48.3387C136.119 46.8843 134.45 45.772 132.525 44.9593C130.6 44.1465 128.504 43.7187 126.28 43.7187C124.098 43.7187 122.002 44.1465 120.077 44.9593C118.152 45.772 116.484 46.927 115.072 48.3387C113.66 49.7931 112.505 51.4615 111.693 53.3437C110.88 55.2687 110.452 57.322 110.452 59.5465C110.452 61.7709 110.88 63.8243 111.693 65.7493C112.505 67.6743 113.66 69.3426 115.072 70.7543C116.484 72.2087 118.152 73.3209 120.077 74.1337C122.002 74.9893 124.055 75.3743 126.28 75.3743Z" fill="black"/>
<path d="M88.3791 83.331L72.7652 47.4405L57.1941 83.331H46.7563L67.5891 35.4199H78.0269L98.8169 83.331H88.3791Z" fill="black"/>
<path d="M24.4689 114.901V118.922H10.9939C6.50228 118.922 4.27783 116.698 4.27783 112.206V105.49C4.27783 100.998 6.50228 98.7739 10.9939 98.7739H24.4689V102.795H11.5501C9.36839 102.795 8.29894 103.864 8.29894 106.046V111.65C8.29894 113.832 9.36839 114.901 11.5501 114.901H24.4689Z" fill="black"/>
<path d="M33.5804 114.901L31.8265 118.923H27.4204L36.1899 98.7314H40.596L49.3654 118.923H44.9593L43.2054 114.901H33.5804ZM41.4515 110.838L38.4143 103.779L35.3771 110.838H41.4515Z" fill="black"/>
<path d="M56.3385 118.923H52.3174V98.7314H65.7924C70.284 98.7314 72.5085 100.742 72.5085 104.806C72.5085 108.87 70.284 110.88 65.7924 110.88H56.3813L56.3385 118.923ZM65.0652 106.816C67.2896 106.816 68.4446 106.132 68.4446 104.806C68.4446 103.48 67.3324 102.795 65.0652 102.795H56.2957V106.816H65.0652Z" fill="black"/>
<path d="M81.0211 118.923H77V98.7314H81.0211V118.923Z" fill="black"/>
<path d="M93.5552 102.753H85.4702V98.7314H105.661V102.753H97.5763V118.923H93.5552V102.753Z" fill="black"/>
<path d="M112.377 114.901L110.623 118.923H106.217L114.987 98.7314H119.393L128.162 118.923H123.756L122.002 114.901H112.377ZM120.248 110.838L117.211 103.779L114.174 110.838H120.248Z" fill="black"/>
<path d="M149.979 114.901V118.923H131.071V98.7314H135.092V114.901H149.979Z" fill="black"/>
<path d="M43.6334 53.2584C43.0773 51.1195 42.2645 49.1518 41.2378 47.3979C40.2112 45.644 38.9706 44.0184 37.5162 42.6068C36.0617 41.1523 34.4362 39.9545 32.6823 38.9279C30.9284 37.9012 29.0034 37.0884 26.9928 36.5323C24.9823 35.9762 22.8862 35.6768 20.7045 35.6768H4.27783V44.0612H20.9184C23.0573 44.0612 25.0251 44.489 26.8645 45.3018C28.7039 46.1145 30.3295 47.2695 31.6556 48.6812C33.0245 50.0929 34.0939 51.804 34.8639 53.7718C35.6339 55.7395 36.0189 57.7929 36.0189 59.8462C36.0189 61.8568 35.6339 63.8245 34.8639 65.664C34.0939 67.5034 33.0245 69.129 31.6556 70.4979C30.2867 71.8668 28.7039 72.979 26.8645 73.7918C25.0251 74.6045 23.0145 75.0323 20.9184 75.0323H4.27783V83.4168H20.7045C22.8862 83.4168 24.9823 83.1173 26.9928 82.5612C29.0034 82.0051 30.8856 81.1923 32.6823 80.1657C34.4362 79.139 36.0617 77.8984 37.5162 76.4868C38.9706 75.0323 40.2112 73.4495 41.2378 71.6957C42.2645 69.9418 43.0773 68.0595 43.6334 66.049C44.1895 64.0384 44.4889 61.9423 44.4889 59.7606C44.4889 57.5362 44.1895 55.3973 43.6334 53.2584Z" fill="black"/>
<path d="M75.2891 90.2612C75.5885 90.7746 75.7596 91.3734 75.7168 91.9723H149.722V90.2612H75.2891Z" fill="black"/>
<path d="M70.6689 90.2612H4.27783V91.9723H70.2412C70.2412 91.3734 70.3695 90.7746 70.6689 90.2612Z" fill="black"/>
<path d="M70.8828 91.9725L72.8078 87.5664L74.7328 91.9725H76.9145L73.8773 85.0425H71.6956L68.7012 91.9725H70.8828Z" fill="black"/>
</svg>