<svg width="16" height="16" viewBox="0 0 16 16" fill="none" xmlns="http://www.w3.org/2000/svg">
<g clip-path="url(#clip0)">
<path d="M2.3865 14.1307H11.8925L11.4385 12.6607L12.5245 13.5927L13.5198 14.4847L15.3332 16V1.65C15.2878 0.758 14.5198 0 13.5678 0L2.38984 0.002C1.4385 0.002 0.666504 0.761333 0.666504 1.65333V12.48C0.666504 13.4207 1.43717 14.1307 2.3865 14.1307ZM9.4185 3.78867L9.3965 3.79667L9.4045 3.78867H9.4185ZM4.33117 4.63467C5.55317 3.74533 6.68584 3.788 6.68584 3.788L6.77717 3.878C5.28184 4.23467 4.60384 4.90267 4.60384 4.90267C4.60384 4.90267 4.78517 4.814 5.10184 4.67867C7.11584 3.88667 9.31517 3.944 11.3512 4.94667C11.3512 4.94667 10.6718 4.322 9.2685 3.922L9.3925 3.8C9.5865 3.80067 10.6132 3.83667 11.7118 4.64C11.7118 4.64 12.9412 6.74 12.9412 9.32C12.9005 9.27067 12.1785 10.4307 10.3205 10.4707C10.3205 10.4707 10.0058 10.1147 9.78184 9.804C10.8685 9.492 11.2752 8.868 11.2752 8.868C10.9185 9.09267 10.5932 9.226 10.3292 9.35933C9.92317 9.538 9.5165 9.626 9.1105 9.716C7.18784 10.028 6.1085 9.506 5.0885 9.092L4.73984 8.91467C4.73984 8.91467 5.14584 9.53867 6.18917 9.85067C5.91517 10.1633 5.64384 10.5187 5.64384 10.5187C3.7865 10.4747 3.10917 9.31467 3.10917 9.31467C3.10917 6.73067 4.33117 4.63467 4.33117 4.63467Z" fill="#226AED" fill-opacity="1"/>
<path d="M9.53871 8.51404C10.0127 8.51404 10.3987 8.11404 10.3987 7.62071C10.3987 7.13071 10.0147 6.73071 9.53871 6.73071V6.73271C9.06671 6.73271 8.68004 7.13138 8.67871 7.62471C8.67871 8.11404 9.06471 8.51404 9.53871 8.51404Z" fill="#226AED" fill-opacity="1"/>
<path d="M6.45979 8.51404C6.93379 8.51404 7.31979 8.11404 7.31979 7.62071C7.31979 7.13071 6.93645 6.73071 6.46246 6.73071L6.45979 6.73271C5.98579 6.73271 5.59979 7.13138 5.59979 7.62471C5.59979 8.11404 5.98579 8.51404 6.45979 8.51404Z" fill="#226AED" fill-opacity="1"/>
</g>
<defs>
<clipPath id="clip0">
<rect width="16" height="16" fill="white"/>
</clipPath>
</defs>
</svg>
