<svg width="48" height="48" viewBox="0 0 48 48" fill="none" xmlns="http://www.w3.org/2000/svg">
<path fill-rule="evenodd" clip-rule="evenodd" d="M24 0C10.7438 0 0 10.7437 0 24C0 37.2563 10.7438 48 24 48C37.2562 48 48 37.2563 48 24C48 10.7437 37.2562 0 24 0ZM24.0004 3.375C26.7847 3.375 29.4847 3.91875 32.0254 4.99219C34.4816 6.03281 36.6847 7.51875 38.5832 9.41251C40.4769 11.3062 41.9676 13.5141 43.0035 15.9703C44.0816 18.5156 44.6254 21.2156 44.6254 24C44.6254 26.7844 44.0816 29.4844 43.0082 32.025C41.9676 34.4812 40.4816 36.6844 38.5879 38.5828C36.6941 40.4766 34.4863 41.9672 32.0301 43.0031C29.4847 44.0813 26.7847 44.625 24.0004 44.625C21.216 44.625 18.516 44.0813 15.9754 43.0078C13.5191 41.9672 11.316 40.4812 9.41755 38.5875C7.5238 36.6938 6.03318 34.4859 4.99724 32.0297C3.91912 29.4844 3.37537 26.7844 3.37537 24C3.37537 21.2156 3.91912 18.5156 4.99255 15.975C6.03318 13.5188 7.51912 11.3156 9.41287 9.41719C11.3066 7.52344 13.5144 6.03281 15.9707 4.99687C18.516 3.91875 21.216 3.375 24.0004 3.375ZM22.7668 32.8828C23.0855 33.225 23.5308 33.4172 23.9996 33.4172C24.4683 33.4172 24.9137 33.225 25.2277 32.8875L35.5871 21.8344C36.2246 21.1547 36.1918 20.0859 35.5121 19.4484C34.8324 18.8109 33.7637 18.8437 33.1262 19.5234L23.9996 29.2594L14.8683 19.5187C14.2308 18.839 13.1621 18.8062 12.4824 19.4437C11.8027 20.0812 11.7699 21.15 12.4074 21.8297L22.7668 32.8828Z" fill="url(#paint0_linear)"/>
<defs>
<linearGradient id="paint0_linear" x1="2.75" y1="24" x2="48" y2="24" gradientUnits="userSpaceOnUse">
<stop stop-color="#FE8367"/>
<stop offset="1" stop-color="#FE7688"/>
</linearGradient>
</defs>
</svg>