<svg width="80" height="80" viewBox="0 0 80 80" fill="none" xmlns="http://www.w3.org/2000/svg">
<path d="M65.6292 12.2634C65.6292 12.867 65.8743 13.4517 66.2892 13.8666C66.704 14.2816 67.2886 14.5268 67.892 14.5268C68.4765 14.5268 69.08 14.2816 69.4948 13.8666C69.9096 13.4517 70.1548 12.867 70.1548 12.2634C70.1548 11.6598 69.9096 11.0751 69.4948 10.6602C69.08 10.2452 68.4954 10 67.892 10C67.2886 10 66.704 10.2452 66.2892 10.6602C65.8743 11.094 65.6292 11.6598 65.6292 12.2634Z" fill="#5C5C5C"/>
<path d="M65.6292 30.8606C65.6292 32.1054 66.6474 33.124 67.892 33.124C69.1365 33.124 70.1548 32.1054 70.1548 30.8606C70.1548 29.6157 69.1365 28.5972 67.892 28.5972C66.6474 28.5972 65.6292 29.5969 65.6292 30.8606Z" fill="#5C5C5C"/>
<path d="M65.6292 21.5611C65.6292 22.806 66.6474 23.8245 67.892 23.8245C69.1365 23.8245 70.1548 22.806 70.1548 21.5611C70.1548 20.3163 69.1365 19.2978 67.892 19.2978C66.6474 19.2978 65.6292 20.3163 65.6292 21.5611Z" fill="#5C5C5C"/>
<path d="M65.6292 40.1403C65.6292 41.3851 66.6474 42.4037 67.892 42.4037C69.1365 42.4037 70.1548 41.3851 70.1548 40.1403C70.1548 38.8954 69.1365 37.8769 67.892 37.8769C66.6474 37.8769 65.6292 38.8954 65.6292 40.1403Z" fill="#5C5C5C"/>
<path d="M70.1548 49.4388C70.1548 48.8541 69.9096 48.2505 69.4948 47.8356C69.08 47.4206 68.4954 47.1754 67.892 47.1754C67.2886 47.1754 66.704 47.4206 66.2892 47.8356C65.8743 48.2505 65.6292 48.8352 65.6292 49.4388C65.6292 50.0424 65.8743 50.6271 66.2892 51.042C66.704 51.457 67.2886 51.7022 67.892 51.7022C68.4954 51.7022 69.08 51.457 69.4948 51.042C69.9096 50.6271 70.1548 50.0424 70.1548 49.4388Z" fill="#5C5C5C"/>
<path d="M60.8586 49.4388C60.8586 48.194 59.8404 47.1754 58.5958 47.1754C57.3513 47.1754 56.333 48.194 56.333 49.4388C56.333 50.6837 57.3513 51.7022 58.5958 51.7022C59.8404 51.7022 60.8586 50.7025 60.8586 49.4388Z" fill="#5C5C5C"/>
<path d="M28.4639 21.5611C28.4639 22.806 29.4822 23.8245 30.7267 23.8245C31.9712 23.8245 32.9895 22.806 32.9895 21.5611C32.9895 20.3163 31.9712 19.2978 30.7267 19.2978C29.4633 19.2978 28.4639 20.3163 28.4639 21.5611Z" fill="#5C5C5C"/>
<path d="M28.4639 30.5423C28.4639 31.7872 29.4822 32.8057 30.7267 32.8057C31.9712 32.8057 32.9895 31.7872 32.9895 30.5423C32.9895 29.2975 31.9712 28.279 30.7267 28.279C29.4633 28.279 28.4639 29.2975 28.4639 30.5423Z" fill="#5C5C5C"/>
<path d="M28.4639 40.2837C28.4639 41.5286 29.4822 42.5471 30.7267 42.5471C31.9712 42.5471 32.9895 41.5286 32.9895 40.2837C32.9895 39.0389 31.9712 38.0204 30.7267 38.0204C29.4633 38.0204 28.4639 39.0389 28.4639 40.2837Z" fill="#5C5C5C"/>
<path d="M28.4639 49.1396C28.4639 50.3845 29.4822 51.403 30.7267 51.403C31.9712 51.403 32.9895 50.3845 32.9895 49.1396C32.9895 47.8948 31.9712 46.8763 30.7267 46.8763C29.4633 46.8763 28.4639 47.8948 28.4639 49.1396Z" fill="#5C5C5C"/>
<path d="M28.4639 12.2634C28.4639 12.867 28.709 13.4517 29.1239 13.8666C29.5387 14.2816 30.1233 14.5268 30.7267 14.5268C31.3301 14.5268 31.9147 14.2816 32.3295 13.8666C32.7444 13.4517 32.9895 12.867 32.9895 12.2634C32.9895 11.6598 32.7444 11.0751 32.3295 10.6602C31.9147 10.2452 31.3301 10 30.7267 10C30.1421 10 29.5387 10.2452 29.1239 10.6602C28.709 11.094 28.4639 11.6598 28.4639 12.2634Z" fill="#5C5C5C"/>
<path d="M37.7403 12.2634C37.7403 13.5083 38.7585 14.5268 40.0031 14.5268C41.2476 14.5268 42.2659 13.5083 42.2659 12.2634C42.2659 11.0185 41.2476 10 40.0031 10C38.7585 10 37.7403 11.0185 37.7403 12.2634Z" fill="#5C5C5C"/>
<path d="M47.0362 12.2634C47.0362 13.5083 48.0544 14.5268 49.299 14.5268C50.5435 14.5268 51.5618 13.5083 51.5618 12.2634C51.5618 11.0185 50.5435 10 49.299 10C48.0544 10 47.0362 11.0185 47.0362 12.2634Z" fill="#5C5C5C"/>
<path d="M56.333 12.2634C56.333 13.5083 57.3513 14.5268 58.5958 14.5268C59.8404 14.5268 60.8586 13.5083 60.8586 12.2634C60.8586 11.0185 59.8404 10 58.5958 10C57.3513 10 56.333 11.0185 56.333 12.2634Z" fill="#5C5C5C"/>
<path d="M37.7403 21.5611C37.7403 22.806 38.7585 23.8245 40.0031 23.8245C41.2476 23.8245 42.2659 22.806 42.2659 21.5611C42.2659 20.3163 41.2476 19.2978 40.0031 19.2978C38.7585 19.2978 37.7403 20.3163 37.7403 21.5611Z" fill="#5C5C5C"/>
<path d="M37.7403 30.5423C37.7403 31.7872 38.7585 32.8057 40.0031 32.8057C41.2476 32.8057 42.2659 31.7872 42.2659 30.5423C42.2659 29.2975 41.2476 28.279 40.0031 28.279C38.7585 28.279 37.7403 29.2975 37.7403 30.5423Z" fill="#5C5C5C"/>
<path d="M37.7403 40.2837C37.7403 41.5286 38.7585 42.5471 40.0031 42.5471C41.2476 42.5471 42.2659 41.5286 42.2659 40.2837C42.2659 39.0389 41.2476 38.0204 40.0031 38.0204C38.7585 38.0204 37.7403 39.0389 37.7403 40.2837Z" fill="#5C5C5C"/>
<path d="M37.7403 49.1396C37.7403 50.3845 38.7585 51.403 40.0031 51.403C41.2476 51.403 42.2659 50.3845 42.2659 49.1396C42.2659 47.8948 41.2476 46.8763 40.0031 46.8763C38.7585 46.8763 37.7403 47.8948 37.7403 49.1396Z" fill="#5C5C5C"/>
<path d="M47.0362 21.5611C47.0362 22.806 48.0544 23.8245 49.299 23.8245C50.5435 23.8245 51.5618 22.806 51.5618 21.5611C51.5618 20.3163 50.5435 19.2978 49.299 19.2978C48.0544 19.2978 47.0362 20.3163 47.0362 21.5611Z" fill="#5C5C5C"/>
<path d="M47.0362 30.5423C47.0362 31.7872 48.0544 32.8057 49.299 32.8057C50.5435 32.8057 51.5618 31.7872 51.5618 30.5423C51.5618 29.2975 50.5435 28.279 49.299 28.279C48.0544 28.279 47.0362 29.2975 47.0362 30.5423Z" fill="#5C5C5C"/>
<path d="M47.0362 40.2837C47.0362 41.5286 48.0544 42.5471 49.299 42.5471C50.5435 42.5471 51.5618 41.5286 51.5618 40.2837C51.5618 39.0389 50.5435 38.0204 49.299 38.0204C48.0544 38.0204 47.0362 39.0389 47.0362 40.2837Z" fill="#5C5C5C"/>
<path d="M47.0362 49.1396C47.0362 50.3845 48.0544 51.403 49.299 51.403C50.5435 51.403 51.5618 50.3845 51.5618 49.1396C51.5618 47.8948 50.5435 46.8763 49.299 46.8763C48.0544 46.8763 47.0362 47.8948 47.0362 49.1396Z" fill="#5C5C5C"/>
<path d="M56.333 21.5611C56.333 22.806 57.3513 23.8245 58.5958 23.8245C59.8404 23.8245 60.8586 22.806 60.8586 21.5611C60.8586 20.3163 59.8404 19.2978 58.5958 19.2978C57.3513 19.2978 56.333 20.3163 56.333 21.5611Z" fill="#5C5C5C"/>
<path d="M56.333 30.8606C56.333 32.1054 57.3513 33.124 58.5958 33.124C59.8404 33.124 60.8586 32.1054 60.8586 30.8606C60.8586 29.6157 59.8404 28.5972 58.5958 28.5972C57.3513 28.5972 56.333 29.6157 56.333 30.8606Z" fill="#5C5C5C"/>
<path d="M56.333 40.1583C56.333 41.4032 57.3513 42.4217 58.5958 42.4217C59.8404 42.4217 60.8586 41.4032 60.8586 40.1583C60.8586 38.9135 59.8404 37.895 58.5958 37.895C57.3513 37.895 56.333 38.9135 56.333 40.1583Z" fill="#5C5C5C"/>
<path fill-rule="evenodd" clip-rule="evenodd" d="M51.6915 54.0591L51.6915 67.7366C51.6915 68.9815 50.6921 70 49.4287 70L12.2622 70C11.0177 70 9.99943 68.9815 9.99943 67.7366L9.99942 30.561C9.99942 29.3161 11.0177 28.2976 12.2622 28.2976L24.99 28.2976L24.99 31.9387L13.6394 31.9387L13.6394 66.3588L48.0515 66.3588L48.0515 54.0591L51.6915 54.0591Z" fill="#5C5C5C"/>
</svg>