<svg id="Camada_1" data-name="Camada 1" xmlns="http://www.w3.org/2000/svg" viewBox="0 0 256 256"><defs><style>.cls-1{fill:#fe8464;}</style></defs><path class="cls-1" d="M110.28,126.47q8.55,4.35,17.08,8.74a1.44,1.44,0,0,0,.68.18,1.51,1.51,0,0,0,.71-.2q8.26-4.24,16.55-8.47c.61-.31.95-.49,1-.85a.88.88,0,0,0,0-.16h0c0-.29-.19-.57-.48-1l-17.12-24.57-.21-.27L128,99.2l-.52.7-.22.29L123.9,105q-7,10.06-14,20.11a.91.91,0,0,0-.21.77A1,1,0,0,0,110.28,126.47Zm17.08-8.26c0,.09,0,.11,0,.11s0,0-.13.07l-12.41,4.88-2.62,1,15.17-21.77v7.37Q127.35,114,127.36,118.21Zm0,1.55v13.92l-15.39-7.87Zm16.81,6-15.37,7.87V119.76Zm-15.4-7.53q0-6.45,0-12.88v-2.85l15.13,21.74-5.43-2.14-9.6-3.76C128.75,118.35,128.73,118.33,128.73,118.28Z"/><path class="cls-1" d="M147.24,127.75l-1.17.14a2.49,2.49,0,0,0-.91.31l-2.54,1.29-14.27,7.31a.53.53,0,0,1-.62,0l-14.63-7.5-2.4-1.23-.31-.14-.46-.21-.74.63,18.84,23,.84-1c5.83-7.1,11.86-14.45,17.67-21.71ZM128.89,138q5.9-3,11.78-6l2.49-1.27-14.42,17.57v-2.07c0-2.65,0-5.31,0-8C128.74,138.09,128.75,138.08,128.89,138Zm-1.54,10.09v.22l-14.42-17.58.24.12L127.23,138l.1.08h0C127.35,141.45,127.35,144.77,127.35,148.09Z"/><path class="cls-1" d="M81.88,87.65Q90.45,92,99,96.39a1.5,1.5,0,0,0,.68.18,1.56,1.56,0,0,0,.71-.2q7.91-4.07,15.82-8.1l.73-.37c.61-.32.95-.49,1-.85a.5.5,0,0,0,0-.16h0a1.9,1.9,0,0,0-.49-1L100.38,61.31a2.38,2.38,0,0,0-.22-.27l-.57-.67-.53.73-.2.27-3.55,5.1q-6.9,9.91-13.82,19.82a.9.9,0,0,0-.21.76A1.07,1.07,0,0,0,81.88,87.65ZM99,79.38a.45.45,0,0,1,0,.12.42.42,0,0,1-.14.07l-12.74,5-2.28.89L99,63.69v7.38Q99,75.23,99,79.38Zm0,1.55V94.86L83.54,87ZM115.74,87l-15.37,7.87V80.94Zm-15.4-7.54q0-6.44,0-12.88V63.72l15.14,21.74-5.27-2.06-9.76-3.84C100.36,79.53,100.34,79.51,100.34,79.45Z"/><path class="cls-1" d="M100.28,111.73c5.9-7.18,12-14.61,17.87-21.94l.69-.86-1.16.14a2.76,2.76,0,0,0-.92.3L114,90.78Q107,94.37,100,98a.54.54,0,0,1-.63,0Q92,94.23,84.71,90.49L82.3,89.26,82,89.11l-.45-.21-.75.63,18.85,23Zm.22-12.55,11.84-6.05,2.42-1.24-14.41,17.58v-1.93c0-2.7,0-5.41,0-8.11C100.34,99.27,100.35,99.25,100.5,99.18ZM99,109.27v.21L84.54,91.91l14.3,7.31s.08.08.1.08h0C99,102.62,99,106,99,109.27Z"/><path class="cls-1" d="M100.38,136.23c-.06-.09-.13-.16-.22-.27l-.57-.66-.54.72c-.07.11-.13.19-.19.27l-3.39,4.87q-7,10-14,20.05a.91.91,0,0,0-.21.77,1.09,1.09,0,0,0,.6.59q8.57,4.35,17.08,8.74a1.5,1.5,0,0,0,.68.18,1.56,1.56,0,0,0,.71-.2l15.87-8.12.68-.35c.61-.31.95-.49,1-.85a.5.5,0,0,0,0-.16h0a2,2,0,0,0-.49-1Zm15.36,25.68-15.37,7.87V155.86Zm-15.4-7.53q0-6.45,0-12.88v-2.85l15.14,21.74-5.44-2.14-9.59-3.76C100.36,154.45,100.34,154.43,100.34,154.38Zm-1.42,1.48v13.92l-15.38-7.87Zm0-1.56a.45.45,0,0,1,0,.12.42.42,0,0,1-.14.07l-11.89,4.67-3.13,1.22L99,138.61V146Q99,150.14,99,154.3Z"/><path class="cls-1" d="M118.84,163.85l-1.16.14a2.76,2.76,0,0,0-.92.3l-2.94,1.51L100,172.9a.54.54,0,0,1-.63,0q-7.44-3.84-14.91-7.65l-2.12-1.08L82,164l-.46-.22-.75.63,18.85,23,.55-.67c5.93-7.22,12.06-14.68,18-22ZM100.5,174.1,112.4,168l2.36-1.2-14.41,17.57v-1.93c0-2.7,0-5.41,0-8.11C100.34,174.19,100.35,174.17,100.5,174.1ZM99,184.19v.22L84.54,166.83l14.3,7.31s.08.08.1.08h0C99,177.54,99,180.87,99,184.19Z"/><path class="cls-1" d="M139.46,162.57q8.56,4.35,17.08,8.74a1.47,1.47,0,0,0,.68.18,1.59,1.59,0,0,0,.71-.2q8.26-4.24,16.55-8.47c.61-.31,1-.49,1.05-.85a1.1,1.1,0,0,0,0-.16h0a2,2,0,0,0-.49-1L158,136.23c-.06-.09-.13-.16-.22-.27l-.57-.66-.54.72-.19.27-3.39,4.87q-7,10-14,20.05a.93.93,0,0,0-.21.77A1.06,1.06,0,0,0,139.46,162.57Zm17.08-8.27a.45.45,0,0,1,0,.12.42.42,0,0,1-.14.07l-11.9,4.67-3.12,1.22,15.16-21.77v7.52Q156.53,150.23,156.54,154.3Zm0,1.56v13.92l-15.38-7.87Zm16.81,6L158,169.78V155.86Zm-15.39-7.53V138.65l15.14,21.74-5.44-2.14-9.6-3.76C157.94,154.45,157.91,154.43,157.92,154.38Z"/><path class="cls-1" d="M174.34,164.29l-3.2,1.64-13.6,7a.54.54,0,0,1-.63,0q-7.46-3.84-14.92-7.65l-2.11-1.08-.31-.14-.46-.22-.74.63,18.85,23,.78-1c5.85-7.12,11.9-14.49,17.73-21.77l.69-.86-1.16.14A2.76,2.76,0,0,0,174.34,164.29Zm-16.27,9.81c3.85-1.95,7.68-3.91,11.52-5.88l2.75-1.4-14.41,17.57v-2.51q0-3.76,0-7.53C157.92,174.19,157.93,174.17,158.07,174.1Zm-1.54,10.09v.22l-14.42-17.58,14.31,7.31.09.08h0C156.53,177.54,156.53,180.87,156.53,184.19Z"/><path class="cls-1" d="M138.07,87.05a1,1,0,0,0,.6.6q8.57,4.35,17.08,8.74a1.47,1.47,0,0,0,.68.18,1.56,1.56,0,0,0,.71-.2Q165,92.31,173,88.27l.73-.37c.61-.32.95-.49,1.05-.85a.5.5,0,0,0,0-.16h0a1.9,1.9,0,0,0-.49-1L157.17,61.31c-.06-.09-.13-.16-.22-.27l-.57-.67-.52.71a3.39,3.39,0,0,0-.21.29l-2.56,3.68L138.28,86.29A.92.92,0,0,0,138.07,87.05Zm17.68-7.67a.45.45,0,0,1,0,.12.42.42,0,0,1-.14.07l-12.26,4.81-2.76,1.08,15.16-21.77v7Q155.74,75,155.75,79.38Zm0,1.55V94.86L140.33,87ZM172.52,87l-15.36,7.87V80.94Zm-15.39-7.54c0-4.29,0-8.58,0-12.88V63.72l15.14,21.74L167,83.37l-9.7-3.81C157.15,79.53,157.13,79.51,157.13,79.45Z"/><path class="cls-1" d="M173.55,89.37l-2.74,1.41q-7,3.59-14.06,7.2a.54.54,0,0,1-.63,0q-7.08-3.64-14.18-7.27l-2.85-1.46-.32-.15-.44-.21-.74.64,18.84,23,.75-.92c5.86-7.13,11.92-14.51,17.76-21.8l.69-.86-1.16.14A2.76,2.76,0,0,0,173.55,89.37Zm-16.26,9.81,11.84-6.05,2.42-1.24-14.41,17.58V107.4c0-2.66,0-5.31,0-8C157.13,99.27,157.14,99.25,157.29,99.18ZM155.74,109v.46L141.33,91.91l14.3,7.31s.08.08.1.08h0Q155.75,104.16,155.74,109Z"/><path class="cls-1" d="M110.28,54.28q8.55,4.35,17.08,8.73a1.44,1.44,0,0,0,.68.18,1.51,1.51,0,0,0,.71-.2l15.79-8.08.76-.39c.61-.31.95-.48,1-.85a.88.88,0,0,0,0-.16h0c0-.29-.19-.57-.48-1L128.77,27.93a2,2,0,0,0-.21-.26L128,27l-.52.7-.22.29L123.9,32.8q-7,10.06-14,20.11a.92.92,0,0,0-.21.77A1,1,0,0,0,110.28,54.28ZM127.36,46a.24.24,0,0,1,0,.12l-.13.07L114.8,51.07l-2.62,1,15.17-21.77v7.37C127.35,40.46,127.35,43.24,127.36,46Zm0,1.55V61.48l-15.39-7.87Zm16.81,6-15.37,7.87V47.57Zm-15.4-7.53q0-6.44,0-12.88V30.35l15.13,21.74L138.45,50l-9.6-3.77C128.75,46.15,128.73,46.13,128.73,46.08Z"/><path class="cls-1" d="M128.83,78.17c5.84-7.12,11.89-14.48,17.71-21.76l.69-.86-1.16.14a2.69,2.69,0,0,0-.91.31l-2.75,1.4q-7,3.6-14.06,7.21a.54.54,0,0,1-.62,0l-14.2-7.27-2.83-1.45-.31-.15-.46-.21-.74.63,18.84,23Zm.06-12.36,12.18-6.22,2.09-1.07L128.74,76.09V74c0-2.66,0-5.32,0-8C128.74,65.9,128.75,65.88,128.89,65.81ZM127.35,75.9v.21L112.93,58.53q7.16,3.66,14.3,7.32s.09.08.1.08h0C127.35,69.25,127.35,72.57,127.35,75.9Z"/><path class="cls-1" d="M164.89,125.88a1,1,0,0,0,.6.59q8.55,4.35,17.08,8.74a1.37,1.37,0,0,0,1.39,0q8.26-4.24,16.55-8.47c.61-.31,1-.49,1.05-.85a.44.44,0,0,0,0-.16h0c0-.29-.19-.57-.48-1L184,100.13a2.38,2.38,0,0,0-.23-.27l-.56-.66-.53.72-.2.27L179.12,105q-7,10.06-14,20.11A.91.91,0,0,0,164.89,125.88Zm17.68-7.67c0,.09,0,.11,0,.11s0,0-.13.07L170,123.27l-2.61,1,15.16-21.78V110Q182.56,114.12,182.57,118.21Zm0,1.55v13.92l-15.39-7.87Zm16.81,6L184,133.68V119.76ZM184,118.28V102.55l15.13,21.74-5.43-2.14-9.6-3.76C184,118.35,183.94,118.33,184,118.28Z"/><path class="cls-1" d="M201.29,127.89a2.54,2.54,0,0,0-.92.31l-2.83,1.44-14,7.16a.53.53,0,0,1-.62,0Q175.49,133,168,129.16l-2.11-1.08-.31-.14-.51-.17-.69.59,18.85,23,.72-.89c5.87-7.15,11.94-14.54,17.79-21.84l.69-.86ZM184.1,138l11.38-5.8,2.89-1.48L184,148.29v-1.93q0-4.05,0-8.11C184,138.09,184,138.08,184.1,138Zm-1.54,10.09v.22l-14.42-17.58,14.3,7.31s.09.08.1.08h0C182.56,141.45,182.56,144.77,182.56,148.09Z"/><path class="cls-1" d="M128,176.84l-.51.69-.23.31-3.31,4.75q-7,10.09-14,20.17a.9.9,0,0,0-.21.76,1,1,0,0,0,.6.6q8.55,4.35,17.08,8.73a1.33,1.33,0,0,0,.68.18,1.63,1.63,0,0,0,.71-.19l14.68-7.52,1.87-.95c.61-.32.95-.49,1-.85a1,1,0,0,0,0-.17h0c0-.3-.19-.58-.48-1l-17.12-24.57a2,2,0,0,0-.21-.27Zm16.14,26.62-15.37,7.86V197.41Zm-15.4-7.54q0-6.43,0-12.88v-2.85l15.13,21.74-5.43-2.13-9.6-3.77C128.75,196,128.73,196,128.73,195.92Zm-1.41,1.48v13.93l-15.39-7.87Zm0-1.55a.24.24,0,0,1,0,.12s0,0-.13.07l-13,5.11-2,.78,15.17-21.77v7.38Q127.35,191.7,127.36,195.85Z"/><path class="cls-1" d="M145.16,205.84l-2,1q-7.41,3.79-14.81,7.59a.51.51,0,0,1-.62,0l-14-7.2-3-1.52-.32-.15-.45-.21-.74.64L128,229l.67-.81c5.89-7.17,12-14.59,17.84-21.91l.7-.87-1.17.15A2.62,2.62,0,0,0,145.16,205.84Zm-16.27,9.81q6.06-3.09,12.11-6.19l2.16-1.1-14.42,17.57v-2.06c0-2.66,0-5.31,0-8C128.74,215.74,128.75,215.72,128.89,215.65Zm-1.54,10.09V226l-14.42-17.57q7.16,3.65,14.3,7.31l.1.08h0C127.35,219.09,127.35,222.42,127.35,225.74Z"/><path class="cls-1" d="M55.07,126.47q8.55,4.35,17.08,8.74a1.44,1.44,0,0,0,.67.18,1.51,1.51,0,0,0,.72-.2q8.25-4.24,16.54-8.47c.62-.31,1-.49,1.06-.85a.88.88,0,0,0,0-.16h0c0-.29-.19-.57-.48-1L73.56,100.13a3.32,3.32,0,0,0-.22-.27l-.56-.66-.52.7c-.09.11-.16.2-.22.29l-2.33,3.35-15,21.57a.88.88,0,0,0-.21.77A1,1,0,0,0,55.07,126.47Zm17.07-8.26c0,.09,0,.11,0,.11s0,0-.13.07l-12,4.73-3,1.17,15.17-21.78v7Q72.13,113.87,72.14,118.21Zm0,1.55v13.92l-15.38-7.87Zm16.82,6-15.37,7.87V119.76Zm-15.4-7.53q0-6.45,0-12.88v-2.85l15.13,21.74L83.1,122.1l-9.46-3.71C73.54,118.35,73.52,118.33,73.52,118.28Z"/><path class="cls-1" d="M92,127.75l-1.16.14a2.42,2.42,0,0,0-.91.31l-2.54,1.29L73.14,136.8a.54.54,0,0,1-.63,0q-7.22-3.72-14.45-7.41l-2.57-1.32-.32-.15-.45-.2-.74.63,18.84,23,.84-1c5.83-7.11,11.86-14.45,17.67-21.71ZM73.68,138q5.89-3,11.77-6l2.5-1.27L73.53,148.29v-10C73.53,138.09,73.54,138.08,73.68,138Zm-1.54,9.85v.45L57.72,130.73l.24.12L72,138l.1.08h0C72.14,141.36,72.14,144.6,72.14,147.85Z"/></svg>