<svg width="16" height="16" viewBox="0 0 16 16" fill="none" xmlns="http://www.w3.org/2000/svg">
<g clip-path="url(#clip0)">
<path d="M8 0.333374C3.58 0.333374 0 3.85337 0 8.19471C0 11.6687 2.292 14.6147 5.47 15.6534C5.87 15.7274 6.01667 15.484 6.01667 15.2754C6.01667 15.0887 6.01 14.594 6.00667 13.9387C3.78133 14.4127 3.312 12.884 3.312 12.884C2.948 11.9767 2.422 11.734 2.422 11.734C1.69733 11.2467 2.478 11.2567 2.478 11.2567C3.28133 11.3114 3.70333 12.0667 3.70333 12.0667C4.41667 13.2687 5.576 12.9214 6.03333 12.7207C6.10533 12.212 6.31133 11.866 6.54 11.6694C4.76333 11.4727 2.896 10.7967 2.896 7.78471C2.896 6.92671 3.206 6.22537 3.71933 5.67537C3.62933 5.47671 3.35933 4.67737 3.78933 3.59471C3.78933 3.59471 4.45933 3.38404 5.98933 4.40071C6.62933 4.22604 7.30933 4.13937 7.98933 4.13537C8.66933 4.13937 9.34933 4.22604 9.98933 4.40071C11.5093 3.38404 12.1793 3.59471 12.1793 3.59471C12.6093 4.67737 12.3393 5.47671 12.2593 5.67537C12.7693 6.22537 13.0793 6.92671 13.0793 7.78471C13.0793 10.8047 11.2093 11.4694 9.42933 11.6627C9.70933 11.8987 9.96933 12.3807 9.96933 13.1174C9.96933 14.1694 9.95933 15.0147 9.95933 15.27C9.95933 15.476 10.0993 15.722 10.5093 15.6434C13.71 14.6114 16 11.6634 16 8.19471C16 3.85337 12.418 0.333374 8 0.333374Z" fill="#226AED" fill-opacity="1"/>
</g>
<defs>
<clipPath id="clip0">
<rect width="16" height="16" fill="white"/>
</clipPath>
</defs>
</svg>
