<svg width="16" height="16" viewBox="0 0 16 16" fill="none" xmlns="http://www.w3.org/2000/svg">
<path d="M14.9964 14.0001V13.9995H14.9999V8.86497C14.9999 6.35313 14.4591 4.41821 11.5226 4.41821C10.111 4.41821 9.16362 5.19288 8.77687 5.9273H8.73603V4.65271H5.95178V13.9995H8.85095V9.3713C8.85095 8.15272 9.08195 6.97438 10.591 6.97438C12.078 6.97438 12.1001 8.36505 12.1001 9.44947V14.0001H14.9964Z" fill="#226AED" fill-opacity="1"/>
<path d="M1.23114 4.6532H4.13381V14H1.23114V4.6532Z" fill="#226AED" fill-opacity="1"/>
<path d="M2.68117 0C1.75308 0 1 0.753084 1 1.68117C1 2.60925 1.75308 3.37809 2.68117 3.37809C3.60925 3.37809 4.36233 2.60925 4.36233 1.68117C4.36175 0.753084 3.60867 0 2.68117 0V0Z" fill="#226AED" fill-opacity="1"/>
</svg>
