<svg width="64" height="64" viewBox="0 0 64 64" fill="none" xmlns="http://www.w3.org/2000/svg">
<circle cx="32" cy="32" r="30.5" stroke="#FE7688" stroke-width="3"/>
<ellipse cx="31.9999" cy="18.3776" rx="13.2369" ry="4.49799" fill="#FE7688"/>
<path fill-rule="evenodd" clip-rule="evenodd" d="M25.1645 23.5811C18.6904 24.4691 14.1365 26.5808 14.1365 29.0445C14.1365 32.3094 22.1342 34.9561 31.9999 34.9561C41.8656 34.9561 49.8634 32.3094 49.8634 29.0445C49.8634 26.5808 45.3094 24.4691 38.8353 23.5811C36.7666 23.9527 34.4483 24.1608 31.9999 24.1608C29.5516 24.1608 27.2332 23.9527 25.1645 23.5811Z" fill="#FE7688"/>
<path fill-rule="evenodd" clip-rule="evenodd" d="M21.7818 35.7879C14.644 37.0284 9.76685 39.528 9.76685 42.4096C9.76685 46.5262 19.7209 49.8634 31.9998 49.8634C44.2787 49.8634 54.2327 46.5262 54.2327 42.4096C54.2327 39.528 49.3555 37.0284 42.2176 35.7878C39.2836 36.3993 35.7726 36.755 31.9997 36.755C28.2269 36.755 24.7159 36.3993 21.7818 35.7879Z" fill="#FE7688"/>
</svg>