<svg width="65" height="65" viewBox="0 0 65 65" fill="none" xmlns="http://www.w3.org/2000/svg">
<path d="M61.8697 29.8757H57.0377C55.9268 29.8712 54.8589 30.3051 54.0659 31.0832L53.0835 32.0347C51.8792 27.7619 49.7911 23.7896 46.9545 20.3749L44.6899 18.1104L46.1971 16.6032C47.4448 15.3521 47.4448 13.3273 46.1971 12.0763L41.6745 7.55252C41.0749 6.94789 40.2583 6.60834 39.4067 6.60958H39.3971C38.551 6.60977 37.7404 6.94991 37.1475 7.55358L35.6393 9.06185L33.3203 6.74398C32.8371 6.32585 21.3737 -3.43949 10.3241 1.29011C9.93542 1.45637 9.68161 1.83646 9.67699 2.25916C9.67237 2.68186 9.91781 3.0674 10.3027 3.24212C15.7726 5.95438 20.7953 9.48752 25.1966 13.7189C25.4034 13.9216 25.5189 14.1996 25.5166 14.4891V20.6875L0.949137 45.2549C0.342989 45.8526 0.0012055 46.668 3.18279e-06 47.5192C-0.00119913 48.3704 0.33828 49.1868 0.942737 49.7861L3.9582 52.8091C5.21128 54.0468 7.22673 54.0468 8.4798 52.8091L11.4163 49.8715C11.4259 49.8629 11.4377 49.8608 11.4473 49.8512C11.4569 49.8416 11.459 49.8299 11.4675 49.8203L15.1497 46.1381C15.1593 46.1296 15.171 46.1275 15.1806 46.1179C15.1902 46.1083 15.1923 46.0965 15.2009 46.0869L19.9497 41.3381C19.9593 41.3296 19.971 41.3275 19.9806 41.3179C19.9902 41.3083 19.9923 41.2965 20.0009 41.2869L33.0633 28.2224H39.2563C39.546 28.2209 39.824 28.3363 40.0275 28.5424C42.7211 31.3531 45.1356 34.4185 47.2371 37.6955L47.1603 37.7701C46.3358 38.5749 45.8705 39.6782 45.8697 40.8304V43.0917C45.8692 43.5999 45.6881 44.0914 45.3587 44.4784L43.2457 46.9424H42.6697C40.3133 46.9424 38.403 48.8526 38.403 51.2091V53.3424H35.4643C34.3307 53.3394 33.243 53.7899 32.4435 54.5936L30.051 56.9861C29.2494 57.7833 28.8 58.8679 28.803 59.9984V61.8757C28.803 63.0539 29.7581 64.0091 30.9363 64.0091H61.8697C63.0479 64.0091 64.003 63.0539 64.003 61.8757V32.0091C64.003 30.8308 63.0479 29.8757 61.8697 29.8757ZM38.6611 9.05652C38.8574 8.85529 39.1267 8.74215 39.4078 8.74292C39.6947 8.74267 39.9696 8.85802 40.1705 9.06292L44.6931 13.5856C44.8938 13.7857 45.0065 14.0574 45.0065 14.3408C45.0065 14.6241 44.8938 14.8959 44.6931 15.096L43.1817 16.6021L37.1486 10.569L38.6611 9.05652ZM19.219 39.0491L17.8238 37.6539C17.4053 37.2496 16.74 37.2554 16.3285 37.6669C15.9171 38.0783 15.9113 38.7436 16.3155 39.1621L17.7097 40.5584L14.419 43.8491L11.4238 40.8539C11.0053 40.4496 10.34 40.4554 9.92853 40.8669C9.51708 41.2783 9.5113 41.9436 9.91554 42.3621L12.9097 45.3584L10.6857 47.5824L9.29047 46.1883C9.02266 45.911 8.62607 45.7998 8.25313 45.8974C7.88019 45.995 7.58894 46.2863 7.49133 46.6592C7.39371 47.0321 7.50492 47.4287 7.7822 47.6965L9.17634 49.0917L6.97154 51.2976C6.555 51.714 5.8798 51.714 5.46327 51.2976L2.4478 48.2736C2.24594 48.0747 2.133 47.8027 2.1346 47.5193C2.13621 47.2359 2.25223 46.9651 2.45634 46.7685L26.5843 22.6363L31.1123 27.1568L19.219 39.0491ZM39.2563 26.0891H33.059L30.4169 23.4523L27.6435 20.6864V14.4891C27.643 13.6223 27.2935 12.7922 26.6739 12.1861C22.7281 8.39668 18.3051 5.13792 13.5166 2.49225C22.6355 0.453848 31.8195 8.26718 31.8633 8.30452L34.883 11.3157L42.4243 18.8571L42.4339 18.8635L45.3907 21.8192C45.4771 21.9195 53.2915 31.1056 51.2467 40.2181C48.6039 35.428 45.3485 31.0025 41.5625 27.0533C40.9551 26.4343 40.1236 26.0866 39.2563 26.0891ZM61.8697 61.8757H30.9363L30.9363 59.9984C30.9353 59.4341 31.1595 58.8927 31.5593 58.4944L33.9518 56.1019C34.3521 55.6994 34.8967 55.4739 35.4643 55.4757H41.971C42.819 55.478 43.6319 55.8145 44.2334 56.4123L45.651 57.8299C46.0695 58.2341 46.7348 58.2283 47.1463 57.8169C47.5577 57.4054 47.5635 56.7401 47.1593 56.3216L45.7417 54.904C44.7433 53.9002 43.3846 53.3378 41.9689 53.3424H40.5363V51.2091C40.5363 50.0309 41.4915 49.0757 42.6697 49.0757H48.003C48.5921 49.0757 49.0697 48.5982 49.0697 48.0091C49.0697 47.42 48.5921 46.9424 48.003 46.9424H46.0553L46.9801 45.864C47.6392 45.0905 48.0017 44.1079 48.003 43.0917V40.8304C48.0056 40.3823 48.1493 39.9464 48.4137 39.5845C49.7822 41.8821 50.483 43.4032 50.4979 43.4363C50.6709 43.8176 51.0509 44.0625 51.4697 44.0624H51.4814C51.9022 44.0588 52.2816 43.8081 52.4499 43.4224C53.6299 40.6194 54.018 37.5464 53.5721 34.5381L55.5561 32.6181C55.9502 32.2274 56.4828 32.0085 57.0377 32.0091H61.8697V61.8757Z" fill="#FE7688"/>
<path d="M55.4697 52.276C56.0588 52.276 56.5364 51.7984 56.5364 51.2093V49.0759C56.5364 48.4868 56.0588 48.0093 55.4697 48.0093C54.8806 48.0093 54.4031 48.4868 54.4031 49.0759V51.2093C54.4031 51.7984 54.8806 52.276 55.4697 52.276Z" fill="#FE7688"/>
<path d="M55.4697 54.4092C54.8806 54.4092 54.4031 54.8867 54.4031 55.4758V57.6092C54.4031 58.1983 54.8806 58.6758 55.4697 58.6758C56.0588 58.6758 56.5364 58.1983 56.5364 57.6092V55.4758C56.5364 54.8867 56.0588 54.4092 55.4697 54.4092Z" fill="#FE7688"/>
<path d="M53.3367 52.2759H51.2034C50.6143 52.2759 50.1367 52.7534 50.1367 53.3425C50.1367 53.9316 50.6143 54.4092 51.2034 54.4092H53.3367C53.9258 54.4092 54.4034 53.9316 54.4034 53.3425C54.4034 52.7534 53.9258 52.2759 53.3367 52.2759Z" fill="#FE7688"/>
<path d="M57.6033 52.2759C57.0142 52.2759 56.5366 52.7534 56.5366 53.3425C56.5366 53.9316 57.0142 54.4092 57.6033 54.4092H59.7366C60.3257 54.4092 60.8033 53.9316 60.8033 53.3425C60.8033 52.7534 60.3257 52.2759 59.7366 52.2759H57.6033Z" fill="#FE7688"/>
<path d="M58.6699 40.5428C59.259 40.5428 59.7366 40.0652 59.7366 39.4761V38.4094C59.7366 37.8203 59.259 37.3428 58.6699 37.3428C58.0808 37.3428 57.6033 37.8203 57.6033 38.4094V39.4761C57.6033 40.0652 58.0808 40.5428 58.6699 40.5428Z" fill="#FE7688"/>
<path d="M59.7366 44.8091V43.7424C59.7366 43.1533 59.259 42.6758 58.6699 42.6758C58.0808 42.6758 57.6033 43.1533 57.6033 43.7424V44.8091C57.6033 45.3982 58.0808 45.8758 58.6699 45.8758C59.259 45.8758 59.7366 45.3982 59.7366 44.8091Z" fill="#FE7688"/>
<path d="M55.4697 40.5425C54.8806 40.5425 54.4031 41.02 54.4031 41.6091C54.4031 42.1983 54.8806 42.6758 55.4697 42.6758H56.5364C57.1255 42.6758 57.6031 42.1983 57.6031 41.6091C57.6031 41.02 57.1255 40.5425 56.5364 40.5425H55.4697Z" fill="#FE7688"/>
<path d="M35.6083 57.6948C35.2111 57.5277 34.7524 57.6161 34.4456 57.9188C34.0331 58.3394 34.0331 59.0128 34.4456 59.4334C34.649 59.6299 34.9202 59.7407 35.203 59.7428C35.3423 59.7411 35.4801 59.7121 35.6083 59.6574C35.7375 59.6033 35.8565 59.5276 35.9603 59.4334C36.3728 59.0128 36.3728 58.3394 35.9603 57.9188C35.8565 57.8246 35.7375 57.7489 35.6083 57.6948Z" fill="#FE7688"/>
<path d="M41.6031 57.6094H39.4697C38.8806 57.6094 38.4031 58.0869 38.4031 58.676C38.4031 59.2651 38.8806 59.7427 39.4697 59.7427H41.6031C42.1922 59.7427 42.6697 59.2651 42.6697 58.676C42.6697 58.0869 42.1922 57.6094 41.6031 57.6094Z" fill="#FE7688"/>
</svg>