<svg width="64" height="64" viewBox="0 0 64 64" fill="none" xmlns="http://www.w3.org/2000/svg">
<path d="M63.6335 0.371621C63.401 0.138996 63.0785 0.00537109 62.7499 0.00537109C62.4211 0.00537109 62.0987 0.139121 61.8662 0.371621C61.6337 0.604121 61.5 0.926621 61.5 1.25525C61.5 1.584 61.6337 1.90637 61.8662 2.13875C62.0987 2.3725 62.4212 2.50512 62.7499 2.50512C63.0786 2.50512 63.401 2.37262 63.6335 2.13875C63.8672 1.90637 63.9997 1.58387 63.9997 1.25525C63.9997 0.926621 63.8672 0.604121 63.6335 0.371621Z" fill="#FE7688"/>
<path d="M48.7441 20.6243H44.1112C44.6661 19.7718 44.9897 18.7559 44.9897 17.665C44.9897 14.6646 42.5487 12.2236 39.5484 12.2236C37.559 12.2236 35.8164 13.2974 34.8672 14.8953C34.0794 14.2665 33.0821 13.8893 31.998 13.8893C30.9139 13.8893 29.9167 14.2665 29.1287 14.8953C28.1797 13.2974 26.4371 12.2236 24.4476 12.2236C21.4472 12.2236 19.0062 14.6646 19.0062 17.665C19.0062 18.7556 19.33 19.7715 19.8847 20.6241H15.252C13.5966 20.6241 12.25 21.9708 12.25 23.6263V27.9961C12.25 29.1044 12.854 30.0735 13.7499 30.5936V51.1199C13.7499 53.4638 15.6567 55.3706 18.0008 55.3706H45.9954C48.3392 55.3706 50.2461 53.4638 50.2461 51.1199V30.5938C51.1419 30.0736 51.746 29.1045 51.746 27.9963V23.6264C51.7461 21.971 50.3994 20.6243 48.7441 20.6243ZM36.6067 17.6651C36.6067 16.043 37.9264 14.7235 39.5485 14.7235C41.1706 14.7235 42.4902 16.0433 42.4902 17.6653C42.4902 19.2873 41.1706 20.6069 39.5485 20.6069H36.6067V17.6651ZM37.8904 23.124L41.6861 29.8129L40.7922 29.5729C40.4717 29.4871 40.1306 29.5318 39.8434 29.6976C39.5561 29.8635 39.3465 30.1368 39.2609 30.457L39.0422 31.2738L34.4582 23.1239H37.8904V23.124ZM31.9982 16.3891C33.1611 16.3891 34.1071 17.335 34.1071 18.4979C34.1071 19.6608 33.1611 20.6068 31.9982 20.6068C30.8354 20.6068 29.8894 19.6608 29.8894 18.4979C29.8894 17.335 30.8352 16.3891 31.9982 16.3891ZM29.6517 23.124L25.8257 29.8105L25.599 28.9629C25.5132 28.6425 25.3037 28.3694 25.0165 28.2035C24.7292 28.0378 24.3881 27.9929 24.0676 28.0788L23.1825 28.3163L26.1439 23.124H29.6517ZM24.4479 14.7235C26.07 14.7235 27.3896 16.0431 27.3896 17.6651V20.6069H24.4479C22.8257 20.6069 21.5061 19.2871 21.5061 17.6651C21.5061 16.0431 22.8259 14.7235 24.4479 14.7235ZM14.75 27.9961V23.6264C14.75 23.3494 14.9754 23.124 15.2524 23.124H23.2661L20.201 28.4985H15.2524C14.9754 28.4985 14.75 28.2731 14.75 27.9961ZM34.2479 52.871H18.0008C17.0353 52.871 16.2497 52.0855 16.2497 51.1199V30.9983H19.5791C19.5939 31.0201 19.6062 31.043 19.6225 31.064C19.9306 31.4633 20.4486 31.6381 20.9359 31.5075L23.5072 30.8175L24.1952 33.3895C24.3261 33.8789 24.7395 34.2408 25.2416 34.306C25.2956 34.313 25.3495 34.3164 25.403 34.3164C25.847 34.3164 26.2629 34.0795 26.4875 33.6874L27.2484 32.3575V44.997C27.2484 45.6871 27.808 46.2469 28.4982 46.2469C29.1885 46.2469 29.7481 45.6871 29.7481 44.997V31.0719H34.2476V52.871H34.2479ZM29.4146 28.5721L32.0571 23.954L34.6546 28.5721H29.4146ZM47.7465 51.1199C47.7465 52.0854 46.961 52.871 45.9954 52.871H36.7476V32.2936L38.3674 35.1735C38.5906 35.5704 39.009 35.8106 39.4564 35.8106C39.5084 35.8106 39.5606 35.8075 39.6131 35.8008C40.1174 35.7371 40.5327 35.3746 40.6641 34.8838L41.3521 32.3118L43.9236 33.0018C44.4104 33.1324 44.9279 32.958 45.2362 32.5594C45.5446 32.1608 45.5834 31.616 45.3347 31.1776L45.2329 30.9981H47.7465V51.1199ZM49.2464 27.9963C49.2464 28.2733 49.021 28.4986 48.744 28.4986H43.8142L40.7645 23.1241H48.744C49.021 23.124 49.2464 23.3494 49.2464 23.6264V27.9963Z" fill="#FE7688"/>
<path d="M29.3825 48.6741C29.15 48.4416 28.8275 48.3091 28.4989 48.3091C28.1702 48.3091 27.8478 48.4416 27.6153 48.6741C27.3828 48.9066 27.249 49.2291 27.249 49.559C27.249 49.8877 27.3828 50.2101 27.6153 50.4426C27.8478 50.675 28.1703 50.8088 28.4989 50.8088C28.8277 50.8088 29.15 50.6751 29.3825 50.4426C29.615 50.2088 29.7488 49.8876 29.7488 49.559C29.7487 49.2291 29.6149 48.9078 29.3825 48.6741Z" fill="#FE7688"/>
<path d="M60.3534 3.6536C59.8654 3.1656 59.0739 3.1656 58.5858 3.6536L47.1131 15.1266C46.6251 15.6148 46.6251 16.4062 47.1131 16.8943C47.3572 17.1383 47.6771 17.2605 47.9968 17.2605C48.3166 17.2605 48.6366 17.1383 48.8806 16.8943L60.3534 5.42135C60.8416 4.93322 60.8416 4.14185 60.3534 3.6536Z" fill="#FE7688"/>
<path d="M12.5092 10.9912L5.44732 3.92948C4.9592 3.44148 4.16782 3.44148 3.67957 3.92948C3.19145 4.4176 3.19145 5.20898 3.67957 5.69723L10.7414 12.759C10.9856 13.003 11.3054 13.1251 11.6252 13.1251C11.9449 13.1251 12.2649 13.003 12.5089 12.759C12.9972 12.2709 12.9972 11.4795 12.5092 10.9912Z" fill="#FE7688"/>
<path d="M11.9412 52.18C11.4532 51.692 10.6618 51.692 10.1736 52.18L0.492559 61.8611C0.00443359 62.3492 0.00443359 63.1406 0.492559 63.6288C0.736684 63.8728 1.05656 63.995 1.37631 63.995C1.69606 63.995 2.01606 63.8728 2.26006 63.6288L11.9412 53.9477C12.4293 53.4596 12.4293 52.6682 11.9412 52.18Z" fill="#FE7688"/>
<path d="M60.502 58.7343L54.2621 52.4944C53.774 52.0064 52.9826 52.0064 52.4945 52.4944C52.0064 52.9825 52.0064 53.7739 52.4945 54.2622L58.7344 60.5021C58.9785 60.7461 59.2984 60.8682 59.6181 60.8682C59.9379 60.8682 60.2579 60.7461 60.5019 60.5021C60.9901 60.0139 60.9901 59.2226 60.502 58.7343Z" fill="#FE7688"/>
<path d="M8.31162 30.748H1.24987C0.559625 30.748 0 31.3078 0 31.9979C0 32.688 0.559625 33.2478 1.24987 33.2478H8.31162C9.00187 33.2478 9.5615 32.6882 9.5615 31.9979C9.5615 31.3078 9.002 30.748 8.31162 30.748Z" fill="#FE7688"/>
<path d="M62.7434 30.748H55.6139C54.9236 30.748 54.364 31.3078 54.364 31.9979C54.364 32.688 54.9236 33.2478 55.6139 33.2478H62.7434C63.4336 33.2478 63.9933 32.6882 63.9933 31.9979C63.9933 31.3078 63.4338 30.748 62.7434 30.748Z" fill="#FE7688"/>
<path d="M31.9984 0C31.3082 0 30.7485 0.55975 30.7485 1.24988V10.8322C30.7485 11.5224 31.3082 12.0821 31.9984 12.0821C32.6887 12.0821 33.2483 11.5224 33.2483 10.8322V1.24975C33.2482 0.559625 32.6887 0 31.9984 0Z" fill="#FE7688"/>
<path d="M31.9984 56.7168C31.3082 56.7168 30.7485 57.2765 30.7485 57.9667V62.7448C30.7485 63.4349 31.3082 63.9947 31.9984 63.9947C32.6887 63.9947 33.2483 63.4349 33.2483 62.7448V57.9667C33.2482 57.2763 32.6887 56.7168 31.9984 56.7168Z" fill="#FE7688"/>
<path d="M62.7453 44.2319H61.8881C61.1978 44.2319 60.6382 44.7917 60.6382 45.4818C60.6382 46.1719 61.1978 46.7317 61.8881 46.7317H62.7453C63.4356 46.7317 63.9952 46.1719 63.9952 45.4818C63.9952 44.7917 63.4357 44.2319 62.7453 44.2319Z" fill="#FE7688"/>
<path d="M56.6806 44.2319H55.8234C55.1331 44.2319 54.5735 44.7917 54.5735 45.4818C54.5735 46.1719 55.1331 46.7317 55.8234 46.7317H56.6806C57.3709 46.7317 57.9305 46.1719 57.9305 45.4818C57.9305 44.7917 57.371 44.2319 56.6806 44.2319Z" fill="#FE7688"/>
<path d="M59.2841 46.8354C58.5938 46.8354 58.0342 47.3952 58.0342 48.0853V48.9426C58.0342 49.6327 58.5938 50.1924 59.2841 50.1924C59.9743 50.1924 60.5339 49.6327 60.5339 48.9426V48.0853C60.5339 47.3951 59.9743 46.8354 59.2841 46.8354Z" fill="#FE7688"/>
<path d="M59.2841 40.771C58.5938 40.771 58.0342 41.3307 58.0342 42.0209V42.8781C58.0342 43.5683 58.5938 44.128 59.2841 44.128C59.9743 44.128 60.5339 43.5684 60.5339 42.8781V42.0209C60.5339 41.3306 59.9743 40.771 59.2841 40.771Z" fill="#FE7688"/>
<path d="M8.30561 19.876H7.44836C6.75811 19.876 6.19849 20.4357 6.19849 21.1259C6.19849 21.816 6.75811 22.3757 7.44836 22.3757H8.30561C8.99586 22.3757 9.55549 21.8161 9.55549 21.1259C9.55549 20.4357 8.99599 19.876 8.30561 19.876Z" fill="#FE7688"/>
<path d="M2.2414 19.876H1.38415C0.693902 19.876 0.134277 20.4357 0.134277 21.1259C0.134277 21.816 0.693902 22.3757 1.38415 22.3757H2.2414C2.93165 22.3757 3.49128 21.8161 3.49128 21.1259C3.49128 20.4357 2.93178 19.876 2.2414 19.876Z" fill="#FE7688"/>
<path d="M4.84485 22.4795C4.1546 22.4795 3.59497 23.0392 3.59497 23.7294V24.5865C3.59497 25.2766 4.1546 25.8364 4.84485 25.8364C5.5351 25.8364 6.09472 25.2766 6.09472 24.5865V23.7294C6.09472 23.039 5.5351 22.4795 4.84485 22.4795Z" fill="#FE7688"/>
<path d="M4.84485 16.4155C4.1546 16.4155 3.59497 16.9753 3.59497 17.6654V18.5225C3.59497 19.2127 4.1546 19.7724 4.84485 19.7724C5.5351 19.7724 6.09472 19.2127 6.09472 18.5225V17.6654C6.09472 16.9752 5.5351 16.4155 4.84485 16.4155Z" fill="#FE7688"/>
<path d="M46.7052 2.45947C44.6377 2.45947 42.9556 4.1416 42.9556 6.2091C42.9556 8.2766 44.6377 9.95872 46.7052 9.95872C48.7727 9.95872 50.4548 8.2766 50.4548 6.2091C50.4548 4.1416 48.7728 2.45947 46.7052 2.45947ZM46.7052 7.45897C46.0161 7.45897 45.4553 6.89822 45.4553 6.2091C45.4553 5.51997 46.0161 4.95922 46.7052 4.95922C47.3943 4.95922 47.9551 5.51997 47.9551 6.2091C47.9551 6.89822 47.3944 7.45897 46.7052 7.45897Z" fill="#FE7688"/>
<path d="M5.37756 41.7319C3.31006 41.7319 1.62793 43.4141 1.62793 45.4816C1.62793 47.5491 3.31006 49.2312 5.37756 49.2312C7.44506 49.2312 9.12718 47.5491 9.12718 45.4816C9.12718 43.4141 7.44506 41.7319 5.37756 41.7319ZM5.37756 46.7314C4.68843 46.7314 4.12768 46.1707 4.12768 45.4816C4.12768 44.7924 4.68843 44.2317 5.37756 44.2317C6.06668 44.2317 6.62743 44.7924 6.62743 45.4816C6.62743 46.1707 6.06668 46.7314 5.37756 46.7314Z" fill="#FE7688"/>
<path d="M47.5891 58.3335C47.3566 58.1009 47.0341 57.9673 46.7054 57.9673C46.3754 57.9673 46.0543 58.1009 45.8206 58.3335C45.5881 58.5659 45.4556 58.8884 45.4556 59.2172C45.4556 59.5459 45.5881 59.8669 45.8206 60.1007C46.0543 60.3332 46.3768 60.467 46.7054 60.467C47.0341 60.467 47.3566 60.3333 47.5891 60.1007C47.8216 59.8669 47.9553 59.5458 47.9553 59.2172C47.9552 58.8884 47.8214 58.5659 47.5891 58.3335Z" fill="#FE7688"/>
<path d="M20.633 58.3335C20.4005 58.1009 20.078 57.9673 19.7494 57.9673C19.4206 57.9673 19.0983 58.1009 18.8658 58.3335C18.6333 58.5659 18.4995 58.8873 18.4995 59.2172C18.4995 59.5459 18.6333 59.8669 18.8658 60.1007C19.0983 60.3332 19.4208 60.467 19.7494 60.467C20.0781 60.467 20.4005 60.3333 20.633 60.1007C20.8655 59.8669 20.9993 59.5458 20.9993 59.2172C20.9993 58.8872 20.8655 58.5659 20.633 58.3335Z" fill="#FE7688"/>
<path d="M21.4938 5.36137C21.2613 5.12899 20.9388 4.99512 20.6102 4.99512C20.2815 4.99512 19.9591 5.12887 19.7266 5.36137C19.4941 5.59387 19.3604 5.91637 19.3604 6.24499C19.3604 6.57499 19.4941 6.89612 19.7266 7.12862C19.9591 7.36237 20.2816 7.49487 20.6102 7.49487C20.939 7.49487 21.2613 7.36224 21.4938 7.12862C21.7263 6.89612 21.8601 6.57474 21.8601 6.24499C21.8601 5.91637 21.7263 5.59512 21.4938 5.36137Z" fill="#FE7688"/>
<path d="M60.0693 19.4913C59.8368 19.2575 59.5143 19.125 59.1857 19.125C58.8569 19.125 58.5345 19.2575 58.302 19.4913C58.0695 19.7238 57.9358 20.0451 57.9358 20.3749C57.9358 20.7036 58.0695 21.0248 58.302 21.2585C58.5345 21.4909 58.857 21.6248 59.1857 21.6248C59.5144 21.6248 59.8368 21.491 60.0693 21.2585C60.3018 21.0248 60.4355 20.7035 60.4355 20.3749C60.4355 20.045 60.3018 19.7238 60.0693 19.4913Z" fill="#FE7688"/>
</svg>