<svg width="55" height="64" viewBox="0 0 55 64" fill="none" xmlns="http://www.w3.org/2000/svg">
<path d="M54.9725 36.5545C54.9505 35.9964 54.5618 35.5208 54.0193 35.388C53.4773 35.2561 52.9124 35.4993 52.6365 35.9847C51.9426 37.2044 49.0915 37.8797 46.5486 38.1014C49.2556 31.0115 48.1951 25.7258 46.7395 22.4494C45.0075 18.5509 42.3747 16.5914 42.2634 16.5099C41.863 16.2164 41.3268 16.1876 40.8971 16.4371C40.4674 16.6861 40.2267 17.1661 40.2824 17.6593C40.5568 20.0734 38.7111 21.2741 37.9044 21.6779C36.0895 22.5876 33.2042 22.6901 31.1593 20.7663C27.8345 17.6383 28.1231 10.7042 31.9508 1.7407C32.1319 1.31637 32.0645 0.827113 31.776 0.467246C31.4874 0.107867 31.024 -0.0635208 30.5704 0.0214409C27.5733 0.583946 24.3652 1.73142 22.3979 2.94578C21.8105 3.30858 21.6284 4.07861 21.9912 4.66602C22.3535 5.25342 23.124 5.43604 23.7114 5.07325C24.9331 4.31933 26.7954 3.56884 28.7403 3.01952C24.1763 15.0855 27.1553 20.4318 29.4459 22.5871C32.3809 25.3478 36.3712 25.2424 39.0246 23.9133C40.7214 23.0627 41.905 21.7589 42.4572 20.2082C43.1086 21.006 43.8439 22.09 44.4548 23.4645C46.4489 27.9529 46.1267 33.1511 43.4977 38.9149C43.322 39.3006 43.3532 39.7489 43.5812 40.1063C43.8098 40.4632 44.2028 40.681 44.6272 40.6834C44.7067 40.6839 46.6233 40.6922 48.7722 40.3304C50.2449 40.0829 51.4739 39.7201 52.4539 39.2459C51.8552 50.0615 44.8142 55.5849 40.4543 57.9844C38.6354 58.9854 36.7033 59.7705 34.7135 60.3409C35.1612 60.0015 35.588 59.648 35.9928 59.2788C37.9923 57.4575 39.4748 55.2754 40.3981 52.7939C40.6388 52.1469 40.3097 51.4272 39.6628 51.1865C39.0158 50.9457 38.296 51.2748 38.0553 51.9218C37.8585 52.4506 37.632 52.9614 37.3785 53.4546C38.0675 50.2426 37.1876 47.2895 34.8307 44.9115C34.5836 44.6625 34.2428 44.5272 33.8922 44.5429C33.5416 44.557 33.213 44.7177 32.9869 44.9862C31.2657 47.0287 28.9317 47.599 27.0406 46.4398C25.2876 45.3651 23.8955 42.5594 25.7412 38.1883C25.9492 37.6956 25.8208 37.1253 25.4219 36.7693C25.0225 36.4134 24.4414 36.3509 23.9756 36.6131C20.2651 38.7064 17.6874 41.3841 16.3129 44.5722C15.1132 47.3554 14.9008 50.4326 15.6982 53.4702C16.1098 55.0366 16.7802 56.5425 17.6591 57.9058C16.5331 56.9277 15.5527 55.7734 14.7704 54.4697C12.223 50.2241 12.1508 45.184 14.5727 40.6424C15.1103 39.6346 15.7768 38.5096 16.4828 37.3187C18.8837 33.2669 21.5483 28.7693 21.7441 24.8434C22.8345 25.4489 24.2476 26.3581 25.5718 27.5847C28.9957 30.7566 30.2608 34.5091 29.3311 38.7376C29.2354 39.1737 29.3794 39.6273 29.7086 39.9286C30.0377 40.2293 30.502 40.3324 30.9278 40.1981C31.0806 40.1502 34.1671 39.1507 36.5123 36.4227C37.6559 38.598 38.4591 41.0687 38.8141 43.5458C38.9118 44.2294 39.5456 44.7035 40.2287 44.6058C40.9118 44.5082 41.3864 43.8744 41.2887 43.1913C40.7922 39.7254 39.5036 36.2649 37.6608 33.447C37.423 33.0833 37.0143 32.8689 36.5797 32.8816C36.1456 32.8938 35.7491 33.1301 35.5319 33.5061C34.6031 35.1145 33.2281 36.2029 32.1036 36.8836C32.3341 32.7019 30.669 28.8713 27.21 25.6945C24.1939 22.9245 20.8877 21.6418 20.7485 21.5885C20.31 21.4206 19.8139 21.5129 19.4648 21.8273C19.1162 22.1423 18.9731 22.6257 19.0947 23.0793C20.0039 26.4724 16.8588 31.7796 14.3319 36.0438C13.6112 37.2601 12.9306 38.4085 12.3666 39.4657C9.52135 44.8012 9.61608 50.7387 12.6269 55.7558C13.3646 56.9858 14.2528 58.1016 15.2587 59.0884C14.1137 58.5576 13.0204 57.9404 11.9955 57.2344C5.11311 52.4956 1.83085 44.3837 2.6165 34.2176C4.57502 36.0818 7.54038 38.5931 9.63122 38.9539C10.0199 39.0203 10.4174 38.9002 10.7035 38.6287C10.9901 38.3572 11.1312 37.9666 11.0848 37.575C11.0653 37.4109 9.23912 21.0597 17.3124 10.6182C17.7348 10.0718 17.6347 9.28715 17.0883 8.86478C16.5419 8.44242 15.7573 8.543 15.3349 9.08891C10.7738 14.9884 9.18736 22.507 8.66002 27.7756C8.32749 31.1003 8.35777 33.9373 8.44419 35.7498C6.55892 34.5545 4.05548 32.2112 2.56865 30.6277C2.23906 30.2766 1.7371 30.1457 1.2786 30.2917C0.81961 30.4377 0.485622 30.8337 0.419215 31.3103C-1.30053 43.6605 2.30693 53.5986 10.5775 59.2935C14.8793 62.2554 20.1757 63.8804 25.895 63.9937C26.0996 63.9976 26.3037 64.0001 26.5088 64.0001C26.7344 64.0001 26.96 63.9966 27.1856 63.9918C27.2886 63.9952 27.3916 64.0001 27.4942 64.0001C27.5772 64.0001 27.6597 63.9908 27.7408 63.9747C32.6285 63.7828 37.5094 62.4581 41.6594 60.1743C45.7883 57.9019 49.1755 54.7026 51.4558 50.9228C53.9944 46.7152 55.1775 41.8807 54.9725 36.5545ZM22.4775 40.6278C22.3115 41.8485 22.354 43.0199 22.6094 44.1044C23.063 46.0272 24.1729 47.6137 25.7349 48.5717C27.1138 49.4169 28.7593 49.7109 30.3682 49.3989C31.6339 49.1537 32.8277 48.5522 33.8785 47.6381C35.0084 49.205 35.361 50.9936 34.9264 52.9707C34.2345 56.1211 31.4556 59.4131 28.2212 61.0645C27.8482 61.2085 27.4663 61.3462 27.0743 61.4771C27.045 61.4776 27.0157 61.4781 26.9864 61.4786C23.1675 61.1734 19.3388 57.4883 18.1171 52.8359C17.5112 50.5283 16.9047 45.141 22.4775 40.6278Z" fill="#FE7688"/>
<path d="M39.0071 46.9383L39.0066 46.9632C38.9827 47.6532 39.5223 48.2318 40.2122 48.2557C40.2269 48.2562 40.2415 48.2567 40.2566 48.2567C40.9266 48.2567 41.4813 47.7249 41.5047 47.0501L41.5062 47.0116C41.5262 46.3216 40.9832 45.7454 40.2933 45.7254C39.6009 45.7049 39.0276 46.2484 39.0071 46.9383Z" fill="#FE7688"/>
<path d="M20.1197 7.1255C20.1197 7.81594 19.5601 8.37551 18.8696 8.37551C18.1792 8.37551 17.6196 7.81594 17.6196 7.1255C17.6196 6.43506 18.1792 5.87549 18.8696 5.87549C19.5601 5.87549 20.1197 6.43506 20.1197 7.1255Z" fill="#FE7688"/>
</svg>