<svg width="64" height="64" viewBox="0 0 64 64" fill="none" xmlns="http://www.w3.org/2000/svg">
<path d="M51.7332 42.452L42.9577 47.3767C42.7295 45.1266 42.0552 42.8881 41.1448 40.7674L48.8906 34.9849C50.9221 39.5728 51.7323 42.4485 51.7332 42.452Z" fill="#FE7688"/>
<path d="M47.4072 31.8015L39.7404 37.9687C37.9958 34.7012 35.8515 31.8786 34.2614 29.9857L42.1548 22.3794C44.3133 25.8152 46.0437 29.0135 47.4072 31.8015Z" fill="#FE7688"/>
<path d="M31.9831 38.5804C31.6589 39.0049 31.3231 39.4613 30.9864 39.9461C29.2951 42.3796 28.1332 44.7006 27.5576 46.7769C29.1841 47.8847 30.5476 48.8666 31.6535 49.705L31.9831 49.9106L32.3126 49.705C33.4186 48.8666 34.7821 47.8847 36.4085 46.7769C35.8329 44.7006 34.671 42.3796 32.9797 39.9461C32.6431 39.4622 32.3082 39.0049 31.9831 38.5804ZM31.9769 32.4346C31.9769 32.4346 31.9786 32.4363 31.9831 32.4408C31.9875 32.4363 31.9893 32.4346 31.9893 32.4346C31.9893 32.4346 31.9893 32.439 31.9893 32.447C32.3295 32.7837 40.2317 40.686 40.834 48.6424C34.9375 52.5036 32.477 54.6775 31.9893 55.187C31.9893 55.1915 31.9893 55.1959 31.9893 55.2003C31.9875 55.1986 31.9849 55.1959 31.9831 55.1941C31.9813 55.1959 31.9786 55.1986 31.9769 55.2003C31.9769 55.1959 31.9769 55.1915 31.9769 55.187C31.4901 54.6784 29.0295 52.5036 23.1322 48.6424C23.7336 40.686 31.6367 32.7837 31.9769 32.447C31.9769 32.439 31.9769 32.4346 31.9769 32.4346Z" fill="#FE7688"/>
<path d="M12.2666 42.4521L21.042 47.3768C21.2703 45.1267 21.9445 42.8881 22.855 40.7675L15.11 34.9858C13.0776 39.5728 12.2675 42.4486 12.2666 42.4521Z" fill="#FE7688"/>
<path d="M16.5935 31.8015L24.2603 37.9687C26.0049 34.7012 28.1492 31.8786 29.7393 29.9857L21.8459 22.3794C19.6865 25.8152 17.9561 29.0135 16.5935 31.8015Z" fill="#FE7688"/>
<path d="M24.0644 18.9934C26.2984 15.7242 28.9082 12.3017 31.9409 8.8579L31.9933 8.80029L32.0057 8.80029L32.0581 8.8579C35.0907 12.3017 37.6996 15.7242 39.9346 18.9934C39.6983 19.2823 39.4567 19.5367 39.2115 19.7662L32.0057 27.4736L31.9933 27.4736L24.7875 19.7662C24.5423 19.5367 24.3016 19.2823 24.0644 18.9934Z" fill="#FE7688"/>
<circle cx="32" cy="32" r="30.5" stroke="#FE7688" stroke-width="3"/>
</svg>