<svg width="64" height="64" viewBox="0 0 64 64" fill="none" xmlns="http://www.w3.org/2000/svg">
<path d="M56.4243 44.0667C55.3741 44.0667 54.367 43.6452 53.6244 42.8951C52.8819 42.1449 52.4647 41.1275 52.4647 40.0667C52.4647 39.8014 52.3604 39.5471 52.1748 39.3595C51.9891 39.172 51.7373 39.0667 51.4748 39.0667C51.2123 39.0667 50.9605 39.172 50.7748 39.3595C50.5892 39.5471 50.4849 39.8014 50.4849 40.0667C50.4849 41.1275 50.0677 42.1449 49.3252 42.8951C48.5826 43.6452 47.5755 44.0667 46.5253 44.0667C46.2628 44.0667 46.011 44.172 45.8253 44.3595C45.6397 44.5471 45.5354 44.8014 45.5354 45.0667C45.5354 45.3319 45.6397 45.5862 45.8253 45.7738C46.011 45.9613 46.2628 46.0667 46.5253 46.0667C47.5755 46.0667 48.5826 46.4881 49.3252 47.2382C50.0677 47.9884 50.4849 49.0058 50.4849 50.0667C50.4849 50.3319 50.5892 50.5862 50.7748 50.7738C50.9605 50.9613 51.2123 51.0667 51.4748 51.0667C51.7373 51.0667 51.9891 50.9613 52.1748 50.7738C52.3604 50.5862 52.4647 50.3319 52.4647 50.0667C52.4647 49.0058 52.8819 47.9884 53.6244 47.2382C54.367 46.4881 55.3741 46.0667 56.4243 46.0667C56.6868 46.0667 56.9386 45.9613 57.1243 45.7738C57.3099 45.5862 57.4142 45.3319 57.4142 45.0667C57.4142 44.8014 57.3099 44.5471 57.1243 44.3595C56.9386 44.172 56.6868 44.0667 56.4243 44.0667ZM51.4748 46.7567C51.0341 46.0864 50.4653 45.5119 49.8019 45.0667C50.4653 44.6214 51.0341 44.0469 51.4748 43.3767C51.9155 44.0469 52.4843 44.6214 53.1477 45.0667C52.4843 45.5119 51.9155 46.0864 51.4748 46.7567Z" fill="#FE7688"/>
<path d="M14.8486 36.0667C13.7985 36.0667 12.7913 35.6452 12.0487 34.8951C11.3062 34.1449 10.889 33.1275 10.889 32.0667C10.889 31.8014 10.7847 31.5471 10.5991 31.3595C10.4134 31.172 10.1616 31.0667 9.89911 31.0667C9.63657 31.0667 9.38479 31.172 9.19915 31.3595C9.0135 31.5471 8.90921 31.8014 8.90921 32.0667C8.90921 33.1275 8.49204 34.1449 7.74947 34.8951C7.0069 35.6452 5.99977 36.0667 4.94962 36.0667C4.68708 36.0667 4.43529 36.172 4.24965 36.3595C4.06401 36.5471 3.95972 36.8014 3.95972 37.0667C3.95972 37.3319 4.06401 37.5862 4.24965 37.7738C4.43529 37.9613 4.68708 38.0667 4.94962 38.0667C5.99977 38.0667 7.0069 38.4881 7.74947 39.2382C8.49204 39.9884 8.90921 41.0058 8.90921 42.0667C8.90921 42.3319 9.0135 42.5862 9.19915 42.7738C9.38479 42.9613 9.63657 43.0667 9.89911 43.0667C10.1616 43.0667 10.4134 42.9613 10.5991 42.7738C10.7847 42.5862 10.889 42.3319 10.889 42.0667C10.889 41.0058 11.3062 39.9884 12.0487 39.2382C12.7913 38.4881 13.7985 38.0667 14.8486 38.0667C15.1111 38.0667 15.3629 37.9613 15.5486 37.7738C15.7342 37.5862 15.8385 37.3319 15.8385 37.0667C15.8385 36.8014 15.7342 36.5471 15.5486 36.3595C15.3629 36.172 15.1111 36.0667 14.8486 36.0667ZM9.89911 38.7566C9.45838 38.0864 8.88962 37.5119 8.22618 37.0667C8.88962 36.6214 9.45838 36.0469 9.89911 35.3767C10.3398 36.0469 10.9086 36.6214 11.572 37.0667C10.9086 37.5119 10.3398 38.0864 9.89911 38.7566Z" fill="#FE7688"/>
<path d="M56.4244 23.0666C56.4244 10.9356 45.3227 1.06665 31.6769 1.06665C18.0312 1.06665 6.92944 10.9356 6.92944 23.0666C6.93045 23.2096 6.96232 23.3506 7.02285 23.4798C7.08338 23.609 7.17109 23.7232 7.27987 23.8146L7.27294 23.8236L27.0363 41.0666H21.7779V61.0666H41.5759V41.0666H36.3176L56.0809 23.8236L56.074 23.8146C56.1827 23.7232 56.2705 23.609 56.331 23.4798C56.3915 23.3506 56.4234 23.2096 56.4244 23.0666ZM54.1001 19.5896C52.7698 18.5899 51.1532 18.0552 49.4951 18.0666C47.5767 18.0484 45.7246 18.7755 44.3219 20.0976C43.0283 13.5631 39.6339 7.64336 34.6664 3.25865C44.507 4.39965 52.3925 11.0667 54.1001 19.5896ZM30.687 38.6396L20.9236 23.1786C21.2958 22.2113 21.9626 21.3885 22.8279 20.8292C23.6932 20.2698 24.7122 20.0027 25.7375 20.0666C28.1004 20.0666 30.1436 21.4276 30.5959 23.3036C30.6181 23.378 30.6486 23.4494 30.687 23.5166V38.6396ZM32.6668 23.5166C32.7052 23.4494 32.7357 23.378 32.7579 23.3036C33.2103 21.4276 35.2534 20.0666 37.6163 20.0666C38.6417 20.0027 39.6606 20.2698 40.5259 20.8292C41.3912 21.3885 42.0581 22.2113 42.4302 23.1786L32.6668 38.6396V23.5166ZM37.6163 18.0666C35.8039 18.0515 34.0468 18.6966 32.6668 19.8836V4.15265C37.3836 8.12748 40.7113 13.5283 42.159 19.5586C40.8424 18.5818 39.2498 18.0587 37.6163 18.0666ZM30.687 19.8836C29.3071 18.6966 27.5499 18.0515 25.7375 18.0666C24.1038 18.0592 22.511 18.5823 21.1939 19.5586C22.6421 13.5283 25.97 8.12752 30.687 4.15265V19.8836ZM18.7172 23.3036C18.7435 23.4101 18.7869 23.5115 18.8458 23.6036V23.6096L29.6338 40.6906L9.1676 22.8346C9.59898 21.9629 10.2723 21.2369 11.1054 20.7454C11.9385 20.2538 12.8952 20.018 13.8587 20.0666C16.2216 20.0666 18.2648 21.4276 18.7172 23.3036ZM44.504 23.6126V23.6066C44.5627 23.5143 44.6062 23.413 44.6327 23.3066C45.0891 21.4276 47.1322 20.0666 49.4951 20.0666C50.4587 20.018 51.4154 20.2538 52.2484 20.7454C53.0815 21.2369 53.7548 21.9629 54.1862 22.8346L33.7201 40.6906L44.504 23.6126ZM28.6894 3.25865C23.7345 7.65693 20.3455 13.5766 19.0428 20.1086C17.6393 18.7794 15.7825 18.048 13.8587 18.0666C12.2007 18.0552 10.5841 18.5899 9.25373 19.5896C10.9613 11.0667 18.8488 4.39865 28.6894 3.25865ZM39.5961 59.0666H23.7577V49.0666H39.5961V59.0666ZM39.5961 47.0666H23.7577V43.0666H39.5961V47.0666Z" fill="#FE7688"/>
<path d="M28.707 55.0666H30.6868V57.0666H32.6666V55.0666H34.6464V53.0666H32.6666V51.0667H30.6868V53.0666H28.707V55.0666Z" fill="#FE7688"/>
</svg>