<svg width="170" height="87" viewBox="0 0 170 87" fill="none" xmlns="http://www.w3.org/2000/svg">
<path d="M149.534 1.78262C149.143 2.56326 148.821 3.21998 148.821 3.23237C148.821 3.24476 149.137 3.43063 149.527 3.63507C152.495 5.20253 155.066 7.09215 157.377 9.40306C159.874 11.8936 161.881 14.694 163.411 17.7979C167.29 25.6972 167.779 34.7797 164.756 43.0135C162.631 48.8125 159.205 53.5086 154.304 57.3251C152.867 58.4464 150.618 59.8652 148.951 60.6954C140.352 64.9951 130.613 65.2367 121.549 61.3769C121.059 61.1724 120.632 60.9866 120.588 60.968C120.539 60.9494 120.248 61.4636 119.795 62.3682C119.405 63.155 119.083 63.8117 119.083 63.8365C119.083 63.8985 120.452 64.518 121.505 64.9331C124.913 66.2775 128.927 67.1697 132.496 67.3617C132.874 67.3803 133.27 67.4113 133.382 67.4299L133.58 67.4609V69.0345V70.6143L67.3073 70.6267L1.02808 70.6453L0.811239 70.7754C0.606788 70.8931 0.594397 70.9179 0.557224 71.333C0.532442 71.5685 0.513856 72.2438 0.50766 72.8261L0.501465 73.8979H70.2935H140.085V72.2561V70.6143H138.506H136.926V69.0407V67.4609L137.192 67.4299C137.335 67.4113 137.843 67.3493 138.32 67.2936C145.445 66.4882 152.384 63.4338 157.805 58.719C158.709 57.9322 160.351 56.2966 161.162 55.3735C166.379 49.463 169.402 42.2205 169.954 34.3151C170.047 32.983 169.991 29.5693 169.855 28.3612C169.471 24.9165 168.764 22.048 167.513 18.8821C166.986 17.5501 165.784 15.0967 165.121 13.9877C162.042 8.87644 157.997 4.79362 153.127 1.87556C152.371 1.42329 150.376 0.357666 150.289 0.357666C150.265 0.357666 149.924 0.995804 149.534 1.78262Z" fill="black"/>
<path d="M132.62 6.27993C128.884 6.65785 126.115 7.43848 123.048 8.97496C115.75 12.6427 110.527 19.5444 109.083 27.4313C108.761 29.2094 108.706 29.8599 108.706 32.0469C108.712 34.2401 108.774 35.0331 109.083 36.7245C110.595 44.9397 115.948 51.9839 123.383 55.5649C128.413 57.9874 134.206 58.7308 139.621 57.659C150.017 55.6021 158.263 47.232 160.184 36.7864C160.494 35.0827 160.562 34.2959 160.562 32.1708C160.562 30.6467 160.531 29.9776 160.45 29.2899C159.849 24.4575 158.17 20.2383 155.351 16.5149C151.807 11.8435 146.826 8.51649 141.17 7.04816C138.909 6.45959 137.589 6.29851 134.943 6.27373C133.803 6.26753 132.756 6.26753 132.62 6.27993ZM137.347 9.55114C139.813 9.8795 142.099 10.5424 144.249 11.5523C146.219 12.4816 148.505 14.0305 149.943 15.3997C150.432 15.8705 150.438 15.8767 150.37 16.075C150.308 16.2422 150.252 16.2794 150.011 16.3352C149.85 16.3662 148.078 16.7193 146.064 17.1158C144.057 17.5123 142.366 17.8469 142.31 17.8655C142.242 17.8841 142.143 17.7787 141.981 17.5247C141.635 16.9609 141.114 16.5644 140.445 16.3476L140.21 16.267V15.3749V14.4827L140.445 14.365C140.718 14.2225 141.083 13.857 141.238 13.5534C141.418 13.2189 141.405 12.3143 141.219 11.9612C140.761 11.1124 139.733 10.7531 138.859 11.1372C138.233 11.4098 137.793 12.0913 137.793 12.779C137.793 13.4109 138.196 14.0924 138.729 14.365L138.97 14.4827V15.3749V16.2608L138.605 16.3971C138.4 16.4715 138.072 16.6511 137.874 16.7998L137.508 17.0662L134.225 15.1333L130.947 13.1941L130.91 12.8223C130.78 11.4841 129.064 10.9637 128.184 11.9983C127.924 12.2957 127.819 12.6055 127.819 13.0516C127.819 13.634 128.104 14.0986 128.624 14.3836C129.045 14.6128 129.634 14.6314 130.024 14.4332L130.278 14.3031L133.556 16.2361C136.579 18.0204 136.833 18.1876 136.814 18.3239C136.802 18.4107 136.796 18.7452 136.79 19.0674C136.783 19.6436 136.802 19.7303 137.075 20.3746C137.112 20.4552 135.91 21.6075 131.988 25.2691C129.169 27.9083 126.803 30.1139 126.728 30.1759C126.592 30.275 126.58 30.275 126.381 30.1635C125.997 29.9404 125.495 29.8351 124.901 29.8537L124.337 29.8723L122.893 27.0596C121.481 24.3026 121.45 24.2406 121.561 24.1167C121.623 24.0485 121.753 23.8379 121.852 23.652C122.001 23.3547 122.026 23.2431 122.026 22.7537C122.026 22.2643 122.001 22.1527 121.852 21.843C121.636 21.3969 121.171 20.9756 120.706 20.8021C120.211 20.6101 119.498 20.6472 119.033 20.8889C118.637 21.0933 118.278 21.4526 118.086 21.843C117.962 22.0908 117.937 22.2271 117.937 22.7537C117.937 23.3051 117.955 23.4042 118.104 23.683C118.47 24.3707 119.089 24.7672 119.87 24.8168L120.322 24.8478L121.753 27.6605L123.184 30.4733L122.93 30.7459C122.497 31.2167 122.261 31.7805 122.193 32.5425L122.15 33.0196L119.721 33.9056C117.652 34.6552 117.274 34.7729 117.212 34.6986C116.908 34.333 115.948 34.2153 115.452 34.4755C114.69 34.8782 114.393 35.8447 114.796 36.6068C115.378 37.7282 116.983 37.7282 117.553 36.6068C117.646 36.4209 117.72 36.2103 117.72 36.1359C117.72 36.0182 117.98 35.9067 120.198 35.1013C121.561 34.6056 122.676 34.2215 122.676 34.2463C122.676 34.2649 122.775 34.4012 122.893 34.5375C123.16 34.8535 123.661 35.188 124.089 35.3367L124.411 35.4544V37.4989V39.5434L124.126 39.6921C123.401 40.0762 123.048 41.0365 123.327 41.8729C123.476 42.3066 123.953 42.7961 124.374 42.9386C125.551 43.3413 126.716 42.6102 126.809 41.4083C126.871 40.6958 126.555 40.0577 125.979 39.7293L125.656 39.5434L125.65 37.4803C125.65 35.8757 125.669 35.4234 125.731 35.4234C125.879 35.4234 126.61 35.0393 126.877 34.8225C127.026 34.6986 127.249 34.4508 127.366 34.2711C127.49 34.0852 127.62 33.9365 127.658 33.9365C127.695 33.9365 129.789 34.4074 132.31 34.9898C134.832 35.5659 136.914 36.043 136.932 36.043C136.957 36.043 136.988 36.1545 137.013 36.297C137.106 36.8794 137.626 37.5299 138.202 37.7901C138.357 37.8521 138.648 37.9264 138.859 37.9512L139.237 37.9946L140.011 39.8346L140.78 41.6809L140.594 41.9101C140.104 42.5358 139.956 43.2917 140.191 43.9794L140.309 44.3263L138.84 45.869L137.378 47.4117L136.889 47.4179C136.337 47.4303 136.065 47.5232 135.736 47.8082C135.408 48.0932 135.253 48.4711 135.253 48.9729C135.253 49.5058 135.389 49.8155 135.767 50.1501C136.114 50.4475 136.492 50.5714 136.951 50.5218C137.552 50.4599 137.985 50.1439 138.233 49.5863C138.345 49.3199 138.363 49.2084 138.332 48.8057L138.295 48.3286L139.72 46.8169C140.507 45.9867 141.176 45.2804 141.201 45.2557C141.226 45.2247 141.405 45.2495 141.604 45.3114C142.099 45.4539 142.595 45.4044 143.084 45.1565L143.462 44.9645L146.263 46.8417L149.063 48.7127L149.069 49.0969V49.481L148.251 50.0943C142.644 54.2949 135.811 55.6641 128.996 53.9479C123.352 52.5292 118.296 48.7623 115.285 43.7316C113.625 40.9622 112.633 38.0875 112.169 34.7419C112.039 33.7569 111.983 30.9627 112.082 29.9033C112.485 25.4487 114.133 21.3907 117.001 17.7973C117.658 16.9733 119.566 15.0713 120.415 14.396C123.823 11.6824 128.023 9.93526 132.124 9.53255C132.502 9.49538 132.893 9.45201 132.992 9.43962C133.469 9.37766 136.629 9.4582 137.347 9.55114ZM151.145 18.0389C151.436 18.1814 151.95 18.231 152.241 18.1505L152.47 18.0885L153.047 18.8877C156.528 23.7016 157.947 29.5997 157.024 35.4792C156.355 39.7541 154.459 43.7626 151.535 47.0771L151.176 47.486L150.866 47.4303C150.63 47.3869 150.463 47.3993 150.197 47.4736C150.005 47.5294 149.819 47.579 149.782 47.5852C149.751 47.5914 148.481 46.7674 146.963 45.7513L144.206 43.905V43.3351C144.206 42.8456 144.181 42.7155 144.038 42.4119C143.729 41.7428 143.115 41.3153 142.384 41.2534L141.988 41.2162L141.201 39.3452L140.414 37.4741L140.563 37.3316C140.643 37.2573 140.798 37.0095 140.91 36.7926C141.089 36.4271 141.108 36.328 141.108 35.8571C141.102 35.4111 141.077 35.2747 140.934 34.9774C140.718 34.5313 140.253 34.11 139.788 33.9365C139.317 33.7569 138.58 33.7816 138.14 33.9923C137.843 34.141 137.428 34.4941 137.316 34.6986C137.261 34.8039 136.938 34.7357 132.583 33.7383L127.912 32.6665L127.837 32.2452C127.794 32.0159 127.701 31.6938 127.633 31.5389L127.503 31.2477L127.707 31.0494C127.819 30.9379 130.179 28.7323 132.955 26.1426L137.998 21.4341L138.407 21.6261C138.766 21.7996 138.896 21.8244 139.466 21.843C140.123 21.8677 140.284 21.8368 140.99 21.5456L141.182 21.465L143.766 23.937C145.903 25.9815 146.343 26.4276 146.312 26.5329C146.108 27.1835 146.126 27.6791 146.362 28.1871C146.579 28.6642 146.851 28.9492 147.322 29.1784C147.694 29.3643 147.787 29.3829 148.264 29.3829C148.666 29.3767 148.858 29.3457 149.081 29.2466C149.472 29.0731 149.912 28.6518 150.11 28.2677C150.259 27.9951 150.277 27.8897 150.277 27.3383C150.277 26.8055 150.259 26.6754 150.129 26.409C149.93 26.0187 149.552 25.6408 149.162 25.4487C148.753 25.2505 148.028 25.2071 147.576 25.3558C147.26 25.4549 147.254 25.4549 147.099 25.3124C146.944 25.1761 142.892 21.3163 142.328 20.7711L142.062 20.5171L142.186 20.2197C142.26 20.0587 142.347 19.7489 142.384 19.532L142.459 19.1417L146.492 18.3363L150.525 17.5371L150.717 17.7354C150.829 17.8407 151.014 17.977 151.145 18.0389Z" fill="black"/>
<path d="M40.8652 22.5744C37.4886 23.0948 35.3016 25.2818 34.7874 28.6398C34.6573 29.47 34.6635 31.2171 34.7936 32.1093C35.2211 35.0397 36.6337 36.9108 39.0127 37.71C39.8553 37.995 40.574 38.0879 41.9184 38.0879C43.6408 38.0879 45.0038 37.902 46.5155 37.4683C46.8686 37.363 47.1722 37.2825 47.1846 37.2825C47.2032 37.2825 47.2155 35.4982 47.2155 33.3174V29.3523H44.1798H41.144V30.6843V32.0163H42.5689H43.9939V33.59C43.9939 35.0397 43.9877 35.1698 43.8886 35.2008C43.3248 35.3743 41.5095 35.4176 40.9271 35.2689C39.6075 34.9344 38.672 33.9183 38.3002 32.4438C38.0214 31.3472 37.9781 29.8789 38.1949 28.869C38.5976 26.998 39.8491 25.6536 41.5405 25.288C41.9308 25.2075 42.2096 25.1951 42.9654 25.2199C44.0868 25.2633 44.6754 25.3996 45.6853 25.8332C45.9207 25.9324 46.1189 26.0067 46.1251 25.9943C46.1685 25.9448 47.2155 23.386 47.2032 23.3736C47.1908 23.3674 46.9491 23.2745 46.6641 23.163C45.995 22.909 45.1091 22.6859 44.3346 22.5682C43.554 22.4505 41.6334 22.4567 40.8652 22.5744Z" fill="black"/>
<path d="M86.9344 22.6054C84.5677 23.101 83.2667 24.7676 83.4154 27.0909C83.4773 27.9893 83.7437 28.7017 84.3013 29.4204C84.8651 30.1577 85.528 30.6038 87.4239 31.5455C88.9789 32.3137 89.5055 32.673 89.7781 33.1439C90.0136 33.559 90.0322 34.0608 89.8339 34.4759C89.2515 35.6779 86.9096 35.6717 84.0287 34.4511C83.6632 34.3025 83.3287 34.16 83.2915 34.1414C83.2295 34.1166 83.2109 34.445 83.2109 35.6593V37.2081L83.6632 37.4002C84.8342 37.8834 85.9679 38.0879 87.523 38.0879C89.6728 38.0879 90.9987 37.6604 92.0395 36.632C92.8263 35.8513 93.1857 34.922 93.1857 33.6581C93.1857 32.4376 92.8759 31.6074 92.1386 30.8206C91.581 30.232 90.788 29.724 89.1152 28.8876C87.6407 28.1503 87.1575 27.8468 86.8911 27.4874C86.3397 26.7316 86.6804 25.666 87.5973 25.3252C87.9133 25.2013 88.0372 25.1889 88.7869 25.2199C89.7162 25.2571 90.2738 25.381 91.4323 25.8332C91.7917 25.9695 92.0829 26.0687 92.0953 26.0563C92.1324 26.0005 93.1237 23.5843 93.1237 23.5409C93.1237 23.3984 91.0544 22.7293 90.1251 22.5682C89.3135 22.4319 87.6841 22.4505 86.9344 22.6054Z" fill="black"/>
<path d="M24.0755 22.6734C23.1399 25.3127 18.7783 37.8027 18.7783 37.8461C18.7783 37.8771 19.466 37.9019 20.5378 37.9019H22.2974L22.4275 37.4806C22.4956 37.2513 22.7434 36.4459 22.9727 35.6839L23.3939 34.3085H26.1262H28.8646L28.9823 34.6926C29.0504 34.9094 29.292 35.7149 29.5337 36.4893L29.9612 37.9019H31.7393H33.5236L33.2324 37.0779C33.0713 36.6318 31.8632 33.1933 30.5435 29.445L28.1459 22.63L26.1262 22.6114C24.5401 22.5991 24.1002 22.6114 24.0755 22.6734ZM27.2104 28.714C27.6812 30.2566 28.0715 31.5329 28.0715 31.5515C28.0715 31.5701 27.2104 31.5825 26.1509 31.5825C25.0977 31.5825 24.2303 31.5701 24.2303 31.5515C24.2303 31.5267 24.5091 30.6036 24.8499 29.4884C25.1906 28.3732 25.6119 26.9421 25.7916 26.3039L26.12 25.1516L26.2315 25.5295C26.2934 25.7402 26.7333 27.1713 27.2104 28.714Z" fill="black"/>
<path d="M0.563965 30.2814V37.9019H2.05707H3.55018L3.51921 33.1437C3.50062 30.5292 3.45725 27.8962 3.41388 27.289C3.37671 26.6819 3.35193 26.149 3.36432 26.0995C3.37671 26.0499 4.13256 28.4723 5.05569 31.4772C5.97262 34.482 6.79042 37.1584 6.87096 37.4248L7.02585 37.9019L8.54374 37.8895L10.0678 37.8709L12.0194 31.9418C13.0912 28.6768 13.9772 26.0189 13.9896 26.0251C13.9958 26.0375 13.9772 26.5703 13.94 27.2209C13.909 27.8652 13.8595 30.5292 13.8409 33.1437L13.8037 37.9019H15.365H16.92V30.2814V22.661L14.6835 22.6734L12.4407 22.692L10.5511 28.4723C9.51023 31.6506 8.63667 34.2155 8.61808 34.1722C8.5933 34.1288 7.78169 31.5205 6.8152 28.3794L5.05569 22.661H2.81292H0.563965V30.2814Z" fill="black"/>
<path d="M50.7471 30.2814V37.9019H52.2402H53.7333L53.7023 33.2057C53.6899 30.4983 53.6466 28.0882 53.6032 27.4997C53.5598 26.9483 53.535 26.4774 53.5536 26.465C53.566 26.4526 55.0529 29.0114 56.8558 32.1587L60.1332 37.8709L62.2273 37.8895L64.3152 37.9019V30.2814V22.661H62.8221H61.3228L61.3661 27.3819C61.3847 29.984 61.4281 32.5242 61.4591 33.0384C61.49 33.5464 61.5086 33.9739 61.5024 33.9863C61.49 33.9925 60.0093 31.4524 58.2064 28.3299L54.929 22.661H52.8411H50.7471V30.2814Z" fill="black"/>
<path d="M67.9896 28.1875C68.0082 33.5652 68.0144 33.7325 68.1383 34.1538C68.4481 35.2194 68.8012 35.8327 69.4889 36.508C70.2758 37.2763 71.3042 37.7719 72.5805 37.995C73.3054 38.1189 75.0215 38.1189 75.734 37.995C78.3175 37.5427 79.9531 36.0558 80.3868 33.7511C80.4735 33.3112 80.4859 32.4996 80.4859 27.9521V22.6612H78.8441H77.2023V27.6919C77.2023 31.849 77.1837 32.8032 77.1094 33.1501C76.7872 34.668 75.9446 35.2999 74.2409 35.2999C72.5061 35.2999 71.6635 34.6804 71.3538 33.1811C71.267 32.766 71.2546 32.0287 71.2546 27.6795V22.6612H69.6128H67.9648L67.9896 28.1875Z" fill="black"/>
<path d="M5.73701 48.162C5.00595 48.2921 4.44216 48.4717 3.80402 48.7753C1.7843 49.7542 0.483247 51.6562 0.0929322 54.2273C-0.0309774 55.0451 -0.0309774 56.8108 0.0929322 57.6472C0.377924 59.5306 0.935517 60.7573 1.98875 61.823C2.8809 62.7213 3.61196 63.1364 4.88204 63.471C5.40865 63.6073 5.65647 63.632 6.76546 63.6568C8.40726 63.7002 9.34898 63.5949 10.5323 63.2417L10.9722 63.1116V62.2752C10.9722 61.507 10.966 61.4388 10.8669 61.4698C10.458 61.5937 9.34278 61.8353 8.7728 61.9159C7.8125 62.0584 6.23265 62.0088 5.58213 61.823C3.51284 61.2158 2.26754 59.5306 1.98875 56.9719C1.62941 53.5644 2.91187 50.8942 5.32192 50.0454C6.07157 49.779 6.56101 49.717 7.60185 49.7542C8.6303 49.7852 9.30561 49.9277 10.2659 50.3118L10.7987 50.5286L11.1643 49.7728C11.3625 49.3639 11.5298 48.9921 11.5298 48.9612C11.5298 48.8806 10.5385 48.4841 9.9995 48.3478C8.89051 48.0628 6.81503 47.9699 5.73701 48.162Z" fill="black"/>
<path d="M15.1539 55.7268C13.5245 59.8778 12.1801 63.3225 12.1615 63.3782C12.1367 63.4836 12.2111 63.4897 13.0599 63.4897H13.983L14.9123 61.0859L15.8416 58.6883L18.8526 58.6697L21.8636 58.6573L22.4212 60.0636C22.7248 60.8443 23.1523 61.9285 23.3629 62.4799L23.7594 63.4897H24.7074C25.2278 63.4897 25.6553 63.4774 25.6553 63.4588C25.6553 63.4464 24.3976 60.2185 22.8611 56.2906C21.3246 52.3627 19.9864 48.9304 19.8811 48.664L19.7014 48.1869H18.9084H18.1216L15.1539 55.7268ZM19.1252 51.0864C19.2368 51.4519 19.7758 52.9327 20.321 54.3824L21.306 57.0155L18.9208 57.0341C17.6011 57.0403 16.5231 57.0403 16.5107 57.0279C16.4983 57.0217 16.9258 55.8693 17.4525 54.4753C17.9853 53.0751 18.5181 51.582 18.642 51.1484C18.7721 50.7209 18.8836 50.3801 18.896 50.3925C18.9146 50.4049 19.0137 50.7147 19.1252 51.0864Z" fill="black"/>
<path d="M59.1417 55.7268C57.5123 59.8778 56.1679 63.3225 56.1493 63.3782C56.1245 63.4836 56.1989 63.4897 57.0477 63.4897H57.9708L58.9001 61.0859L59.8294 58.6883L62.8404 58.6697L65.8514 58.6573L66.409 60.0636C66.7126 60.8443 67.1401 61.9285 67.3507 62.4799L67.7472 63.4897H68.6951C69.2156 63.4897 69.643 63.4774 69.643 63.4588C69.643 63.4464 68.3854 60.2185 66.8489 56.2906C65.3124 52.3627 63.9742 48.9304 63.8689 48.664L63.6892 48.1869H62.8962H62.1094L59.1417 55.7268ZM63.113 51.0864C63.2245 51.4519 63.7635 52.9327 64.3087 54.3824L65.2938 57.0155L62.9086 57.0341C61.5889 57.0403 60.5109 57.0403 60.4985 57.0279C60.4861 57.0217 60.9136 55.8693 61.4402 54.4753C61.9731 53.0751 62.5059 51.582 62.6298 51.1484C62.7599 50.7209 62.8714 50.3801 62.8838 50.3925C62.9024 50.4049 63.0015 50.7147 63.113 51.0864Z" fill="black"/>
<path d="M27.6382 55.8693V63.4897H28.5675H29.4968V60.5159V57.5421H30.9404C32.9291 57.5421 33.8275 57.3872 34.9241 56.8544C36.442 56.1171 37.2474 54.8471 37.3403 53.0504C37.427 51.5263 37.0429 50.3801 36.1818 49.5561C35.7605 49.1534 35.2896 48.887 34.5833 48.6454C33.5673 48.2922 33.0654 48.2489 30.1969 48.2489H27.6382V55.8693ZM33.0283 49.9836C34.1558 50.2128 34.8249 50.6837 35.2153 51.5201C35.3825 51.8794 35.4073 52.0095 35.4321 52.6043C35.5064 54.37 34.8126 55.3117 33.1212 55.7454C32.6194 55.8755 31.1696 55.9932 30.073 55.9932H29.4968V52.8831V49.7792L30.9714 49.8225C32.0494 49.8535 32.5946 49.8969 33.0283 49.9836Z" fill="black"/>
<path d="M40.4629 55.8693V63.4897H41.3922H42.3215V55.8693V48.2489H41.3922H40.4629V55.8693Z" fill="black"/>
<path d="M44.5518 49.0543V49.8597H46.937H49.3223V56.6747V63.4897H50.2516H51.1809V56.6747V49.8597H53.5972H56.0134V49.0543V48.2489H50.2826H44.5518V49.0543Z" fill="black"/>
<path d="M71.626 55.8693V63.4897H75.9009H80.1757V62.6843V61.8789H76.8302H73.4846V55.0639V48.2489H72.5553H71.626V55.8693Z" fill="black"/>
<path d="M17.4524 79.6966C16.2381 79.9877 15.3645 80.8799 15.0547 82.1376C14.9308 82.6332 14.9494 83.9219 15.0795 84.4299C15.3955 85.6008 16.1699 86.4063 17.2603 86.6912C17.502 86.7532 17.9109 86.7842 18.4685 86.7842C19.3358 86.7842 19.8624 86.7222 20.4696 86.5549L20.8227 86.4558V84.7335V83.0049H19.6146H18.4065V83.3767V83.7484H19.1809H19.9554V84.7954C19.9554 86.0345 20.0731 85.9106 18.8278 85.9602C18.0843 85.9912 17.9357 85.9788 17.5515 85.8611C16.5293 85.5513 15.9779 84.7583 15.8849 83.4634C15.7858 82.1066 16.3744 80.9914 17.4028 80.5763C17.7064 80.4586 17.8675 80.4338 18.5614 80.4338C19.3544 80.4338 19.5713 80.471 20.2837 80.7436C20.3705 80.7808 20.42 80.7188 20.544 80.44C20.6307 80.248 20.6988 80.0683 20.6988 80.0373C20.6988 79.9568 20.2528 79.7895 19.7571 79.6904C19.2119 79.5726 17.9418 79.5788 17.4524 79.6966Z" fill="black"/>
<path d="M65.263 79.7088C64.2469 80.0744 63.7885 80.9603 64.0921 81.9764C64.2965 82.6579 64.7736 83.0606 65.8516 83.4757C66.688 83.7979 66.9791 83.9527 67.2208 84.2068C67.4066 84.3988 67.4376 84.4794 67.4624 84.7891C67.5058 85.3591 67.2332 85.7309 66.6446 85.9167C66.2481 86.0468 65.009 85.9663 64.4266 85.7742L63.9434 85.6193V86.0716V86.5239L64.3647 86.6354C64.978 86.8089 66.626 86.8027 67.0845 86.6354C67.5863 86.4495 67.9704 86.1212 68.1811 85.7123C68.336 85.4087 68.3669 85.2786 68.3669 84.8759C68.3731 83.7917 67.9704 83.3828 66.2233 82.7013C65.4117 82.3791 65.0462 82.0879 64.9408 81.6728C64.8107 81.1524 65.0647 80.6691 65.5666 80.4833C65.9383 80.3532 66.7871 80.3842 67.3819 80.5576C67.6792 80.6444 67.9332 80.7063 67.9394 80.7001C68.0014 80.6382 68.2059 80 68.1811 79.9629C68.1625 79.9319 67.9642 79.8513 67.735 79.777C67.1402 79.5787 65.7277 79.5416 65.263 79.7088Z" fill="black"/>
<path d="M72.6355 79.7088C71.6195 80.0744 71.161 80.9603 71.4646 81.9764C71.6691 82.6579 72.1461 83.0606 73.2241 83.4757C74.0605 83.7979 74.3517 83.9527 74.5933 84.2068C74.7792 84.3988 74.8101 84.4794 74.8349 84.7891C74.8783 85.3591 74.6057 85.7309 74.0171 85.9167C73.6206 86.0468 72.3815 85.9663 71.7992 85.7742L71.3159 85.6193V86.0716V86.5239L71.7372 86.6354C72.3506 86.8089 73.9985 86.8027 74.457 86.6354C74.9588 86.4495 75.343 86.1212 75.5536 85.7123C75.7085 85.4087 75.7395 85.2786 75.7395 84.8759C75.7457 83.7917 75.343 83.3828 73.5958 82.7013C72.7842 82.3791 72.4187 82.0879 72.3134 81.6728C72.1833 81.1524 72.4373 80.6691 72.9391 80.4833C73.3109 80.3532 74.1596 80.3842 74.7544 80.5576C75.0518 80.6444 75.3058 80.7063 75.312 80.7001C75.3739 80.6382 75.5784 80 75.5536 79.9629C75.535 79.9319 75.3368 79.8513 75.1075 79.777C74.5128 79.5787 73.1002 79.5416 72.6355 79.7088Z" fill="black"/>
<path d="M94.7537 79.7088C93.7377 80.0744 93.2792 80.9603 93.5828 81.9764C93.7872 82.6579 94.2643 83.0606 95.3423 83.4757C96.1787 83.7979 96.4699 83.9527 96.7115 84.2068C96.8974 84.3988 96.9283 84.4794 96.9531 84.7891C96.9965 85.3591 96.7239 85.7309 96.1353 85.9167C95.7388 86.0468 94.4997 85.9663 93.9173 85.7742L93.4341 85.6193V86.0716V86.5239L93.8554 86.6354C94.4687 86.8089 96.1167 86.8027 96.5752 86.6354C97.077 86.4495 97.4611 86.1212 97.6718 85.7123C97.8267 85.4087 97.8577 85.2786 97.8577 84.8759C97.8639 83.7917 97.4611 83.3828 95.714 82.7013C94.9024 82.3791 94.5369 82.0879 94.4316 81.6728C94.3014 81.1524 94.5555 80.6691 95.0573 80.4833C95.429 80.3532 96.2778 80.3842 96.8726 80.5576C97.17 80.6444 97.424 80.7063 97.4302 80.7001C97.4921 80.6382 97.6966 80 97.6718 79.9629C97.6532 79.9319 97.4549 79.8513 97.2257 79.777C96.631 79.5787 95.2184 79.5416 94.7537 79.7088Z" fill="black"/>
<path d="M1.49268 83.1597V86.6602H2.87427C4.39835 86.6602 4.86921 86.5858 5.52593 86.2513C6.26939 85.8733 6.85796 85.0431 7.03763 84.1014C7.38457 82.28 6.78981 80.6753 5.53832 80.0434C4.86921 79.7027 4.57183 79.6593 2.95481 79.6593H1.49268V83.1597ZM3.87793 80.4027C5.433 80.5514 6.19504 81.4436 6.20124 83.1102C6.20124 84.5723 5.58169 85.5078 4.39835 85.8176C4.2063 85.8671 3.66729 85.9291 3.20263 85.9477L2.36004 85.9972V83.1659V80.3408H2.81231C3.05394 80.3408 3.53718 80.3718 3.87793 80.4027Z" fill="black"/>
<path d="M10.6006 83.1597V86.6602H11.0343H11.468V83.1597V79.6593H11.0343H10.6006V83.1597Z" fill="black"/>
<path d="M24.4165 83.1597V86.6602H24.8502H25.2839V83.1597V79.6593H24.8502H24.4165V83.1597Z" fill="black"/>
<path d="M28.2578 80.031V80.4027H29.373H30.4882V83.5314V86.6602H30.9219H31.3556V83.5314V80.4027H32.4398H33.524V80.031V79.6593H30.8909H28.2578V80.031Z" fill="black"/>
<path d="M38.2386 79.7957C38.2076 79.8763 37.5943 81.4251 36.8756 83.2404C36.1569 85.0619 35.5684 86.5736 35.5684 86.6045C35.5684 86.6417 35.7542 86.6603 36.0082 86.6479L36.4481 86.6293L36.8632 85.5451L37.2783 84.4609L38.6413 84.4423L40.0043 84.4299L40.438 85.5265L40.8655 86.6293L41.3178 86.6479C41.5594 86.6603 41.7638 86.6417 41.7638 86.6169C41.7638 86.5922 41.1567 85.0123 40.4194 83.1165L39.0688 79.6656L38.6785 79.6594C38.3315 79.6594 38.2882 79.6718 38.2386 79.7957ZM38.728 80.8676C38.728 80.9171 38.9511 81.5552 39.2237 82.2801C39.4963 83.0112 39.7193 83.6245 39.7193 83.6431C39.7193 83.6679 39.2485 83.6865 38.6661 83.6865C38.0899 83.6865 37.6129 83.6679 37.6129 83.6369C37.6129 83.6121 37.8049 83.0855 38.0465 82.466C38.282 81.8464 38.5112 81.2145 38.5546 81.0596C38.6289 80.787 38.728 80.6755 38.728 80.8676Z" fill="black"/>
<path d="M44.6753 83.1597V86.6602H46.6578H48.6404V86.2884V85.9167H47.0915H45.5427V82.788V79.6593H45.109H44.6753V83.1597Z" fill="black"/>
<path d="M57.9398 79.7957C57.9088 79.8763 57.2955 81.4251 56.5768 83.2404C55.8581 85.0619 55.2695 86.5736 55.2695 86.6045C55.2695 86.6417 55.4554 86.6603 55.7094 86.6479L56.1493 86.6293L56.5644 85.5451L56.9795 84.4609L58.3425 84.4423L59.7055 84.4299L60.1392 85.5265L60.5667 86.6293L61.0189 86.6479C61.2606 86.6603 61.465 86.6417 61.465 86.6169C61.465 86.5922 60.8579 85.0123 60.1206 83.1165L58.77 79.6656L58.3797 79.6594C58.0327 79.6594 57.9893 79.6718 57.9398 79.7957ZM58.4292 80.8676C58.4292 80.9171 58.6523 81.5552 58.9249 82.2801C59.1975 83.0112 59.4205 83.6245 59.4205 83.6431C59.4205 83.6679 58.9496 83.6865 58.3673 83.6865C57.7911 83.6865 57.314 83.6679 57.314 83.6369C57.314 83.6121 57.5061 83.0855 57.7477 82.466C57.9832 81.8464 58.2124 81.2145 58.2558 81.0596C58.3301 80.787 58.4292 80.6755 58.4292 80.8676Z" fill="black"/>
<path d="M79.0605 83.1597V86.6602H81.0431H83.0256V86.2884V85.9167H81.4768H79.9279V84.6466V83.3766H81.3838H82.8398V83.0048V82.6331H81.3838H79.9279V81.5179V80.4027H81.4768H83.0256V80.031V79.6593H81.0431H79.0605V83.1597Z" fill="black"/>
<path d="M85.6274 80.031V80.4027H86.7426H87.8578V83.5314V86.6602H88.2915H88.7252V83.5314V80.4027H89.8094H90.8936V80.031V79.6593H88.2605H85.6274V80.031Z" fill="black"/>
<path d="M105.763 83.1597V86.6602H106.196H106.63V85.1732V83.6863H108.086H109.542V83.3146V82.9429H108.086H106.63V81.6728V80.4027H108.179H109.728V80.031V79.6593H107.745H105.763V83.1597Z" fill="black"/>
<path d="M112.714 82.3046C112.732 84.1447 112.757 85.0244 112.813 85.1731C113.055 85.898 113.618 86.4494 114.331 86.6662C114.907 86.8459 116.084 86.8149 116.617 86.6043C117.045 86.437 117.608 85.9476 117.794 85.582C118.073 85.0368 118.092 84.8448 118.092 82.1807V79.6592H117.658H117.224V82.094C117.224 84.7642 117.206 84.9191 116.859 85.4024C116.586 85.7741 116.202 85.9414 115.533 85.9661C114.61 86.0033 114.126 85.7865 113.786 85.1669L113.6 84.8324L113.581 82.2427L113.563 79.6592H113.129H112.695L112.714 82.3046Z" fill="black"/>
<path d="M121.871 83.1597V86.6602H122.28H122.682L122.664 83.7855L122.645 80.9108L123.215 81.7843C123.525 82.2676 124.361 83.5624 125.074 84.659L126.362 86.654H126.877L127.385 86.6602V83.1597V79.6593H126.976H126.573L126.592 82.534L126.61 85.4087L126.022 84.5041C125.699 84.0023 124.863 82.7137 124.163 81.6419L122.887 79.6903L122.379 79.6717L121.871 79.6531V83.1597Z" fill="black"/>
<path d="M131.226 83.1597V86.6602H132.608C134.132 86.6602 134.603 86.5858 135.259 86.2513C136.003 85.8733 136.591 85.0431 136.771 84.1014C137.118 82.28 136.523 80.6753 135.272 80.0434C134.603 79.7027 134.305 79.6593 132.688 79.6593H131.226V83.1597ZM133.611 80.4027C135.166 80.5514 135.928 81.4436 135.935 83.1102C135.935 84.5723 135.315 85.5078 134.132 85.8176C133.94 85.8671 133.401 85.9291 132.936 85.9477L132.093 85.9972V83.1659V80.3408H132.546C132.787 80.3408 133.271 80.3718 133.611 80.4027Z" fill="black"/>
</svg>