<svg width="234" height="234" viewBox="0 0 234 234" fill="none" xmlns="http://www.w3.org/2000/svg">
<g filter="url(#filter0_d)">
<rect x="20" y="20" width="184" height="184" rx="92" fill="white"/>
</g>
<path d="M152.2 98.7381V80.8746C152.2 69.7767 145.109 59.9979 134.555 56.5416C126.308 53.8407 120.418 50.9223 114.311 44.7168C113.771 44.1684 113.001 43.9119 112.241 44.0271C93.1426 46.9176 75.7333 59.3412 73.0195 80.5701C72.9895 80.8059 73.0003 79.6605 73.0003 98.7378C73.0003 103.329 76.2124 107.188 80.5234 108.224C80.9716 120.482 88.3246 131.008 98.8003 136.017V136.649C98.8003 139.291 97.7938 141.743 95.9956 143.592L91.7524 140.515C87.9304 137.743 82.5193 139.334 80.8117 143.742L78.8899 148.701C70.0216 152.557 64 161.364 64 171.423V185.6C64 186.925 65.0746 188 66.4 188C67.7254 188 68.8 186.925 68.8 185.6V171.423C68.8 163.435 73.672 156.127 80.9905 153.025C89.9131 155.298 89.3572 155.186 89.7748 155.186C90.8458 155.186 91.8223 154.464 92.0989 153.378C92.4262 152.094 91.6501 150.787 90.3655 150.46L83.9854 148.835L85.2868 145.477C85.8556 144.009 87.658 143.476 88.9339 144.401L106.964 157.477C110.335 159.922 114.865 159.922 118.236 157.477L136.265 144.401C137.54 143.477 139.343 144.008 139.912 145.477L141.213 148.835L134.834 150.46C133.55 150.787 132.773 152.094 133.101 153.378C133.428 154.662 134.733 155.439 136.019 155.112C145.763 152.629 145.311 152.77 145.311 152.77C146.547 152.292 147.161 150.901 146.682 149.665L144.388 143.743C142.682 139.339 137.273 137.74 133.447 140.515L129.207 143.59C128.789 143.158 128.409 142.69 128.072 142.186C127.337 141.083 125.846 140.786 124.744 141.522C123.641 142.258 123.344 143.748 124.08 144.851C124.451 145.405 124.856 145.932 125.294 146.428L115.418 153.591C113.732 154.814 111.467 154.814 109.781 153.591L99.898 146.423C101.992 144.039 103.286 141.022 103.546 137.835C124.244 143.931 144.7 128.16 144.7 107.22V87.5694C144.7 78.3063 137.164 70.7703 127.901 70.7703H97.2985C88.036 70.7703 80.5 78.3069 80.5 87.5703V103.129C78.8968 102.298 77.8 100.642 77.8 98.7378V81.0294C80.1409 63.2691 94.2064 52.1391 111.782 48.9687C118.21 55.1805 124.431 58.2768 133.061 61.1031C141.638 63.912 147.4 71.8575 147.4 80.8746V98.7381C147.4 100.063 148.475 101.138 149.8 101.138C151.125 101.138 152.2 100.063 152.2 98.7381ZM85.3 87.5703C85.3 80.9535 90.6823 75.5703 97.2985 75.5703H127.901C134.517 75.5703 139.9 80.9529 139.9 87.5694V107.038C139.9 122.091 127.654 134.338 112.6 134.338C97.5469 134.338 85.3003 122.091 85.3003 107.038V87.5703H85.3ZM161.2 171.423V185.6C161.2 186.925 160.125 188 158.8 188C157.475 188 156.4 186.925 156.4 185.6V171.423C156.4 166.518 154.605 161.802 151.344 158.143C150.463 157.154 150.55 155.637 151.539 154.755C152.529 153.873 154.046 153.961 154.928 154.95C158.972 159.489 161.2 165.339 161.2 171.423ZM105.93 169.174C104.143 174.782 100.903 180.067 96.2239 184.367C95.7628 184.791 95.1808 185 94.6006 185C92.4307 185 91.3618 182.316 92.9761 180.833C96.8038 177.316 99.7252 172.836 101.357 167.717C101.76 166.454 103.11 165.757 104.373 166.159C105.635 166.561 106.333 167.911 105.93 169.174ZM132.224 180.833C133.2 181.73 133.264 183.248 132.367 184.224C131.47 185.2 129.952 185.264 128.976 184.367C124.593 180.339 121.179 175.165 119.27 169.174C118.867 167.911 119.564 166.561 120.827 166.159C122.09 165.756 123.44 166.454 123.843 167.716C125.393 172.58 128.199 177.134 132.224 180.833Z" fill="#595959"/>
<defs>
<filter id="filter0_d" x="0" y="0" width="234" height="234" filterUnits="userSpaceOnUse" color-interpolation-filters="sRGB">
<feFlood flood-opacity="0" result="BackgroundImageFix"/>
<feColorMatrix in="SourceAlpha" type="matrix" values="0 0 0 0 0 0 0 0 0 0 0 0 0 0 0 0 0 0 127 0"/>
<feOffset dx="5" dy="5"/>
<feGaussianBlur stdDeviation="12.5"/>
<feColorMatrix type="matrix" values="0 0 0 0 0 0 0 0 0 0 0 0 0 0 0 0 0 0 0.1 0"/>
<feBlend mode="normal" in2="BackgroundImageFix" result="effect1_dropShadow"/>
<feBlend mode="normal" in="SourceGraphic" in2="effect1_dropShadow" result="shape"/>
</filter>
</defs>
</svg>