<svg width="234" height="234" viewBox="0 0 234 234" fill="none" xmlns="http://www.w3.org/2000/svg">
<g filter="url(#filter0_d)">
<rect x="20" y="20" width="184" height="184" rx="92" fill="white"/>
</g>
<path d="M135.828 146.651C132.294 146.651 129.087 144.851 127.25 141.836C126.56 140.704 125.083 140.345 123.952 141.035C122.82 141.724 122.461 143.201 123.151 144.333C124.428 146.43 126.157 148.123 128.17 149.335L125.683 160.623L119.686 153.718C120.775 152.466 120.512 151.004 119.574 150.189C118.575 149.319 117.059 149.425 116.189 150.425L111.969 155.278L101.339 143.467C102.244 141.73 102.792 139.823 102.949 137.836C123.521 143.892 144.1 128.365 144.1 107.037V87.1999C144.1 85.8745 143.025 84.7999 141.7 84.7999C140.375 84.7999 139.3 85.8745 139.3 87.1999V107.037C139.3 122.09 127.053 134.337 112 134.337C96.9467 134.337 84.7001 122.091 84.7001 107.037V86.6695C90.551 86.3374 95.5277 82.6639 97.3013 76.0063C107.294 82.4059 118.496 86.5522 130.251 88.1977C131.568 88.3813 132.777 87.4624 132.96 86.1535C133.144 84.841 132.229 83.6278 130.917 83.4439C118.947 81.7684 107.266 77.2885 96.8867 69.9409C95.3 68.8171 93.0905 69.9604 93.1001 71.9152C93.1004 71.9749 93.0779 77.9272 88.5629 80.6434C85.7078 82.3612 82.82 81.8065 82.3232 81.8011C81.0965 81.7894 80.057 82.7098 79.9172 83.9239C79.8908 84.1561 79.9001 83.3656 79.9001 103.129C78.2969 102.297 77.2001 100.642 77.2001 98.7379V69.4999C77.2001 66.3569 79.757 63.8 82.9001 63.8C83.8814 63.8 84.764 63.2024 85.1285 62.2913C88.4069 54.0956 96.2285 48.8 105.056 48.8H125.638C137.472 48.8 147.1 58.4279 147.1 70.2622V98.7379C147.1 100.063 148.175 101.138 149.5 101.138C150.825 101.138 151.9 100.063 151.9 98.7379V70.2622C151.9 55.7813 140.119 44 125.638 44H105.056C94.7597 44 85.5806 49.889 81.2702 59.1263C76.2518 59.912 72.4001 64.2647 72.4001 69.4999V98.7379C72.4001 103.329 75.6125 107.188 79.9244 108.224C80.3723 120.482 87.7244 131.007 98.2001 136.016V136.649C98.2001 139.323 97.1573 141.835 95.264 143.723C91.9061 147.071 87.6746 146.651 88.1714 146.651C74.4806 146.651 63.4001 157.73 63.4001 171.423V185.6C63.4001 186.925 64.4747 188 65.8001 188C67.1255 188 68.2001 186.925 68.2001 185.6V171.423C68.2001 160.384 77.1326 151.451 88.172 151.451C89.2223 151.451 90.2708 151.34 91.3076 151.118L94.6565 166.316C95.0804 168.241 97.5218 168.859 98.8124 167.373L103.541 161.929L100.619 185.302C100.455 186.617 101.388 187.817 102.703 187.981C104.02 188.145 105.218 187.211 105.382 185.897L108.759 158.885C108.911 159.055 110.245 160.551 110.416 160.702C111.407 161.571 112.916 161.483 113.797 160.489C114.271 159.946 113.044 161.357 115.236 158.836L118.619 185.897C118.783 187.21 119.98 188.145 121.298 187.981C122.613 187.816 123.546 186.617 123.382 185.302L120.46 161.929L125.188 167.373C126.481 168.861 128.921 168.237 129.344 166.316L132.693 151.117C133.71 151.333 134.758 151.451 135.828 151.451C146.867 151.451 155.8 160.383 155.8 171.423V185.6C155.8 186.925 156.875 188 158.2 188C159.525 188 160.6 186.925 160.6 185.6V171.423C160.6 157.732 149.521 146.651 135.828 146.651ZM98.3171 160.623L95.8292 149.332C96.7442 148.779 97.6025 148.121 98.3936 147.369L104.212 153.834L98.3171 160.623Z" fill="#595959"/>
<defs>
<filter id="filter0_d" x="0" y="0" width="234" height="234" filterUnits="userSpaceOnUse" color-interpolation-filters="sRGB">
<feFlood flood-opacity="0" result="BackgroundImageFix"/>
<feColorMatrix in="SourceAlpha" type="matrix" values="0 0 0 0 0 0 0 0 0 0 0 0 0 0 0 0 0 0 127 0"/>
<feOffset dx="5" dy="5"/>
<feGaussianBlur stdDeviation="12.5"/>
<feColorMatrix type="matrix" values="0 0 0 0 0 0 0 0 0 0 0 0 0 0 0 0 0 0 0.1 0"/>
<feBlend mode="normal" in2="BackgroundImageFix" result="effect1_dropShadow"/>
<feBlend mode="normal" in="SourceGraphic" in2="effect1_dropShadow" result="shape"/>
</filter>
</defs>
</svg>