<svg width="85" height="100" viewBox="0 0 85 100" fill="none" xmlns="http://www.w3.org/2000/svg">
<path d="M0 72.5257L18.851 83.1392C19.3414 78.2899 20.7897 73.4654 22.7456 68.8949L6.1062 56.4326C1.74218 66.3203 0.00190819 72.5181 0 72.5257Z" fill="url(#paint0_linear)"/>
<path d="M9.29272 49.5722L25.7623 62.8634C29.51 55.8214 34.1163 49.7383 37.532 45.6587L20.5758 29.2658C15.9389 36.6706 12.2218 43.5635 9.29272 49.5722Z" fill="url(#paint1_linear)"/>
<path d="M42.4268 64.1812C43.1233 65.0961 43.8445 66.0797 44.5677 67.1244C48.2009 72.3691 50.6969 77.3712 51.9334 81.8461C48.4395 84.2335 45.5104 86.3497 43.1347 88.1565L42.4268 88.5996L41.7188 88.1565C39.3431 86.3497 36.4141 84.2335 32.9202 81.8461C34.1567 77.3712 36.6526 72.3691 40.2858 67.1244C41.009 66.0816 41.7284 65.0961 42.4268 64.1812ZM42.4401 50.9359C42.4401 50.9359 42.4363 50.9397 42.4268 50.9492C42.4172 50.9397 42.4134 50.9359 42.4134 50.9359C42.4134 50.9359 42.4134 50.9454 42.4134 50.9626C41.6826 51.6884 24.7073 68.7192 23.4136 85.8665C36.0801 94.1881 41.3658 98.8731 42.4134 99.9713C42.4134 99.9809 42.4134 99.9904 42.4134 100C42.4172 99.9962 42.4229 99.9904 42.4268 99.9866C42.4306 99.9904 42.4363 99.9962 42.4401 100C42.4401 99.9904 42.4401 99.9809 42.4401 99.9713C43.4858 98.875 48.7715 94.1881 61.44 85.8665C60.1481 68.7192 43.171 51.6884 42.4401 50.9626C42.4401 50.9454 42.4401 50.9359 42.4401 50.9359Z" fill="url(#paint2_linear)"/>
<path d="M84.7808 72.5257L65.9298 83.1391C65.4394 78.2898 63.9911 73.4654 62.0352 68.8949L78.6727 56.4345C83.0386 66.3203 84.7789 72.518 84.7808 72.5257Z" fill="url(#paint3_linear)"/>
<path d="M75.4859 49.5722L59.0163 62.8634C55.2686 55.8214 50.6622 49.7383 47.2466 45.6587L64.2027 29.2658C68.8416 36.6706 72.5587 43.5635 75.4859 49.5722Z" fill="url(#paint4_linear)"/>
<path d="M59.4364 21.968C54.6373 14.9223 49.0311 7.54612 42.5165 0.124145L42.4039 0H42.3772L42.2646 0.124145C35.7501 7.54612 30.1457 14.9223 25.3447 21.968C25.8523 22.5906 26.3713 23.1388 26.898 23.6334L42.3772 40.2441H42.4039L57.8832 23.6334C58.4098 23.1388 58.9269 22.5906 59.4364 21.968Z" fill="url(#paint5_linear)"/>
<defs>
<linearGradient id="paint0_linear" x1="11.6052" y1="100.029" x2="10.8123" y2="0.217165" gradientUnits="userSpaceOnUse">
<stop stop-color="#FE8464"/>
<stop offset="1" stop-color="#FE6E9A"/>
</linearGradient>
<linearGradient id="paint1_linear" x1="23.8279" y1="99.9317" x2="23.035" y2="0.120053" gradientUnits="userSpaceOnUse">
<stop stop-color="#FE8464"/>
<stop offset="1" stop-color="#FE6E9A"/>
</linearGradient>
<linearGradient id="paint2_linear" x1="42.5366" y1="99.7831" x2="41.7437" y2="-0.0285754" gradientUnits="userSpaceOnUse">
<stop stop-color="#FE8464"/>
<stop offset="1" stop-color="#FE6E9A"/>
</linearGradient>
<linearGradient id="paint3_linear" x1="73.1785" y1="99.5995" x2="73.9714" y2="-0.212108" gradientUnits="userSpaceOnUse">
<stop stop-color="#FE8464"/>
<stop offset="1" stop-color="#FE6E9A"/>
</linearGradient>
<linearGradient id="paint4_linear" x1="60.9555" y1="99.5024" x2="61.7484" y2="-0.309203" gradientUnits="userSpaceOnUse">
<stop stop-color="#FE8464"/>
<stop offset="1" stop-color="#FE6E9A"/>
</linearGradient>
<linearGradient id="paint5_linear" x1="43.0073" y1="99.7793" x2="42.2145" y2="-0.0322833" gradientUnits="userSpaceOnUse">
<stop stop-color="#FE8464"/>
<stop offset="1" stop-color="#FE6E9A"/>
</linearGradient>
</defs>
</svg>