<svg id="Camada_1" data-name="Camada 1" xmlns="http://www.w3.org/2000/svg" viewBox="0 0 256 256"><defs><style>.cls-1{fill:#fe8464;}</style></defs><path class="cls-1" d="M61.8,131.89h0C81,142.78,100.72,154,122,166.15a4.16,4.16,0,0,0,2.12.63,4.47,4.47,0,0,0,2.26-.7q29.11-16.64,58.3-33.22c4-2.3,4.16-2.79,1.8-6.56q-30.13-48.19-60.29-96.39a9.65,9.65,0,0,0-.71-1l-.52-.66L124,27l-1.39,2.1-.7,1L110.8,47.86q-25,40-50.1,80C59.56,129.7,59.86,130.79,61.8,131.89Zm60.59-31.62a1.37,1.37,0,0,1-1,1.58q-21.78,9.5-43.53,19L66.23,126l56.13-89.71V68.17Q122.35,84.22,122.39,100.27Zm-.15,4.86v57.19L65.5,130ZM182.66,130,126,162.31V105.16ZM125.89,36.32l56,89.6-1.66-.72-9.14-4-10.46-4.58q-16.93-7.42-33.88-14.81c-.7-.3-.9-.5-.89-1.27q0-25.59,0-51.18Z"/><path class="cls-1" d="M187.7,139.14a8.23,8.23,0,0,0-3,1.13l-10,5.7c-16.13,9.18-32.8,18.68-49.18,28.06a2.21,2.21,0,0,1-2.72,0c-16.66-9.55-33.62-19.21-50-28.56l-9.95-5.66c-.36-.21-.73-.39-1.1-.58l-1.26-.64-1.68,1.6L124.09,229l2.37-3.21C147,197.84,168.3,169,188.8,140.5l1.2-1.67Zm-65.4,39.25c.06,12.77.06,25.76,0,38.33v3.81L68.07,146.84l.7.39c17.3,9.83,35.19,20,52.75,30A1.83,1.83,0,0,1,122.3,178.39Zm4.55-1.28q21.24-12,42.44-24.13l10.89-6.2L125.9,220.46V209.7q0-15.4,0-30.8A1.66,1.66,0,0,1,126.85,177.11Z"/></svg>