<?xml version="1.0" encoding="utf-8"?>
<!-- Generator: Adobe Illustrator 24.2.1, SVG Export Plug-In . SVG Version: 6.00 Build 0)  -->
<svg version="1.1" id="Layer_1" xmlns="http://www.w3.org/2000/svg" xmlns:xlink="http://www.w3.org/1999/xlink" x="0px" y="0px"
	 viewBox="0 0 264 264" style="enable-background:new 0 0 264 264;" xml:space="preserve">
<style type="text/css">
	.st0{fill:#C4C4C4;}
</style>
<g>
	<path class="st0" d="M63.4,177.4c-0.5,0-1-0.1-1.5-0.2c-0.5-0.1-0.9-0.3-1.1-0.5l0.5-0.9c0.3,0.2,0.6,0.4,1,0.5
		c0.4,0.1,0.8,0.2,1.2,0.2c1,0,1.5-0.3,1.5-0.9c0-0.2-0.1-0.3-0.2-0.5s-0.3-0.2-0.5-0.2c-0.2-0.1-0.5-0.1-0.9-0.2
		c-0.5-0.1-0.9-0.2-1.3-0.3c-0.3-0.1-0.6-0.3-0.8-0.5s-0.3-0.6-0.3-1c0-0.6,0.2-1,0.7-1.4c0.5-0.4,1.1-0.5,1.9-0.5
		c0.4,0,0.8,0.1,1.3,0.2c0.4,0.1,0.8,0.2,1,0.4l-0.5,0.9c-0.5-0.3-1.1-0.5-1.8-0.5c-0.5,0-0.9,0.1-1.1,0.2c-0.3,0.2-0.4,0.4-0.4,0.6
		c0,0.2,0.1,0.4,0.2,0.5c0.1,0.1,0.3,0.2,0.5,0.3c0.2,0.1,0.5,0.1,0.9,0.2c0.5,0.1,0.9,0.2,1.2,0.3c0.3,0.1,0.6,0.3,0.8,0.5
		c0.2,0.2,0.3,0.6,0.3,1c0,0.6-0.2,1-0.7,1.4C64.9,177.2,64.2,177.4,63.4,177.4z M70.3,177.4c-0.6,0-1.2-0.1-1.7-0.4
		c-0.5-0.3-0.9-0.7-1.2-1.2c-0.3-0.5-0.4-1.1-0.4-1.7c0-0.6,0.1-1.2,0.4-1.7c0.3-0.5,0.7-0.9,1.2-1.2c0.5-0.3,1.1-0.4,1.7-0.4
		c0.6,0,1.2,0.1,1.7,0.4c0.5,0.3,0.9,0.7,1.2,1.2c0.3,0.5,0.4,1,0.4,1.7c0,0.6-0.1,1.2-0.4,1.7c-0.3,0.5-0.7,0.9-1.2,1.2
		C71.5,177.2,70.9,177.4,70.3,177.4z M70.3,176.4c0.4,0,0.8-0.1,1.1-0.3c0.3-0.2,0.6-0.5,0.8-0.8c0.2-0.3,0.3-0.7,0.3-1.2
		s-0.1-0.8-0.3-1.2c-0.2-0.3-0.4-0.6-0.8-0.8c-0.3-0.2-0.7-0.3-1.1-0.3c-0.4,0-0.8,0.1-1.1,0.3c-0.3,0.2-0.6,0.4-0.8,0.8
		c-0.2,0.3-0.3,0.7-0.3,1.2s0.1,0.8,0.3,1.2c0.2,0.3,0.4,0.6,0.8,0.8C69.5,176.3,69.9,176.4,70.3,176.4z M83.1,170.9
		c0.8,0,1.4,0.2,1.9,0.7c0.5,0.5,0.7,1.2,0.7,2.1v3.7h-1.2v-3.5c0-0.6-0.1-1.1-0.4-1.4c-0.3-0.3-0.7-0.5-1.2-0.5
		c-0.6,0-1,0.2-1.4,0.6c-0.3,0.4-0.5,0.9-0.5,1.6v3.3h-1.2v-3.5c0-0.6-0.1-1.1-0.4-1.4c-0.3-0.3-0.7-0.5-1.2-0.5
		c-0.6,0-1,0.2-1.4,0.6c-0.3,0.4-0.5,0.9-0.5,1.6v3.3h-1.2v-6.4h1.1v0.9c0.2-0.3,0.5-0.6,0.9-0.7c0.4-0.2,0.8-0.3,1.3-0.3
		c0.5,0,0.9,0.1,1.3,0.3c0.4,0.2,0.7,0.5,0.9,0.9c0.2-0.4,0.6-0.7,1-0.9C82.1,171,82.6,170.9,83.1,170.9z M93.6,174.2
		c0,0.1,0,0.2,0,0.3h-5.2c0.1,0.6,0.3,1,0.7,1.4c0.4,0.3,0.9,0.5,1.6,0.5c0.8,0,1.4-0.3,1.8-0.8l0.6,0.7c-0.3,0.3-0.6,0.6-1.1,0.8
		c-0.4,0.2-0.9,0.3-1.4,0.3c-0.7,0-1.3-0.1-1.8-0.4c-0.5-0.3-0.9-0.7-1.2-1.2c-0.3-0.5-0.4-1.1-0.4-1.7c0-0.6,0.1-1.2,0.4-1.7
		c0.3-0.5,0.7-0.9,1.1-1.2c0.5-0.3,1-0.4,1.6-0.4s1.1,0.1,1.6,0.4c0.5,0.3,0.9,0.7,1.1,1.2C93.5,172.9,93.6,173.5,93.6,174.2z
		 M90.5,171.9c-0.6,0-1,0.2-1.4,0.5c-0.4,0.3-0.6,0.8-0.6,1.3h4.1c-0.1-0.5-0.3-1-0.7-1.3C91.5,172,91.1,171.9,90.5,171.9z
		 M98.8,176.9c-0.2,0.1-0.4,0.3-0.6,0.3c-0.2,0.1-0.5,0.1-0.8,0.1c-0.6,0-1.1-0.2-1.5-0.5c-0.4-0.3-0.5-0.8-0.5-1.5v-3.5h-1.1v-0.9
		h1.1v-1.4h1.2v1.4h1.8v0.9h-1.8v3.4c0,0.3,0.1,0.6,0.3,0.8c0.2,0.2,0.4,0.3,0.7,0.3c0.4,0,0.7-0.1,0.9-0.3L98.8,176.9z
		 M103.6,170.9c0.8,0,1.4,0.2,1.9,0.7c0.5,0.5,0.7,1.1,0.7,2.1v3.7h-1.2v-3.5c0-0.6-0.1-1.1-0.4-1.4c-0.3-0.3-0.7-0.5-1.3-0.5
		c-0.6,0-1.1,0.2-1.5,0.6c-0.4,0.4-0.5,0.9-0.5,1.6v3.3h-1.2v-8.9h1.2v3.4c0.2-0.3,0.6-0.5,0.9-0.7
		C102.7,171,103.1,170.9,103.6,170.9z M108.4,170.9h1.2v6.4h-1.2V170.9z M109,169.7c-0.2,0-0.4-0.1-0.6-0.2
		c-0.1-0.1-0.2-0.3-0.2-0.5c0-0.2,0.1-0.4,0.2-0.5c0.2-0.2,0.3-0.2,0.6-0.2s0.4,0.1,0.6,0.2c0.2,0.1,0.2,0.3,0.2,0.5
		c0,0.2-0.1,0.4-0.2,0.6C109.4,169.6,109.2,169.7,109,169.7z M115.1,170.9c0.8,0,1.4,0.2,1.9,0.7c0.5,0.5,0.7,1.1,0.7,2.1v3.7h-1.2
		v-3.5c0-0.6-0.1-1.1-0.4-1.4c-0.3-0.3-0.7-0.5-1.3-0.5c-0.6,0-1.1,0.2-1.5,0.6c-0.4,0.4-0.5,0.9-0.5,1.6v3.3h-1.2v-6.4h1.1v1
		c0.2-0.3,0.5-0.6,0.9-0.8C114.2,171,114.6,170.9,115.1,170.9z M126,170.9v5.5c0,1.1-0.3,1.9-0.8,2.5c-0.6,0.5-1.4,0.8-2.5,0.8
		c-0.6,0-1.2-0.1-1.7-0.3c-0.5-0.2-1-0.4-1.3-0.7l0.6-0.9c0.3,0.3,0.7,0.5,1.1,0.6c0.4,0.2,0.9,0.2,1.4,0.2c0.7,0,1.3-0.2,1.6-0.5
		c0.4-0.4,0.5-0.9,0.5-1.6v-0.5c-0.3,0.3-0.6,0.6-1,0.7c-0.4,0.2-0.8,0.2-1.3,0.2c-0.6,0-1.2-0.1-1.7-0.4c-0.5-0.3-0.9-0.6-1.2-1.1
		c-0.3-0.5-0.4-1-0.4-1.6c0-0.6,0.1-1.1,0.4-1.6c0.3-0.5,0.7-0.8,1.2-1.1c0.5-0.3,1-0.4,1.7-0.4c0.5,0,0.9,0.1,1.3,0.3
		c0.4,0.2,0.8,0.4,1,0.8v-1H126z M122.7,176c0.4,0,0.8-0.1,1.1-0.3c0.3-0.2,0.6-0.4,0.8-0.7c0.2-0.3,0.3-0.7,0.3-1.1
		c0-0.6-0.2-1.1-0.6-1.5c-0.4-0.4-0.9-0.6-1.6-0.6c-0.6,0-1.2,0.2-1.6,0.6c-0.4,0.4-0.6,0.9-0.6,1.5c0,0.4,0.1,0.8,0.3,1.1
		c0.2,0.3,0.5,0.6,0.8,0.7C121.9,175.9,122.3,176,122.7,176z M141.1,170.9l-2.4,6.4h-1.1l-1.8-4.8l-1.9,4.8h-1.1l-2.4-6.4h1.1
		l1.8,5.1l1.9-5.1h1l1.9,5.1l1.9-5.1H141.1z M147.8,174.2c0,0.1,0,0.2,0,0.3h-5.2c0.1,0.6,0.3,1,0.7,1.4c0.4,0.3,0.9,0.5,1.6,0.5
		c0.8,0,1.4-0.3,1.8-0.8l0.6,0.7c-0.3,0.3-0.6,0.6-1.1,0.8c-0.4,0.2-0.9,0.3-1.4,0.3c-0.7,0-1.3-0.1-1.8-0.4
		c-0.5-0.3-0.9-0.7-1.2-1.2c-0.3-0.5-0.4-1.1-0.4-1.7c0-0.6,0.1-1.2,0.4-1.7c0.3-0.5,0.7-0.9,1.1-1.2c0.5-0.3,1-0.4,1.6-0.4
		s1.1,0.1,1.6,0.4c0.5,0.3,0.9,0.7,1.1,1.2C147.7,172.9,147.8,173.5,147.8,174.2z M144.7,171.9c-0.6,0-1,0.2-1.4,0.5
		c-0.4,0.3-0.6,0.8-0.6,1.3h4.1c-0.1-0.5-0.3-1-0.7-1.3C145.7,172,145.2,171.9,144.7,171.9z M152.8,170.9c0.8,0,1.4,0.2,1.9,0.7
		c0.5,0.5,0.7,1.1,0.7,2.1v3.7h-1.2v-3.5c0-0.6-0.1-1.1-0.4-1.4c-0.3-0.3-0.7-0.5-1.3-0.5c-0.6,0-1.1,0.2-1.5,0.6
		c-0.4,0.4-0.5,0.9-0.5,1.6v3.3h-1.2v-6.4h1.1v1c0.2-0.3,0.5-0.6,0.9-0.8C151.9,171,152.3,170.9,152.8,170.9z M161.2,176.9
		c-0.2,0.1-0.4,0.3-0.6,0.3c-0.2,0.1-0.5,0.1-0.8,0.1c-0.6,0-1.1-0.2-1.5-0.5c-0.4-0.3-0.5-0.8-0.5-1.5v-3.5h-1.1v-0.9h1.1v-1.4h1.2
		v1.4h1.8v0.9h-1.8v3.4c0,0.3,0.1,0.6,0.3,0.8c0.2,0.2,0.4,0.3,0.7,0.3c0.4,0,0.7-0.1,0.9-0.3L161.2,176.9z M175.4,170.9l-2.4,6.4
		h-1.1l-1.8-4.8l-1.9,4.8h-1.1l-2.4-6.4h1.1l1.8,5.1l1.9-5.1h1l1.9,5.1l1.9-5.1H175.4z M177.7,172c0.2-0.4,0.5-0.6,0.9-0.8
		s0.9-0.3,1.4-0.3v1.1c-0.1,0-0.2,0-0.3,0c-0.6,0-1.1,0.2-1.5,0.6c-0.4,0.4-0.5,0.9-0.5,1.6v3.2h-1.2v-6.4h1.1V172z M184.1,177.4
		c-0.6,0-1.2-0.1-1.7-0.4c-0.5-0.3-0.9-0.7-1.2-1.2c-0.3-0.5-0.4-1.1-0.4-1.7c0-0.6,0.1-1.2,0.4-1.7c0.3-0.5,0.7-0.9,1.2-1.2
		c0.5-0.3,1.1-0.4,1.7-0.4s1.2,0.1,1.7,0.4c0.5,0.3,0.9,0.7,1.2,1.2c0.3,0.5,0.4,1,0.4,1.7c0,0.6-0.1,1.2-0.4,1.7
		c-0.3,0.5-0.7,0.9-1.2,1.2C185.3,177.2,184.7,177.4,184.1,177.4z M184.1,176.4c0.4,0,0.8-0.1,1.1-0.3c0.3-0.2,0.6-0.5,0.8-0.8
		c0.2-0.3,0.3-0.7,0.3-1.2s-0.1-0.8-0.3-1.2c-0.2-0.3-0.4-0.6-0.8-0.8c-0.3-0.2-0.7-0.3-1.1-0.3s-0.8,0.1-1.1,0.3
		c-0.3,0.2-0.6,0.4-0.8,0.8c-0.2,0.3-0.3,0.7-0.3,1.2s0.1,0.8,0.3,1.2c0.2,0.3,0.4,0.6,0.8,0.8C183.3,176.3,183.7,176.4,184.1,176.4
		z M192.4,170.9c0.8,0,1.4,0.2,1.9,0.7c0.5,0.5,0.7,1.1,0.7,2.1v3.7h-1.2v-3.5c0-0.6-0.1-1.1-0.4-1.4c-0.3-0.3-0.7-0.5-1.3-0.5
		c-0.6,0-1.1,0.2-1.5,0.6c-0.4,0.4-0.5,0.9-0.5,1.6v3.3H189v-6.4h1.1v1c0.2-0.3,0.5-0.6,0.9-0.8C191.4,171,191.9,170.9,192.4,170.9z
		 M203.2,170.9v5.5c0,1.1-0.3,1.9-0.8,2.5c-0.6,0.5-1.4,0.8-2.5,0.8c-0.6,0-1.2-0.1-1.7-0.3c-0.5-0.2-1-0.4-1.3-0.7l0.6-0.9
		c0.3,0.3,0.7,0.5,1.1,0.6c0.4,0.2,0.9,0.2,1.4,0.2c0.7,0,1.3-0.2,1.6-0.5c0.4-0.4,0.5-0.9,0.5-1.6v-0.5c-0.3,0.3-0.6,0.6-1,0.7
		c-0.4,0.2-0.8,0.2-1.3,0.2c-0.6,0-1.2-0.1-1.7-0.4c-0.5-0.3-0.9-0.6-1.2-1.1c-0.3-0.5-0.4-1-0.4-1.6c0-0.6,0.1-1.1,0.4-1.6
		c0.3-0.5,0.7-0.8,1.2-1.1c0.5-0.3,1-0.4,1.7-0.4c0.5,0,0.9,0.1,1.3,0.3c0.4,0.2,0.8,0.4,1,0.8v-1H203.2z M199.9,176
		c0.4,0,0.8-0.1,1.1-0.3c0.3-0.2,0.6-0.4,0.8-0.7c0.2-0.3,0.3-0.7,0.3-1.1c0-0.6-0.2-1.1-0.6-1.5c-0.4-0.4-0.9-0.6-1.6-0.6
		c-0.6,0-1.2,0.2-1.6,0.6c-0.4,0.4-0.6,0.9-0.6,1.5c0,0.4,0.1,0.8,0.3,1.1c0.2,0.3,0.5,0.6,0.8,0.7C199.1,175.9,199.5,176,199.9,176
		z"/>
	<path class="st0" d="M118.1,108.9c4.8,0,8.7-3.9,8.7-8.6c0-4.7-3.9-8.6-8.7-8.6c-4.8,0-8.7,3.9-8.7,8.6
		C109.4,105.1,113.3,108.9,118.1,108.9z M118.1,95.3c2.8,0,5.1,2.3,5.1,5c0,2.8-2.3,5-5.1,5c-2.8,0-5.1-2.3-5.1-5
		C113,97.6,115.3,95.3,118.1,95.3z"/>
	<path class="st0" d="M156.6,94.7h-5.1h-3.7l-1.5,3.6l-6.7,16.3l-4.2-1.8l-10.3,24.5l-5.1-2.8l-7.2,17.3l-1.5,3.6h3.7h41.6
		c4.3,0,7.8-3.5,7.8-7.7v-45.1C164.4,98.2,160.9,94.7,156.6,94.7z M160.8,147.6c0,2.3-1.9,4.2-4.2,4.2h-40.1l5.2-12.4l5.1,2.8
		l1.9-4.6c0.5,0.1,1.1-0.1,1.5-0.5l17.6-17.5c0.3-0.3,0.7-0.3,0.9-0.3c0.2,0,0.6,0.1,0.8,0.4l11.3,13.9L160.8,147.6L160.8,147.6z
		 M160.8,127.8l-8.6-10.5c-0.8-1-2.1-1.7-3.4-1.7c-1.3-0.1-2.7,0.4-3.6,1.4l-13.6,13.5l5.6-13.2l4.3,1.8l8.6-20.8h6.6
		c2.3,0,4.2,1.9,4.2,4.2L160.8,127.8L160.8,127.8z"/>
	<path class="st0" d="M143.6,84.3h-36.4c-4.3,0-7.8,3.5-7.8,7.7v45.1c0,4.2,3.4,7.7,7.7,7.7c0,0,0.1,0,0.1,0h3.6l1.5-3.6l5.2-12.5
		l5.1,2.8l10.5-24.8l4.3,1.8l8.5-20.7l1.5-3.6H143.6z M120.9,126.7l-5.1-2.8l-7.3,17.4h-1.3c-2.3,0-4.2-1.9-4.2-4.2v-6.5l11.8-10
		c0.4-0.4,1.1-0.4,1.5,0l5.3,4.4L120.9,126.7z M135.5,104l-4.2-1.8l-8.2,19.4l-4.5-3.7c-1.8-1.5-4.4-1.5-6.1,0l-9.5,8V92
		c0-2.3,1.9-4.2,4.2-4.2h34.9L135.5,104z"/>
</g>
</svg>
