<svg width="80" height="80" viewBox="0 0 80 80" fill="none" xmlns="http://www.w3.org/2000/svg">
<path d="M28.4636 12.2633L28.4636 49.4388C28.4636 50.6836 29.4819 51.7021 30.7264 51.7021L67.8927 51.7021C69.1372 51.7021 70.1555 50.6836 70.1555 49.4388L70.1555 12.2633C70.1555 11.0185 69.1372 10 67.8927 10L30.7264 10C29.463 10 28.4636 11.0185 28.4636 12.2633ZM66.5155 13.6411L66.5155 48.061L32.1036 48.061L32.1036 13.6411L66.5155 13.6411Z" fill="#5C5C5C"/>
<path d="M14.5256 67.7366C14.5256 67.1331 14.2804 66.5483 13.8656 66.1334C13.4508 65.7184 12.8662 65.4732 12.2628 65.4732C11.6782 65.4732 11.0748 65.7184 10.66 66.1334C10.2451 66.5483 10 67.1331 10 67.7366C10 68.3402 10.2451 68.9249 10.66 69.3398C11.0748 69.7548 11.6594 70 12.2628 70C12.8662 70 13.4508 69.7548 13.8656 69.3398C14.2804 68.906 14.5256 68.3402 14.5256 67.7366Z" fill="#5C5C5C"/>
<path d="M14.5256 49.139C14.5256 47.8942 13.5073 46.8756 12.2628 46.8756C11.0183 46.8756 10 47.8942 10 49.139C10 50.3838 11.0183 51.4023 12.2628 51.4023C13.5073 51.4023 14.5256 50.4027 14.5256 49.139Z" fill="#5C5C5C"/>
<path d="M14.5256 58.4383C14.5256 57.1934 13.5073 56.1749 12.2628 56.1749C11.0183 56.1749 10 57.1934 10 58.4383C10 59.6831 11.0183 60.7016 12.2628 60.7016C13.5073 60.7016 14.5256 59.6831 14.5256 58.4383Z" fill="#5C5C5C"/>
<path d="M14.5256 39.8597C14.5256 38.6149 13.5073 37.5964 12.2628 37.5964C11.0183 37.5964 10 38.6149 10 39.8597C10 41.1046 11.0183 42.1231 12.2628 42.1231C13.5073 42.1231 14.5256 41.1046 14.5256 39.8597Z" fill="#5C5C5C"/>
<path d="M10 30.5614C10 31.1461 10.2451 31.7496 10.66 32.1646C11.0748 32.5795 11.6594 32.8247 12.2628 32.8247C12.8662 32.8247 13.4508 32.5795 13.8656 32.1646C14.2804 31.7496 14.5256 31.1649 14.5256 30.5614C14.5256 29.9578 14.2804 29.3731 13.8656 28.9581C13.4508 28.5432 12.8662 28.298 12.2628 28.298C11.6594 28.298 11.0748 28.5432 10.66 28.9581C10.2451 29.3731 10 29.9578 10 30.5614Z" fill="#5C5C5C"/>
<path d="M19.2959 30.5614C19.2959 31.8062 20.3142 32.8247 21.5587 32.8247C22.8032 32.8247 23.8215 31.8062 23.8215 30.5614C23.8215 29.3165 22.8032 28.298 21.5587 28.298C20.3142 28.298 19.2959 29.2977 19.2959 30.5614Z" fill="#5C5C5C"/>
<path d="M51.6911 58.4383C51.6911 57.1934 50.6728 56.1749 49.4283 56.1749C48.1838 56.1749 47.1655 57.1934 47.1655 58.4383C47.1655 59.6831 48.1838 60.7016 49.4283 60.7016C50.6917 60.7016 51.6911 59.6831 51.6911 58.4383Z" fill="#5C5C5C"/>
<path d="M51.6911 67.7366C51.6911 67.1331 51.446 66.5483 51.0311 66.1334C50.6163 65.7184 50.0317 65.4732 49.4283 65.4732C48.8249 65.4732 48.2404 65.7184 47.8255 66.1334C47.4107 66.5483 47.1655 67.1331 47.1655 67.7366C47.1655 68.3402 47.4107 68.9249 47.8255 69.3398C48.2404 69.7548 48.8249 70 49.4283 70C50.0129 70 50.6163 69.7548 51.0311 69.3398C51.446 68.906 51.6911 68.3402 51.6911 67.7366Z" fill="#5C5C5C"/>
<path d="M42.414 67.7366C42.414 66.4918 41.3957 65.4732 40.1512 65.4732C38.9067 65.4732 37.8884 66.4918 37.8884 67.7366C37.8884 68.9815 38.9067 70 40.1512 70C41.3957 70 42.414 68.9815 42.414 67.7366Z" fill="#5C5C5C"/>
<path d="M33.1181 67.7366C33.1181 66.4918 32.0998 65.4732 30.8553 65.4732C29.6108 65.4732 28.5925 66.4918 28.5925 67.7366C28.5925 68.9815 29.6108 70 30.8553 70C32.0998 70 33.1181 68.9815 33.1181 67.7366Z" fill="#5C5C5C"/>
<path d="M23.8215 67.7366C23.8215 66.4918 22.8032 65.4732 21.5587 65.4732C20.3142 65.4732 19.2959 66.4918 19.2959 67.7366C19.2959 68.9815 20.3142 70 21.5587 70C22.8032 70 23.8215 68.9815 23.8215 67.7366Z" fill="#5C5C5C"/>
<path d="M42.414 58.4383C42.414 57.1934 41.3957 56.1749 40.1512 56.1749C38.9067 56.1749 37.8884 57.1934 37.8884 58.4383C37.8884 59.6831 38.9067 60.7016 40.1512 60.7016C41.3957 60.7016 42.414 59.6831 42.414 58.4383Z" fill="#5C5C5C"/>
<path d="M33.1181 58.4383C33.1181 57.1934 32.0998 56.1749 30.8553 56.1749C29.6108 56.1749 28.5925 57.1934 28.5925 58.4383C28.5925 59.6831 29.6108 60.7016 30.8553 60.7016C32.0998 60.7016 33.1181 59.6831 33.1181 58.4383Z" fill="#5C5C5C"/>
<path d="M23.8215 58.4383C23.8215 57.1934 22.8032 56.1749 21.5587 56.1749C20.3142 56.1749 19.2959 57.1934 19.2959 58.4383C19.2959 59.6831 20.3142 60.7016 21.5587 60.7016C22.8032 60.7016 23.8215 59.6831 23.8215 58.4383Z" fill="#5C5C5C"/>
<path d="M23.8215 49.139C23.8215 47.8942 22.8032 46.8756 21.5587 46.8756C20.3142 46.8756 19.2959 47.8942 19.2959 49.139C19.2959 50.3838 20.3142 51.4023 21.5587 51.4023C22.8032 51.4023 23.8215 50.3838 23.8215 49.139Z" fill="#5C5C5C"/>
<path d="M23.8215 39.8423C23.8215 38.5975 22.8032 37.579 21.5587 37.579C20.3142 37.579 19.2959 38.5975 19.2959 39.8423C19.2959 41.0871 20.3142 42.1057 21.5587 42.1057C22.8032 42.1057 23.8215 41.0871 23.8215 39.8423Z" fill="#5C5C5C"/>
</svg>