<svg width="876" height="504" viewBox="0 0 876 504" fill="none" xmlns="http://www.w3.org/2000/svg">
<path d="M129.551 242.222V259.022H126.983L117.719 247.646V259.022H114.623V242.222H117.191L126.455 253.598V242.222H129.551ZM137.173 244.838V249.95H145.285V252.59H137.173V259.022H134.053V242.222H146.317V244.838H137.173ZM152.859 244.862H147.291V242.222H161.547V244.862H155.979V259.022H152.859V244.862Z" fill="#595959"/>
<path d="M685.825 212.838V217.95H693.937V220.59H685.825V227.022H682.705V210.222H694.969V212.838H685.825ZM700.32 216.078C701.184 214.734 702.704 214.062 704.88 214.062V216.918C704.624 216.87 704.392 216.846 704.184 216.846C703.016 216.846 702.104 217.19 701.448 217.878C700.792 218.55 700.464 219.526 700.464 220.806V227.022H697.464V214.206H700.32V216.078ZM712.251 214.062C714.139 214.062 715.579 214.518 716.571 215.43C717.579 216.326 718.083 217.686 718.083 219.51V227.022H715.251V225.462C714.883 226.022 714.355 226.454 713.667 226.758C712.995 227.046 712.179 227.19 711.219 227.19C710.259 227.19 709.419 227.03 708.699 226.71C707.979 226.374 707.419 225.918 707.019 225.342C706.635 224.75 706.443 224.086 706.443 223.35C706.443 222.198 706.867 221.278 707.715 220.59C708.579 219.886 709.931 219.534 711.771 219.534H715.083V219.342C715.083 218.446 714.811 217.758 714.267 217.278C713.739 216.798 712.947 216.558 711.891 216.558C711.171 216.558 710.459 216.67 709.755 216.894C709.067 217.118 708.483 217.43 708.003 217.83L706.827 215.646C707.499 215.134 708.307 214.742 709.251 214.47C710.195 214.198 711.195 214.062 712.251 214.062ZM711.843 225.006C712.595 225.006 713.259 224.838 713.835 224.502C714.427 224.15 714.843 223.654 715.083 223.014V221.526H711.987C710.259 221.526 709.395 222.094 709.395 223.23C709.395 223.774 709.611 224.206 710.043 224.526C710.475 224.846 711.075 225.006 711.843 225.006ZM727.93 227.19C726.602 227.19 725.41 226.91 724.354 226.35C723.298 225.79 722.474 225.014 721.882 224.022C721.29 223.014 720.994 221.878 720.994 220.614C720.994 219.35 721.29 218.222 721.882 217.23C722.474 216.238 723.29 215.462 724.33 214.902C725.386 214.342 726.586 214.062 727.93 214.062C729.194 214.062 730.298 214.318 731.242 214.83C732.202 215.342 732.922 216.078 733.402 217.038L731.098 218.382C730.73 217.79 730.266 217.35 729.706 217.062C729.162 216.758 728.562 216.606 727.906 216.606C726.786 216.606 725.858 216.974 725.122 217.71C724.386 218.43 724.018 219.398 724.018 220.614C724.018 221.83 724.378 222.806 725.098 223.542C725.834 224.262 726.77 224.622 727.906 224.622C728.562 224.622 729.162 224.478 729.706 224.19C730.266 223.886 730.73 223.438 731.098 222.846L733.402 224.19C732.906 225.15 732.178 225.894 731.218 226.422C730.274 226.934 729.178 227.19 727.93 227.19ZM743.863 226.326C743.511 226.614 743.079 226.83 742.567 226.974C742.071 227.118 741.543 227.19 740.983 227.19C739.575 227.19 738.487 226.822 737.719 226.086C736.951 225.35 736.567 224.278 736.567 222.87V216.702H734.455V214.302H736.567V211.374H739.567V214.302H742.999V216.702H739.567V222.798C739.567 223.422 739.719 223.902 740.023 224.238C740.327 224.558 740.767 224.718 741.343 224.718C742.015 224.718 742.575 224.542 743.023 224.19L743.863 226.326ZM746.331 214.206H749.331V227.022H746.331V214.206ZM747.843 212.094C747.299 212.094 746.843 211.926 746.475 211.59C746.107 211.238 745.923 210.806 745.923 210.294C745.923 209.782 746.107 209.358 746.475 209.022C746.843 208.67 747.299 208.494 747.843 208.494C748.387 208.494 748.843 208.662 749.211 208.998C749.579 209.318 749.763 209.726 749.763 210.222C749.763 210.75 749.579 211.198 749.211 211.566C748.859 211.918 748.403 212.094 747.843 212.094ZM759.029 227.19C757.733 227.19 756.565 226.91 755.525 226.35C754.485 225.79 753.669 225.014 753.077 224.022C752.501 223.014 752.213 221.878 752.213 220.614C752.213 219.35 752.501 218.222 753.077 217.23C753.669 216.238 754.485 215.462 755.525 214.902C756.565 214.342 757.733 214.062 759.029 214.062C760.341 214.062 761.517 214.342 762.557 214.902C763.597 215.462 764.405 216.238 764.981 217.23C765.573 218.222 765.869 219.35 765.869 220.614C765.869 221.878 765.573 223.014 764.981 224.022C764.405 225.014 763.597 225.79 762.557 226.35C761.517 226.91 760.341 227.19 759.029 227.19ZM759.029 224.622C760.133 224.622 761.045 224.254 761.765 223.518C762.485 222.782 762.845 221.814 762.845 220.614C762.845 219.414 762.485 218.446 761.765 217.71C761.045 216.974 760.133 216.606 759.029 216.606C757.925 216.606 757.013 216.974 756.293 217.71C755.589 218.446 755.237 219.414 755.237 220.614C755.237 221.814 755.589 222.782 756.293 223.518C757.013 224.254 757.925 224.622 759.029 224.622ZM776.01 214.062C777.626 214.062 778.922 214.534 779.898 215.478C780.874 216.422 781.362 217.822 781.362 219.678V227.022H778.362V220.062C778.362 218.942 778.098 218.102 777.57 217.542C777.042 216.966 776.29 216.678 775.314 216.678C774.21 216.678 773.338 217.014 772.698 217.686C772.058 218.342 771.738 219.294 771.738 220.542V227.022H768.738V214.206H771.594V215.862C772.09 215.27 772.714 214.822 773.466 214.518C774.218 214.214 775.066 214.062 776.01 214.062ZM789.127 227.19C788.087 227.19 787.071 227.054 786.079 226.782C785.087 226.51 784.295 226.166 783.703 225.75L784.855 223.47C785.431 223.854 786.119 224.166 786.919 224.406C787.735 224.63 788.535 224.742 789.319 224.742C791.111 224.742 792.007 224.27 792.007 223.326C792.007 222.878 791.775 222.566 791.311 222.39C790.863 222.214 790.135 222.046 789.127 221.886C788.071 221.726 787.207 221.542 786.535 221.334C785.879 221.126 785.303 220.766 784.807 220.254C784.327 219.726 784.087 218.998 784.087 218.07C784.087 216.854 784.591 215.886 785.599 215.166C786.623 214.43 787.999 214.062 789.727 214.062C790.607 214.062 791.487 214.166 792.367 214.374C793.247 214.566 793.967 214.83 794.527 215.166L793.375 217.446C792.287 216.806 791.063 216.486 789.703 216.486C788.823 216.486 788.151 216.622 787.687 216.894C787.239 217.15 787.015 217.494 787.015 217.926C787.015 218.406 787.255 218.75 787.735 218.958C788.231 219.15 788.991 219.334 790.015 219.51C791.039 219.67 791.879 219.854 792.535 220.062C793.191 220.27 793.751 220.622 794.215 221.118C794.695 221.614 794.935 222.318 794.935 223.23C794.935 224.43 794.415 225.39 793.375 226.11C792.335 226.83 790.919 227.19 789.127 227.19ZM743.546 251.822H739.298V256.022H736.73V251.822H732.482V249.422H736.73V245.222H739.298V249.422H743.546V251.822ZM686.127 274.222H689.247V288.382H698.031V291.022H686.127V274.222ZM700.206 278.206H703.206V291.022H700.206V278.206ZM701.718 276.094C701.174 276.094 700.718 275.926 700.35 275.59C699.982 275.238 699.798 274.806 699.798 274.294C699.798 273.782 699.982 273.358 700.35 273.022C700.718 272.67 701.174 272.494 701.718 272.494C702.262 272.494 702.718 272.662 703.086 272.998C703.454 273.318 703.638 273.726 703.638 274.222C703.638 274.75 703.454 275.198 703.086 275.566C702.734 275.918 702.278 276.094 701.718 276.094ZM719.672 278.206V295.678H716.672V289.462C715.664 290.614 714.296 291.19 712.568 291.19C711.32 291.19 710.2 290.918 709.208 290.374C708.232 289.83 707.464 289.062 706.904 288.07C706.36 287.078 706.088 285.926 706.088 284.614C706.088 283.318 706.368 282.174 706.928 281.182C707.488 280.19 708.256 279.422 709.232 278.878C710.208 278.334 711.32 278.062 712.568 278.062C713.448 278.062 714.248 278.214 714.968 278.518C715.704 278.822 716.32 279.278 716.816 279.886V278.206H719.672ZM712.904 288.622C714.008 288.622 714.92 288.254 715.64 287.518C716.36 286.782 716.72 285.814 716.72 284.614C716.72 283.414 716.36 282.446 715.64 281.71C714.92 280.974 714.008 280.606 712.904 280.606C711.8 280.606 710.888 280.974 710.168 281.71C709.464 282.446 709.112 283.414 709.112 284.614C709.112 285.814 709.464 286.782 710.168 287.518C710.888 288.254 711.8 288.622 712.904 288.622ZM736.005 278.206V291.022H733.149V289.39C732.669 289.966 732.069 290.414 731.349 290.734C730.629 291.038 729.853 291.19 729.021 291.19C727.309 291.19 725.957 290.718 724.965 289.774C723.989 288.814 723.501 287.398 723.501 285.526V278.206H726.501V285.118C726.501 286.27 726.757 287.134 727.269 287.71C727.797 288.27 728.541 288.55 729.501 288.55C730.573 288.55 731.421 288.222 732.045 287.566C732.685 286.894 733.005 285.934 733.005 284.686V278.206H736.005ZM739.933 278.206H742.933V291.022H739.933V278.206ZM741.445 276.094C740.901 276.094 740.445 275.926 740.077 275.59C739.709 275.238 739.525 274.806 739.525 274.294C739.525 273.782 739.709 273.358 740.077 273.022C740.445 272.67 740.901 272.494 741.445 272.494C741.989 272.494 742.445 272.662 742.813 272.998C743.181 273.318 743.365 273.726 743.365 274.222C743.365 274.75 743.181 275.198 742.813 275.566C742.461 275.918 742.005 276.094 741.445 276.094ZM759.422 273.214V291.022H756.542V289.366C756.046 289.974 755.43 290.43 754.694 290.734C753.974 291.038 753.174 291.19 752.294 291.19C751.062 291.19 749.95 290.918 748.958 290.374C747.982 289.83 747.214 289.062 746.654 288.07C746.094 287.062 745.814 285.91 745.814 284.614C745.814 283.318 746.094 282.174 746.654 281.182C747.214 280.19 747.982 279.422 748.958 278.878C749.95 278.334 751.062 278.062 752.294 278.062C753.142 278.062 753.918 278.206 754.622 278.494C755.326 278.782 755.926 279.214 756.422 279.79V273.214H759.422ZM752.654 288.622C753.374 288.622 754.022 288.462 754.598 288.142C755.174 287.806 755.63 287.334 755.966 286.726C756.302 286.118 756.47 285.414 756.47 284.614C756.47 283.814 756.302 283.11 755.966 282.502C755.63 281.894 755.174 281.43 754.598 281.11C754.022 280.774 753.374 280.606 752.654 280.606C751.934 280.606 751.286 280.774 750.71 281.11C750.134 281.43 749.678 281.894 749.342 282.502C749.006 283.11 748.838 283.814 748.838 284.614C748.838 285.414 749.006 286.118 749.342 286.726C749.678 287.334 750.134 287.806 750.71 288.142C751.286 288.462 751.934 288.622 752.654 288.622ZM763.347 278.206H766.347V291.022H763.347V278.206ZM764.859 276.094C764.315 276.094 763.859 275.926 763.491 275.59C763.123 275.238 762.939 274.806 762.939 274.294C762.939 273.782 763.123 273.358 763.491 273.022C763.859 272.67 764.315 272.494 764.859 272.494C765.403 272.494 765.859 272.662 766.227 272.998C766.595 273.318 766.779 273.726 766.779 274.222C766.779 274.75 766.595 275.198 766.227 275.566C765.875 275.918 765.419 276.094 764.859 276.094ZM777.988 290.326C777.636 290.614 777.204 290.83 776.692 290.974C776.196 291.118 775.668 291.19 775.108 291.19C773.7 291.19 772.612 290.822 771.844 290.086C771.076 289.35 770.692 288.278 770.692 286.87V280.702H768.58V278.302H770.692V275.374H773.692V278.302H777.124V280.702H773.692V286.798C773.692 287.422 773.844 287.902 774.148 288.238C774.452 288.558 774.892 288.718 775.468 288.718C776.14 288.718 776.7 288.542 777.148 288.19L777.988 290.326ZM792.222 278.206L786.222 292.054C785.662 293.446 784.982 294.422 784.182 294.982C783.382 295.558 782.414 295.846 781.278 295.846C780.638 295.846 780.006 295.742 779.382 295.534C778.758 295.326 778.246 295.038 777.846 294.67L779.046 292.462C779.334 292.734 779.67 292.95 780.054 293.11C780.454 293.27 780.854 293.35 781.254 293.35C781.782 293.35 782.214 293.214 782.55 292.942C782.902 292.67 783.222 292.214 783.51 291.574L783.726 291.07L778.134 278.206H781.254L785.286 287.686L789.342 278.206H792.222Z" fill="#595959"/>
<circle cx="738.183" cy="251.329" r="99.3897" transform="rotate(119.999 738.183 251.329)" stroke="#FE7688" stroke-width="3" stroke-dasharray="2 5"/>
<circle cx="137.817" cy="251.328" r="99.3897" transform="rotate(119.999 137.817 251.328)" stroke="#FE7688" stroke-width="3" stroke-dasharray="2 5"/>
<circle cx="438.143" cy="251.614" r="175.139" transform="rotate(74.9991 438.143 251.614)" stroke="#FE7688" stroke-dasharray="2 2"/>
<circle cx="438.135" cy="76.8689" r="53.8546" transform="rotate(134.999 438.135 76.8689)" fill="white" stroke="#FE7688"/>
<circle cx="589.479" cy="164.242" r="53.8546" transform="rotate(-165.001 589.479 164.242)" fill="white" stroke="#FE7688"/>
<circle cx="589.486" cy="338.997" r="53.8546" transform="rotate(-105.001 589.486 338.997)" fill="white" stroke="#FE7688"/>
<g clip-path="url(#clip0)">
<circle cx="589.5" cy="338.522" r="35" stroke="#FE7688" stroke-width="3"/>
<ellipse cx="589.5" cy="322.984" rx="15.0984" ry="5.13052" fill="#FE7688"/>
<path fill-rule="evenodd" clip-rule="evenodd" d="M581.703 328.919C574.319 329.932 569.124 332.341 569.124 335.151C569.124 338.875 578.247 341.894 589.5 341.894C600.753 341.894 609.875 338.875 609.875 335.151C609.875 332.341 604.681 329.932 597.296 328.919C594.937 329.343 592.292 329.581 589.5 329.581C586.707 329.581 584.063 329.343 581.703 328.919Z" fill="#FE7688"/>
<path fill-rule="evenodd" clip-rule="evenodd" d="M577.845 342.843C569.703 344.258 564.14 347.109 564.14 350.396C564.14 355.091 575.494 358.898 589.5 358.898C603.505 358.898 614.859 355.091 614.859 350.396C614.859 347.109 609.296 344.258 601.154 342.843C597.808 343.54 593.803 343.946 589.5 343.946C585.196 343.946 581.191 343.54 577.845 342.843Z" fill="#FE7688"/>
</g>
<circle cx="438.148" cy="426.379" r="53.8546" transform="rotate(-45.0009 438.148 426.379)" fill="white" stroke="#FE7688"/>
<circle cx="286.803" cy="339.004" r="53.8546" transform="rotate(14.9991 286.803 339.004)" fill="white" stroke="#FE7688"/>
<circle cx="286.799" cy="164.251" r="53.8546" transform="rotate(74.9991 286.799 164.251)" fill="white" stroke="#FE7688"/>
<circle cx="438.139" cy="251.624" r="109.087" transform="rotate(134.999 438.139 251.624)" fill="white" stroke="#FE7688" stroke-width="2"/>
<path d="M507.376 276.924V224.422C512.596 223.06 516.461 218.305 516.461 212.663C516.461 205.963 511.01 200.512 504.31 200.512C500.826 200.512 497.681 201.989 495.463 204.347L467.401 188.326C466.144 187.608 464.544 188.046 463.827 189.302C463.109 190.559 463.547 192.16 464.803 192.877L492.776 208.847C492.378 210.048 492.159 211.33 492.159 212.663C492.159 214.021 492.386 215.326 492.799 216.547L446.67 243.179C444.439 240.496 441.078 238.784 437.324 238.784C433.825 238.784 430.668 240.273 428.449 242.648L415.604 235.299C414.349 234.581 412.747 235.015 412.029 236.271C411.311 237.527 411.746 239.128 413.002 239.846L425.778 247.156C425.388 248.346 425.173 249.615 425.173 250.934C425.173 256.735 429.26 261.596 434.704 262.798V315.337C432.034 315.926 429.691 317.395 427.996 319.425L382.577 293.203C383.14 291.805 383.453 290.28 383.453 288.682C383.453 282.882 379.366 278.02 373.922 276.819V224.527C376.327 223.996 378.467 222.751 380.106 221.025L403.596 234.465C404.007 234.7 404.454 234.811 404.895 234.811C405.804 234.811 406.688 234.338 407.172 233.492C407.89 232.236 407.455 230.635 406.199 229.917L382.816 216.538C383.227 215.32 383.453 214.018 383.453 212.663C383.453 211.389 383.255 210.16 382.889 209.005L429.239 182.244C431.466 184.728 434.696 186.296 438.287 186.296C441.666 186.296 444.726 184.908 446.931 182.674L456.495 188.134C456.905 188.368 457.351 188.479 457.792 188.479C458.701 188.479 459.586 188.004 460.07 187.157C460.787 185.901 460.35 184.3 459.093 183.583L449.727 178.236C450.186 176.957 450.438 175.58 450.438 174.145C450.438 167.444 444.987 161.993 438.287 161.993C431.587 161.993 426.136 167.444 426.136 174.144C426.136 175.374 426.321 176.561 426.663 177.681L380.265 204.469C378.041 202.039 374.847 200.512 371.302 200.512C364.602 200.512 359.151 205.963 359.151 212.663C359.151 218.464 363.238 223.325 368.682 224.527V276.818C363.238 278.02 359.151 282.881 359.151 288.682C359.151 295.382 364.602 300.833 371.302 300.833C374.512 300.833 377.433 299.579 379.608 297.538L425.582 324.081C425.317 325.077 425.174 326.123 425.174 327.201C425.174 333.901 430.625 339.352 437.325 339.352C444.024 339.352 449.476 333.901 449.476 327.201C449.476 326.378 449.392 325.575 449.236 324.798L496.174 297.698C498.329 299.645 501.183 300.833 504.31 300.833C511.01 300.833 516.461 295.382 516.461 288.682C516.461 283.041 512.596 278.286 507.376 276.924ZM438.287 167.232C442.098 167.232 445.198 170.333 445.198 174.144C445.198 177.955 442.098 181.055 438.287 181.055C434.476 181.055 431.376 177.955 431.376 174.144C431.376 170.333 434.476 167.232 438.287 167.232ZM364.39 212.663C364.39 208.853 367.491 205.752 371.301 205.752C375.112 205.752 378.213 208.853 378.213 212.663C378.213 216.474 375.112 219.575 371.301 219.575C367.491 219.575 364.39 216.474 364.39 212.663ZM371.301 295.594C367.491 295.594 364.39 292.493 364.39 288.682C364.39 284.872 367.491 281.771 371.301 281.771C375.112 281.771 378.213 284.872 378.213 288.682C378.213 292.493 375.113 295.594 371.301 295.594ZM504.31 205.752C508.121 205.752 511.221 208.853 511.221 212.663C511.221 216.474 508.121 219.575 504.31 219.575C500.499 219.575 497.399 216.474 497.399 212.663C497.399 208.853 500.499 205.752 504.31 205.752ZM430.413 250.935C430.413 247.124 433.513 244.024 437.324 244.024C441.135 244.024 444.235 247.124 444.235 250.935C444.235 254.746 441.135 257.846 437.324 257.846C433.513 257.846 430.413 254.746 430.413 250.935ZM437.324 334.113C433.513 334.113 430.413 331.013 430.413 327.202C430.413 323.391 433.513 320.291 437.324 320.291C441.135 320.291 444.235 323.391 444.235 327.202C444.235 331.013 441.135 334.113 437.324 334.113ZM492.158 288.682C492.158 290.359 492.5 291.958 493.117 293.413L447.093 319.985C445.376 317.667 442.854 315.98 439.944 315.338V262.799C445.388 261.597 449.475 256.736 449.475 250.935C449.475 249.866 449.335 248.829 449.074 247.841L495.511 221.031C497.251 222.859 499.551 224.147 502.135 224.616V276.73C496.47 277.758 492.158 282.725 492.158 288.682ZM504.31 295.594C500.499 295.594 497.399 292.493 497.399 288.682C497.399 284.872 500.499 281.771 504.31 281.771C508.121 281.771 511.221 284.872 511.221 288.682C511.221 292.493 508.121 295.594 504.31 295.594Z" fill="#FE7688"/>
<path d="M368.236 224.421L368.236 276.923C363.015 278.285 359.151 283.04 359.151 288.681C359.151 295.382 364.602 300.832 371.302 300.832C374.786 300.832 377.931 299.356 380.149 296.998L408.211 313.019C409.468 313.736 411.068 313.299 411.785 312.042C412.502 310.786 412.065 309.185 410.808 308.468L382.835 292.498C383.234 291.297 383.453 290.015 383.453 288.682C383.453 287.324 383.226 286.019 382.813 284.798L428.942 258.166C431.173 260.849 434.534 262.56 438.288 262.56C441.787 262.56 444.943 261.072 447.163 258.697L460.008 266.046C461.263 266.764 462.864 266.329 463.583 265.073C464.301 263.818 463.866 262.216 462.61 261.498L449.834 254.189C450.224 252.999 450.438 251.729 450.438 250.41C450.438 244.61 446.352 239.749 440.907 238.547L440.907 186.008C443.578 185.418 445.921 183.95 447.616 181.92L493.035 208.142C492.472 209.54 492.159 211.065 492.159 212.662C492.159 218.463 496.246 223.324 501.69 224.526L501.69 276.818C499.284 277.349 497.145 278.594 495.506 280.32L472.016 266.88C471.605 266.645 471.158 266.534 470.717 266.534C469.808 266.534 468.924 267.007 468.44 267.853C467.722 269.109 468.157 270.71 469.413 271.428L492.796 284.807C492.385 286.024 492.159 287.327 492.159 288.681C492.159 289.956 492.357 291.185 492.723 292.34L446.373 319.101C444.146 316.616 440.915 315.049 437.325 315.049C433.946 315.049 430.886 316.437 428.681 318.671L419.117 313.211C418.707 312.977 418.26 312.866 417.82 312.866C416.91 312.866 416.026 313.34 415.542 314.187C414.825 315.444 415.262 317.044 416.519 317.762L425.884 323.108C425.425 324.388 425.174 325.765 425.174 327.2C425.174 333.901 430.625 339.352 437.325 339.352C444.025 339.352 449.476 333.901 449.476 327.201C449.476 325.971 449.291 324.784 448.949 323.664L495.347 296.876C497.571 299.306 500.765 300.833 504.31 300.833C511.01 300.833 516.461 295.382 516.461 288.682C516.461 282.881 512.374 278.02 506.93 276.818L506.93 224.527C512.374 223.325 516.461 218.464 516.461 212.663C516.461 205.963 511.01 200.512 504.31 200.512C501.1 200.512 498.179 201.766 496.004 203.806L450.03 177.264C450.295 176.267 450.438 175.222 450.438 174.144C450.438 167.443 444.987 161.993 438.287 161.993C431.587 161.993 426.136 167.444 426.136 174.144C426.136 174.967 426.219 175.77 426.376 176.547L379.438 203.647C377.282 201.699 374.428 200.512 371.302 200.512C364.602 200.512 359.151 205.963 359.151 212.663C359.151 218.304 363.016 223.059 368.236 224.421ZM437.325 334.112C433.514 334.112 430.414 331.012 430.414 327.201C430.414 323.39 433.514 320.29 437.325 320.29C441.136 320.29 444.236 323.39 444.236 327.201C444.236 331.012 441.136 334.112 437.325 334.112ZM511.222 288.681C511.222 292.492 508.121 295.592 504.31 295.592C500.5 295.592 497.399 292.492 497.399 288.681C497.399 284.87 500.5 281.77 504.31 281.77C508.121 281.77 511.222 284.87 511.222 288.681ZM504.31 205.751C508.121 205.751 511.222 208.851 511.222 212.662C511.222 216.473 508.121 219.574 504.31 219.574C500.5 219.574 497.399 216.473 497.399 212.662C497.399 208.851 500.499 205.751 504.31 205.751ZM371.302 295.592C367.491 295.592 364.391 292.492 364.391 288.681C364.391 284.87 367.491 281.77 371.302 281.77C375.113 281.77 378.213 284.87 378.213 288.681C378.213 292.492 375.113 295.592 371.302 295.592ZM445.199 250.41C445.199 254.22 442.098 257.321 438.288 257.321C434.477 257.321 431.376 254.22 431.376 250.41C431.376 246.599 434.477 243.498 438.288 243.498C442.098 243.498 445.199 246.598 445.199 250.41ZM438.288 167.231C442.098 167.231 445.199 170.332 445.199 174.143C445.199 177.954 442.098 181.054 438.288 181.054C434.477 181.054 431.376 177.954 431.376 174.143C431.376 170.332 434.476 167.231 438.288 167.231ZM383.453 212.662C383.453 210.985 383.112 209.387 382.495 207.932L428.519 181.36C430.236 183.678 432.758 185.364 435.668 186.007L435.668 238.546C430.224 239.748 426.137 244.609 426.137 250.41C426.137 251.479 426.277 252.515 426.537 253.504L380.101 280.314C378.361 278.486 376.06 277.198 373.477 276.729L373.477 224.615C379.142 223.587 383.453 218.62 383.453 212.662ZM371.302 205.751C375.113 205.751 378.213 208.851 378.213 212.662C378.213 216.473 375.113 219.574 371.302 219.574C367.491 219.574 364.391 216.473 364.391 212.662C364.391 208.851 367.491 205.751 371.302 205.751Z" fill="#FE7688"/>
<circle cx="438.138" cy="251.624" r="99.3897" transform="rotate(119.999 438.138 251.624)" stroke="#FE7688" stroke-width="3" stroke-dasharray="2 5"/>
<path d="M667.061 253.083C667.646 252.497 667.646 251.547 667.061 250.962L657.515 241.416C656.929 240.83 655.979 240.83 655.393 241.416C654.808 242.001 654.808 242.951 655.393 243.537L663.879 252.022L655.393 260.507C654.808 261.093 654.808 262.043 655.393 262.629C655.979 263.215 656.929 263.215 657.515 262.629L667.061 253.083ZM548 253.522H666V250.522H548V253.522Z" fill="#FE7688"/>
<path d="M320.061 253.083C320.646 252.497 320.646 251.547 320.061 250.962L310.515 241.416C309.929 240.83 308.979 240.83 308.393 241.416C307.808 242.001 307.808 242.951 308.393 243.537L316.879 252.022L308.393 260.507C307.808 261.093 307.808 262.043 308.393 262.629C308.979 263.215 309.929 263.215 310.515 262.629L320.061 253.083ZM201 253.522H319V250.522H201V253.522Z" fill="#FE7688"/>
<path d="M314.125 352.286C312.932 352.286 311.787 351.805 310.943 350.949C310.099 350.094 309.625 348.933 309.625 347.723C309.625 347.421 309.506 347.131 309.295 346.917C309.085 346.703 308.798 346.583 308.5 346.583C308.202 346.583 307.915 346.703 307.705 346.917C307.494 347.131 307.375 347.421 307.375 347.723C307.375 348.933 306.901 350.094 306.057 350.949C305.213 351.805 304.068 352.286 302.875 352.286C302.577 352.286 302.29 352.406 302.08 352.62C301.869 352.834 301.75 353.124 301.75 353.426C301.75 353.729 301.869 354.019 302.08 354.233C302.29 354.447 302.577 354.567 302.875 354.567C304.068 354.567 305.213 355.048 306.057 355.903C306.901 356.759 307.375 357.919 307.375 359.129C307.375 359.432 307.494 359.722 307.705 359.936C307.915 360.15 308.202 360.27 308.5 360.27C308.798 360.27 309.085 360.15 309.295 359.936C309.506 359.722 309.625 359.432 309.625 359.129C309.625 357.919 310.099 356.759 310.943 355.903C311.787 355.048 312.932 354.567 314.125 354.567C314.423 354.567 314.71 354.447 314.92 354.233C315.131 354.019 315.25 353.729 315.25 353.426C315.25 353.124 315.131 352.834 314.92 352.62C314.71 352.406 314.423 352.286 314.125 352.286ZM308.5 355.354C307.999 354.589 307.353 353.934 306.599 353.426C307.353 352.918 307.999 352.263 308.5 351.499C309.001 352.263 309.647 352.918 310.401 353.426C309.647 353.934 309.001 354.589 308.5 355.354Z" fill="#FE7688"/>
<path d="M266.875 343.161C265.682 343.161 264.537 342.68 263.693 341.824C262.849 340.969 262.375 339.808 262.375 338.598C262.375 338.296 262.256 338.006 262.045 337.792C261.835 337.578 261.548 337.458 261.25 337.458C260.952 337.458 260.665 337.578 260.455 337.792C260.244 338.006 260.125 338.296 260.125 338.598C260.125 339.808 259.651 340.969 258.807 341.824C257.963 342.68 256.818 343.161 255.625 343.161C255.327 343.161 255.04 343.281 254.83 343.495C254.619 343.709 254.5 343.999 254.5 344.301C254.5 344.604 254.619 344.894 254.83 345.108C255.04 345.322 255.327 345.442 255.625 345.442C256.818 345.442 257.963 345.923 258.807 346.778C259.651 347.634 260.125 348.794 260.125 350.004C260.125 350.307 260.244 350.597 260.455 350.811C260.665 351.025 260.952 351.145 261.25 351.145C261.548 351.145 261.835 351.025 262.045 350.811C262.256 350.597 262.375 350.307 262.375 350.004C262.375 348.794 262.849 347.634 263.693 346.778C264.537 345.923 265.682 345.442 266.875 345.442C267.173 345.442 267.46 345.322 267.67 345.108C267.881 344.894 268 344.604 268 344.301C268 343.999 267.881 343.709 267.67 343.495C267.46 343.281 267.173 343.161 266.875 343.161ZM261.25 346.229C260.749 345.464 260.103 344.809 259.349 344.301C260.103 343.793 260.749 343.138 261.25 342.374C261.751 343.138 262.397 343.793 263.151 344.301C262.397 344.809 261.751 345.464 261.25 346.229Z" fill="#FE7688"/>
<path d="M314.125 328.333C314.125 314.496 301.508 303.239 286 303.239C270.492 303.239 257.875 314.496 257.875 328.333C257.876 328.496 257.912 328.656 257.981 328.804C258.05 328.951 258.15 329.081 258.273 329.186L258.265 329.196L280.726 348.864H274.75V371.676H297.25V348.864H291.274L313.735 329.196L313.727 329.186C313.85 329.081 313.95 328.951 314.019 328.804C314.088 328.656 314.124 328.496 314.125 328.333ZM311.483 324.367C309.972 323.226 308.134 322.616 306.25 322.629C304.07 322.609 301.965 323.438 300.371 324.946C298.901 317.493 295.043 310.74 289.397 305.739C300.581 307.04 309.543 314.645 311.483 324.367ZM284.875 346.095L273.779 328.46C274.202 327.357 274.96 326.418 275.943 325.78C276.927 325.142 278.085 324.838 279.25 324.911C281.935 324.911 284.257 326.463 284.771 328.603C284.797 328.688 284.831 328.769 284.875 328.846V346.095ZM287.125 328.846C287.169 328.769 287.203 328.688 287.228 328.603C287.743 326.463 290.065 324.911 292.75 324.911C293.915 324.838 295.073 325.142 296.057 325.78C297.04 326.418 297.798 327.357 298.221 328.46L287.125 346.095V328.846ZM292.75 322.629C290.69 322.612 288.693 323.348 287.125 324.702V306.759C292.486 311.293 296.267 317.453 297.913 324.331C296.416 323.217 294.606 322.62 292.75 322.629ZM284.875 324.702C283.307 323.348 281.31 322.612 279.25 322.629C277.393 322.621 275.583 323.218 274.086 324.331C275.732 317.453 279.514 311.293 284.875 306.759V324.702ZM271.271 328.603C271.301 328.724 271.351 328.84 271.418 328.945V328.952L283.678 348.435L260.419 328.068C260.909 327.074 261.674 326.245 262.621 325.685C263.568 325.124 264.655 324.855 265.75 324.911C268.435 324.911 270.757 326.463 271.271 328.603ZM300.578 328.955V328.948C300.644 328.843 300.694 328.728 300.724 328.606C301.243 326.463 303.565 324.911 306.25 324.911C307.345 324.855 308.432 325.124 309.379 325.685C310.326 326.245 311.091 327.074 311.581 328.068L288.322 348.435L300.578 328.955ZM282.605 305.739C276.974 310.756 273.122 317.508 271.642 324.959C270.047 323.442 267.936 322.608 265.75 322.629C263.866 322.616 262.028 323.226 260.516 324.367C262.457 314.645 271.421 307.039 282.605 305.739ZM295 369.395H277V357.989H295V369.395ZM295 355.708H277V351.145H295V355.708Z" fill="#FE7688"/>
<path d="M282.625 364.833H284.875V367.114H287.125V364.833H289.375V362.551H287.125V360.27H284.875V362.551H282.625V364.833Z" fill="#FE7688"/>
<path d="M308.805 176.172L298.796 181.789C298.535 179.223 297.766 176.67 296.728 174.251L305.563 167.655C307.88 172.888 308.804 176.168 308.805 176.172Z" fill="#FE7688"/>
<path d="M303.871 164.024L295.126 171.058C293.136 167.331 290.69 164.112 288.876 161.953L297.88 153.277C300.342 157.196 302.316 160.844 303.871 164.024Z" fill="#FE7688"/>
<path d="M286.278 171.756C285.908 172.24 285.525 172.761 285.141 173.314C283.212 176.09 281.887 178.737 281.23 181.105C283.085 182.369 284.64 183.489 285.902 184.445L286.278 184.68L286.654 184.445C287.915 183.489 289.47 182.369 291.326 181.105C290.669 178.737 289.344 176.09 287.415 173.314C287.031 172.762 286.649 172.24 286.278 171.756ZM286.271 164.746C286.271 164.746 286.273 164.748 286.278 164.753C286.283 164.748 286.285 164.746 286.285 164.746C286.285 164.746 286.285 164.751 286.285 164.76C286.673 165.144 295.686 174.158 296.373 183.233C289.648 187.637 286.841 190.117 286.285 190.698C286.285 190.703 286.285 190.708 286.285 190.713C286.283 190.711 286.28 190.708 286.278 190.706C286.276 190.708 286.273 190.711 286.271 190.713C286.271 190.708 286.271 190.703 286.271 190.698C285.715 190.118 282.909 187.637 276.182 183.233C276.868 174.158 285.883 165.144 286.271 164.76C286.271 164.751 286.271 164.746 286.271 164.746Z" fill="#FE7688"/>
<path d="M263.789 176.172L273.798 181.789C274.058 179.223 274.827 176.67 275.866 174.251L267.032 167.656C264.714 172.888 263.79 176.168 263.789 176.172Z" fill="#FE7688"/>
<path d="M268.724 164.024L277.469 171.058C279.459 167.331 281.905 164.112 283.718 161.953L274.715 153.277C272.252 157.196 270.278 160.844 268.724 164.024Z" fill="#FE7688"/>
<path d="M277.246 149.415C279.794 145.686 282.771 141.782 286.23 137.854L286.289 137.788L286.304 137.788L286.363 137.854C289.822 141.782 292.798 145.686 295.347 149.415C295.078 149.744 294.802 150.035 294.523 150.296L286.304 159.088L286.289 159.088L278.07 150.296C277.791 150.035 277.516 149.744 277.246 149.415Z" fill="#FE7688"/>
<circle cx="286.297" cy="164.25" r="35" stroke="#FE7688" stroke-width="3"/>
<path d="M469.906 81.6166C469.881 80.98 469.438 80.4375 468.819 80.286C468.201 80.1357 467.556 80.413 467.242 80.9666C466.45 82.3579 463.198 83.1282 460.298 83.381C463.385 75.2941 462.176 69.2651 460.515 65.528C458.54 61.0813 455.537 58.8462 455.41 58.7532C454.953 58.4185 454.342 58.3856 453.851 58.6702C453.361 58.9543 453.087 59.5017 453.15 60.0643C453.463 62.8178 451.358 64.1874 450.438 64.648C448.368 65.6856 445.077 65.8025 442.744 63.6081C438.952 60.0403 439.281 52.1311 443.647 41.9071C443.854 41.4231 443.777 40.8651 443.448 40.4546C443.118 40.0447 442.59 39.8492 442.072 39.9461C438.654 40.5877 434.995 41.8965 432.751 43.2817C432.081 43.6955 431.873 44.5738 432.287 45.2438C432.7 45.9138 433.579 46.1221 434.249 45.7083C435.642 44.8484 437.767 43.9923 439.985 43.3658C434.779 57.1286 438.177 63.2266 440.79 65.685C444.138 68.834 448.689 68.7137 451.716 67.1977C453.651 66.2275 455.001 64.7404 455.631 62.9716C456.374 63.8816 457.213 65.118 457.909 66.6859C460.184 71.8054 459.816 77.7347 456.818 84.3089C456.617 84.7489 456.653 85.2602 456.913 85.6679C457.174 86.075 457.622 86.3234 458.106 86.3262C458.197 86.3267 460.383 86.3362 462.834 85.9235C464.514 85.6411 465.916 85.2273 467.033 84.6865C466.351 97.023 458.319 103.323 453.346 106.06C451.272 107.202 449.068 108.097 446.798 108.748C447.309 108.361 447.796 107.958 448.257 107.537C450.538 105.459 452.229 102.97 453.282 100.14C453.557 99.4017 453.181 98.5808 452.443 98.3062C451.705 98.0316 450.885 98.407 450.61 99.145C450.386 99.7481 450.127 100.331 449.838 100.893C450.624 97.2296 449.62 93.8612 446.932 91.1488C446.65 90.8648 446.261 90.7105 445.861 90.7283C445.462 90.7445 445.087 90.9277 444.829 91.234C442.866 93.5638 440.203 94.2143 438.046 92.8921C436.047 91.6662 434.459 88.466 436.564 83.4802C436.801 82.9182 436.655 82.2677 436.2 81.8617C435.744 81.4556 435.082 81.3843 434.55 81.6834C430.318 84.0711 427.378 87.1254 425.81 90.7617C424.442 93.9364 424.199 97.4463 425.109 100.911C425.578 102.698 426.343 104.415 427.346 105.97C426.061 104.855 424.943 103.538 424.051 102.051C421.145 97.2084 421.063 91.4596 423.825 86.2794C424.438 85.1298 425.199 83.8466 426.004 82.4882C428.742 77.8666 431.782 72.7366 432.005 68.2587C433.249 68.9493 434.861 69.9863 436.371 71.3854C440.276 75.0034 441.719 79.2835 440.659 84.1067C440.55 84.6041 440.714 85.1215 441.089 85.4651C441.465 85.8082 441.994 85.9257 442.48 85.7726C442.654 85.718 446.175 84.5779 448.85 81.4662C450.154 83.9474 451.071 86.7656 451.475 89.591C451.587 90.3708 452.31 90.9116 453.089 90.8002C453.868 90.6888 454.409 89.9659 454.298 89.1867C453.732 85.2334 452.262 81.2863 450.16 78.0722C449.889 77.6572 449.423 77.4127 448.927 77.4272C448.432 77.4411 447.979 77.7107 447.732 78.1396C446.672 79.9742 445.104 81.2156 443.821 81.992C444.084 77.2223 442.185 72.853 438.24 69.2295C434.799 66.0699 431.028 64.6068 430.869 64.5461C430.369 64.3545 429.803 64.4597 429.405 64.8184C429.008 65.1776 428.844 65.729 428.983 66.2464C430.02 70.1167 426.433 76.1702 423.55 81.034C422.728 82.4214 421.952 83.7313 421.309 84.9371C418.063 91.0229 418.171 97.7955 421.606 103.518C422.447 104.921 423.46 106.194 424.608 107.319C423.302 106.714 422.055 106.01 420.885 105.205C413.035 99.7994 409.291 90.5468 410.188 78.951C412.422 81.0775 415.804 83.9419 418.189 84.3535C418.632 84.4292 419.085 84.2922 419.412 83.9825C419.739 83.6729 419.9 83.2273 419.847 82.7806C419.824 82.5935 417.741 63.9429 426.95 52.033C427.432 51.4098 427.318 50.5148 426.694 50.033C426.071 49.5513 425.176 49.666 424.694 50.2887C419.492 57.0177 417.682 65.5937 417.081 71.6032C416.702 75.3955 416.736 78.6313 416.835 80.6987C414.684 79.3353 411.829 76.6625 410.133 74.8563C409.757 74.4559 409.185 74.3066 408.662 74.4731C408.138 74.6397 407.757 75.0914 407.681 75.6349C405.72 89.7219 409.834 101.058 419.268 107.553C424.175 110.932 430.216 112.785 436.74 112.914C436.973 112.919 437.206 112.922 437.44 112.922C437.697 112.922 437.954 112.918 438.212 112.912C438.329 112.916 438.447 112.922 438.564 112.922C438.658 112.922 438.752 112.911 438.845 112.893C444.42 112.674 449.987 111.163 454.721 108.558C459.43 105.966 463.294 102.317 465.895 98.0054C468.791 93.2062 470.14 87.6918 469.906 81.6166ZM432.842 86.2627C432.652 87.6551 432.701 88.9912 432.992 90.2282C433.509 92.4214 434.775 94.231 436.557 95.3237C438.13 96.2878 440.007 96.6231 441.842 96.2672C443.285 95.9876 444.647 95.3014 445.846 94.2588C447.135 96.0461 447.537 98.0862 447.041 100.341C446.252 103.935 443.082 107.69 439.393 109.573C438.967 109.738 438.532 109.895 438.085 110.044C438.051 110.044 438.018 110.045 437.984 110.046C433.629 109.698 429.261 105.494 427.868 100.188C427.177 97.5554 426.485 91.4106 432.842 86.2627Z" fill="#FE7688"/>
<path d="M451.696 93.4608L451.695 93.4892C451.668 94.2761 452.283 94.9361 453.07 94.9634C453.087 94.964 453.103 94.9645 453.121 94.9645C453.885 94.9645 454.518 94.358 454.544 93.5883L454.546 93.5443C454.569 92.7573 453.95 92.1001 453.163 92.0773C452.373 92.0539 451.719 92.6738 451.696 93.4608Z" fill="#FE7688"/>
<path d="M430.152 48.0491C430.152 48.8366 429.514 49.4749 428.726 49.4749C427.939 49.4749 427.301 48.8366 427.301 48.0491C427.301 47.2616 427.939 46.6233 428.726 46.6233C429.514 46.6233 430.152 47.2616 430.152 48.0491Z" fill="#FE7688"/>
<path d="M625.785 128.174C625.52 127.909 625.152 127.756 624.777 127.756C624.402 127.756 624.035 127.909 623.769 128.174C623.504 128.439 623.352 128.807 623.352 129.182C623.352 129.557 623.504 129.925 623.769 130.19C624.035 130.456 624.402 130.608 624.777 130.608C625.152 130.608 625.52 130.456 625.785 130.19C626.052 129.925 626.203 129.557 626.203 129.182C626.203 128.807 626.052 128.439 625.785 128.174Z" fill="#FE7688"/>
<path d="M608.802 151.275H603.518C604.15 150.302 604.52 149.144 604.52 147.899C604.52 144.477 601.735 141.693 598.313 141.693C596.044 141.693 594.056 142.918 592.974 144.74C592.075 144.023 590.937 143.593 589.701 143.593C588.464 143.593 587.327 144.023 586.428 144.74C585.346 142.918 583.358 141.693 581.089 141.693C577.666 141.693 574.882 144.477 574.882 147.899C574.882 149.143 575.251 150.302 575.884 151.275H570.6C568.712 151.275 567.176 152.811 567.176 154.699V159.683C567.176 160.947 567.865 162.053 568.887 162.646V186.059C568.887 188.732 571.062 190.907 573.735 190.907H605.667C608.34 190.907 610.515 188.732 610.515 186.059V162.646C611.537 162.053 612.226 160.948 612.226 159.684V154.699C612.226 152.811 610.69 151.275 608.802 151.275ZM594.958 147.9C594.958 146.049 596.463 144.544 598.313 144.544C600.163 144.544 601.669 146.05 601.669 147.9C601.669 149.75 600.163 151.255 598.313 151.255H594.958V147.9ZM596.422 154.126L600.751 161.756L599.732 161.482C599.366 161.384 598.977 161.435 598.649 161.624C598.322 161.813 598.083 162.125 597.985 162.49L597.736 163.422L592.507 154.126H596.422V154.126ZM589.701 146.444C591.028 146.444 592.107 147.523 592.107 148.849C592.107 150.176 591.028 151.255 589.701 151.255C588.375 151.255 587.296 150.176 587.296 148.849C587.296 147.523 588.375 146.444 589.701 146.444ZM587.025 154.126L582.661 161.753L582.402 160.786C582.304 160.421 582.065 160.109 581.738 159.92C581.41 159.731 581.021 159.68 580.655 159.778L579.646 160.049L583.023 154.126H587.025ZM581.089 144.544C582.939 144.544 584.444 146.049 584.444 147.9V151.255H581.089C579.239 151.255 577.734 149.75 577.734 147.9C577.734 146.049 579.239 144.544 581.089 144.544ZM570.027 159.683V154.699C570.027 154.383 570.284 154.126 570.6 154.126H579.741L576.245 160.256H570.6C570.284 160.256 570.027 159.999 570.027 159.683ZM592.267 188.056H573.735C572.634 188.056 571.738 187.16 571.738 186.059V163.108H575.536C575.552 163.133 575.567 163.159 575.585 163.183C575.936 163.638 576.527 163.838 577.083 163.689L580.016 162.902L580.801 165.835C580.95 166.393 581.422 166.806 581.994 166.881C582.056 166.889 582.117 166.892 582.178 166.892C582.685 166.892 583.159 166.622 583.415 166.175L584.283 164.658V179.075C584.283 179.862 584.922 180.501 585.709 180.501C586.496 180.501 587.135 179.862 587.135 179.075V163.192H592.267V188.056H592.267ZM586.754 160.34L589.768 155.073L592.731 160.34H586.754ZM607.664 186.059C607.664 187.16 606.768 188.056 605.667 188.056H595.118V164.585L596.966 167.87C597.221 168.323 597.698 168.597 598.208 168.597C598.267 168.597 598.327 168.593 598.387 168.586C598.962 168.513 599.436 168.099 599.586 167.54L600.37 164.606L603.304 165.393C603.859 165.542 604.449 165.343 604.801 164.888C605.152 164.434 605.197 163.812 604.913 163.312L604.797 163.108H607.664V186.059ZM609.375 159.684C609.375 159.999 609.118 160.257 608.802 160.257H603.179L599.7 154.126H608.802C609.118 154.126 609.375 154.383 609.375 154.699V159.684Z" fill="#FE7688"/>
<path d="M586.718 183.269C586.453 183.004 586.085 182.853 585.71 182.853C585.335 182.853 584.967 183.004 584.702 183.269C584.437 183.534 584.284 183.902 584.284 184.278C584.284 184.653 584.437 185.021 584.702 185.286C584.967 185.551 585.335 185.704 585.71 185.704C586.085 185.704 586.453 185.552 586.718 185.286C586.983 185.02 587.135 184.653 587.135 184.278C587.135 183.902 586.983 183.536 586.718 183.269Z" fill="#FE7688"/>
<path d="M622.043 131.918C621.487 131.361 620.584 131.361 620.027 131.918L606.941 145.004C606.385 145.561 606.385 146.464 606.941 147.02C607.22 147.299 607.584 147.438 607.949 147.438C608.314 147.438 608.679 147.299 608.957 147.02L622.043 133.934C622.6 133.377 622.6 132.475 622.043 131.918Z" fill="#FE7688"/>
<path d="M567.471 140.287L559.416 132.232C558.86 131.676 557.957 131.676 557.4 132.232C556.843 132.789 556.843 133.692 557.4 134.249L565.455 142.304C565.733 142.582 566.098 142.721 566.463 142.721C566.828 142.721 567.193 142.582 567.471 142.304C568.028 141.747 568.028 140.844 567.471 140.287Z" fill="#FE7688"/>
<path d="M566.824 187.268C566.267 186.711 565.365 186.711 564.808 187.268L553.765 198.311C553.208 198.867 553.208 199.77 553.765 200.327C554.044 200.605 554.409 200.745 554.773 200.745C555.138 200.745 555.503 200.605 555.781 200.327L566.824 189.284C567.381 188.728 567.381 187.825 566.824 187.268Z" fill="#FE7688"/>
<path d="M622.213 194.744L615.096 187.627C614.539 187.07 613.636 187.07 613.08 187.627C612.523 188.183 612.523 189.086 613.08 189.643L620.197 196.76C620.476 197.039 620.84 197.178 621.205 197.178C621.57 197.178 621.935 197.039 622.213 196.76C622.77 196.204 622.77 195.301 622.213 194.744Z" fill="#FE7688"/>
<path d="M562.684 162.822H554.629C553.841 162.822 553.203 163.461 553.203 164.248C553.203 165.035 553.841 165.674 554.629 165.674H562.684C563.471 165.674 564.109 165.035 564.109 164.248C564.109 163.461 563.471 162.822 562.684 162.822Z" fill="#FE7688"/>
<path d="M624.77 162.822H616.638C615.85 162.822 615.212 163.461 615.212 164.248C615.212 165.035 615.85 165.674 616.638 165.674H624.77C625.557 165.674 626.195 165.035 626.195 164.248C626.195 163.461 625.557 162.822 624.77 162.822Z" fill="#FE7688"/>
<path d="M589.701 127.75C588.914 127.75 588.275 128.389 588.275 129.176V140.106C588.275 140.893 588.914 141.531 589.701 141.531C590.488 141.531 591.127 140.893 591.127 140.106V129.176C591.127 128.389 590.488 127.75 589.701 127.75Z" fill="#FE7688"/>
<path d="M589.701 192.443C588.914 192.443 588.275 193.081 588.275 193.869V199.319C588.275 200.106 588.914 200.744 589.701 200.744C590.488 200.744 591.127 200.106 591.127 199.319V193.869C591.127 193.081 590.488 192.443 589.701 192.443Z" fill="#FE7688"/>
<path d="M624.772 178.202H623.794C623.007 178.202 622.369 178.841 622.369 179.628C622.369 180.415 623.007 181.054 623.794 181.054H624.772C625.559 181.054 626.198 180.415 626.198 179.628C626.198 178.841 625.56 178.202 624.772 178.202Z" fill="#FE7688"/>
<path d="M617.855 178.202H616.877C616.089 178.202 615.451 178.841 615.451 179.628C615.451 180.415 616.089 181.054 616.877 181.054H617.855C618.642 181.054 619.28 180.415 619.28 179.628C619.28 178.841 618.642 178.202 617.855 178.202Z" fill="#FE7688"/>
<path d="M620.824 181.172C620.037 181.172 619.399 181.811 619.399 182.598V183.576C619.399 184.363 620.037 185.001 620.824 185.001C621.612 185.001 622.25 184.363 622.25 183.576V182.598C622.25 181.81 621.612 181.172 620.824 181.172Z" fill="#FE7688"/>
<path d="M620.824 174.255C620.037 174.255 619.399 174.893 619.399 175.68V176.658C619.399 177.445 620.037 178.084 620.824 178.084C621.612 178.084 622.25 177.445 622.25 176.658V175.68C622.25 174.893 621.612 174.255 620.824 174.255Z" fill="#FE7688"/>
<path d="M562.677 150.421H561.699C560.912 150.421 560.273 151.06 560.273 151.847C560.273 152.634 560.912 153.273 561.699 153.273H562.677C563.464 153.273 564.103 152.634 564.103 151.847C564.103 151.06 563.464 150.421 562.677 150.421Z" fill="#FE7688"/>
<path d="M555.759 150.421H554.782C553.994 150.421 553.356 151.06 553.356 151.847C553.356 152.634 553.994 153.273 554.782 153.273H555.759C556.547 153.273 557.185 152.634 557.185 151.847C557.185 151.06 556.547 150.421 555.759 150.421Z" fill="#FE7688"/>
<path d="M558.729 153.391C557.942 153.391 557.304 154.03 557.304 154.817V155.794C557.304 156.582 557.942 157.22 558.729 157.22C559.517 157.22 560.155 156.582 560.155 155.794V154.817C560.155 154.029 559.517 153.391 558.729 153.391Z" fill="#FE7688"/>
<path d="M558.729 146.474C557.942 146.474 557.304 147.113 557.304 147.9V148.878C557.304 149.665 557.942 150.303 558.729 150.303C559.517 150.303 560.155 149.665 560.155 148.878V147.9C560.155 147.113 559.517 146.474 558.729 146.474Z" fill="#FE7688"/>
<path d="M606.476 130.556C604.118 130.556 602.199 132.474 602.199 134.833C602.199 137.191 604.118 139.109 606.476 139.109C608.834 139.109 610.753 137.191 610.753 134.833C610.753 132.474 608.835 130.556 606.476 130.556ZM606.476 136.258C605.69 136.258 605.05 135.619 605.05 134.833C605.05 134.047 605.69 133.407 606.476 133.407C607.262 133.407 607.902 134.047 607.902 134.833C607.902 135.619 607.262 136.258 606.476 136.258Z" fill="#FE7688"/>
<path d="M559.337 175.351C556.979 175.351 555.06 177.27 555.06 179.628C555.06 181.986 556.979 183.905 559.337 183.905C561.695 183.905 563.614 181.986 563.614 179.628C563.614 177.27 561.695 175.351 559.337 175.351ZM559.337 181.053C558.551 181.053 557.911 180.414 557.911 179.628C557.911 178.842 558.551 178.202 559.337 178.202C560.123 178.202 560.763 178.842 560.763 179.628C560.763 180.414 560.123 181.053 559.337 181.053Z" fill="#FE7688"/>
<path d="M607.484 194.287C607.219 194.022 606.851 193.869 606.476 193.869C606.1 193.869 605.734 194.022 605.467 194.287C605.202 194.552 605.051 194.92 605.051 195.295C605.051 195.67 605.202 196.036 605.467 196.303C605.734 196.568 606.102 196.72 606.476 196.72C606.851 196.72 607.219 196.568 607.484 196.303C607.749 196.036 607.902 195.67 607.902 195.295C607.902 194.92 607.749 194.552 607.484 194.287Z" fill="#FE7688"/>
<path d="M576.738 194.287C576.473 194.022 576.105 193.869 575.73 193.869C575.355 193.869 574.987 194.022 574.722 194.287C574.457 194.552 574.304 194.919 574.304 195.295C574.304 195.67 574.457 196.036 574.722 196.303C574.987 196.568 575.355 196.72 575.73 196.72C576.105 196.72 576.473 196.568 576.738 196.303C577.003 196.036 577.155 195.67 577.155 195.295C577.155 194.918 577.003 194.552 576.738 194.287Z" fill="#FE7688"/>
<path d="M577.72 133.866C577.454 133.6 577.087 133.448 576.712 133.448C576.337 133.448 575.969 133.6 575.704 133.866C575.439 134.131 575.286 134.499 575.286 134.873C575.286 135.25 575.439 135.616 575.704 135.881C575.969 136.148 576.337 136.299 576.712 136.299C577.087 136.299 577.454 136.148 577.72 135.881C577.985 135.616 578.137 135.25 578.137 134.873C578.137 134.499 577.985 134.132 577.72 133.866Z" fill="#FE7688"/>
<path d="M621.72 149.982C621.454 149.716 621.087 149.565 620.712 149.565C620.337 149.565 619.969 149.716 619.704 149.982C619.439 150.248 619.286 150.614 619.286 150.99C619.286 151.365 619.439 151.732 619.704 151.998C619.969 152.263 620.337 152.416 620.712 152.416C621.087 152.416 621.454 152.263 621.72 151.998C621.985 151.732 622.137 151.365 622.137 150.99C622.137 150.614 621.985 150.248 621.72 149.982Z" fill="#FE7688"/>
<path d="M472.07 424.171H466.559C465.291 424.166 464.073 424.661 463.169 425.549L462.048 426.634C460.675 421.76 458.293 417.229 455.057 413.334L452.474 410.751L454.194 409.032C455.617 407.605 455.617 405.296 454.194 403.869L449.035 398.709C448.351 398.019 447.42 397.632 446.448 397.633H446.437C445.472 397.634 444.548 398.021 443.871 398.71L442.151 400.43L439.506 397.787C438.955 397.31 425.879 386.171 413.276 391.566C412.833 391.755 412.543 392.189 412.538 392.671C412.533 393.153 412.813 393.593 413.252 393.792C419.491 396.886 425.22 400.916 430.24 405.742C430.476 405.974 430.607 406.291 430.605 406.621V413.691L402.583 441.713C401.891 442.395 401.501 443.325 401.5 444.296C401.499 445.267 401.886 446.198 402.575 446.882L406.015 450.33C407.444 451.741 409.743 451.741 411.172 450.33L414.522 446.979C414.533 446.969 414.546 446.967 414.557 446.956C414.568 446.945 414.57 446.931 414.58 446.92L418.78 442.721C418.791 442.711 418.804 442.708 418.815 442.697C418.826 442.686 418.829 442.673 418.838 442.662L424.255 437.246C424.266 437.236 424.279 437.233 424.29 437.222C424.301 437.211 424.304 437.198 424.313 437.187L439.213 422.285H446.277C446.607 422.284 446.924 422.415 447.156 422.65C450.229 425.856 452.983 429.353 455.38 433.091L455.292 433.176C454.352 434.094 453.821 435.352 453.82 436.666V439.246C453.82 439.825 453.613 440.386 453.237 440.827L450.827 443.638H450.17C447.482 443.638 445.303 445.817 445.303 448.505V450.938H441.952C440.659 450.935 439.418 451.448 438.506 452.365L435.777 455.094C434.863 456.003 434.35 457.24 434.353 458.53V460.671C434.353 462.015 435.443 463.105 436.787 463.105H472.07C473.414 463.105 474.503 462.015 474.503 460.671V426.605C474.503 425.261 473.414 424.171 472.07 424.171ZM445.598 400.424C445.822 400.195 446.129 400.066 446.45 400.067C446.777 400.066 447.09 400.198 447.319 400.432L452.478 405.59C452.707 405.819 452.836 406.128 452.836 406.452C452.836 406.775 452.707 407.085 452.478 407.313L450.754 409.031L443.873 402.15L445.598 400.424ZM423.422 434.635L421.83 433.043C421.353 432.582 420.594 432.589 420.125 433.058C419.655 433.527 419.649 434.286 420.11 434.764L421.7 436.356L417.947 440.11L414.53 436.693C414.053 436.232 413.294 436.239 412.825 436.708C412.355 437.177 412.349 437.936 412.81 438.414L416.225 441.831L413.688 444.368L412.097 442.778C411.791 442.461 411.339 442.335 410.914 442.446C410.488 442.557 410.156 442.889 410.045 443.315C409.933 443.74 410.06 444.193 410.377 444.498L411.967 446.089L409.452 448.606C408.977 449.081 408.207 449.081 407.732 448.606L404.292 445.156C404.062 444.929 403.933 444.619 403.935 444.296C403.937 443.973 404.069 443.664 404.302 443.44L431.823 415.914L436.988 421.07L423.422 434.635ZM446.277 419.852H439.208L436.194 416.844L433.031 413.69V406.621C433.03 405.632 432.632 404.685 431.925 403.994C427.424 399.672 422.379 395.955 416.917 392.937C427.319 390.612 437.794 399.524 437.844 399.567L441.288 403.001L449.89 411.603L449.901 411.61L453.274 414.982C453.372 415.096 462.286 425.574 459.953 435.968C456.939 430.504 453.226 425.456 448.907 420.952C448.214 420.246 447.266 419.849 446.277 419.852ZM472.07 460.671H436.787L436.787 458.53C436.786 457.886 437.041 457.269 437.497 456.814L440.226 454.085C440.683 453.626 441.304 453.369 441.952 453.371H449.373C450.34 453.374 451.268 453.758 451.954 454.439L453.571 456.056C454.048 456.518 454.807 456.511 455.276 456.042C455.746 455.572 455.752 454.813 455.291 454.336L453.674 452.719C452.535 451.574 450.986 450.933 449.371 450.938H447.737V448.505C447.737 447.161 448.826 446.071 450.17 446.071H456.253C456.925 446.071 457.47 445.527 457.47 444.855C457.47 444.183 456.925 443.638 456.253 443.638H454.032L455.087 442.408C455.838 441.526 456.252 440.405 456.253 439.246V436.666C456.256 436.155 456.42 435.658 456.722 435.245C458.283 437.866 459.082 439.601 459.099 439.639C459.296 440.074 459.73 440.353 460.208 440.353H460.221C460.701 440.349 461.134 440.063 461.326 439.623C462.672 436.426 463.114 432.921 462.606 429.489L464.869 427.299C465.318 426.854 465.926 426.604 466.559 426.605H472.07V460.671Z" fill="#FE7688"/>
<path d="M464.77 449.721C465.442 449.721 465.987 449.176 465.987 448.504V446.071C465.987 445.399 465.442 444.854 464.77 444.854C464.098 444.854 463.553 445.399 463.553 446.071V448.504C463.553 449.176 464.098 449.721 464.77 449.721Z" fill="#FE7688"/>
<path d="M464.77 452.155C464.098 452.155 463.553 452.7 463.553 453.371V455.805C463.553 456.477 464.098 457.021 464.77 457.021C465.442 457.021 465.987 456.477 465.987 455.805V453.371C465.987 452.7 465.442 452.155 464.77 452.155Z" fill="#FE7688"/>
<path d="M462.337 449.721H459.904C459.232 449.721 458.687 450.266 458.687 450.938C458.687 451.61 459.232 452.155 459.904 452.155H462.337C463.009 452.155 463.554 451.61 463.554 450.938C463.554 450.266 463.009 449.721 462.337 449.721Z" fill="#FE7688"/>
<path d="M467.204 449.721C466.532 449.721 465.987 450.266 465.987 450.938C465.987 451.61 466.532 452.155 467.204 452.155H469.637C470.309 452.155 470.854 451.61 470.854 450.938C470.854 450.266 470.309 449.721 469.637 449.721H467.204Z" fill="#FE7688"/>
<path d="M468.42 436.338C469.092 436.338 469.637 435.794 469.637 435.122V433.905C469.637 433.233 469.092 432.688 468.42 432.688C467.748 432.688 467.204 433.233 467.204 433.905V435.122C467.204 435.794 467.748 436.338 468.42 436.338Z" fill="#FE7688"/>
<path d="M469.637 441.204V439.988C469.637 439.316 469.092 438.771 468.42 438.771C467.748 438.771 467.204 439.316 467.204 439.988V441.204C467.204 441.876 467.748 442.421 468.42 442.421C469.092 442.421 469.637 441.876 469.637 441.204Z" fill="#FE7688"/>
<path d="M464.77 436.338C464.098 436.338 463.553 436.883 463.553 437.555C463.553 438.227 464.098 438.771 464.77 438.771H465.987C466.659 438.771 467.203 438.227 467.203 437.555C467.203 436.883 466.659 436.338 465.987 436.338H464.77Z" fill="#FE7688"/>
<path d="M442.116 455.902C441.663 455.712 441.139 455.813 440.789 456.158C440.319 456.638 440.319 457.406 440.789 457.885C441.021 458.11 441.331 458.236 441.653 458.238C441.812 458.236 441.969 458.203 442.116 458.141C442.263 458.079 442.399 457.993 442.517 457.885C442.988 457.406 442.988 456.638 442.517 456.158C442.399 456.05 442.263 455.964 442.116 455.902Z" fill="#FE7688"/>
<path d="M448.953 455.805H446.52C445.848 455.805 445.303 456.349 445.303 457.021C445.303 457.693 445.848 458.238 446.52 458.238H448.953C449.625 458.238 450.17 457.693 450.17 457.021C450.17 456.349 449.625 455.805 448.953 455.805Z" fill="#FE7688"/>
<defs>
<clipPath id="clip0">
<rect width="73" height="73" fill="white" transform="translate(553 302.022)"/>
</clipPath>
</defs>
</svg>