<svg width="428" height="428" viewBox="0 0 428 428" fill="none" xmlns="http://www.w3.org/2000/svg">
<g clip-path="url(#clip0)">
<path d="M82.4941 156.196C44.9681 156.196 14.4402 125.668 14.4402 88.1425C14.4402 50.6166 44.9681 20.0887 82.4941 20.0887C120.02 20.0887 150.548 50.6166 150.548 88.1425C150.548 125.668 120.02 156.196 82.4941 156.196ZM82.4941 20.6815C45.2974 20.6815 15.033 50.9459 15.033 88.1425C15.033 125.339 45.281 155.604 82.4941 155.604C119.707 155.604 149.955 125.339 149.955 88.1425C149.955 50.9459 119.691 20.6815 82.4941 20.6815Z" fill="#FF3654"/>
<path d="M82.4941 156.196C44.9681 156.196 14.4402 125.668 14.4402 88.1425C14.4402 50.6166 44.9681 20.0887 82.4941 20.0887C120.02 20.0887 150.548 50.6166 150.548 88.1425C150.548 125.668 120.02 156.196 82.4941 156.196ZM82.4941 20.6815C45.2974 20.6815 15.033 50.9459 15.033 88.1425C15.033 125.339 45.281 155.604 82.4941 155.604C119.707 155.604 149.955 125.339 149.955 88.1425C149.955 50.9459 119.691 20.6815 82.4941 20.6815Z" fill="#4D4D4D"/>
<path d="M271.804 82.4941C271.804 44.9682 302.332 14.4402 339.858 14.4402C377.384 14.4402 407.912 44.9682 407.912 82.4941C407.912 120.02 377.384 150.548 339.858 150.548C302.348 150.548 271.804 120.02 271.804 82.4941ZM407.336 82.4941C407.336 45.2975 377.071 15.033 339.874 15.033C302.678 15.033 272.397 45.281 272.397 82.4941C272.397 119.707 302.661 149.955 339.858 149.955C377.055 149.955 407.336 119.691 407.336 82.4941Z" fill="#4D4D4D"/>
<path d="M345.522 271.804C383.048 271.804 413.576 302.332 413.576 339.858C413.576 377.383 383.048 407.911 345.522 407.911C307.996 407.911 277.468 377.383 277.468 339.858C277.468 302.348 307.996 271.804 345.522 271.804ZM345.522 407.335C382.718 407.335 412.983 377.071 412.983 339.874C412.983 302.677 382.718 272.413 345.522 272.413C308.325 272.413 278.061 302.677 278.061 339.874C278.061 377.071 308.309 407.335 345.522 407.335Z" fill="#4D4D4D"/>
<path d="M156.196 345.522C156.196 383.048 125.668 413.576 88.1425 413.576C50.6165 413.576 20.0886 383.048 20.0886 345.522C20.0886 307.996 50.6165 277.468 88.1425 277.468C125.668 277.468 156.196 307.996 156.196 345.522ZM20.6814 345.522C20.6814 382.718 50.9459 412.983 88.1425 412.983C125.339 412.983 155.604 382.718 155.604 345.522C155.604 308.325 125.339 278.061 88.1425 278.061C50.9459 278.061 20.6814 308.309 20.6814 345.522Z" fill="#4D4D4D"/>
<path d="M214.009 328.677C150.779 328.677 99.323 277.238 99.323 213.992C99.323 150.763 150.763 99.3063 214.009 99.3063C277.238 99.3063 328.694 150.746 328.694 213.992C328.678 277.238 277.238 328.677 214.009 328.677ZM214.009 100.327C151.323 100.327 100.327 151.322 100.327 214.008C100.327 276.694 151.323 327.689 214.009 327.689C276.694 327.689 327.69 276.694 327.69 214.008C327.69 151.322 276.694 100.327 214.009 100.327Z" fill="#4D4D4D"/>
<path d="M263.67 328.677C173.058 328.677 99.323 254.959 99.323 164.33C99.323 73.7182 173.041 0 263.67 0C354.282 0 428.017 73.7182 428.017 164.347C428 254.959 354.282 328.677 263.67 328.677ZM263.67 1.43254C173.832 1.43254 100.756 74.5085 100.756 164.347C100.756 254.185 173.832 327.261 263.67 327.261C353.508 327.261 426.584 254.185 426.584 164.347C426.584 74.5085 353.492 1.43254 263.67 1.43254Z" fill="url(#paint0_linear)"/>
<path d="M328.677 164.347C328.677 254.959 254.959 328.694 164.33 328.694C73.7182 328.677 0 254.959 0 164.347C0 73.7181 73.7182 0 164.347 0C254.959 0 328.677 73.7181 328.677 164.347ZM1.43254 164.347C1.43254 254.185 74.5085 327.261 164.347 327.261C254.185 327.261 327.261 254.185 327.261 164.347C327.261 74.5085 254.169 1.43254 164.347 1.43254C74.525 1.43254 1.43254 74.5085 1.43254 164.347Z" fill="url(#paint1_linear)"/>
<path d="M164.347 99.3226C254.959 99.3226 328.694 173.041 328.694 263.669C328.694 354.282 254.976 428.016 164.347 428.016C73.7181 428 0 354.282 0 263.669C0 173.041 73.7181 99.3226 164.347 99.3226ZM164.347 426.584C254.185 426.584 327.261 353.508 327.261 263.669C327.261 173.831 254.185 100.755 164.347 100.755C74.5085 100.755 1.43254 173.831 1.43254 263.669C1.43254 353.508 74.5085 426.584 164.347 426.584Z" fill="url(#paint2_linear)"/>
<path d="M99.323 263.669C99.323 173.057 173.041 99.3226 263.67 99.3226C354.282 99.3226 428.017 173.041 428.017 263.669C428.017 354.282 354.299 428.016 263.67 428.016C173.041 428 99.323 354.282 99.323 263.669ZM426.584 263.669C426.584 173.831 353.508 100.755 263.67 100.755C173.832 100.755 100.756 173.831 100.756 263.669C100.756 353.508 173.832 426.584 263.67 426.584C353.508 426.584 426.584 353.491 426.584 263.669Z" fill="url(#paint3_linear)"/>
<path d="M214.009 315.587C270.109 315.587 315.587 270.108 315.587 214.008C315.587 157.908 270.109 112.429 214.009 112.429C157.908 112.429 112.43 157.908 112.43 214.008C112.43 270.108 157.908 315.587 214.009 315.587Z" fill="url(#paint4_radial)"/>
<path d="M82.4945 141.821C112.141 141.821 136.174 117.788 136.174 88.1421C136.174 58.496 112.141 34.463 82.4945 34.463C52.8484 34.463 28.8154 58.496 28.8154 88.1421C28.8154 117.788 52.8484 141.821 82.4945 141.821Z" fill="url(#paint5_radial)"/>
<path d="M82.4948 129.702C105.448 129.702 124.055 111.095 124.055 88.1424C124.055 65.1894 105.448 46.5823 82.4948 46.5823C59.5418 46.5823 40.9347 65.1894 40.9347 88.1424C40.9347 111.095 59.5418 129.702 82.4948 129.702Z" fill="white"/>
<path d="M339.874 136.174C369.52 136.174 393.553 112.141 393.553 82.4945C393.553 52.8484 369.52 28.8154 339.874 28.8154C310.228 28.8154 286.195 52.8484 286.195 82.4945C286.195 112.141 310.228 136.174 339.874 136.174Z" fill="url(#paint6_radial)"/>
<path d="M339.874 124.055C362.827 124.055 381.434 105.448 381.434 82.4949C381.434 59.5418 362.827 40.9348 339.874 40.9348C316.921 40.9348 298.314 59.5418 298.314 82.4949C298.314 105.448 316.921 124.055 339.874 124.055Z" fill="white"/>
<path d="M345.522 393.553C375.168 393.553 399.201 369.52 399.201 339.874C399.201 310.228 375.168 286.195 345.522 286.195C315.876 286.195 291.843 310.228 291.843 339.874C291.843 369.52 315.876 393.553 345.522 393.553Z" fill="url(#paint7_radial)"/>
<path d="M345.522 381.434C368.475 381.434 387.082 362.827 387.082 339.874C387.082 316.921 368.475 298.314 345.522 298.314C322.569 298.314 303.961 316.921 303.961 339.874C303.961 362.827 322.569 381.434 345.522 381.434Z" fill="white"/>
<path d="M88.1421 399.201C117.788 399.201 141.821 375.168 141.821 345.522C141.821 315.876 117.788 291.843 88.1421 291.843C58.4959 291.843 34.463 315.876 34.463 345.522C34.463 375.168 58.4959 399.201 88.1421 399.201Z" fill="url(#paint8_radial)"/>
<path d="M88.1424 387.082C111.095 387.082 129.702 368.475 129.702 345.522C129.702 322.569 111.095 303.962 88.1424 303.962C65.1894 303.962 46.5823 322.569 46.5823 345.522C46.5823 368.475 65.1894 387.082 88.1424 387.082Z" fill="white"/>
<path d="M137.655 138.342C139.621 133.644 137.406 128.241 132.709 126.275C128.011 124.309 122.608 126.523 120.642 131.221C118.676 135.919 120.89 141.321 125.588 143.288C130.286 145.254 135.688 143.039 137.655 138.342Z" fill="#FF3654"/>
<path d="M129.143 144.011C134.235 144.011 138.364 139.883 138.364 134.79C138.364 129.698 134.235 125.569 129.143 125.569C124.05 125.569 119.922 129.698 119.922 134.79C119.922 139.883 124.05 144.011 129.143 144.011Z" fill="url(#paint9_linear)"/>
<path d="M293.209 138.364C298.302 138.364 302.43 134.235 302.43 129.143C302.43 124.05 298.302 119.922 293.209 119.922C288.117 119.922 283.988 124.05 283.988 129.143C283.988 134.235 288.117 138.364 293.209 138.364Z" fill="url(#paint10_linear)"/>
<path d="M298.874 302.431C303.967 302.431 308.095 298.302 308.095 293.21C308.095 288.117 303.967 283.989 298.874 283.989C293.781 283.989 289.653 288.117 289.653 293.21C289.653 298.302 293.781 302.431 298.874 302.431Z" fill="url(#paint11_linear)"/>
<path d="M134.79 308.095C139.883 308.095 144.011 303.967 144.011 298.874C144.011 293.781 139.883 289.653 134.79 289.653C129.698 289.653 125.569 293.781 125.569 298.874C125.569 303.967 129.698 308.095 134.79 308.095Z" fill="url(#paint12_linear)"/>
<path d="M359.963 326.965C357.954 324.808 355.27 323.474 352.372 323.128C351.647 316.986 346.428 312.211 340.088 312.211C337.915 312.211 335.774 312.788 333.897 313.874C333.568 314.072 333.452 314.484 333.65 314.829C333.848 315.159 334.259 315.274 334.605 315.076C336.268 314.121 338.162 313.611 340.088 313.611C346.148 313.611 351.071 318.534 351.071 324.594C351.071 330.653 346.148 335.576 340.088 335.576C334.029 335.576 329.105 330.653 329.105 324.594C329.105 322.717 329.583 320.872 330.505 319.242C330.686 318.913 330.571 318.485 330.242 318.304C329.912 318.122 329.484 318.238 329.303 318.567C328.282 320.395 327.739 322.486 327.739 324.61C327.739 330.933 332.514 336.169 338.656 336.894C338.985 339.792 340.335 342.476 342.492 344.485C344.798 346.642 347.794 347.827 350.939 347.827C357.756 347.827 363.305 342.278 363.305 335.461C363.305 332.25 362.12 329.253 359.963 326.965ZM345.967 335.445C346.032 335.511 346.098 335.576 346.181 335.626L347.811 336.811L347.185 338.738C347.004 339.314 347.185 339.923 347.679 340.286C347.926 340.467 348.206 340.549 348.486 340.549C348.766 340.549 349.046 340.467 349.293 340.286L350.923 339.1L352.553 340.286C353.047 340.648 353.689 340.648 354.183 340.286C354.677 339.923 354.875 339.314 354.677 338.738L354.051 336.828L355.682 335.642C356.176 335.28 356.373 334.671 356.192 334.094C356.011 333.518 355.484 333.139 354.875 333.139H352.849L352.224 331.229C352.043 330.686 351.598 330.34 351.055 330.274C351.417 329.583 351.713 328.858 351.927 328.117C355.533 328.611 358.283 331.723 358.283 335.412C358.283 339.479 354.974 342.772 350.923 342.772C347.218 342.772 344.122 340.022 343.628 336.416C344.452 336.169 345.226 335.856 345.967 335.445ZM347.432 334.523H349.507C349.803 334.523 350.083 334.325 350.165 334.045L350.923 331.674L351.697 334.045C351.796 334.325 352.059 334.523 352.355 334.523H354.858L352.833 335.988C352.586 336.169 352.487 336.482 352.586 336.762L353.36 339.117L351.351 337.651C351.104 337.47 350.775 337.47 350.528 337.651L348.502 339.117L349.276 336.745C349.375 336.466 349.26 336.136 349.029 335.972L347.218 334.654C347.284 334.621 347.35 334.572 347.432 334.523ZM350.939 346.378C345.456 346.378 340.813 342.278 340.072 336.927C340.088 336.927 340.088 336.927 340.105 336.927C340.846 336.927 341.587 336.861 342.295 336.729C342.937 340.944 346.592 344.155 350.939 344.155C355.764 344.155 359.699 340.236 359.699 335.395C359.699 331.048 356.488 327.393 352.273 326.751C352.405 326.043 352.471 325.318 352.471 324.561C352.471 324.544 352.471 324.544 352.471 324.528C357.822 325.269 361.922 329.912 361.922 335.395C361.906 341.455 356.982 346.378 350.939 346.378Z" fill="url(#paint13_linear)"/>
<path d="M340.105 333.321C344.93 333.321 348.865 329.402 348.865 324.561C348.865 319.736 344.946 315.801 340.105 315.801C335.281 315.801 331.345 319.72 331.345 324.561C331.345 329.402 335.264 333.321 340.105 333.321ZM340.105 317.201C344.172 317.201 347.465 320.51 347.465 324.561C347.465 328.611 344.156 331.921 340.105 331.921C336.054 331.921 332.745 328.611 332.745 324.561C332.745 320.51 336.038 317.201 340.105 317.201Z" fill="url(#paint14_linear)"/>
<path d="M335.346 324.791L336.976 325.977L336.35 327.903C336.169 328.48 336.35 329.089 336.844 329.451C337.091 329.632 337.371 329.715 337.651 329.715C337.931 329.715 338.211 329.632 338.458 329.451L340.088 328.266L341.718 329.451C342.212 329.813 342.854 329.813 343.348 329.451C343.842 329.089 344.04 328.48 343.842 327.903L343.217 325.993L344.847 324.808C345.341 324.445 345.538 323.836 345.357 323.26C345.176 322.684 344.649 322.305 344.04 322.305H342.015L341.389 320.395C341.208 319.819 340.681 319.44 340.072 319.44C339.462 319.44 338.952 319.819 338.754 320.395L338.145 322.305H336.136C335.527 322.305 335.017 322.684 334.819 323.26C334.638 323.836 334.835 324.445 335.346 324.791ZM338.672 323.688C338.968 323.688 339.248 323.49 339.331 323.211L340.088 320.839L340.862 323.211C340.961 323.49 341.224 323.688 341.521 323.688H344.023L341.998 325.154C341.751 325.335 341.652 325.648 341.751 325.927L342.525 328.282L340.516 326.817C340.269 326.635 339.94 326.635 339.693 326.817L337.668 328.282L338.441 325.911C338.54 325.631 338.425 325.302 338.194 325.137L336.169 323.672H338.672V323.688Z" fill="url(#paint15_linear)"/>
<path d="M331.789 317.069C331.971 317.069 332.152 316.986 332.283 316.871C332.415 316.739 332.481 316.558 332.481 316.377C332.481 316.196 332.399 316.015 332.283 315.883C332.152 315.751 331.971 315.685 331.789 315.685C331.608 315.685 331.427 315.768 331.295 315.883C331.164 316.015 331.098 316.196 331.098 316.377C331.098 316.558 331.18 316.739 331.295 316.871C331.427 317.003 331.608 317.069 331.789 317.069Z" fill="url(#paint16_linear)"/>
<path d="M357.13 74.4429L349.029 69.7666V60.3974C349.029 60.1505 348.897 59.9199 348.683 59.7882L340.22 54.8978C340.006 54.7661 339.742 54.7661 339.528 54.8978L331.065 59.7882C330.85 59.9199 330.719 60.134 330.719 60.3974V69.7666L322.617 74.4429C322.403 74.5746 322.272 74.7887 322.272 75.0522V84.8165C322.272 85.0635 322.403 85.294 322.617 85.4257L331.081 90.3161C331.196 90.382 331.312 90.4149 331.427 90.4149C331.542 90.4149 331.674 90.382 331.773 90.3161L339.874 85.6398L347.975 90.3161C348.09 90.382 348.206 90.4149 348.321 90.4149C348.436 90.4149 348.568 90.382 348.667 90.3161L357.13 85.4257C357.344 85.294 357.476 85.0799 357.476 84.8165V75.0522C357.476 74.8052 357.344 74.5746 357.13 74.4429ZM348.321 79.1357L341.257 75.0522L348.321 70.9686L355.385 75.0522L348.321 79.1357ZM331.41 70.9686L338.474 75.0522L331.41 79.1357L324.346 75.0522L331.41 70.9686ZM339.166 65.683V73.8501L332.102 69.7666V61.5995L339.166 65.683ZM332.102 80.3377L339.166 76.2542V84.4213L332.102 88.5048V80.3377ZM339.874 56.3303L346.938 60.4139L346.46 60.6774C346.131 60.8749 346.016 61.2866 346.213 61.6324C346.345 61.8629 346.576 61.9782 346.822 61.9782C346.938 61.9782 347.053 61.9452 347.168 61.8794L347.646 61.5995V69.7666L340.582 73.8501V65.683L341.751 65.0079C342.08 64.8103 342.196 64.3987 341.998 64.0529C341.8 63.7236 341.389 63.6083 341.043 63.8059L339.874 64.481L332.81 60.3974L339.874 56.3303ZM323.655 76.2542L330.719 80.3377V88.5048L323.655 84.4213V76.2542ZM340.565 76.2542L347.629 80.3377V88.5048L340.565 84.4213V76.2542ZM349.012 88.4884V80.3213L356.076 76.2377V84.4048L349.012 88.4884Z" fill="url(#paint17_linear)"/>
<path d="M344.089 63.5422C344.27 63.5422 344.452 63.4599 344.583 63.3446C344.715 63.2129 344.781 63.0317 344.781 62.8506C344.781 62.6695 344.715 62.4884 344.583 62.3566C344.452 62.2249 344.27 62.1591 344.089 62.1591C343.908 62.1591 343.727 62.2414 343.595 62.3566C343.464 62.4884 343.398 62.6695 343.398 62.8506C343.398 63.0317 343.48 63.2129 343.595 63.3446C343.727 63.4599 343.908 63.5422 344.089 63.5422Z" fill="url(#paint18_linear)"/>
<path d="M98.0054 60.4799H85.8699C85.4583 60.4799 85.1125 60.8092 85.1125 61.2374C85.1125 61.649 85.4418 61.9948 85.8699 61.9948H98.0054C99.2568 61.9948 100.261 63.0157 100.261 64.2506V92.2757C100.261 93.5271 99.2403 94.5316 98.0054 94.5316H66.967C65.7156 94.5316 64.7112 93.5107 64.7112 92.2757V64.2506C64.7112 62.9992 65.732 61.9948 66.967 61.9948H79.1024C79.5141 61.9948 79.8599 61.6655 79.8599 61.2374C79.8599 60.8257 79.5305 60.4799 79.1024 60.4799H66.967C64.8923 60.4799 63.1963 62.1759 63.1963 64.2506V92.2757C63.1963 94.3504 64.8923 96.0464 66.967 96.0464H98.0054C100.08 96.0464 101.776 94.3504 101.776 92.2757V64.2506C101.776 62.1595 100.097 60.4799 98.0054 60.4799Z" fill="url(#paint19_linear)"/>
<path d="M66.522 64.5468V91.9791C66.522 92.3908 66.8513 92.7365 67.2794 92.7365H97.725C98.1366 92.7365 98.4824 92.4072 98.4824 91.9791V64.5468C98.4824 64.1352 98.1531 63.7894 97.725 63.7894H67.2629C66.8513 63.7894 66.522 64.1352 66.522 64.5468ZM68.0204 91.2217V86.9405L71.0995 85.4915L75.1995 87.171C75.3971 87.2534 75.6112 87.2369 75.7923 87.1546L78.3116 86.002L83.7454 87.8791C83.8277 87.912 83.91 87.9285 83.9924 87.9285C84.1076 87.9285 84.2394 87.8955 84.3382 87.8462L91.4185 84.1413L96.9511 87.1546V91.2546H68.0204V91.2217ZM73.1413 80.2224V78.6417L74.9525 77.522V80.2224H73.1413ZM83.3996 78.6581V80.2389H81.5883V77.5385L83.3996 78.6581ZM80.0735 80.2224H76.451V77.1103C76.451 75.3979 77.1096 73.7677 78.2622 72.5328C79.4148 73.7677 80.0735 75.3979 80.0735 77.1103V80.2224ZM79.2008 81.7373C79.069 82.5276 78.7562 83.2851 78.2622 83.9273C77.7682 83.2851 77.4554 82.5441 77.3236 81.7373H79.2008ZM96.9511 65.3042V85.4092L91.7808 82.5935C91.5667 82.4782 91.2868 82.4782 91.0727 82.5935L83.91 86.3313L79.4807 84.7999C80.1558 83.9108 80.5839 82.857 80.7156 81.7373H84.1406C84.5522 81.7373 84.898 81.408 84.898 80.9798V78.23C84.898 77.9666 84.7663 77.7196 84.5357 77.5879L81.4401 75.6778C81.1108 73.8501 80.1723 72.1705 78.7397 70.9356C78.4598 70.6886 78.0317 70.6886 77.7518 70.9356C76.3192 72.1705 75.3807 73.8501 75.0513 75.6778L71.9722 77.5879C71.7581 77.7196 71.61 77.9666 71.61 78.23V80.9798C71.61 81.3915 71.9393 81.7373 72.3674 81.7373H75.7923C75.924 82.8734 76.3851 83.9766 77.0931 84.8823L75.4465 85.6397L71.3465 83.9602C71.1489 83.8779 70.9348 83.8943 70.7373 83.9767L68.0039 85.261V65.3042H96.9511Z" fill="url(#paint20_linear)"/>
<path d="M91.0728 74.9372C93.1475 74.9372 94.8435 73.2412 94.8435 71.1665C94.8435 69.0918 93.1475 67.3958 91.0728 67.3958C88.9981 67.3958 87.3021 69.0918 87.3021 71.1665C87.3186 73.2577 88.9981 74.9372 91.0728 74.9372ZM91.0728 68.9107C92.3242 68.9107 93.3287 69.9316 93.3287 71.1665C93.3287 72.4015 92.3078 73.4224 91.0728 73.4224C89.8379 73.4224 88.817 72.4015 88.817 71.1665C88.817 69.9316 89.8379 68.9107 91.0728 68.9107Z" fill="url(#paint21_linear)"/>
<path d="M91.0736 77.5056C90.876 77.5056 90.6784 77.5879 90.5467 77.7197C90.3985 77.8679 90.3326 78.049 90.3326 78.2466C90.3326 78.4442 90.415 78.6418 90.5467 78.7735C90.6949 78.9217 90.876 78.9876 91.0736 78.9876C91.2712 78.9876 91.4688 78.9052 91.6005 78.7735C91.7487 78.6253 91.8146 78.4442 91.8146 78.2466C91.8146 78.049 91.7322 77.8514 91.6005 77.7197C91.4688 77.5879 91.2712 77.5056 91.0736 77.5056Z" fill="url(#paint22_linear)"/>
<path d="M83.6639 71.9236C83.8615 71.9236 84.0591 71.8413 84.1908 71.7095C84.339 71.5613 84.4049 71.3802 84.4049 71.1826C84.4049 70.985 84.3226 70.7874 84.1908 70.6557C84.0427 70.5075 83.8615 70.4417 83.6639 70.4417C83.4663 70.4417 83.2688 70.524 83.137 70.6557C82.9888 70.8039 82.923 70.985 82.923 71.1826C82.923 71.3802 83.0053 71.5778 83.137 71.7095C83.2852 71.8413 83.4663 71.9236 83.6639 71.9236Z" fill="url(#paint23_linear)"/>
<path d="M71.1493 72.8787C71.3469 72.8787 71.5445 72.7964 71.6762 72.6647C71.8244 72.5165 71.8903 72.3354 71.8903 72.1378C71.8903 71.9402 71.8079 71.7426 71.6762 71.6108C71.528 71.4627 71.3469 71.3968 71.1493 71.3968C70.9517 71.3968 70.7541 71.4791 70.6224 71.6108C70.4742 71.759 70.4083 71.9402 70.4083 72.1378C70.4083 72.3354 70.4907 72.5329 70.6224 72.6647C70.7541 72.7964 70.9517 72.8787 71.1493 72.8787Z" fill="url(#paint24_linear)"/>
<path d="M75.0844 69.3716C75.2819 69.3716 75.4795 69.2893 75.6113 69.1575C75.7595 69.0093 75.8253 68.8282 75.8253 68.6306C75.8253 68.433 75.743 68.2354 75.6113 68.1037C75.4631 67.9555 75.2819 67.8896 75.0844 67.8896C74.8868 67.8896 74.6892 67.972 74.5574 68.1037C74.4092 68.2519 74.3434 68.433 74.3434 68.6306C74.3434 68.8282 74.4257 69.0258 74.5574 69.1575C74.6892 69.2893 74.8868 69.3716 75.0844 69.3716Z" fill="url(#paint25_linear)"/>
<path d="M82.494 61.9781C82.6916 61.9781 82.8892 61.8958 83.0209 61.764C83.1691 61.6158 83.235 61.4347 83.235 61.2371C83.235 61.0395 83.1527 60.8419 83.0209 60.7102C82.8727 60.562 82.6916 60.4962 82.494 60.4962C82.2964 60.4962 82.0988 60.5785 81.9671 60.7102C81.8189 60.8584 81.7531 61.0395 81.7531 61.2371C81.7531 61.4347 81.8354 61.6323 81.9671 61.764C82.0988 61.8958 82.2964 61.9781 82.494 61.9781Z" fill="url(#paint26_linear)"/>
<path d="M101.447 340.319C102.402 341.422 102.929 342.838 102.929 344.303C102.929 345.555 102.55 346.724 101.892 347.695C101.826 346.642 101.085 345.72 100.064 345.423L98.3352 344.929V344.797C98.9774 344.32 99.3561 343.562 99.3561 342.772V341.85C99.3561 340.483 98.3352 339.314 97.0344 339.199C96.3263 339.133 95.6018 339.38 95.0914 339.858C94.5645 340.335 94.2681 341.027 94.2681 341.735V342.756C94.2681 343.546 94.6468 344.303 95.289 344.781V344.913L93.5601 345.407C92.5392 345.703 91.8147 346.609 91.7323 347.663C91.0572 346.658 90.695 345.489 90.695 344.271C90.695 340.895 93.4448 338.145 96.8203 338.145C98.2693 338.145 99.6854 338.672 100.805 339.627L101.464 338.853C100.163 337.734 98.5163 337.124 96.8203 337.124C95.042 337.124 93.4119 337.783 92.1604 338.87L89.9046 336.614C90.0857 336.317 90.201 335.955 90.201 335.576C90.201 335.198 90.0857 334.852 89.9046 334.539L95.5689 328.875C96.0629 329.237 96.6721 329.451 97.3308 329.451C97.6765 329.451 97.9894 329.402 98.3023 329.286L100.295 333.008C100.048 333.288 99.8995 333.633 99.8995 334.029C99.8995 334.868 100.591 335.56 101.431 335.56C102.271 335.56 102.962 334.868 102.962 334.029C102.962 333.189 102.271 332.497 101.431 332.497C101.348 332.497 101.283 332.514 101.2 332.514L99.2079 328.792C99.9324 328.233 100.393 327.36 100.393 326.372C100.393 325.713 100.179 325.104 99.8171 324.61L101.76 322.733C101.958 322.832 102.172 322.881 102.419 322.881C103.259 322.881 103.95 322.19 103.95 321.35C103.95 320.51 103.259 319.819 102.419 319.819C101.579 319.819 100.887 320.51 100.887 321.35C100.887 321.58 100.937 321.811 101.036 322.009L99.0762 323.968C98.5822 323.606 97.9729 323.408 97.3143 323.408C96.6557 323.408 96.0464 323.622 95.5524 323.984L93.593 322.025C93.6918 321.827 93.7412 321.597 93.7412 321.366C93.7412 320.527 93.0496 319.835 92.2098 319.835C91.3701 319.835 90.6785 320.527 90.6785 321.366C90.6785 322.206 91.3701 322.898 92.2098 322.898C92.4404 322.898 92.6709 322.832 92.8685 322.749L94.8279 324.709C94.4657 325.203 94.2516 325.812 94.2516 326.487C94.2516 327.146 94.4657 327.755 94.8279 328.249L89.1636 333.913C88.8673 333.732 88.505 333.617 88.1263 333.617C87.7476 333.617 87.4018 333.732 87.0889 333.913L84.8331 331.658C85.9198 330.406 86.5949 328.76 86.5949 326.998C86.5949 323.293 83.6969 320.164 79.9921 319.884L79.9098 320.905C83.0712 321.152 85.5576 323.82 85.5576 326.998C85.5576 328.233 85.1789 329.402 84.5202 330.373C84.4379 329.319 83.7134 328.414 82.6925 328.117L80.9636 327.623V327.492C81.6057 327.014 81.9845 326.257 81.9845 325.466V324.561C81.9845 323.194 80.9636 322.025 79.6628 321.91C78.9547 321.844 78.2302 322.091 77.7198 322.568C77.1929 323.046 76.8965 323.737 76.8965 324.445V325.466C76.8965 326.257 77.2752 327.014 77.9174 327.492V327.623L76.1884 328.117C75.1676 328.414 74.4431 329.319 74.3607 330.373C73.7021 329.402 73.3234 328.233 73.3234 326.998C73.3234 323.82 75.8097 321.136 78.9712 320.905L78.8889 319.884C75.184 320.164 72.286 323.293 72.286 326.998C72.286 330.703 75.184 333.831 78.8889 334.111L78.9712 333.09C77.3575 332.975 75.925 332.201 74.9041 331.081H83.9933C82.9724 332.217 81.5399 332.975 79.9262 333.09L80.0086 334.111C81.5893 333.996 83.0054 333.354 84.125 332.382L86.3809 334.638C86.1998 334.934 86.0845 335.297 86.0845 335.675C86.0845 336.054 86.1998 336.4 86.3809 336.713L80.7166 342.377C80.2226 342.015 79.6134 341.801 78.9547 341.801C78.3949 341.801 77.868 341.949 77.4234 342.212L75.1676 339.512C75.2993 339.281 75.3816 339.018 75.3816 338.738C75.3816 337.898 74.69 337.207 73.8503 337.207C73.0105 337.207 72.3189 337.898 72.3189 338.738C72.3189 339.578 73.0105 340.269 73.8503 340.269C74.0314 340.269 74.2125 340.236 74.3772 340.17L76.633 342.871C76.172 343.398 75.8921 344.106 75.8921 344.863C75.8921 345.522 76.1061 346.131 76.4684 346.625L74.5089 348.585C74.3113 348.486 74.0973 348.436 73.8503 348.436C73.0105 348.436 72.3189 349.128 72.3189 349.968C72.3189 350.807 73.0105 351.499 73.8503 351.499C74.69 351.499 75.3816 350.807 75.3816 349.968C75.3816 349.737 75.3322 349.507 75.2334 349.309L77.1929 347.35C77.6869 347.712 78.2961 347.926 78.9547 347.926C79.8274 347.926 80.6178 347.547 81.1776 346.954L83.5981 348.568C83.5652 348.683 83.5487 348.815 83.5487 348.947C83.5487 349.787 84.2403 350.478 85.0801 350.478C85.9198 350.478 86.6114 349.787 86.6114 348.947C86.6114 348.107 85.9198 347.416 85.0801 347.416C84.7343 347.416 84.4214 347.531 84.1744 347.728L81.7539 346.115C81.9186 345.736 82.0174 345.308 82.0174 344.863C82.0174 344.205 81.8033 343.595 81.4411 343.101L87.1054 337.437C87.4018 337.618 87.764 337.734 88.1427 337.734C88.5215 337.734 88.8672 337.618 89.1801 337.437L91.4359 339.693C90.3492 340.944 89.6905 342.575 89.6905 344.369C89.6905 346.065 90.2998 347.712 91.4195 349.013L92.0781 348.453H101.381C100.262 349.704 98.6316 350.495 96.8368 350.495C95.3878 350.495 93.9717 349.968 92.852 349.013L92.1934 349.787C93.4942 350.906 95.1408 351.516 96.8368 351.516C100.772 351.516 103.983 348.321 103.983 344.369C103.983 342.673 103.374 341.027 102.254 339.726L101.447 340.319ZM101.908 334.111C101.908 334.391 101.678 334.621 101.398 334.621C101.118 334.621 100.887 334.391 100.887 334.111C100.887 333.831 101.118 333.601 101.398 333.601C101.678 333.601 101.908 333.831 101.908 334.111ZM75.4804 330.027C75.6451 329.583 76.0073 329.221 76.4848 329.072L78.9547 328.364V326.899L78.7077 326.751C78.2302 326.471 77.9338 325.977 77.9338 325.433V324.413C77.9338 323.984 78.115 323.573 78.4278 323.293C78.7407 322.996 79.1688 322.865 79.5969 322.898C80.3708 322.964 80.98 323.688 80.98 324.528V325.433C80.98 325.977 80.7001 326.471 80.2061 326.751L79.9592 326.899V328.364L82.4291 329.072C82.9066 329.204 83.2853 329.566 83.4335 330.027H75.4804ZM85.0801 348.387C85.36 348.387 85.5905 348.618 85.5905 348.897C85.5905 349.177 85.36 349.408 85.0801 349.408C84.8001 349.408 84.5696 349.177 84.5696 348.897C84.5696 348.618 84.8001 348.387 85.0801 348.387ZM102.419 320.856C102.699 320.856 102.929 321.086 102.929 321.366C102.929 321.646 102.699 321.877 102.419 321.877C102.139 321.877 101.908 321.646 101.908 321.366C101.908 321.086 102.139 320.856 102.419 320.856ZM97.3143 324.413C98.434 324.413 99.3561 325.335 99.3561 326.454C99.3561 327.574 98.434 328.496 97.3143 328.496C96.1946 328.496 95.2725 327.574 95.2725 326.454C95.2725 325.335 96.1946 324.413 97.3143 324.413ZM92.2263 321.877C91.9464 321.877 91.7159 321.646 91.7159 321.366C91.7159 321.086 91.9464 320.856 92.2263 320.856C92.5062 320.856 92.7368 321.086 92.7368 321.366C92.7203 321.646 92.5062 321.877 92.2263 321.877ZM73.3563 338.689C73.3563 338.409 73.5868 338.178 73.8667 338.178C74.1467 338.178 74.3772 338.409 74.3772 338.689C74.3772 338.968 74.1467 339.199 73.8667 339.199C73.5868 339.199 73.3563 338.985 73.3563 338.689ZM73.8667 350.429C73.5868 350.429 73.3563 350.198 73.3563 349.918C73.3563 349.638 73.5868 349.408 73.8667 349.408C74.1467 349.408 74.3772 349.638 74.3772 349.918C74.3772 350.198 74.1467 350.429 73.8667 350.429ZM78.9547 346.856C77.835 346.856 76.9129 345.934 76.9129 344.814C76.9129 343.694 77.835 342.772 78.9547 342.772C80.0744 342.772 80.9965 343.694 80.9965 344.814C80.9965 345.934 80.0909 346.856 78.9547 346.856ZM87.1219 335.642C87.1219 335.082 87.5829 334.621 88.1427 334.621C88.7026 334.621 89.1636 335.082 89.1636 335.642C89.1636 336.202 88.7026 336.663 88.1427 336.663C87.5829 336.663 87.1219 336.202 87.1219 335.642ZM92.8191 347.366C92.9837 346.922 93.346 346.559 93.8235 346.411L96.2934 345.703V344.238L96.0464 344.089C95.5689 343.809 95.2725 343.315 95.2725 342.772V341.751C95.2725 341.323 95.4536 340.911 95.7665 340.632C96.0793 340.335 96.5075 340.203 96.9356 340.236C97.7095 340.302 98.3187 341.027 98.3187 341.866V342.789C98.3187 343.332 98.0388 343.826 97.5448 344.106L97.2978 344.254V345.72L99.7677 346.428C100.245 346.559 100.624 346.922 100.772 347.383H92.8191V347.366Z" fill="url(#paint27_linear)"/>
<path d="M151.603 247.138L179.348 262.748C180.072 255.618 182.196 248.521 185.078 241.803L160.593 223.476C154.171 237.999 151.603 247.122 151.603 247.138Z" fill="url(#paint28_linear)"/>
<path d="M165.285 213.383L189.523 232.928C195.039 222.571 201.823 213.63 206.846 207.62L181.883 183.513C175.066 194.397 169.599 204.54 165.285 213.383Z" fill="url(#paint29_linear)"/>
<path d="M214.058 234.854C215.079 236.205 216.15 237.654 217.203 239.185C222.555 246.891 226.227 254.251 228.038 260.838C222.901 264.345 218.586 267.457 215.079 270.125L214.042 270.783L213.004 270.125C209.514 267.474 205.2 264.361 200.046 260.838C201.873 254.251 205.545 246.908 210.88 239.185C211.967 237.654 213.037 236.205 214.058 234.854ZM214.075 215.375C214.075 215.375 214.075 215.375 214.058 215.392C214.042 215.375 214.042 215.375 214.042 215.375C214.042 215.375 214.042 215.392 214.042 215.408C212.972 216.478 187.976 241.523 186.083 266.733C204.722 278.967 212.511 285.866 214.042 287.48C214.042 287.496 214.042 287.513 214.042 287.529L214.058 287.513L214.075 287.529C214.075 287.513 214.075 287.496 214.075 287.48C215.623 285.866 223.395 278.983 242.034 266.733C240.124 241.523 215.145 216.462 214.075 215.408C214.075 215.392 214.075 215.375 214.075 215.375Z" fill="url(#paint30_linear)"/>
<path d="M276.398 247.138L248.653 262.748C247.928 255.618 245.804 248.521 242.923 241.803L267.408 223.476C273.829 237.999 276.398 247.122 276.398 247.138Z" fill="url(#paint31_linear)"/>
<path d="M262.715 213.383L238.477 232.928C232.961 222.571 226.177 213.63 221.155 207.62L246.117 183.513C252.934 194.397 258.418 204.54 262.715 213.383Z" fill="url(#paint32_linear)"/>
<path d="M239.086 172.777C232.022 162.42 223.773 151.569 214.19 140.652L214.025 140.471H213.992L213.827 140.652C204.244 151.569 195.995 162.42 188.931 172.777C189.672 173.7 190.446 174.506 191.22 175.231L214.008 199.666H214.041L236.83 175.231C237.588 174.506 238.345 173.7 239.086 172.777Z" fill="url(#paint33_linear)"/>
<path d="M79.4316 103.686V110.602H78.1143L74.6729 106.403V110.602H73.0922V103.686H74.4094L77.8508 107.885V103.686H79.4316Z" fill="#4D4D4D"/>
<path d="M82.6751 104.971V106.798H85.8695V108.083H82.6751V110.602H81.0779V103.686H86.2976V104.971H82.6751Z" fill="#4D4D4D"/>
<path d="M88.8668 104.987H86.6604V103.686H92.6869V104.987H90.4805V110.602H88.8833V104.987H88.8668Z" fill="#4D4D4D"/>
<path d="M328.891 98.0385H332.036C332.794 98.0385 333.453 98.1866 334.029 98.4666C334.605 98.7465 335.05 99.1581 335.379 99.6686C335.692 100.195 335.857 100.788 335.857 101.48C335.857 102.171 335.692 102.781 335.379 103.291C335.066 103.818 334.605 104.213 334.029 104.493C333.453 104.773 332.794 104.921 332.036 104.921H328.891V98.0385ZM331.954 103.637C332.646 103.637 333.189 103.439 333.601 103.061C334.012 102.682 334.226 102.155 334.226 101.496C334.226 100.838 334.012 100.311 333.601 99.932C333.189 99.5533 332.646 99.3557 331.954 99.3557H330.489V103.637H331.954Z" fill="#4D4D4D"/>
<path d="M342.131 102.731H338.113C338.179 103.06 338.36 103.324 338.623 103.505C338.887 103.686 339.233 103.785 339.628 103.785C339.908 103.785 340.155 103.752 340.369 103.67C340.583 103.587 340.78 103.456 340.961 103.275L341.785 104.164C341.291 104.74 340.55 105.02 339.595 105.02C339.002 105.02 338.459 104.905 337.998 104.674C337.537 104.444 337.174 104.114 336.927 103.703C336.68 103.291 336.549 102.813 336.549 102.287C336.549 101.76 336.68 101.299 336.927 100.87C337.174 100.459 337.52 100.13 337.948 99.899C338.376 99.6685 338.854 99.5532 339.397 99.5532C339.924 99.5532 340.385 99.6685 340.813 99.8825C341.241 100.113 341.571 100.426 341.801 100.838C342.048 101.249 342.163 101.743 342.163 102.287C342.163 102.336 342.147 102.468 342.131 102.731ZM338.524 101.019C338.294 101.216 338.146 101.48 338.096 101.826H340.714C340.665 101.496 340.517 101.216 340.286 101.019C340.056 100.821 339.759 100.722 339.414 100.722C339.051 100.722 338.755 100.821 338.524 101.019Z" fill="#4D4D4D"/>
<path d="M344.896 99.3228V101.151H348.091V102.435H344.896V104.954H343.299V98.0385H348.519V99.3228H344.896Z" fill="#4D4D4D"/>
<path d="M349.474 98.6477C349.293 98.483 349.21 98.2854 349.21 98.0384C349.21 97.7914 349.293 97.5938 349.474 97.4292C349.655 97.2645 349.886 97.1822 350.165 97.1822C350.445 97.1822 350.676 97.2645 350.857 97.4127C351.038 97.5774 351.121 97.775 351.121 98.0055C351.121 98.2689 351.038 98.4665 350.857 98.6477C350.676 98.8123 350.445 98.8947 350.165 98.8947C349.886 98.8947 349.655 98.8123 349.474 98.6477ZM349.392 99.6356H350.939V104.954H349.392V99.6356Z" fill="#4D4D4D"/>
<path d="M59.8371 367.636C59.2608 367.323 58.8162 366.911 58.4869 366.368C58.1576 365.824 57.9929 365.215 57.9929 364.524C57.9929 363.832 58.1576 363.223 58.4869 362.679C58.8162 362.136 59.2608 361.708 59.8371 361.412C60.4134 361.099 61.0391 360.951 61.7636 360.951C62.3564 360.951 62.8998 361.049 63.3938 361.263C63.8877 361.477 64.2829 361.774 64.6123 362.169L63.5914 363.124C63.1303 362.581 62.5375 362.317 61.846 362.317C61.4178 362.317 61.0391 362.416 60.6933 362.597C60.364 362.778 60.1006 363.042 59.903 363.387C59.7219 363.717 59.6231 364.112 59.6231 364.54C59.6231 364.968 59.7219 365.347 59.903 365.693C60.0841 366.022 60.3476 366.286 60.6933 366.483C61.0227 366.664 61.4178 366.763 61.846 366.763C62.5375 366.763 63.1138 366.483 63.5914 365.94L64.6123 366.895C64.2829 367.29 63.8713 367.603 63.3938 367.817C62.9163 368.031 62.3564 368.13 61.7636 368.13C61.0556 368.097 60.4134 367.949 59.8371 367.636Z" fill="#4D4D4D"/>
<path d="M66.407 367.701C65.9625 367.471 65.6167 367.142 65.3697 366.73C65.1227 366.318 64.991 365.841 64.991 365.314C64.991 364.787 65.1227 364.309 65.3697 363.898C65.6167 363.486 65.9625 363.157 66.407 362.926C66.8516 362.696 67.3456 362.58 67.9054 362.58C68.4653 362.58 68.9593 362.696 69.4038 362.926C69.8484 363.157 70.1942 363.486 70.4412 363.898C70.6882 364.309 70.8199 364.787 70.8199 365.314C70.8199 365.841 70.6882 366.318 70.4412 366.73C70.1942 367.142 69.8484 367.471 69.4038 367.701C68.9593 367.932 68.4653 368.047 67.9054 368.047C67.3621 368.064 66.8516 367.948 66.407 367.701ZM68.8934 366.401C69.1404 366.137 69.2721 365.775 69.2721 365.33C69.2721 364.886 69.1404 364.523 68.8934 364.26C68.6464 363.997 68.3171 363.865 67.9219 363.865C67.5267 363.865 67.1974 363.997 66.9504 364.26C66.687 364.523 66.5717 364.886 66.5717 365.33C66.5717 365.775 66.7034 366.137 66.9504 366.401C67.2139 366.664 67.5267 366.796 67.9219 366.796C68.3171 366.796 68.6464 366.664 68.8934 366.401Z" fill="#4D4D4D"/>
<path d="M80.2548 363.173C80.65 363.569 80.8476 364.161 80.8476 364.935V367.981H79.2998V365.182C79.2998 364.754 79.2175 364.441 79.0363 364.244C78.8552 364.046 78.6082 363.931 78.2954 363.931C77.9331 363.931 77.6532 364.046 77.4391 364.277C77.2251 364.507 77.1263 364.853 77.1263 365.314V367.981H75.5785V365.182C75.5785 364.342 75.2492 363.931 74.5741 363.931C74.2118 363.931 73.9319 364.046 73.7178 364.277C73.5038 364.507 73.405 364.853 73.405 365.314V367.981H71.8572V362.663H73.3226V363.272C73.5202 363.042 73.7672 362.877 74.0472 362.762C74.3271 362.647 74.6399 362.581 74.9857 362.581C75.3644 362.581 75.6937 362.647 76.0066 362.795C76.3195 362.943 76.55 363.157 76.7311 363.437C76.9452 363.157 77.2251 362.943 77.5544 362.795C77.8837 362.647 78.246 362.564 78.6411 362.564C79.3327 362.581 79.8596 362.778 80.2548 363.173Z" fill="#4D4D4D"/>
<path d="M90.612 363.173C91.0072 363.569 91.2048 364.161 91.2048 364.935V367.981H89.657V365.182C89.657 364.754 89.5747 364.441 89.3935 364.244C89.2124 364.046 88.9654 363.931 88.6526 363.931C88.2903 363.931 88.0104 364.046 87.7963 364.277C87.5823 364.507 87.4835 364.853 87.4835 365.314V367.981H85.9357V365.182C85.9357 364.342 85.6064 363.931 84.9312 363.931C84.569 363.931 84.2891 364.046 84.075 364.277C83.861 364.507 83.7622 364.853 83.7622 365.314V367.981H82.2144V362.663H83.6798V363.272C83.8774 363.042 84.1244 362.877 84.4043 362.762C84.6842 362.647 84.9971 362.581 85.3429 362.581C85.7216 362.581 86.0509 362.647 86.3638 362.795C86.6766 362.943 86.9072 363.157 87.0883 363.437C87.3023 363.157 87.5823 362.943 87.9116 362.795C88.2409 362.647 88.6032 362.564 88.9983 362.564C89.6899 362.581 90.2333 362.778 90.612 363.173Z" fill="#4D4D4D"/>
<path d="M97.9396 362.663V367.982H96.4741V367.356C96.2765 367.586 96.0295 367.767 95.7496 367.883C95.4697 367.998 95.1568 368.064 94.8275 368.064C94.1359 368.064 93.5761 367.866 93.1644 367.455C92.7528 367.043 92.5552 366.45 92.5552 365.66V362.663H94.103V365.446C94.103 366.302 94.4652 366.73 95.1733 366.73C95.5355 366.73 95.8319 366.615 96.0624 366.368C96.293 366.121 96.3918 365.775 96.3918 365.298V362.663H97.9396Z" fill="#4D4D4D"/>
<path d="M104.197 363.173C104.608 363.568 104.806 364.161 104.806 364.935V367.981H103.258V365.182C103.258 364.754 103.159 364.441 102.978 364.243C102.797 364.046 102.534 363.931 102.171 363.931C101.776 363.931 101.48 364.046 101.249 364.293C101.019 364.54 100.903 364.886 100.903 365.363V367.998H99.3556V362.679H100.821V363.305C101.019 363.074 101.282 362.91 101.578 362.778C101.875 362.663 102.221 362.597 102.583 362.597C103.274 362.58 103.801 362.778 104.197 363.173Z" fill="#4D4D4D"/>
<path d="M106.288 361.675C106.106 361.51 106.024 361.313 106.024 361.066C106.024 360.819 106.106 360.621 106.288 360.456C106.469 360.292 106.699 360.209 106.979 360.209C107.259 360.209 107.49 360.292 107.671 360.44C107.852 360.605 107.934 360.802 107.934 361.033C107.934 361.296 107.852 361.51 107.671 361.675C107.49 361.84 107.259 361.922 106.979 361.922C106.699 361.922 106.452 361.84 106.288 361.675ZM106.205 362.663H107.753V367.981H106.205V362.663Z" fill="#4D4D4D"/>
<path d="M112.611 367.718C112.462 367.833 112.265 367.916 112.051 367.965C111.837 368.014 111.606 368.047 111.359 368.047C110.733 368.047 110.239 367.883 109.894 367.57C109.548 367.24 109.383 366.779 109.383 366.154V363.964H108.56V362.778H109.383V361.477H110.931V362.778H112.248V363.964H110.931V366.121C110.931 366.351 110.997 366.516 111.096 366.648C111.194 366.779 111.376 366.829 111.59 366.829C111.837 366.829 112.034 366.763 112.215 366.631L112.611 367.718Z" fill="#4D4D4D"/>
<path d="M118.653 362.663L116.249 368.311C116.002 368.92 115.706 369.348 115.344 369.612C114.981 369.859 114.553 369.99 114.043 369.99C113.763 369.99 113.499 369.941 113.219 369.859C112.956 369.776 112.725 369.661 112.561 369.496L113.121 368.393C113.236 368.492 113.368 368.574 113.532 368.64C113.68 368.706 113.845 368.723 113.993 368.723C114.207 368.723 114.372 368.673 114.504 368.574C114.636 368.476 114.751 368.294 114.866 368.064L114.882 368.015L112.577 362.663H114.174L115.673 366.269L117.171 362.663H118.653Z" fill="#4D4D4D"/>
<path d="M323.573 355.418H325.17V361.033H328.644V362.334H323.573V355.418Z" fill="#4D4D4D"/>
<path d="M329.517 356.027C329.336 355.863 329.254 355.665 329.254 355.418C329.254 355.171 329.336 354.973 329.517 354.809C329.698 354.644 329.929 354.562 330.209 354.562C330.489 354.562 330.719 354.644 330.9 354.792C331.081 354.957 331.164 355.155 331.164 355.385C331.164 355.649 331.081 355.846 330.9 356.027C330.719 356.192 330.489 356.274 330.209 356.274C329.929 356.274 329.698 356.192 329.517 356.027ZM329.435 357.015H330.983V362.334H329.435V357.015Z" fill="#4D4D4D"/>
<path d="M337.8 357.015V364.244H336.252V361.757C335.873 362.186 335.346 362.4 334.655 362.4C334.161 362.4 333.7 362.284 333.288 362.07C332.876 361.856 332.563 361.527 332.333 361.115C332.102 360.704 331.987 360.226 331.987 359.666C331.987 359.106 332.102 358.645 332.333 358.217C332.563 357.789 332.876 357.476 333.288 357.262C333.7 357.048 334.144 356.933 334.655 356.933C335.379 356.933 335.939 357.163 336.318 357.624V357.015H337.8ZM335.906 360.753C336.169 360.49 336.285 360.127 336.285 359.683C336.285 359.238 336.153 358.876 335.906 358.612C335.643 358.349 335.33 358.217 334.934 358.217C334.539 358.217 334.21 358.349 333.963 358.612C333.7 358.876 333.584 359.238 333.584 359.683C333.584 360.127 333.716 360.49 333.963 360.753C334.226 361.016 334.539 361.148 334.934 361.148C335.33 361.148 335.659 361.016 335.906 360.753Z" fill="#4D4D4D"/>
<path d="M344.583 357.016V362.334H343.118V361.708C342.92 361.939 342.673 362.12 342.393 362.235C342.113 362.35 341.801 362.416 341.471 362.416C340.78 362.416 340.22 362.219 339.808 361.807C339.397 361.395 339.199 360.803 339.199 360.012V357.016H340.747V359.798C340.747 360.654 341.109 361.083 341.817 361.083C342.179 361.083 342.476 360.967 342.706 360.72C342.937 360.473 343.036 360.128 343.036 359.65V357.016H344.583Z" fill="#4D4D4D"/>
<path d="M346.098 356.027C345.917 355.863 345.834 355.665 345.834 355.418C345.834 355.171 345.917 354.973 346.098 354.809C346.279 354.644 346.509 354.562 346.789 354.562C347.069 354.562 347.3 354.644 347.481 354.792C347.662 354.957 347.744 355.155 347.744 355.385C347.744 355.649 347.662 355.846 347.481 356.027C347.3 356.192 347.069 356.274 346.789 356.274C346.509 356.274 346.279 356.192 346.098 356.027ZM346.015 357.015H347.563V362.334H346.015V357.015Z" fill="#4D4D4D"/>
<path d="M354.397 355.006V362.334H352.931V361.725C352.553 362.186 351.993 362.416 351.268 362.416C350.774 362.416 350.313 362.301 349.918 362.087C349.506 361.856 349.194 361.543 348.963 361.132C348.733 360.72 348.617 360.243 348.617 359.683C348.617 359.123 348.733 358.662 348.963 358.234C349.194 357.806 349.506 357.493 349.918 357.279C350.33 357.048 350.774 356.949 351.268 356.949C351.943 356.949 352.47 357.163 352.866 357.592V355.006H354.397ZM352.503 360.753C352.767 360.49 352.882 360.127 352.882 359.683C352.882 359.238 352.75 358.876 352.503 358.612C352.24 358.349 351.927 358.217 351.532 358.217C351.137 358.217 350.807 358.349 350.56 358.612C350.297 358.876 350.182 359.238 350.182 359.683C350.182 360.127 350.313 360.49 350.56 360.753C350.824 361.017 351.137 361.148 351.532 361.148C351.927 361.148 352.256 361.017 352.503 360.753Z" fill="#4D4D4D"/>
<path d="M355.912 356.027C355.731 355.863 355.649 355.665 355.649 355.418C355.649 355.171 355.731 354.973 355.912 354.809C356.093 354.644 356.324 354.562 356.604 354.562C356.884 354.562 357.114 354.644 357.295 354.792C357.477 354.957 357.559 355.155 357.559 355.385C357.559 355.649 357.477 355.846 357.295 356.027C357.114 356.192 356.884 356.274 356.604 356.274C356.324 356.274 356.077 356.192 355.912 356.027ZM355.83 357.015H357.378V362.334H355.83V357.015Z" fill="#4D4D4D"/>
<path d="M362.234 362.07C362.086 362.186 361.888 362.268 361.674 362.317C361.46 362.367 361.23 362.4 360.983 362.4C360.357 362.4 359.863 362.235 359.517 361.922C359.172 361.609 359.007 361.132 359.007 360.506V358.316H358.184V357.131H359.007V355.83H360.555V357.131H361.872V358.316H360.555V360.473C360.555 360.704 360.621 360.868 360.719 360.984C360.835 361.099 360.999 361.165 361.213 361.165C361.46 361.165 361.658 361.099 361.839 360.967L362.234 362.07Z" fill="#4D4D4D"/>
<path d="M368.278 357.016L365.874 362.663C365.627 363.273 365.331 363.701 364.968 363.964C364.606 364.211 364.178 364.343 363.667 364.343C363.388 364.343 363.124 364.293 362.844 364.211C362.564 364.129 362.35 364.014 362.186 363.849L362.745 362.746C362.861 362.844 362.992 362.927 363.157 362.993C363.305 363.059 363.47 363.075 363.618 363.075C363.832 363.075 363.997 363.026 364.129 362.927C364.26 362.828 364.376 362.663 364.491 362.416L364.507 362.367L362.202 357.016H363.799L365.298 360.622L366.796 357.016H368.278Z" fill="#4D4D4D"/>
</g>
<defs>
<linearGradient id="paint0_linear" x1="99.3243" y1="164.341" x2="428.007" y2="164.341" gradientUnits="userSpaceOnUse">
<stop stop-color="#FE8464"/>
<stop offset="1" stop-color="#FE6E9A"/>
</linearGradient>
<linearGradient id="paint1_linear" x1="164.341" y1="328.683" x2="164.341" y2="0" gradientUnits="userSpaceOnUse">
<stop stop-color="#FE8464"/>
<stop offset="1" stop-color="#FE6E9A"/>
</linearGradient>
<linearGradient id="paint2_linear" x1="328.683" y1="263.665" x2="0" y2="263.665" gradientUnits="userSpaceOnUse">
<stop stop-color="#FE8464"/>
<stop offset="1" stop-color="#FE6E9A"/>
</linearGradient>
<linearGradient id="paint3_linear" x1="263.666" y1="99.3237" x2="263.666" y2="428.006" gradientUnits="userSpaceOnUse">
<stop stop-color="#FE8464"/>
<stop offset="1" stop-color="#FE6E9A"/>
</linearGradient>
<radialGradient id="paint4_radial" cx="0" cy="0" r="1" gradientUnits="userSpaceOnUse" gradientTransform="translate(214.003 214.003) scale(101.578)">
<stop stop-color="white"/>
<stop offset="0.5942" stop-color="#FDFDFD"/>
<stop offset="0.808" stop-color="#F6F6F6"/>
<stop offset="0.9601" stop-color="#EBEBEB"/>
<stop offset="1" stop-color="#E6E6E6"/>
</radialGradient>
<radialGradient id="paint5_radial" cx="0" cy="0" r="1" gradientUnits="userSpaceOnUse" gradientTransform="translate(82.4899 88.1385) scale(53.6834)">
<stop stop-color="white"/>
<stop offset="0.5942" stop-color="#FDFDFD"/>
<stop offset="0.808" stop-color="#F6F6F6"/>
<stop offset="0.9601" stop-color="#EBEBEB"/>
<stop offset="1" stop-color="#E6E6E6"/>
</radialGradient>
<radialGradient id="paint6_radial" cx="0" cy="0" r="1" gradientUnits="userSpaceOnUse" gradientTransform="translate(339.867 82.4899) scale(53.6833)">
<stop stop-color="white"/>
<stop offset="0.5942" stop-color="#FDFDFD"/>
<stop offset="0.808" stop-color="#F6F6F6"/>
<stop offset="0.9601" stop-color="#EBEBEB"/>
<stop offset="1" stop-color="#E6E6E6"/>
</radialGradient>
<radialGradient id="paint7_radial" cx="0" cy="0" r="1" gradientUnits="userSpaceOnUse" gradientTransform="translate(345.517 339.868) scale(53.6833)">
<stop stop-color="white"/>
<stop offset="0.5942" stop-color="#FDFDFD"/>
<stop offset="0.808" stop-color="#F6F6F6"/>
<stop offset="0.9601" stop-color="#EBEBEB"/>
<stop offset="1" stop-color="#E6E6E6"/>
</radialGradient>
<radialGradient id="paint8_radial" cx="0" cy="0" r="1" gradientUnits="userSpaceOnUse" gradientTransform="translate(88.1385 345.517) scale(53.6833)">
<stop stop-color="white"/>
<stop offset="0.5942" stop-color="#FDFDFD"/>
<stop offset="0.808" stop-color="#F6F6F6"/>
<stop offset="0.9601" stop-color="#EBEBEB"/>
<stop offset="1" stop-color="#E6E6E6"/>
</radialGradient>
<linearGradient id="paint9_linear" x1="119.923" y1="134.789" x2="138.358" y2="134.789" gradientUnits="userSpaceOnUse">
<stop stop-color="#FE8464"/>
<stop offset="1" stop-color="#FE6E9A"/>
</linearGradient>
<linearGradient id="paint10_linear" x1="284" y1="129.141" x2="302.434" y2="129.141" gradientUnits="userSpaceOnUse">
<stop stop-color="#FE8464"/>
<stop offset="1" stop-color="#FE6E9A"/>
</linearGradient>
<linearGradient id="paint11_linear" x1="289.649" y1="293.218" x2="308.083" y2="293.218" gradientUnits="userSpaceOnUse">
<stop stop-color="#FE8464"/>
<stop offset="1" stop-color="#FE6E9A"/>
</linearGradient>
<linearGradient id="paint12_linear" x1="125.572" y1="298.866" x2="144.006" y2="298.866" gradientUnits="userSpaceOnUse">
<stop stop-color="#FE8464"/>
<stop offset="1" stop-color="#FE6E9A"/>
</linearGradient>
<linearGradient id="paint13_linear" x1="327.733" y1="329.988" x2="363.3" y2="329.988" gradientUnits="userSpaceOnUse">
<stop stop-color="#FE8464"/>
<stop offset="1" stop-color="#FE6E9A"/>
</linearGradient>
<linearGradient id="paint14_linear" x1="331.346" y1="324.57" x2="348.851" y2="324.57" gradientUnits="userSpaceOnUse">
<stop stop-color="#FE8464"/>
<stop offset="1" stop-color="#FE6E9A"/>
</linearGradient>
<linearGradient id="paint15_linear" x1="334.763" y1="324.571" x2="345.434" y2="324.571" gradientUnits="userSpaceOnUse">
<stop stop-color="#FE8464"/>
<stop offset="1" stop-color="#FE6E9A"/>
</linearGradient>
<linearGradient id="paint16_linear" x1="331.094" y1="316.376" x2="332.483" y2="316.376" gradientUnits="userSpaceOnUse">
<stop stop-color="#FE8464"/>
<stop offset="1" stop-color="#FE6E9A"/>
</linearGradient>
<linearGradient id="paint17_linear" x1="322.26" y1="72.6106" x2="357.475" y2="72.6106" gradientUnits="userSpaceOnUse">
<stop stop-color="#FE8464"/>
<stop offset="1" stop-color="#FE6E9A"/>
</linearGradient>
<linearGradient id="paint18_linear" x1="343.401" y1="62.8454" x2="344.791" y2="62.8454" gradientUnits="userSpaceOnUse">
<stop stop-color="#FE8464"/>
<stop offset="1" stop-color="#FE6E9A"/>
</linearGradient>
<linearGradient id="paint19_linear" x1="63.1994" y1="78.2596" x2="101.78" y2="78.2596" gradientUnits="userSpaceOnUse">
<stop stop-color="#FE8464"/>
<stop offset="1" stop-color="#FE6E9A"/>
</linearGradient>
<linearGradient id="paint20_linear" x1="66.5146" y1="78.2593" x2="98.4642" y2="78.2593" gradientUnits="userSpaceOnUse">
<stop stop-color="#FE8464"/>
<stop offset="1" stop-color="#FE6E9A"/>
</linearGradient>
<linearGradient id="paint21_linear" x1="87.312" y1="71.1766" x2="94.8473" y2="71.1766" gradientUnits="userSpaceOnUse">
<stop stop-color="#FE8464"/>
<stop offset="1" stop-color="#FE6E9A"/>
</linearGradient>
<linearGradient id="paint22_linear" x1="90.3269" y1="78.2594" x2="91.834" y2="78.2594" gradientUnits="userSpaceOnUse">
<stop stop-color="#FE8464"/>
<stop offset="1" stop-color="#FE6E9A"/>
</linearGradient>
<linearGradient id="paint23_linear" x1="82.9177" y1="71.1762" x2="84.4247" y2="71.1762" gradientUnits="userSpaceOnUse">
<stop stop-color="#FE8464"/>
<stop offset="1" stop-color="#FE6E9A"/>
</linearGradient>
<linearGradient id="paint24_linear" x1="70.3956" y1="72.1182" x2="71.9026" y2="72.1182" gradientUnits="userSpaceOnUse">
<stop stop-color="#FE8464"/>
<stop offset="1" stop-color="#FE6E9A"/>
</linearGradient>
<linearGradient id="paint25_linear" x1="74.3266" y1="68.6145" x2="75.8337" y2="68.6145" gradientUnits="userSpaceOnUse">
<stop stop-color="#FE8464"/>
<stop offset="1" stop-color="#FE6E9A"/>
</linearGradient>
<linearGradient id="paint26_linear" x1="81.7359" y1="61.2295" x2="83.2429" y2="61.2295" gradientUnits="userSpaceOnUse">
<stop stop-color="#FE8464"/>
<stop offset="1" stop-color="#FE6E9A"/>
</linearGradient>
<linearGradient id="paint27_linear" x1="72.3318" y1="335.637" x2="103.946" y2="335.637" gradientUnits="userSpaceOnUse">
<stop stop-color="#FE8464"/>
<stop offset="1" stop-color="#FE6E9A"/>
</linearGradient>
<linearGradient id="paint28_linear" x1="168.689" y1="287.578" x2="167.524" y2="140.792" gradientUnits="userSpaceOnUse">
<stop stop-color="#FE8464"/>
<stop offset="1" stop-color="#FE6E9A"/>
</linearGradient>
<linearGradient id="paint29_linear" x1="186.68" y1="287.435" x2="185.515" y2="140.649" gradientUnits="userSpaceOnUse">
<stop stop-color="#FE8464"/>
<stop offset="1" stop-color="#FE6E9A"/>
</linearGradient>
<linearGradient id="paint30_linear" x1="214.219" y1="287.217" x2="213.054" y2="140.43" gradientUnits="userSpaceOnUse">
<stop stop-color="#FE8464"/>
<stop offset="1" stop-color="#FE6E9A"/>
</linearGradient>
<linearGradient id="paint31_linear" x1="259.323" y1="286.947" x2="260.488" y2="140.16" gradientUnits="userSpaceOnUse">
<stop stop-color="#FE8464"/>
<stop offset="1" stop-color="#FE6E9A"/>
</linearGradient>
<linearGradient id="paint32_linear" x1="241.332" y1="286.804" x2="242.497" y2="140.017" gradientUnits="userSpaceOnUse">
<stop stop-color="#FE8464"/>
<stop offset="1" stop-color="#FE6E9A"/>
</linearGradient>
<linearGradient id="paint33_linear" x1="214.912" y1="287.211" x2="213.747" y2="140.424" gradientUnits="userSpaceOnUse">
<stop stop-color="#FE8464"/>
<stop offset="1" stop-color="#FE6E9A"/>
</linearGradient>
<clipPath id="clip0">
<rect width="428" height="428" fill="white"/>
</clipPath>
</defs>
</svg>